<?xml version="1.0" encoding="UTF-8" standalone="no"?>
<svg
   xmlns:dc="http://purl.org/dc/elements/1.1/"
   xmlns:cc="http://creativecommons.org/ns#"
   xmlns:rdf="http://www.w3.org/1999/02/22-rdf-syntax-ns#"
   xmlns:svg="http://www.w3.org/2000/svg"
   xmlns="http://www.w3.org/2000/svg"
   xmlns:sodipodi="http://sodipodi.sourceforge.net/DTD/sodipodi-0.dtd"
   xmlns:inkscape="http://www.inkscape.org/namespaces/inkscape"
   stroke-dasharray="none"
   shape-rendering="auto"
   font-family="'Dialog'"
   width="598"
   text-rendering="auto"
   fill-opacity="1"
   contentScriptType="text/ecmascript"
   color-interpolation="auto"
   color-rendering="auto"
   preserveAspectRatio="xMidYMid meet"
   font-size="12"
   fill="black"
   stroke="black"
   image-rendering="auto"
   stroke-miterlimit="10"
   zoomAndPan="magnify"
   version="1.0"
   stroke-linecap="square"
   stroke-linejoin="miter"
   contentStyleType="text/css"
   font-style="normal"
   height="337"
   stroke-width="1"
   stroke-dashoffset="0"
   font-weight="normal"
   stroke-opacity="1"
   id="svg2"
   inkscape:version="0.47 r22583"
   sodipodi:docname="feynmanobjects.svg">
  <metadata
     id="metadata25">
    <rdf:RDF>
      <cc:Work
         rdf:about="">
        <dc:format>image/svg+xml</dc:format>
        <dc:type
           rdf:resource="http://purl.org/dc/dcmitype/StillImage" />
      </cc:Work>
    </rdf:RDF>
  </metadata>
  <sodipodi:namedview
     pagecolor="#ffffff"
     bordercolor="#666666"
     borderopacity="1"
     objecttolerance="10"
     gridtolerance="10"
     guidetolerance="10"
     inkscape:pageopacity="0"
     inkscape:pageshadow="2"
     inkscape:window-width="1680"
     inkscape:window-height="975"
     id="namedview23"
     showgrid="false"
     inkscape:zoom="2.1454006"
     inkscape:cx="215.5657"
     inkscape:cy="168.5"
     inkscape:window-x="0"
     inkscape:window-y="24"
     inkscape:window-maximized="1"
     inkscape:current-layer="svg2" />
  <!--Generated by jaxodraw-svg-plugin-1.0-0 with the Batik SVG Generator-->
  <defs
     id="genericDefs">
    <inkscape:perspective
       sodipodi:type="inkscape:persp3d"
       inkscape:vp_x="0 : 168.5 : 1"
       inkscape:vp_y="0 : 1000 : 0"
       inkscape:vp_z="598 : 168.5 : 1"
       inkscape:persp3d-origin="299 : 112.33333 : 1"
       id="perspective27" />
  </defs>
  <path
     d="m 8,45 c 4.1168,-10 5.5832,-10 9.7,0 4.1168,10 5.5832,10 9.7,0 4.1168,-10 5.5832,-10 9.7,0 4.1168,10 5.5832,10 9.7,0 4.1168,-10 5.5832,-10 9.7,0 4.1168,10 5.5832,10 9.7,0 4.1168,-10 5.5832,-10 9.7,0 4.1168,10 5.5832,10 9.7,0 4.1168,-10 5.5832,-10 9.7,0 4.1168,10 5.5832,10 9.7,0 4.1168,-10 5.5832,-10 9.7,0 4.1168,10 5.5832,10 9.7,0 4.1168,-10 5.5832,-10 9.7,0 4.1168,10 5.5832,10 9.7,0 4.1168,-10 5.5832,-10 9.7,0 4.1168,10 5.5832,10 9.7,0 4.1168,-10 5.5832,-10 9.7,0 4.1168,10 5.5832,10 9.7,0 4.1168,-10 5.5832,-10 9.7,0 4.1168,10 5.5832,10 9.7,0"
     id="path9"
     style="fill:none;stroke:#000000;stroke-opacity:1" />
  <path
     d="m 8,119 c 0.5706,-3.75 2.8529,-7.5 7.9882,-7.5 10.1736,0 10.1736,15 3.4236,15 -6.75,0 -6.75,-15 5.7058,-15 12.4559,0 12.4559,15 5.7059,15 -6.75,0 -6.75,-15 5.7059,-15 12.4559,0 12.4559,15 5.7059,15 -6.75,0 -6.75,-15 5.7059,-15 12.4559,0 12.4559,15 5.7059,15 -6.75,0 -6.75,-15 5.7058,-15 12.4559,0 12.4559,15 5.7059,15 -6.75,0 -6.75,-15 5.7059,-15 12.4559,0 12.4559,15 5.7059,15 -6.75,0 -6.75,-15 5.7059,-15 12.4559,0 12.4559,15 5.7059,15 -6.75,0 -6.75,-15 5.7058,-15 12.4559,0 12.4559,15 5.7059,15 -6.75,0 -6.75,-15 5.7059,-15 12.4559,0 12.4559,15 5.7059,15 -6.75,0 -6.75,-15 5.7059,-15 12.4558,0 12.4558,15 5.7058,15 -6.75,0 -6.75,-15 5.7059,-15 12.4559,0 12.4559,15 5.7059,15 -6.75,0 -6.75,-15 5.7059,-15 12.4559,0 12.4559,15 5.7059,15 -6.75,0 -6.75,-15 5.7059,-15 12.4558,0 12.4558,15 5.7058,15 -6.7499,0 -6.7499,-15 5.7059,-15 12.4559,0 12.4559,15 5.7059,15 -6.75,0 -6.75,-15 5.7059,-15 12.4559,0 12.4559,15 5.7059,15 -6.75,0 -6.75,-15 5.7059,-15 12.4558,0 12.4558,15 5.7058,15 -6.75,0 -6.75,-15 3.4236,-15 5.1353,0 7.4176,3.75 7.9882,7.5"
     id="path11"
     style="fill:none;stroke:#000000;stroke-opacity:1" />
  <path
     d="m 303,72 c 10.6807,2.5489 10.6414,2.5944 6.5648,-7.6015 -4.0205,-10.0556 -1.7004,-12.0452 7.6245,-6.5382 9.4549,5.5838 9.404,5.6157 8.5137,-5.3288 -0.8779,-10.7939 1.9256,-12.0112 9.2129,-4.0003 7.389,8.1226 7.3309,8.1381 9.7062,-2.5826 2.3426,-10.5732 5.3804,-10.9101 9.9827,-1.1071 4.6666,9.9397 4.6065,9.9374 10.0362,0.3931 5.355,-9.4129 8.3572,-8.8394 9.8655,1.8846 1.5295,10.8736 1.4728,10.8536 9.4745,3.3339 7.8916,-7.4164 10.5913,-5.9835 8.8717,4.7087 -1.7435,10.8413 -1.7918,10.8056 8.0709,5.9784 9.727,-4.7607 11.8844,-2.5958 7.0896,7.1145 -4.8616,9.8458 -4.8972,9.7974 5.9502,8.0918 10.6981,-1.6822 12.1215,1.0225 4.6776,8.8881 -7.5477,7.9754 -7.5675,7.9186 3.3007,9.4861 10.7187,1.5459 11.2817,4.55 1.85,9.8721 -9.5632,5.3962 -9.5653,5.3362 0.358,10.0375 9.7868,4.6366 9.4393,7.6732 -1.142,9.9787 -10.729,2.3378 -10.7133,2.2797 -2.6166,9.6972 7.9854,7.3153 6.7583,10.1145 -4.0325,9.1988 -10.9414,-0.9286 -10.9093,-0.9794 -5.3586,8.495 5.4743,9.3441 3.4766,11.6572 -6.5648,7.6015 -10.1816,-4.1123 -10.1359,-4.1514 -7.6245,6.5382 2.4769,10.5425 -0.1138,12.1641 -8.5137,5.3288 -8.5171,-6.9307 -8.462,-6.9546 -9.2129,4.0003 -0.7406,10.8043 -3.6942,11.5902 -9.7062,2.5826 -6.0959,-9.1332 -6.0361,-9.1398 -9.9827,1.1071 -3.8923,10.1059 -6.9463,9.9863 -10.0362,-0.3931 -3.133,-10.5243 -3.074,-10.513 -9.8655,-1.8846 -6.6982,8.5097 -9.5813,7.4952 -9.4745,-3.3339 0.1083,-10.9801 0.1614,-10.9519 -8.8718,-4.7087 -8.9088,6.1573 -11.3648,4.3381 -8.0708,-5.9784 3.3399,-10.4604 3.3824,-10.4178 -7.0896,-7.1145 -10.328,3.2578 -12.1386,0.7955 -5.9502,-8.0918 6.2748,-9.0112 6.3028,-8.958 -4.6776,-8.8881 -10.8294,0.0688 -11.8338,-2.8178 -3.3007,-9.4861 8.6521,-6.7613 8.6632,-6.7023 -1.85,-9.8721 -10.3685,-3.1261 -10.4775,-6.1806 -0.358,-10.0375 10.2607,-3.9107 10.2538,-3.8509 1.142,-9.9787 -8.9864,-6.0435 -8.1902,-8.9944 2.6166,-9.6972 10.9575,-0.7125 10.9333,-0.6575 4.0325,-9.1988 C 290.8356,72.0712 292.4662,69.4862 303,72"
     id="path13"
     style="fill:none;stroke:#000000;stroke-opacity:1" />
  <path
     d="m 555.6088,140.9199 c 4.8726,-3.5191 15.6042,8.5496 2.8749,16.0127 -12.7292,7.4632 -18.0198,-7.7955 -12.5692,-10.3289 5.4506,-2.5334 13.7042,11.3481 -0.2075,16.2674 -13.9117,4.9193 -16.2188,-11.0649 -10.3873,-12.521 5.8315,-1.4561 11.3089,13.7366 -3.2823,15.9342 -14.5914,2.1976 -13.8318,-13.9344 -7.8301,-14.2606 6.0017,-0.3261 8.5049,15.6286 -6.2385,15.0251 -14.7436,-0.6035 -10.9448,-16.3003 -4.9897,-15.4847 5.9549,0.8156 5.3934,16.9557 -8.9694,13.5729 -14.3628,-3.3829 -7.662,-18.0771 -1.969,-16.1492 5.693,1.9278 2.087,17.67 -11.376,11.6301 -13.463,-6.0399 -4.1024,-19.2004 1.1228,-16.23 5.2253,2.9705 -1.2947,17.7457 -13.3714,9.2671 -12.0767,-8.4787 -0.3946,-19.6298 4.1741,-15.7242 4.5687,3.9056 -4.6297,17.18 -14.8835,6.569 -10.2539,-10.6109 3.3274,-19.3497 7.0744,-14.6501 3.747,4.6997 -7.7973,15.9934 -15.8578,3.6336 -8.0604,-12.3598 6.9294,-18.3703 9.7192,-13.0465 2.7899,5.3239 -10.6832,14.2287 -16.2589,0.5668 -5.5756,-13.6618 10.2807,-16.7269 12.0126,-10.9713 1.7319,5.7557 -13.1829,11.9497 -16.0723,-2.5205 -2.8894,-14.4701 13.2605,-14.479 13.8718,-8.4996 0.6114,5.9794 -15.2062,9.2388 -15.3049,-5.5167 -0.0986,-14.7555 15.7611,-11.7078 15.2298,-5.7208 -0.5313,5.9871 -16.6799,6.1941 -13.9843,-8.3134 2.6956,-14.5075 17.692,-8.5134 16.0372,-2.7351 -1.6548,5.7783 -17.5507,2.9254 -12.1582,-10.8098 5.3924,-13.7351 18.9834,-5.0113 16.265,0.3494 -2.7184,5.3607 -17.7872,-0.4489 -9.8928,-12.9154 7.8944,-12.4664 19.5888,-1.3282 15.905,3.4212 -3.6839,4.7494 -17.3808,-3.807 -7.2698,-14.5541 10.1111,-10.7472 19.4862,2.403 14.9701,6.3694 -4.5161,3.9663 -16.3462,-7.0276 -4.384,-15.667 11.9622,-8.6394 18.6793,6.0474 13.4942,9.0874 -5.1852,3.04 -14.7209,-9.9941 -1.3398,-16.2135 13.3811,-6.2194 17.1972,9.4731 11.5305,11.4769 -5.6667,2.0039 -12.5635,-12.5994 1.7528,-16.174 14.3164,-3.5746 15.0936,12.5565 9.1502,13.4517 -5.9436,0.8952 -9.952,-14.7494 4.7821,-15.55 14.734,-0.8007 12.4445,15.1861 6.439,14.9403 -6.0056,-0.2459 -6.9808,-16.3663 7.6385,-14.3641 14.6194,2.0023 9.3457,17.2669 3.4952,15.8889 -5.8505,-1.3779 -3.7572,-17.3916 10.2189,-12.6588 13.9763,4.7328 5.909,18.7235 0.425,16.2632 -5.484,-2.4602 -0.3979,-17.7884 12.43,-10.4961 12.828,7.2923 2.2588,19.5034 -2.6605,16.0498 -4.9192,-3.4537 2.9757,-17.5423 14.1918,-7.9541 11.216,9.5883 -1.4731,19.5785 -5.6499,15.2563 -4.1768,-4.3223 6.2419,-16.6622 15.4406,-5.1246 9.1988,11.5377 -5.1517,18.9459 -8.435,13.9113 -3.2833,-5.0346 9.2823,-15.1797 16.1313,-2.1097 6.8492,13.07 -8.6441,17.6285 -10.9152,12.0635 -2.2712,-5.565 11.9873,-13.1487 16.2391,0.9813 4.2518,14.13 -11.8242,15.674 -13.0011,9.7798 -1.1769,-5.8943 14.2591,-10.6425 15.76,4.0368 1.5008,14.6793 -14.5768,13.153 -14.617,7.1426 -0.0402,-6.0105 16.0156,-7.7516 14.7112,6.9464 -1.3044,14.6981 -16.8026,10.1567 -15.7046,4.2473 1.098,-5.9095 17.1932,-4.5806 13.1307,9.605 -4.0624,14.1856 -18.4211,6.7932 -16.2246,1.1984 2.1966,-5.5949 17.7494,-1.244 11.0757,11.9164 -6.6736,13.1605 -19.3738,3.1842 -16.1581,-1.8938 3.2157,-5.078 17.664,2.1376 8.6203,13.7972 -9.0437,11.6596 -19.6264,-0.5398 -15.5078,-4.9175 4.1186,-4.3777 16.9403,5.4419 5.8534,15.1792 -11.0869,9.7374 -19.1696,-4.2443 -14.2969,-7.7635"
     id="path15"
     style="fill:none;stroke:#000000;stroke-opacity:1" />
  <path
     d="m 8,237 c -8.617,-6.5004 -7.8793,-8.8714 2.9046,-9.3355 10.8785,-0.4682 11.0559,-0.8887 3.8006,-9.008 -7.1921,-8.0487 -6.0083,-10.2315 4.6607,-8.5946 10.7626,1.6513 11.0182,1.2733 5.4761,-8.0993 -5.4938,-9.2912 -3.9091,-11.2029 6.2396,-7.5271 10.2378,3.7081 10.5618,3.3868 6.9435,-6.883 -3.5868,-10.1805 -1.6613,-11.7484 7.5814,-6.1734 9.3238,5.6239 9.704,5.3716 8.147,-5.4051 -1.5435,-10.6829 0.6496,-11.8475 8.635,-4.5852 8.0555,7.326 8.4775,7.1523 9.0409,-3.7217 0.5585,-10.7794 2.9359,-11.4963 9.3606,-2.8227 6.4811,8.7497 6.9287,8.6612 9.5911,-1.8969 2.6393,-10.4663 5.1107,-10.7083 9.7304,-0.953 4.6603,9.8409 5.1166,9.8409 9.7769,0 4.6198,-9.7553 7.0911,-9.5132 9.7304,0.953 2.6625,10.558 3.1101,10.6466 9.5912,1.8969 6.4247,-8.6736 8.8021,-7.9567 9.3606,2.8227 0.5634,10.874 0.9853,11.0477 9.0409,3.7217 7.9854,-7.2623 10.1785,-6.0977 8.635,4.5852 -1.557,10.7767 -1.1768,11.029 8.147,5.4051 9.2427,-5.575 11.1682,-4.0071 7.5814,6.1734 -3.6183,10.2698 -3.2943,10.5911 6.9435,6.883 10.1487,-3.6758 11.7334,-1.7641 6.2396,7.5271 -5.5421,9.3726 -5.2865,9.7506 5.4761,8.0993 10.6691,-1.6369 11.8527,0.5459 4.6607,8.5946 -7.2552,8.1193 -7.0779,8.5397 3.8006,9.008 10.7839,0.4641 11.5216,2.8351 2.9046,9.3355"
     id="path17"
     style="fill:none;stroke:#000000;stroke-opacity:1" />
  <path
     d="m 8,335 c -3.5783,-1.2758 -6.9163,-4.5157 -5.41,-10.0997 2.9055,-10.7714 17.246,-5.2378 15.4014,0.7298 -1.8446,5.9676 -17.1019,2.3741 -12.2507,-10.5022 4.8513,-12.8763 18.6867,-5.5088 16.135,0.1924 -2.5517,5.7012 -17.2635,0.2917 -10.8929,-11.9046 6.3706,-12.1962 19.2152,-3.212 15.9937,2.1394 -3.2214,5.3513 -17.1724,-1.7952 -9.3756,-13.1329 7.7967,-11.3377 19.4624,-0.8682 15.6183,4.055 -3.8441,4.9231 -16.83,-3.8556 -7.7212,-14.1689 9.1087,-10.3133 19.4248,1.4883 15.0143,5.9112 -4.4104,4.423 -16.2412,-5.8596 -5.9537,-14.9975 10.2874,-9.138 19.1029,3.823 14.1907,7.681 -4.9123,3.858 -15.4148,-7.7779 -4.0993,-15.6068 11.3156,-7.8288 18.5016,6.1018 13.1594,9.3384 -5.3422,3.2367 -14.3628,-9.5824 -2.1846,-15.9875 12.1781,-6.4052 17.6293,8.2912 11.9354,10.8591 -5.6939,2.5678 -13.1006,-11.2467 -0.2381,-16.1344 12.8625,-4.8877 16.4991,10.3594 10.5368,12.2209 -5.9623,1.8615 -11.6467,-12.7463 1.7119,-16.0451 13.3586,-3.2988 15.1275,12.2759 8.984,13.4038 -6.1435,1.1279 -10.0223,-14.0594 3.6369,-15.7209 13.6591,-1.6615 13.5344,14.0128 7.2997,14.3906 -6.2348,0.3778 -8.2513,-15.1668 5.5086,-15.1668 13.7598,0 11.7433,15.5446 5.5086,15.1668 -6.2348,-0.3778 -6.3594,-16.0522 7.2997,-14.3906 13.6592,1.6615 9.7804,16.8488 3.6369,15.7209 -6.1435,-1.1279 -4.3746,-16.7026 8.984,-13.4038 13.3586,3.2988 7.6742,17.9066 1.7119,16.0451 -5.9624,-1.8615 -2.3257,-17.1086 10.5368,-12.2209 12.8625,4.8877 5.4558,18.7022 -0.2381,16.1344 -5.694,-2.5679 -0.2427,-17.2643 11.9354,-10.8591 12.1782,6.4051 3.1575,19.2241 -2.1846,15.9875 -5.3422,-3.2366 1.8437,-17.1672 13.1593,-9.3384 11.3156,7.8289 0.8131,19.4648 -4.0992,15.6068 -4.9123,-3.858 3.9033,-16.819 14.1907,-7.681 10.2875,9.1379 -1.5433,19.4205 -5.9538,14.9975 -4.4104,-4.4229 5.9057,-16.2245 15.0144,-5.9112 9.1088,10.3133 -3.8771,19.092 -7.7212,14.1688 -3.8441,-4.9231 7.8216,-15.3927 15.6183,-4.0549 7.7968,11.3377 -6.1542,18.4842 -9.3756,13.1328 -3.2215,-5.3513 9.623,-14.3356 15.9937,-2.1393 6.3706,12.1962 -8.3412,17.6058 -10.8929,11.9046 -2.5517,-5.7012 11.2837,-13.0687 16.135,-0.1924 4.8512,12.8763 -10.4062,16.4698 -12.2508,10.5021 -1.8446,-5.9676 12.496,-11.5012 15.4015,-0.7298 1.5063,5.584 -1.8317,8.824 -5.41,10.0998"
     id="path19"
     style="fill:none;stroke:#000000;stroke-opacity:1" />
  <path
     d="M 8,12 12.85,2 17.7,12 22.55,22 27.4,12 32.25,2 37.1,12 41.95,22 46.8,12 51.65,2 56.5,12 61.35,22 66.2,12 71.05,2 75.9,12 80.75,22 85.6,12 90.45,2 l 4.85,10 4.85,10 4.85,-10 4.85,-10 4.85,10 4.85,10 4.85,-10 4.85,-10 4.85,10 4.85,10 4.85,-10 4.85,-10 4.85,10 4.85,10 4.85,-10 4.85,-10 4.85,10 4.85,10 4.85,-10 4.85,-10 4.85,10 4.85,10 4.85,-10"
     id="path21"
     style="fill:none;stroke:#000000;stroke-opacity:1" />
</svg>
