<?xml version="1.0" encoding="UTF-8" standalone="no"?>
<!-- Created with Inkscape (http://www.inkscape.org/) -->
<svg
   xmlns:ns0="http://www.iki.fi/pav/software/textext"
   xmlns:dc="http://purl.org/dc/elements/1.1/"
   xmlns:cc="http://creativecommons.org/ns#"
   xmlns:rdf="http://www.w3.org/1999/02/22-rdf-syntax-ns#"
   xmlns:svg="http://www.w3.org/2000/svg"
   xmlns="http://www.w3.org/2000/svg"
   xmlns:sodipodi="http://sodipodi.sourceforge.net/DTD/sodipodi-0.dtd"
   xmlns:inkscape="http://www.inkscape.org/namespaces/inkscape"
   width="410.40558"
   height="240.556"
   id="svg2"
   sodipodi:version="0.32"
   inkscape:version="0.46"
   sodipodi:docname="muon_decay.svg"
   inkscape:output_extension="org.inkscape.output.svg.inkscape"
   version="1.0">
  <sodipodi:namedview
     id="base"
     pagecolor="#ffffff"
     bordercolor="#666666"
     borderopacity="1.0"
     gridtolerance="10000"
     guidetolerance="10"
     objecttolerance="10"
     inkscape:pageopacity="0.0"
     inkscape:pageshadow="2"
     inkscape:zoom="1.8360629"
     inkscape:cx="320.7951"
     inkscape:cy="134.77499"
     inkscape:document-units="px"
     inkscape:current-layer="layer2"
     showgrid="false"
     inkscape:window-width="1279"
     inkscape:window-height="947"
     inkscape:window-x="1"
     inkscape:window-y="49" />
  <defs
     id="defs4">
    <marker
       inkscape:stockid="Arrow1Lstart"
       orient="auto"
       refY="0"
       refX="0"
       id="Arrow1Lstart"
       style="overflow:visible">
      <path
         id="path3841"
         d="M 0,0 L 5,-5 L -12.5,0 L 5,5 L 0,0 z"
         style="fill-rule:evenodd;stroke:#000000;stroke-width:1pt;marker-start:none"
         transform="matrix(0.8,0,0,0.8,10,0)" />
    </marker>
    <marker
       inkscape:stockid="Arrow1Lend"
       orient="auto"
       refY="0"
       refX="0"
       id="Arrow1Lend"
       style="overflow:visible">
      <path
         id="path3844"
         d="M 0,0 L 5,-5 L -12.5,0 L 5,5 L 0,0 z"
         style="fill-rule:evenodd;stroke:#000000;stroke-width:1pt;marker-start:none"
         transform="matrix(-0.8,0,0,-0.8,-10,0)" />
    </marker>
    <inkscape:perspective
       sodipodi:type="inkscape:persp3d"
       inkscape:vp_x="0 : 526.18109 : 1"
       inkscape:vp_y="0 : 1000 : 0"
       inkscape:vp_z="744.09448 : 526.18109 : 1"
       inkscape:persp3d-origin="372.04724 : 350.78739 : 1"
       id="perspective10" />
  </defs>
  <metadata
     id="metadata7">
    <rdf:RDF>
      <cc:Work
         rdf:about="">
        <dc:format>image/svg+xml</dc:format>
        <dc:type
           rdf:resource="http://purl.org/dc/dcmitype/StillImage" />
      </cc:Work>
    </rdf:RDF>
  </metadata>
  <g
     transform="translate(-37.48923,-31.8382)"
     style="display:inline"
     inkscape:label="Labels"
     inkscape:groupmode="layer"
     id="layer1">
    <g
       style="font-style:normal;font-variant:normal;font-weight:normal;font-stretch:normal;letter-spacing:normal;word-spacing:normal;text-anchor:start;fill:none;fill-opacity:1;stroke:#000000;stroke-linecap:butt;stroke-linejoin:miter;stroke-miterlimit:10.43299961;stroke-dasharray:none;stroke-dashoffset:0;stroke-opacity:1"
       word-spacing="normal"
       letter-spacing="normal"
       font-size-adjust="none"
       font-stretch="normal"
       font-weight="normal"
       font-variant="normal"
       font-style="normal"
       fill-rule="even-odd"
       stroke-miterlimit="10.433"
       xml:space="preserve"
       transform="matrix(0.9852427,-0.7701062,-0.5997556,-0.767303,340.86616,871.50795)"
       id="g8307">
<polyline
   style="fill:#ffffff;fill-rule:nonzero;stroke:#ffffff;stroke-width:0"
   id="polyline8262"
   points="276,569 318.6,569 318.6,719.48 276,719.48 " />
<path
   style="stroke-width:0.5"
   id="path8264"
   d="M 298.88,716.88 C 308.88,712.48 308.88,710.92 298.88,706.52" />
<path
   style="stroke-width:0.5"
   id="path8266"
   d="M 298.88,706.52 C 288.88,702.13 288.88,700.56 298.88,696.16" />
<path
   style="stroke-width:0.5"
   id="path8268"
   d="M 298.88,696.16 C 308.88,691.77 308.88,690.2 298.88,685.81" />
<path
   style="stroke-width:0.5"
   id="path8270"
   d="M 298.88,685.81 C 288.88,681.41 288.88,679.85 298.88,675.45" />
<path
   style="stroke-width:0.5"
   id="path8272"
   d="M 298.88,675.45 C 308.88,671.05 308.88,669.49 298.88,665.09" />
<path
   style="stroke-width:0.5"
   id="path8274"
   d="M 298.88,665.09 C 288.88,660.7 288.88,659.13 298.88,654.74" />
<path
   style="stroke-width:0.5"
   id="path8276"
   d="M 298.88,654.74 C 308.88,650.34 308.88,648.78 298.88,644.38" />
<path
   style="stroke-width:0.5"
   id="path8278"
   d="M 298.88,644.38 C 288.88,639.98 288.88,638.42 298.88,634.02" />
<path
   style="stroke-width:0.5"
   id="path8280"
   d="M 298.88,634.02 C 308.88,629.63 308.88,628.06 298.88,623.66" />
<path
   style="stroke-width:0.5"
   id="path8282"
   d="M 298.88,623.66 C 288.88,619.27 288.88,617.7 298.88,613.31" />
<path
   style="stroke-width:0.5"
   id="path8284"
   d="M 298.88,613.31 C 308.88,608.91 308.88,607.35 298.88,602.95" />
<path
   style="stroke-width:0.5"
   id="path8286"
   d="M 298.88,602.95 C 288.88,598.55 288.88,596.99 298.88,592.59" />
<path
   style="stroke-width:0.5"
   id="path8288"
   d="M 298.88,592.59 C 308.88,588.2 308.88,586.63 298.88,582.24" />
<path
   style="stroke-width:0.5"
   id="path8290"
   d="M 298.88,582.24 C 288.88,577.84 288.88,576.28 298.88,571.88" />
<polyline
   style="fill:#ffffff;fill-rule:nonzero;stroke:#ffffff;stroke-width:0"
   id="polyline8292"
   points="276,720 319.32,720 319.32,720.48 276,720.48 " />
<polyline
   style="fill:#ffffff;fill-rule:nonzero;stroke:#ffffff;stroke-width:0"
   id="polyline8294"
   points="276,569 276.48,569 276.48,719.84 276,719.84 " />
<polyline
   style="fill:#ffffff;fill-rule:nonzero;stroke:#ffffff;stroke-width:0"
   id="polyline8296"
   points="319,569 319.48,569 319.48,719.84 319,719.84 " />
<polyline
   style="fill:#ffffff;fill-rule:nonzero;stroke:#ffffff;stroke-width:0"
   id="polyline8298"
   points="276,569 319.32,569 319.32,569.48 276,569.48 " />
</g>    <g
       ns0:preamble=""
       ns0:text="$\\mu^-$\\hspace{3cm}$\\nu_\\mu$"
       word-spacing="normal"
       letter-spacing="normal"
       font-size-adjust="none"
       font-stretch="normal"
       font-weight="normal"
       font-variant="normal"
       font-style="normal"
       fill-rule="even-odd"
       stroke-miterlimit="10.433"
       transform="matrix(3,0,0,-3,-633.70077,2169.8182)"
       id="content"
       xml:space="preserve"
       style="font-style:normal;font-variant:normal;font-weight:normal;font-stretch:normal;letter-spacing:normal;word-spacing:normal;text-anchor:start;fill:none;fill-opacity:1;stroke:#000000;stroke-linecap:butt;stroke-linejoin:miter;stroke-miterlimit:10.43299961;stroke-dasharray:none;stroke-dashoffset:0;stroke-opacity:1">
<path
   id="path2620"
   d="M 225.73,710.62 L 225.74,710.64 L 225.74,710.66 L 225.75,710.68 L 225.75,710.7 L 225.76,710.73 L 225.77,710.75 L 225.78,710.8 L 225.79,710.85 L 225.8,710.9 L 225.82,710.95 L 225.83,711 L 225.83,711.02 L 225.84,711.04 L 225.84,711.07 L 225.85,711.09 L 225.85,711.11 L 225.86,711.13 L 225.86,711.15 L 225.87,711.17 L 225.87,711.18 L 225.87,711.2 L 225.88,711.21 L 225.88,711.22 L 225.88,711.23 L 225.88,711.24 L 225.88,711.25 L 225.88,711.25 L 225.88,711.26 C 225.88,711.43 225.76,711.53 225.59,711.53 C 225.56,711.53 225.29,711.52 225.2,711.17 L 223.76,705.4 C 223.73,705.28 223.73,705.26 223.73,705.24 C 223.73,705.09 223.84,704.97 224.01,704.97 C 224.22,704.97 224.34,705.15 224.36,705.18 C 224.4,705.27 224.53,705.79 224.91,707.32 C 225.23,707.05 225.67,707.01 225.87,707.01 C 226.57,707.01 226.96,707.46 227.2,707.74 C 227.29,707.29 227.66,707.01 228.1,707.01 C 228.44,707.01 228.67,707.24 228.83,707.56 C 229,707.92 229.13,708.53 229.13,708.55 C 229.13,708.65 229.04,708.65 229.01,708.65 C 228.91,708.65 228.9,708.61 228.87,708.47 C 228.7,707.82 228.52,707.23 228.12,707.23 C 227.85,707.23 227.82,707.49 227.82,707.69 C 227.82,707.91 227.94,708.38 228.01,708.73 C 228.1,709.09 228.21,709.44 228.29,709.8 C 228.32,709.95 228.42,710.33 228.46,710.48 C 228.51,710.71 228.61,711.09 228.61,711.15 C 228.61,711.33 228.47,711.42 228.32,711.42 C 228.27,711.42 228.01,711.41 227.94,711.07 C 227.81,710.57 227.62,709.82 227.47,709.21 C 227.35,708.71 227.24,708.29 227.21,708.19 C 227.2,708.14 226.72,707.23 225.91,707.23 C 225.41,707.23 225.18,707.56 225.18,708.1 C 225.18,708.39 225.25,708.67 225.32,708.95 L 225.73,710.62 z"
   style="fill:#000000;stroke-width:0" />
<path
   id="path2622"
   d="M 234.64,712.31 L 234.65,712.31 L 234.66,712.31 L 234.67,712.31 L 234.68,712.31 L 234.69,712.31 L 234.7,712.32 L 234.71,712.32 L 234.72,712.32 L 234.73,712.32 L 234.74,712.32 L 234.75,712.32 L 234.76,712.32 L 234.77,712.33 L 234.78,712.33 L 234.8,712.33 L 234.81,712.33 L 234.81,712.34 L 234.82,712.34 L 234.83,712.35 L 234.84,712.35 L 234.85,712.36 L 234.86,712.37 L 234.87,712.38 L 234.87,712.38 L 234.87,712.38 L 234.88,712.39 L 234.88,712.39 L 234.88,712.4 L 234.88,712.4 L 234.89,712.41 L 234.89,712.41 L 234.89,712.42 L 234.89,712.43 L 234.89,712.43 L 234.9,712.44 L 234.9,712.44 L 234.9,712.45 L 234.9,712.46 L 234.9,712.47 L 234.9,712.47 L 234.9,712.48 C 234.9,712.66 234.74,712.66 234.64,712.66 L 230.44,712.66 C 230.35,712.66 230.19,712.66 230.19,712.48 C 230.19,712.31 230.35,712.31 230.44,712.31 L 234.64,712.31 z"
   style="fill:#000000;stroke-width:0" />
<path
   id="path2624"
   d="M 323.43,711.42 L 323.43,711.42 L 323.43,711.42 L 323.43,711.42 L 323.43,711.42 L 323.43,711.42 L 323.43,711.43 L 323.43,711.43 L 323.43,711.43 L 323.43,711.44 L 323.43,711.44 L 323.43,711.45 L 323.43,711.45 L 323.43,711.46 L 323.43,711.46 L 323.42,711.46 L 323.42,711.47 L 323.42,711.47 L 323.41,711.48 L 323.41,711.48 L 323.41,711.49 L 323.4,711.49 L 323.4,711.5 L 323.4,711.5 L 323.39,711.5 L 323.39,711.5 L 323.39,711.5 L 323.39,711.51 L 323.38,711.51 L 323.38,711.51 L 323.38,711.51 L 323.37,711.51 L 323.37,711.52 L 323.36,711.52 L 323.36,711.52 L 323.36,711.52 L 323.35,711.52 L 323.35,711.52 L 323.34,711.52 L 323.34,711.52 L 323.33,711.52 L 323.33,711.52 L 323.32,711.53 L 323.32,711.53 L 323.31,711.53 L 323.3,711.53 C 323.08,711.53 322.35,711.45 322.09,711.43 C 322.01,711.42 321.9,711.41 321.9,711.23 C 321.9,711.11 321.99,711.11 322.14,711.11 C 322.62,711.11 322.64,711.04 322.64,710.94 C 322.64,710.87 322.52,710.4 322.45,710.13 L 321.84,707.69 C 321.8,707.54 321.73,707.26 321.73,707.24 C 321.73,707.13 321.83,707.12 321.89,707.12 L 322.03,707.12 C 322.73,707.24 323.81,707.63 324.84,708.59 C 326.15,709.81 326.42,711.17 326.42,711.26 C 326.42,711.43 326.3,711.53 326.13,711.53 C 326.05,711.53 325.83,711.49 325.74,711.2 C 325.11,708.94 323.59,707.82 322.46,707.45 L 323.43,711.42 z"
   style="fill:#000000;stroke-width:0" />
<path
   id="path2626"
   d="M 326.5,704.51 L 326.5,704.5 L 326.49,704.49 L 326.49,704.48 L 326.49,704.47 L 326.49,704.46 L 326.49,704.46 L 326.48,704.45 L 326.48,704.44 L 326.48,704.43 L 326.48,704.43 L 326.48,704.42 L 326.48,704.42 L 326.48,704.41 L 326.48,704.41 L 326.48,704.4 L 326.47,704.4 L 326.47,704.39 L 326.47,704.39 L 326.47,704.39 L 326.47,704.38 L 326.47,704.38 L 326.47,704.38 L 326.47,704.37 L 326.47,704.37 L 326.47,704.37 L 326.47,704.37 L 326.47,704.37 L 326.47,704.37 L 326.47,704.36 L 326.47,704.36 L 326.47,704.36 L 326.47,704.36 C 326.47,704.21 326.6,704.14 326.71,704.14 C 326.96,704.14 327.02,704.37 327.04,704.49 C 327.06,704.52 327.2,705.08 327.36,705.76 C 327.58,705.62 327.86,705.56 328.11,705.56 C 328.71,705.56 329.1,706.05 329.11,706.06 C 329.25,705.58 329.73,705.56 329.83,705.56 C 330.08,705.56 330.26,705.71 330.38,705.93 C 330.54,706.2 330.63,706.6 330.63,706.63 C 330.63,706.72 330.54,706.72 330.52,706.72 C 330.42,706.72 330.41,706.69 330.36,706.5 C 330.28,706.17 330.15,705.76 329.85,705.76 C 329.67,705.76 329.62,705.91 329.62,706.1 C 329.62,706.22 329.68,706.47 329.73,706.65 C 329.78,706.84 329.85,707.12 329.88,707.28 L 330.04,707.9 C 330.08,708.07 330.16,708.38 330.16,708.41 C 330.16,708.55 330.05,708.64 329.93,708.64 C 329.85,708.64 329.72,708.6 329.64,708.47 C 329.62,708.43 329.57,708.2 329.53,708.06 L 329.39,707.48 C 329.29,707.08 329.26,706.98 329.17,706.61 C 329.12,706.44 329.12,706.42 329.06,706.33 C 328.84,706.03 328.54,705.76 328.14,705.76 C 327.57,705.76 327.57,706.25 327.57,706.38 C 327.57,706.56 327.59,706.65 327.68,707.03 C 327.75,707.33 327.77,707.38 327.84,707.65 L 327.94,708.04 C 327.97,708.19 328.04,708.45 328.04,708.48 C 328.04,708.61 327.94,708.71 327.8,708.71 C 327.55,708.71 327.49,708.46 327.47,708.38 L 326.5,704.51 z"
   style="fill:#000000;stroke-width:0" />
</g>    <g
       style="font-style:normal;font-variant:normal;font-weight:normal;font-stretch:normal;letter-spacing:normal;word-spacing:normal;text-anchor:start;fill:none;fill-opacity:1;stroke:#000000;stroke-linecap:butt;stroke-linejoin:miter;stroke-miterlimit:10.43299961;stroke-dasharray:none;stroke-dashoffset:0;stroke-opacity:1"
       xml:space="preserve"
       id="g2752"
       transform="matrix(3,0,0,-3,-411.32774,2263.7062)"
       stroke-miterlimit="10.433"
       fill-rule="even-odd"
       font-style="normal"
       font-variant="normal"
       font-weight="normal"
       font-stretch="normal"
       font-size-adjust="none"
       letter-spacing="normal"
       word-spacing="normal"
       ns0:text="$W$"
       ns0:preamble="">
<path
   style="fill:#000000;stroke-width:0"
   d="M 232.57,712.77 L 232.61,712.85 L 232.66,712.93 L 232.71,713.01 L 232.76,713.08 L 232.78,713.12 L 232.81,713.15 L 232.84,713.19 L 232.86,713.22 L 232.89,713.25 L 232.92,713.28 L 232.95,713.31 L 232.98,713.34 L 233.02,713.37 L 233.05,713.39 L 233.08,713.42 L 233.12,713.44 L 233.16,713.47 L 233.2,713.49 L 233.24,713.51 L 233.28,713.53 L 233.32,713.54 L 233.37,713.56 L 233.42,713.57 L 233.47,713.59 L 233.52,713.6 L 233.57,713.61 L 233.63,713.61 L 233.68,713.62 C 233.77,713.63 233.87,713.63 233.87,713.82 C 233.87,713.86 233.83,713.93 233.75,713.93 C 233.51,713.93 233.24,713.9 232.99,713.9 C 232.65,713.9 232.28,713.93 231.95,713.93 C 231.89,713.93 231.76,713.93 231.76,713.74 C 231.76,713.63 231.85,713.62 231.91,713.62 C 232.15,713.61 232.5,713.53 232.5,713.23 C 232.5,713.12 232.45,713.04 232.37,712.9 L 229.68,708.21 L 229.31,713.15 C 229.3,713.35 229.28,713.61 230.01,713.62 C 230.18,713.62 230.28,713.62 230.28,713.82 C 230.28,713.92 230.17,713.93 230.13,713.93 C 229.73,713.93 229.31,713.9 228.91,713.9 C 228.68,713.9 228.1,713.93 227.87,713.93 C 227.81,713.93 227.68,713.93 227.68,713.73 C 227.68,713.62 227.78,713.62 227.92,713.62 C 228.35,713.62 228.42,713.56 228.44,713.37 L 228.5,712.6 L 225.98,708.21 L 225.6,713.26 C 225.6,713.38 225.6,713.61 226.36,713.62 C 226.46,713.62 226.57,713.62 226.57,713.82 C 226.57,713.93 226.45,713.93 226.43,713.93 C 226.03,713.93 225.61,713.9 225.21,713.9 C 224.86,713.9 224.5,713.93 224.16,713.93 C 224.11,713.93 223.98,713.93 223.98,713.74 C 223.98,713.62 224.07,713.62 224.23,713.62 C 224.73,713.62 224.74,713.53 224.76,713.25 L 225.21,707.16 C 225.22,706.98 225.23,706.9 225.37,706.9 C 225.49,706.9 225.51,706.96 225.6,707.11 L 228.53,712.19 L 228.9,707.16 C 228.92,706.95 228.94,706.9 229.06,706.9 C 229.19,706.9 229.25,707 229.3,707.09 L 232.57,712.77 z"
   id="path2754" />
</g>    <g
       ns0:preamble=""
       ns0:text="$\\mu$"
       word-spacing="normal"
       letter-spacing="normal"
       font-size-adjust="none"
       font-stretch="normal"
       font-weight="normal"
       font-variant="normal"
       font-style="normal"
       fill-rule="even-odd"
       stroke-miterlimit="10.433"
       transform="matrix(3,0,0,-3,-473.98677,2199.9078)"
       id="g2874"
       xml:space="preserve"
       style="font-style:normal;font-variant:normal;font-weight:normal;font-stretch:normal;letter-spacing:normal;word-spacing:normal;text-anchor:start;fill:none;fill-opacity:1;stroke:#000000;stroke-linecap:butt;stroke-linejoin:miter;stroke-miterlimit:10.43299961;stroke-dasharray:none;stroke-dashoffset:0;stroke-opacity:1">
<path
   id="path2876"
   d="M 225.73,710.62 L 225.74,710.64 L 225.74,710.66 L 225.75,710.68 L 225.75,710.7 L 225.76,710.73 L 225.77,710.75 L 225.78,710.8 L 225.79,710.85 L 225.8,710.9 L 225.82,710.95 L 225.83,711 L 225.83,711.02 L 225.84,711.04 L 225.84,711.07 L 225.85,711.09 L 225.85,711.11 L 225.86,711.13 L 225.86,711.15 L 225.87,711.17 L 225.87,711.18 L 225.87,711.2 L 225.88,711.21 L 225.88,711.22 L 225.88,711.23 L 225.88,711.24 L 225.88,711.25 L 225.88,711.25 L 225.88,711.26 C 225.88,711.43 225.76,711.53 225.59,711.53 C 225.56,711.53 225.29,711.52 225.2,711.17 L 223.76,705.4 C 223.73,705.28 223.73,705.26 223.73,705.24 C 223.73,705.09 223.84,704.97 224.01,704.97 C 224.22,704.97 224.34,705.15 224.36,705.18 C 224.4,705.27 224.53,705.79 224.91,707.32 C 225.23,707.05 225.67,707.01 225.87,707.01 C 226.57,707.01 226.96,707.46 227.2,707.74 C 227.29,707.29 227.66,707.01 228.1,707.01 C 228.44,707.01 228.67,707.24 228.83,707.56 C 229,707.92 229.13,708.53 229.13,708.55 C 229.13,708.65 229.04,708.65 229.01,708.65 C 228.91,708.65 228.9,708.61 228.87,708.47 C 228.7,707.82 228.52,707.23 228.12,707.23 C 227.85,707.23 227.82,707.49 227.82,707.69 C 227.82,707.91 227.94,708.38 228.01,708.73 C 228.1,709.09 228.21,709.44 228.29,709.8 C 228.32,709.95 228.42,710.33 228.46,710.48 C 228.51,710.71 228.61,711.09 228.61,711.15 C 228.61,711.33 228.47,711.42 228.32,711.42 C 228.27,711.42 228.01,711.41 227.94,711.07 C 227.81,710.57 227.62,709.82 227.47,709.21 C 227.35,708.71 227.24,708.29 227.21,708.19 C 227.2,708.14 226.72,707.23 225.91,707.23 C 225.41,707.23 225.18,707.56 225.18,708.1 C 225.18,708.39 225.25,708.67 225.32,708.95 L 225.73,710.62 z"
   style="fill:#000000;stroke-width:0" />
</g>    <g
       style="font-style:normal;font-variant:normal;font-weight:normal;font-stretch:normal;letter-spacing:normal;word-spacing:normal;text-anchor:start;fill:none;fill-opacity:1;stroke:#000000;stroke-linecap:butt;stroke-linejoin:miter;stroke-miterlimit:10.43299961;stroke-dasharray:none;stroke-dashoffset:0;stroke-opacity:1"
       xml:space="preserve"
       id="g3002"
       transform="matrix(3,0,0,-3,-401.55292,2341.2756)"
       stroke-miterlimit="10.433"
       fill-rule="even-odd"
       font-style="normal"
       font-variant="normal"
       font-weight="normal"
       font-stretch="normal"
       font-size-adjust="none"
       letter-spacing="normal"
       word-spacing="normal"
       ns0:text="$\\nu$"
       ns0:preamble="">
<path
   style="fill:#000000;stroke-width:0"
   d="M 225.66,711.42 L 225.66,711.42 L 225.66,711.42 L 225.66,711.42 L 225.66,711.42 L 225.66,711.42 L 225.66,711.43 L 225.66,711.43 L 225.66,711.43 L 225.66,711.44 L 225.66,711.44 L 225.66,711.45 L 225.66,711.45 L 225.66,711.46 L 225.66,711.46 L 225.65,711.46 L 225.65,711.47 L 225.65,711.47 L 225.64,711.48 L 225.64,711.48 L 225.64,711.49 L 225.63,711.49 L 225.63,711.5 L 225.63,711.5 L 225.62,711.5 L 225.62,711.5 L 225.62,711.5 L 225.62,711.51 L 225.61,711.51 L 225.61,711.51 L 225.61,711.51 L 225.6,711.51 L 225.6,711.52 L 225.59,711.52 L 225.59,711.52 L 225.59,711.52 L 225.58,711.52 L 225.58,711.52 L 225.57,711.52 L 225.57,711.52 L 225.56,711.52 L 225.56,711.52 L 225.55,711.53 L 225.55,711.53 L 225.54,711.53 L 225.54,711.53 C 225.3,711.53 224.58,711.45 224.32,711.43 C 224.24,711.42 224.13,711.41 224.13,711.23 C 224.13,711.11 224.22,711.11 224.37,711.11 C 224.85,711.11 224.87,711.04 224.87,710.94 C 224.87,710.87 224.75,710.4 224.68,710.13 L 224.07,707.69 C 224.03,707.54 223.96,707.26 223.96,707.24 C 223.96,707.13 224.06,707.12 224.12,707.12 L 224.26,707.12 C 224.96,707.24 226.04,707.63 227.07,708.59 C 228.38,709.81 228.65,711.17 228.65,711.26 C 228.65,711.43 228.53,711.53 228.36,711.53 C 228.28,711.53 228.05,711.49 227.98,711.2 C 227.34,708.94 225.82,707.82 224.69,707.45 L 225.66,711.42 z"
   id="path3004" />
</g>    <g
       ns0:preamble=""
       ns0:text="$e^-$"
       word-spacing="normal"
       letter-spacing="normal"
       font-size-adjust="none"
       font-stretch="normal"
       font-weight="normal"
       font-variant="normal"
       font-style="normal"
       fill-rule="even-odd"
       stroke-miterlimit="10.433"
       transform="matrix(3,0,0,-3,-252.7252,2266.074)"
       id="g3134"
       xml:space="preserve"
       style="font-style:normal;font-variant:normal;font-weight:normal;font-stretch:normal;letter-spacing:normal;word-spacing:normal;text-anchor:start;fill:none;fill-opacity:1;stroke:#000000;stroke-linecap:butt;stroke-linejoin:miter;stroke-miterlimit:10.43299961;stroke-dasharray:none;stroke-dashoffset:0;stroke-opacity:1">
<path
   id="path3136"
   d="M 225.3,709.42 L 225.32,709.42 L 225.36,709.42 L 225.39,709.42 L 225.42,709.43 L 225.46,709.43 L 225.5,709.43 L 225.54,709.43 L 225.59,709.43 L 225.63,709.43 L 225.68,709.44 L 225.72,709.44 L 225.77,709.44 L 225.82,709.45 L 225.87,709.45 L 225.98,709.46 L 226.09,709.47 L 226.19,709.49 L 226.3,709.51 L 226.41,709.53 L 226.52,709.55 L 226.57,709.57 L 226.62,709.58 L 226.67,709.6 L 226.72,709.62 L 226.77,709.63 L 226.82,709.65 C 227.52,709.95 227.57,710.54 227.57,710.68 C 227.57,711.12 227.19,711.53 226.5,711.53 L 226.5,711.31 C 226.97,711.31 227.24,711.02 227.24,710.68 C 227.24,709.64 225.64,709.64 225.24,709.64 L 224.83,709.64 C 225.22,711.16 226.24,711.31 226.5,711.31 L 226.5,711.53 C 225.4,711.53 223.89,710.56 223.89,708.82 C 223.89,707.8 224.48,707.01 225.46,707.01 C 226.88,707.01 227.72,708.07 227.72,708.19 C 227.72,708.25 227.66,708.32 227.6,708.32 C 227.55,708.32 227.53,708.3 227.47,708.22 C 226.68,707.23 225.59,707.23 225.48,707.23 C 224.7,707.23 224.61,708.07 224.61,708.39 C 224.61,708.51 224.62,708.82 224.77,709.42 L 225.3,709.42 z"
   style="fill:#000000;stroke-width:0" />
<path
   id="path3138"
   d="M 233.28,712.31 L 233.29,712.31 L 233.29,712.31 L 233.3,712.31 L 233.31,712.31 L 233.32,712.31 L 233.33,712.32 L 233.35,712.32 L 233.36,712.32 L 233.37,712.32 L 233.38,712.32 L 233.39,712.32 L 233.4,712.32 L 233.41,712.33 L 233.42,712.33 L 233.43,712.33 L 233.44,712.33 L 233.45,712.34 L 233.46,712.34 L 233.47,712.35 L 233.48,712.35 L 233.49,712.36 L 233.49,712.37 L 233.5,712.38 L 233.5,712.38 L 233.51,712.38 L 233.51,712.39 L 233.51,712.39 L 233.52,712.4 L 233.52,712.4 L 233.52,712.41 L 233.52,712.41 L 233.53,712.42 L 233.53,712.43 L 233.53,712.43 L 233.53,712.44 L 233.53,712.44 L 233.53,712.45 L 233.53,712.46 L 233.53,712.47 L 233.53,712.47 L 233.54,712.48 C 233.54,712.66 233.38,712.66 233.28,712.66 L 229.08,712.66 C 228.98,712.66 228.82,712.66 228.82,712.48 C 228.82,712.31 228.99,712.31 229.08,712.31 L 233.28,712.31 z"
   style="fill:#000000;stroke-width:0" />
</g>    <g
       xml:space="preserve"
       id="g3276"
       transform="matrix(3,0,0,-3,-252.7252,2389.0742)"
       stroke-miterlimit="10.433"
       fill-rule="even-odd"
       font-style="normal"
       font-variant="normal"
       font-weight="normal"
       font-stretch="normal"
       font-size-adjust="none"
       letter-spacing="normal"
       word-spacing="normal"
       ns0:text="$\\bar{\\nu}_e$"
       ns0:preamble=""
       style="font-style:normal;font-variant:normal;font-weight:normal;font-stretch:normal;letter-spacing:normal;word-spacing:normal;text-anchor:start;fill:none;fill-opacity:1;stroke:#000000;stroke-linecap:butt;stroke-linejoin:miter;stroke-miterlimit:10.43299961;stroke-dasharray:none;stroke-dashoffset:0;stroke-opacity:1">
<polygon
   points="228.28,712.69 228.28,713 224.68,713 224.68,712.69 228.28,712.69 "
   id="polygon3278"
   style="fill:#000000;stroke-width:0" />
<path
   d="M 225.66,711.42 L 225.66,711.42 L 225.66,711.42 L 225.66,711.42 L 225.66,711.42 L 225.66,711.42 L 225.66,711.43 L 225.66,711.43 L 225.66,711.43 L 225.66,711.44 L 225.66,711.44 L 225.66,711.45 L 225.66,711.45 L 225.66,711.46 L 225.66,711.46 L 225.65,711.46 L 225.65,711.47 L 225.65,711.47 L 225.64,711.48 L 225.64,711.48 L 225.64,711.49 L 225.63,711.49 L 225.63,711.5 L 225.63,711.5 L 225.62,711.5 L 225.62,711.5 L 225.62,711.5 L 225.62,711.51 L 225.61,711.51 L 225.61,711.51 L 225.61,711.51 L 225.6,711.51 L 225.6,711.52 L 225.59,711.52 L 225.59,711.52 L 225.59,711.52 L 225.58,711.52 L 225.58,711.52 L 225.57,711.52 L 225.57,711.52 L 225.56,711.52 L 225.56,711.52 L 225.55,711.53 L 225.55,711.53 L 225.54,711.53 L 225.54,711.53 C 225.3,711.53 224.58,711.45 224.32,711.43 C 224.24,711.42 224.13,711.41 224.13,711.23 C 224.13,711.11 224.22,711.11 224.37,711.11 C 224.85,711.11 224.87,711.04 224.87,710.94 C 224.87,710.87 224.75,710.4 224.68,710.13 L 224.07,707.69 C 224.03,707.54 223.96,707.26 223.96,707.24 C 223.96,707.13 224.06,707.12 224.12,707.12 L 224.26,707.12 C 224.96,707.24 226.04,707.63 227.07,708.59 C 228.38,709.81 228.65,711.17 228.65,711.26 C 228.65,711.43 228.53,711.53 228.36,711.53 C 228.28,711.53 228.05,711.49 227.98,711.2 C 227.34,708.94 225.82,707.82 224.69,707.45 L 225.66,711.42 z"
   id="path3280"
   style="fill:#000000;stroke-width:0" />
<path
   d="M 229.91,707.22 L 229.93,707.22 L 229.96,707.22 L 229.98,707.22 L 230,707.22 L 230.03,707.22 L 230.06,707.22 L 230.09,707.22 L 230.12,707.22 L 230.15,707.23 L 230.19,707.23 L 230.22,707.23 L 230.26,707.23 L 230.29,707.23 L 230.33,707.24 L 230.41,707.24 L 230.49,707.25 L 230.57,707.26 L 230.65,707.27 L 230.73,707.29 L 230.81,707.3 L 230.85,707.31 L 230.89,707.32 L 230.93,707.33 L 230.96,707.34 L 231,707.35 L 231.04,707.37 C 231.55,707.55 231.65,707.88 231.65,708.09 C 231.65,708.47 231.27,708.71 230.79,708.71 L 230.79,708.51 C 231.09,708.51 231.35,708.36 231.35,708.09 C 231.35,707.41 230.17,707.41 229.87,707.41 L 229.53,707.41 C 229.82,708.43 230.59,708.51 230.79,708.51 L 230.79,708.71 C 229.95,708.71 228.82,708.06 228.82,706.87 C 228.82,706.17 229.26,705.56 230.07,705.56 C 231.25,705.56 231.8,706.25 231.8,706.35 C 231.8,706.39 231.74,706.47 231.69,706.47 C 231.64,706.47 231.63,706.45 231.57,706.4 C 231.03,705.76 230.21,705.76 230.09,705.76 C 229.67,705.76 229.39,706.03 229.39,706.6 C 229.39,706.7 229.39,706.84 229.48,707.22 L 229.91,707.22 z"
   id="path3282"
   style="fill:#000000;stroke-width:0" />
</g>    <g
       ns0:preamble=""
       ns0:text="$p_1$"
       word-spacing="normal"
       letter-spacing="normal"
       font-size-adjust="none"
       font-stretch="normal"
       font-weight="normal"
       font-variant="normal"
       font-style="normal"
       fill-rule="even-odd"
       stroke-miterlimit="10.433"
       transform="matrix(3,0,0,-3,-548.77635,2206.7057)"
       id="g3423"
       xml:space="preserve"
       style="font-style:normal;font-variant:normal;font-weight:normal;font-stretch:normal;letter-spacing:normal;word-spacing:normal;text-anchor:start;fill:none;fill-opacity:1;stroke:#000000;stroke-linecap:butt;stroke-linejoin:miter;stroke-miterlimit:10.43299961;stroke-dasharray:none;stroke-dashoffset:0;stroke-opacity:1">
<path
   id="path3425"
   d="M 223.88,705.91 L 223.87,705.88 L 223.87,705.85 L 223.86,705.82 L 223.85,705.79 L 223.85,705.77 L 223.84,705.74 L 223.83,705.72 L 223.82,705.7 L 223.82,705.68 L 223.81,705.66 L 223.8,705.64 L 223.79,705.63 L 223.78,705.61 L 223.77,705.6 L 223.76,705.59 L 223.75,705.58 L 223.73,705.57 L 223.72,705.56 L 223.7,705.55 L 223.68,705.54 L 223.67,705.53 L 223.65,705.53 L 223.62,705.52 L 223.6,705.52 L 223.58,705.51 L 223.55,705.51 L 223.53,705.51 L 223.52,705.5 L 223.5,705.5 L 223.49,705.5 L 223.47,705.5 L 223.46,705.5 L 223.44,705.5 L 223.42,705.5 L 223.4,705.5 L 223.38,705.5 L 223.36,705.5 L 223.34,705.5 C 223.22,705.5 223.11,705.5 223.11,705.31 C 223.11,705.23 223.16,705.19 223.24,705.19 C 223.51,705.19 223.8,705.22 224.08,705.22 C 224.41,705.22 224.75,705.19 225.07,705.19 C 225.12,705.19 225.25,705.19 225.25,705.39 C 225.25,705.5 225.15,705.5 225.01,705.5 C 224.51,705.5 224.51,705.57 224.51,705.66 C 224.51,705.78 224.93,707.4 225,707.65 C 225.13,707.36 225.4,707.01 225.91,707.01 L 225.9,707.23 C 225.25,707.23 225.12,708.06 225.12,708.12 C 225.12,708.14 225.12,708.16 225.15,708.28 L 225.63,710.23 C 225.7,710.5 225.97,710.78 226.15,710.93 C 226.5,711.24 226.79,711.31 226.96,711.31 C 227.36,711.31 227.6,710.96 227.6,710.37 C 227.6,709.78 227.27,708.64 227.09,708.26 C 226.75,707.56 226.27,707.23 225.9,707.23 L 225.91,707.01 C 227.07,707.01 228.31,708.47 228.31,709.93 C 228.31,710.87 227.75,711.53 226.99,711.53 C 226.49,711.53 226.01,711.17 225.68,710.78 C 225.58,711.32 225.16,711.53 224.79,711.53 C 224.33,711.53 224.14,711.14 224.05,710.96 C 223.87,710.62 223.74,710.02 223.74,709.99 C 223.74,709.89 223.84,709.89 223.86,709.89 C 223.96,709.89 223.97,709.9 224.03,710.12 C 224.2,710.83 224.4,711.31 224.76,711.31 C 224.93,711.31 225.07,711.23 225.07,710.85 C 225.07,710.62 225.04,710.51 225,710.34 L 223.88,705.91 z"
   style="fill:#000000;stroke-width:0" />
<path
   id="path3427"
   d="M 230.78,710.07 L 230.78,710.07 L 230.78,710.08 L 230.78,710.09 L 230.78,710.1 L 230.78,710.11 L 230.78,710.11 L 230.78,710.12 L 230.78,710.13 L 230.78,710.13 L 230.78,710.14 L 230.78,710.15 L 230.78,710.15 L 230.78,710.16 L 230.78,710.16 L 230.77,710.17 L 230.77,710.18 L 230.77,710.18 L 230.77,710.19 L 230.77,710.19 L 230.77,710.2 L 230.76,710.21 L 230.76,710.22 L 230.76,710.22 L 230.75,710.23 L 230.75,710.23 L 230.74,710.24 L 230.74,710.24 L 230.73,710.25 L 230.72,710.25 L 230.71,710.25 L 230.7,710.25 L 230.7,710.26 L 230.69,710.26 L 230.68,710.26 L 230.68,710.26 L 230.67,710.26 L 230.67,710.26 L 230.66,710.26 L 230.66,710.26 L 230.65,710.26 L 230.64,710.26 L 230.63,710.26 L 230.63,710.26 L 230.62,710.26 L 230.61,710.26 L 230.6,710.26 L 230.6,710.26 L 230.59,710.26 L 230.58,710.26 L 230.57,710.26 C 230.12,709.82 229.49,709.81 229.2,709.81 L 229.2,709.56 C 229.37,709.56 229.83,709.56 230.21,709.76 L 230.21,706.2 C 230.21,705.97 230.21,705.88 229.52,705.88 L 229.25,705.88 L 229.25,705.63 C 229.38,705.64 230.24,705.66 230.49,705.66 C 230.71,705.66 231.59,705.64 231.74,705.63 L 231.74,705.88 L 231.48,705.88 C 230.78,705.88 230.78,705.97 230.78,706.2 L 230.78,710.07 z"
   style="fill:#000000;stroke-width:0" />
</g>    <g
       xml:space="preserve"
       id="g3600"
       transform="matrix(3,0,0,-3,-396.91291,2198.9089)"
       stroke-miterlimit="10.433"
       fill-rule="even-odd"
       font-style="normal"
       font-variant="normal"
       font-weight="normal"
       font-stretch="normal"
       font-size-adjust="none"
       letter-spacing="normal"
       word-spacing="normal"
       ns0:text="$p_3$"
       ns0:preamble=""
       style="font-style:normal;font-variant:normal;font-weight:normal;font-stretch:normal;letter-spacing:normal;word-spacing:normal;text-anchor:start;fill:none;fill-opacity:1;stroke:#000000;stroke-linecap:butt;stroke-linejoin:miter;stroke-miterlimit:10.43299961;stroke-dasharray:none;stroke-dashoffset:0;stroke-opacity:1">
<path
   d="M 223.88,705.91 L 223.87,705.88 L 223.87,705.85 L 223.86,705.82 L 223.85,705.79 L 223.85,705.77 L 223.84,705.74 L 223.83,705.72 L 223.82,705.7 L 223.82,705.68 L 223.81,705.66 L 223.8,705.64 L 223.79,705.63 L 223.78,705.61 L 223.77,705.6 L 223.76,705.59 L 223.75,705.58 L 223.73,705.57 L 223.72,705.56 L 223.7,705.55 L 223.68,705.54 L 223.67,705.53 L 223.65,705.53 L 223.62,705.52 L 223.6,705.52 L 223.58,705.51 L 223.55,705.51 L 223.53,705.51 L 223.52,705.5 L 223.5,705.5 L 223.49,705.5 L 223.47,705.5 L 223.46,705.5 L 223.44,705.5 L 223.42,705.5 L 223.4,705.5 L 223.38,705.5 L 223.36,705.5 L 223.34,705.5 C 223.22,705.5 223.11,705.5 223.11,705.31 C 223.11,705.23 223.16,705.19 223.24,705.19 C 223.51,705.19 223.8,705.22 224.08,705.22 C 224.41,705.22 224.75,705.19 225.07,705.19 C 225.12,705.19 225.25,705.19 225.25,705.39 C 225.25,705.5 225.15,705.5 225.01,705.5 C 224.51,705.5 224.51,705.57 224.51,705.66 C 224.51,705.78 224.93,707.4 225,707.65 C 225.13,707.36 225.4,707.01 225.91,707.01 L 225.9,707.23 C 225.25,707.23 225.12,708.06 225.12,708.12 C 225.12,708.14 225.12,708.16 225.15,708.28 L 225.63,710.23 C 225.7,710.5 225.97,710.78 226.15,710.93 C 226.5,711.24 226.79,711.31 226.96,711.31 C 227.36,711.31 227.6,710.96 227.6,710.37 C 227.6,709.78 227.27,708.64 227.09,708.26 C 226.75,707.56 226.27,707.23 225.9,707.23 L 225.91,707.01 C 227.07,707.01 228.31,708.47 228.31,709.93 C 228.31,710.87 227.75,711.53 226.99,711.53 C 226.49,711.53 226.01,711.17 225.68,710.78 C 225.58,711.32 225.16,711.53 224.79,711.53 C 224.33,711.53 224.14,711.14 224.05,710.96 C 223.87,710.62 223.74,710.02 223.74,709.99 C 223.74,709.89 223.84,709.89 223.86,709.89 C 223.96,709.89 223.97,709.9 224.03,710.12 C 224.2,710.83 224.4,711.31 224.76,711.31 C 224.93,711.31 225.07,711.23 225.07,710.85 C 225.07,710.62 225.04,710.51 225,710.34 L 223.88,705.91 z"
   id="path3602"
   style="fill:#000000;stroke-width:0" />
<path
   d="M 230.35,707.96 L 230.4,707.96 L 230.45,707.95 L 230.49,707.95 L 230.54,707.94 L 230.59,707.93 L 230.63,707.92 L 230.68,707.91 L 230.72,707.89 L 230.76,707.87 L 230.8,707.85 L 230.84,707.83 L 230.88,707.8 L 230.92,707.77 L 230.95,707.74 L 230.99,707.71 L 231.02,707.68 L 231.05,707.64 L 231.08,707.6 L 231.1,707.56 L 231.13,707.52 L 231.15,707.47 L 231.17,707.43 L 231.19,707.38 L 231.21,707.33 L 231.23,707.27 L 231.24,707.22 L 231.25,707.16 L 231.26,707.1 L 231.27,707.04 L 231.28,706.97 L 231.28,706.9 L 231.28,706.84 C 231.28,705.97 230.78,705.71 230.37,705.71 C 230.1,705.71 229.48,705.79 229.19,706.2 C 229.52,706.22 229.59,706.45 229.59,706.59 C 229.59,706.82 229.43,706.98 229.21,706.98 C 229.01,706.98 228.82,706.86 228.82,706.57 C 228.82,705.92 229.54,705.49 230.39,705.49 C 231.36,705.49 232.03,706.14 232.03,706.84 C 232.03,707.38 231.58,707.92 230.81,708.09 C 231.55,708.35 231.81,708.87 231.81,709.3 C 231.81,709.85 231.18,710.26 230.4,710.26 C 229.63,710.26 229.04,709.88 229.04,709.33 C 229.04,709.09 229.19,708.96 229.4,708.96 C 229.61,708.96 229.75,709.12 229.75,709.31 C 229.75,709.51 229.61,709.66 229.4,709.67 C 229.64,709.98 230.12,710.06 230.38,710.06 C 230.7,710.06 231.13,709.91 231.13,709.3 C 231.13,709.01 231.04,708.68 230.85,708.47 C 230.62,708.2 230.43,708.19 230.08,708.17 C 229.91,708.16 229.89,708.16 229.86,708.15 C 229.84,708.15 229.79,708.13 229.79,708.06 C 229.79,707.96 229.85,707.96 229.97,707.96 L 230.35,707.96 z"
   id="path3604"
   style="fill:#000000;stroke-width:0" />
</g>    <g
       ns0:preamble=""
       ns0:text="$p_4$"
       word-spacing="normal"
       letter-spacing="normal"
       font-size-adjust="none"
       font-stretch="normal"
       font-weight="normal"
       font-variant="normal"
       font-style="normal"
       fill-rule="even-odd"
       stroke-miterlimit="10.433"
       transform="matrix(3,0,0,-3,-336.45747,2281.1501)"
       id="g3765"
       xml:space="preserve"
       style="font-style:normal;font-variant:normal;font-weight:normal;font-stretch:normal;letter-spacing:normal;word-spacing:normal;text-anchor:start;fill:none;fill-opacity:1;stroke:#000000;stroke-linecap:butt;stroke-linejoin:miter;stroke-miterlimit:10.43299961;stroke-dasharray:none;stroke-dashoffset:0;stroke-opacity:1">
<path
   id="path3767"
   d="M 223.88,705.91 L 223.87,705.88 L 223.87,705.85 L 223.86,705.82 L 223.85,705.79 L 223.85,705.77 L 223.84,705.74 L 223.83,705.72 L 223.82,705.7 L 223.82,705.68 L 223.81,705.66 L 223.8,705.64 L 223.79,705.63 L 223.78,705.61 L 223.77,705.6 L 223.76,705.59 L 223.75,705.58 L 223.73,705.57 L 223.72,705.56 L 223.7,705.55 L 223.68,705.54 L 223.67,705.53 L 223.65,705.53 L 223.62,705.52 L 223.6,705.52 L 223.58,705.51 L 223.55,705.51 L 223.53,705.51 L 223.52,705.5 L 223.5,705.5 L 223.49,705.5 L 223.47,705.5 L 223.46,705.5 L 223.44,705.5 L 223.42,705.5 L 223.4,705.5 L 223.38,705.5 L 223.36,705.5 L 223.34,705.5 C 223.22,705.5 223.11,705.5 223.11,705.31 C 223.11,705.23 223.16,705.19 223.24,705.19 C 223.51,705.19 223.8,705.22 224.08,705.22 C 224.41,705.22 224.75,705.19 225.07,705.19 C 225.12,705.19 225.25,705.19 225.25,705.39 C 225.25,705.5 225.15,705.5 225.01,705.5 C 224.51,705.5 224.51,705.57 224.51,705.66 C 224.51,705.78 224.93,707.4 225,707.65 C 225.13,707.36 225.4,707.01 225.91,707.01 L 225.9,707.23 C 225.25,707.23 225.12,708.06 225.12,708.12 C 225.12,708.14 225.12,708.16 225.15,708.28 L 225.63,710.23 C 225.7,710.5 225.97,710.78 226.15,710.93 C 226.5,711.24 226.79,711.31 226.96,711.31 C 227.36,711.31 227.6,710.96 227.6,710.37 C 227.6,709.78 227.27,708.64 227.09,708.26 C 226.75,707.56 226.27,707.23 225.9,707.23 L 225.91,707.01 C 227.07,707.01 228.31,708.47 228.31,709.93 C 228.31,710.87 227.75,711.53 226.99,711.53 C 226.49,711.53 226.01,711.17 225.68,710.78 C 225.58,711.32 225.16,711.53 224.79,711.53 C 224.33,711.53 224.14,711.14 224.05,710.96 C 223.87,710.62 223.74,710.02 223.74,709.99 C 223.74,709.89 223.84,709.89 223.86,709.89 C 223.96,709.89 223.97,709.9 224.03,710.12 C 224.2,710.83 224.4,711.31 224.76,711.31 C 224.93,711.31 225.07,711.23 225.07,710.85 C 225.07,710.62 225.04,710.51 225,710.34 L 223.88,705.91 z"
   style="fill:#000000;stroke-width:0" />
<path
   id="path3769"
   d="M 232.13,706.77 L 232.13,707.03 L 231.36,707.03 L 231.36,710.14 C 231.36,710.28 231.36,710.33 231.2,710.33 C 231.12,710.33 231.09,710.33 231.02,710.23 L 228.71,707.03 L 228.71,706.77 L 230.76,706.77 L 230.81,707.03 L 228.97,707.03 L 230.81,709.58 L 230.81,707.03 L 230.76,706.77 L 230.76,706.2 C 230.76,705.97 230.76,705.88 230.2,705.88 L 230.01,705.88 L 230.01,705.63 C 230.36,705.64 230.81,705.66 231.06,705.66 C 231.32,705.66 231.76,705.64 232.11,705.63 L 232.11,705.88 L 231.92,705.88 C 231.36,705.88 231.36,705.97 231.36,706.2 L 231.36,706.77 L 232.13,706.77 z"
   style="fill:#000000;stroke-width:0" />
</g>    <g
       style="font-style:normal;font-variant:normal;font-weight:normal;font-stretch:normal;letter-spacing:normal;word-spacing:normal;text-anchor:start;fill:none;fill-opacity:1;stroke:#000000;stroke-linecap:butt;stroke-linejoin:miter;stroke-miterlimit:10.43299961;stroke-dasharray:none;stroke-dashoffset:0;stroke-opacity:1"
       xml:space="preserve"
       id="g3930"
       transform="matrix(3,0,0,-3,-341.90391,2370.4717)"
       stroke-miterlimit="10.433"
       fill-rule="even-odd"
       font-style="normal"
       font-variant="normal"
       font-weight="normal"
       font-stretch="normal"
       font-size-adjust="none"
       letter-spacing="normal"
       word-spacing="normal"
       ns0:text="$p_2$"
       ns0:preamble="">
<path
   style="fill:#000000;stroke-width:0"
   d="M 223.88,705.91 L 223.87,705.88 L 223.87,705.85 L 223.86,705.82 L 223.85,705.79 L 223.85,705.77 L 223.84,705.74 L 223.83,705.72 L 223.82,705.7 L 223.82,705.68 L 223.81,705.66 L 223.8,705.64 L 223.79,705.63 L 223.78,705.61 L 223.77,705.6 L 223.76,705.59 L 223.75,705.58 L 223.73,705.57 L 223.72,705.56 L 223.7,705.55 L 223.68,705.54 L 223.67,705.53 L 223.65,705.53 L 223.62,705.52 L 223.6,705.52 L 223.58,705.51 L 223.55,705.51 L 223.53,705.51 L 223.52,705.5 L 223.5,705.5 L 223.49,705.5 L 223.47,705.5 L 223.46,705.5 L 223.44,705.5 L 223.42,705.5 L 223.4,705.5 L 223.38,705.5 L 223.36,705.5 L 223.34,705.5 C 223.22,705.5 223.11,705.5 223.11,705.31 C 223.11,705.23 223.16,705.19 223.24,705.19 C 223.51,705.19 223.8,705.22 224.08,705.22 C 224.41,705.22 224.75,705.19 225.07,705.19 C 225.12,705.19 225.25,705.19 225.25,705.39 C 225.25,705.5 225.15,705.5 225.01,705.5 C 224.51,705.5 224.51,705.57 224.51,705.66 C 224.51,705.78 224.93,707.4 225,707.65 C 225.13,707.36 225.4,707.01 225.91,707.01 L 225.9,707.23 C 225.25,707.23 225.12,708.06 225.12,708.12 C 225.12,708.14 225.12,708.16 225.15,708.28 L 225.63,710.23 C 225.7,710.5 225.97,710.78 226.15,710.93 C 226.5,711.24 226.79,711.31 226.96,711.31 C 227.36,711.31 227.6,710.96 227.6,710.37 C 227.6,709.78 227.27,708.64 227.09,708.26 C 226.75,707.56 226.27,707.23 225.9,707.23 L 225.91,707.01 C 227.07,707.01 228.31,708.47 228.31,709.93 C 228.31,710.87 227.75,711.53 226.99,711.53 C 226.49,711.53 226.01,711.17 225.68,710.78 C 225.58,711.32 225.16,711.53 224.79,711.53 C 224.33,711.53 224.14,711.14 224.05,710.96 C 223.87,710.62 223.74,710.02 223.74,709.99 C 223.74,709.89 223.84,709.89 223.86,709.89 C 223.96,709.89 223.97,709.9 224.03,710.12 C 224.2,710.83 224.4,711.31 224.76,711.31 C 224.93,711.31 225.07,711.23 225.07,710.85 C 225.07,710.62 225.04,710.51 225,710.34 L 223.88,705.91 z"
   id="path3932" />
<path
   style="fill:#000000;stroke-width:0"
   d="M 231.96,706.9 L 231.73,706.9 C 231.71,706.75 231.64,706.33 231.55,706.27 C 231.49,706.22 230.95,706.22 230.85,706.22 L 229.57,706.22 C 230.3,706.87 230.55,707.07 230.97,707.39 C 231.48,707.81 231.96,708.24 231.96,708.9 C 231.96,709.74 231.23,710.26 230.33,710.26 C 229.47,710.26 228.88,709.65 228.88,709.01 C 228.88,708.66 229.18,708.62 229.25,708.62 C 229.42,708.62 229.62,708.74 229.62,708.99 C 229.62,709.12 229.57,709.36 229.21,709.36 C 229.43,709.86 229.9,710.01 230.23,710.01 C 230.93,710.01 231.29,709.47 231.29,708.9 C 231.29,708.29 230.85,707.81 230.63,707.56 L 228.95,705.9 C 228.88,705.84 228.88,705.83 228.88,705.63 L 231.76,705.63 L 231.96,706.9 z"
   id="path3934" />
</g>    <g
       ns0:preamble=""
       ns0:text="$q$"
       word-spacing="normal"
       letter-spacing="normal"
       font-size-adjust="none"
       font-stretch="normal"
       font-weight="normal"
       font-variant="normal"
       font-style="normal"
       fill-rule="even-odd"
       stroke-miterlimit="10.433"
       transform="matrix(3,0,0,-3,-458.45764,2274.6144)"
       id="g4095"
       xml:space="preserve"
       style="font-style:normal;font-variant:normal;font-weight:normal;font-stretch:normal;letter-spacing:normal;word-spacing:normal;text-anchor:start;fill:none;fill-opacity:1;stroke:#000000;stroke-linecap:butt;stroke-linejoin:miter;stroke-miterlimit:10.43299961;stroke-dasharray:none;stroke-dashoffset:0;stroke-opacity:1">
<path
   id="path4097"
   d="M 227.94,711.42 L 227.94,711.42 L 227.94,711.42 L 227.94,711.43 L 227.93,711.43 L 227.93,711.44 L 227.93,711.44 L 227.93,711.44 L 227.93,711.45 L 227.93,711.45 L 227.93,711.46 L 227.92,711.46 L 227.92,711.47 L 227.92,711.47 L 227.92,711.47 L 227.92,711.48 L 227.91,711.48 L 227.91,711.48 L 227.91,711.49 L 227.9,711.49 L 227.9,711.49 L 227.89,711.5 L 227.89,711.5 L 227.89,711.5 L 227.88,711.51 L 227.88,711.51 L 227.87,711.51 L 227.87,711.51 L 227.86,711.51 L 227.85,711.51 L 227.85,711.52 L 227.84,711.52 L 227.84,711.52 C 227.73,711.52 227.33,711.12 227.16,710.83 C 226.94,711.37 226.55,711.53 226.23,711.53 L 226.23,711.31 C 226.88,711.31 227.02,710.5 227.02,710.43 C 227.02,710.37 226.47,708.19 226.44,708.15 C 226.29,707.87 225.73,707.23 225.18,707.23 L 225.18,707.23 C 224.58,707.23 224.54,708 224.54,708.17 C 224.54,708.65 224.83,709.73 225,710.15 C 225.3,710.89 225.82,711.31 226.23,711.31 L 226.23,711.53 C 225.06,711.53 223.83,710.05 223.83,708.61 C 223.83,707.63 224.42,707.01 225.15,707.01 C 225.57,707.01 225.96,707.25 226.32,707.61 C 226.23,707.26 225.9,705.92 225.87,705.83 C 225.79,705.55 225.71,705.51 225.16,705.5 C 225.03,705.5 224.93,705.5 224.93,705.3 C 224.93,705.29 224.93,705.19 225.06,705.19 C 225.38,705.19 225.72,705.22 226.05,705.22 C 226.39,705.22 226.75,705.19 227.08,705.19 C 227.13,705.19 227.26,705.19 227.26,705.39 C 227.26,705.5 227.16,705.5 227,705.5 C 226.52,705.5 226.52,705.57 226.52,705.66 C 226.52,705.73 226.54,705.79 226.56,705.88 L 227.94,711.42 z"
   style="fill:#000000;stroke-width:0" />
</g>  </g>
  <g
     transform="translate(-37.48923,-31.8382)"
     style="display:inline"
     inkscape:groupmode="layer"
     id="layer2"
     inkscape:label="lines-arrows">
    <path
       sodipodi:nodetypes="ccc"
       id="path5664"
       d="M 84.610512,36.433673 L 145.09961,63.152773 L 205.58871,90.985183"
       style="fill:none;fill-rule:evenodd;stroke:#000000;stroke-width:1px;stroke-linecap:butt;stroke-linejoin:miter;marker-mid:url(#Arrow1Lend);stroke-opacity:1" />
    <path
       style="fill:none;fill-rule:evenodd;stroke:#000000;stroke-width:1px;stroke-linecap:butt;stroke-linejoin:miter;marker-mid:url(#Arrow1Lstart);stroke-opacity:1"
       d="M 326.8892,36.433673 L 266.4001,63.152773 L 205.911,90.985183"
       id="path5666"
       sodipodi:nodetypes="ccc" />
    <path
       style="fill:none;fill-rule:evenodd;stroke:#000000;stroke-width:1px;stroke-linecap:butt;stroke-linejoin:miter;marker-mid:url(#Arrow1Lstart);stroke-opacity:1;display:inline"
       d="M 413.28743,148.2569 L 352.79833,174.976 L 292.30923,202.80841"
       id="path2701"
       sodipodi:nodetypes="ccc" />
    <path
       sodipodi:nodetypes="ccc"
       id="path2703"
       d="M 413.28743,257.00819 L 352.79833,230.28909 L 292.30923,202.45668"
       style="fill:none;fill-rule:evenodd;stroke:#000000;stroke-width:1px;stroke-linecap:butt;stroke-linejoin:miter;marker-mid:url(#Arrow1Lend);stroke-opacity:1;display:inline" />
  </g>
  <g
     inkscape:groupmode="layer"
     id="layer4"
     inkscape:label="scattering-target"
     style="display:inline"
     transform="translate(23.64,3.39)" />
  <g
     inkscape:groupmode="layer"
     id="layer3"
     inkscape:label="scattering"
     style="display:inline"
     transform="translate(23.64,3.39)" />
</svg>
