<?xml version="1.0" encoding="UTF-8" standalone="no"?>
<!-- Created with Inkscape (http://www.inkscape.org/) -->
<svg
   xmlns:ns0="http://www.iki.fi/pav/software/textext"
   xmlns:dc="http://purl.org/dc/elements/1.1/"
   xmlns:cc="http://creativecommons.org/ns#"
   xmlns:rdf="http://www.w3.org/1999/02/22-rdf-syntax-ns#"
   xmlns:svg="http://www.w3.org/2000/svg"
   xmlns="http://www.w3.org/2000/svg"
   xmlns:sodipodi="http://sodipodi.sourceforge.net/DTD/sodipodi-0.dtd"
   xmlns:inkscape="http://www.inkscape.org/namespaces/inkscape"
   width="441.07816"
   height="322.52191"
   id="svg2"
   sodipodi:version="0.32"
   inkscape:version="0.46"
   sodipodi:docname="neutrondecay.svg"
   inkscape:output_extension="org.inkscape.output.svg.inkscape"
   version="1.0">
  <sodipodi:namedview
     id="base"
     pagecolor="#ffffff"
     bordercolor="#666666"
     borderopacity="1.0"
     gridtolerance="10000"
     guidetolerance="10"
     objecttolerance="10"
     inkscape:pageopacity="0.0"
     inkscape:pageshadow="2"
     inkscape:zoom="1.8360629"
     inkscape:cx="223.84853"
     inkscape:cy="134.77499"
     inkscape:document-units="px"
     inkscape:current-layer="layer1"
     showgrid="false"
     inkscape:window-width="1279"
     inkscape:window-height="947"
     inkscape:window-x="1"
     inkscape:window-y="49" />
  <defs
     id="defs4">
    <marker
       inkscape:stockid="Arrow1Lstart"
       orient="auto"
       refY="0"
       refX="0"
       id="Arrow1Lstart"
       style="overflow:visible">
      <path
         id="path3841"
         d="M 0,0 L 5,-5 L -12.5,0 L 5,5 L 0,0 z"
         style="fill-rule:evenodd;stroke:#000000;stroke-width:1pt;marker-start:none"
         transform="matrix(0.8,0,0,0.8,10,0)" />
    </marker>
    <marker
       inkscape:stockid="Arrow1Lend"
       orient="auto"
       refY="0"
       refX="0"
       id="Arrow1Lend"
       style="overflow:visible">
      <path
         id="path3844"
         d="M 0,0 L 5,-5 L -12.5,0 L 5,5 L 0,0 z"
         style="fill-rule:evenodd;stroke:#000000;stroke-width:1pt;marker-start:none"
         transform="matrix(-0.8,0,0,-0.8,-10,0)" />
    </marker>
    <inkscape:perspective
       sodipodi:type="inkscape:persp3d"
       inkscape:vp_x="0 : 526.18109 : 1"
       inkscape:vp_y="0 : 1000 : 0"
       inkscape:vp_z="744.09448 : 526.18109 : 1"
       inkscape:persp3d-origin="372.04724 : 350.78739 : 1"
       id="perspective10" />
  </defs>
  <metadata
     id="metadata7">
    <rdf:RDF>
      <cc:Work
         rdf:about="">
        <dc:format>image/svg+xml</dc:format>
        <dc:type
           rdf:resource="http://purl.org/dc/dcmitype/StillImage" />
      </cc:Work>
    </rdf:RDF>
  </metadata>
  <g
     transform="translate(-15.3308,11.7566)"
     style="display:inline"
     inkscape:label="Labels"
     inkscape:groupmode="layer"
     id="layer1">
    <g
       style="font-style:normal;font-variant:normal;font-weight:normal;font-stretch:normal;letter-spacing:normal;word-spacing:normal;text-anchor:start;fill:none;fill-opacity:1;stroke:#000000;stroke-linecap:butt;stroke-linejoin:miter;stroke-miterlimit:10.43299961;stroke-dasharray:none;stroke-dashoffset:0;stroke-opacity:1"
       word-spacing="normal"
       letter-spacing="normal"
       font-size-adjust="none"
       font-stretch="normal"
       font-weight="normal"
       font-variant="normal"
       font-style="normal"
       fill-rule="even-odd"
       stroke-miterlimit="10.433"
       xml:space="preserve"
       transform="matrix(0.9852427,-0.7701062,-0.5997556,-0.767303,340.86616,871.50795)"
       id="g8307">
<polyline
   style="fill:#ffffff;fill-rule:nonzero;stroke:#ffffff;stroke-width:0"
   id="polyline8262"
   points="276,569 318.6,569 318.6,719.48 276,719.48 " />
<path
   style="stroke-width:0.5"
   id="path8264"
   d="M 298.88,716.88 C 308.88,712.48 308.88,710.92 298.88,706.52" />
<path
   style="stroke-width:0.5"
   id="path8266"
   d="M 298.88,706.52 C 288.88,702.13 288.88,700.56 298.88,696.16" />
<path
   style="stroke-width:0.5"
   id="path8268"
   d="M 298.88,696.16 C 308.88,691.77 308.88,690.2 298.88,685.81" />
<path
   style="stroke-width:0.5"
   id="path8270"
   d="M 298.88,685.81 C 288.88,681.41 288.88,679.85 298.88,675.45" />
<path
   style="stroke-width:0.5"
   id="path8272"
   d="M 298.88,675.45 C 308.88,671.05 308.88,669.49 298.88,665.09" />
<path
   style="stroke-width:0.5"
   id="path8274"
   d="M 298.88,665.09 C 288.88,660.7 288.88,659.13 298.88,654.74" />
<path
   style="stroke-width:0.5"
   id="path8276"
   d="M 298.88,654.74 C 308.88,650.34 308.88,648.78 298.88,644.38" />
<path
   style="stroke-width:0.5"
   id="path8278"
   d="M 298.88,644.38 C 288.88,639.98 288.88,638.42 298.88,634.02" />
<path
   style="stroke-width:0.5"
   id="path8280"
   d="M 298.88,634.02 C 308.88,629.63 308.88,628.06 298.88,623.66" />
<path
   style="stroke-width:0.5"
   id="path8282"
   d="M 298.88,623.66 C 288.88,619.27 288.88,617.7 298.88,613.31" />
<path
   style="stroke-width:0.5"
   id="path8284"
   d="M 298.88,613.31 C 308.88,608.91 308.88,607.35 298.88,602.95" />
<path
   style="stroke-width:0.5"
   id="path8286"
   d="M 298.88,602.95 C 288.88,598.55 288.88,596.99 298.88,592.59" />
<path
   style="stroke-width:0.5"
   id="path8288"
   d="M 298.88,592.59 C 308.88,588.2 308.88,586.63 298.88,582.24" />
<path
   style="stroke-width:0.5"
   id="path8290"
   d="M 298.88,582.24 C 288.88,577.84 288.88,576.28 298.88,571.88" />
<polyline
   style="fill:#ffffff;fill-rule:nonzero;stroke:#ffffff;stroke-width:0"
   id="polyline8292"
   points="276,720 319.32,720 319.32,720.48 276,720.48 " />
<polyline
   style="fill:#ffffff;fill-rule:nonzero;stroke:#ffffff;stroke-width:0"
   id="polyline8294"
   points="276,569 276.48,569 276.48,719.84 276,719.84 " />
<polyline
   style="fill:#ffffff;fill-rule:nonzero;stroke:#ffffff;stroke-width:0"
   id="polyline8296"
   points="319,569 319.48,569 319.48,719.84 319,719.84 " />
<polyline
   style="fill:#ffffff;fill-rule:nonzero;stroke:#ffffff;stroke-width:0"
   id="polyline8298"
   points="276,569 319.32,569 319.32,569.48 276,569.48 " />
</g>    <g
       style="font-style:normal;font-variant:normal;font-weight:normal;font-stretch:normal;letter-spacing:normal;word-spacing:normal;text-anchor:start;fill:none;fill-opacity:1;stroke:#000000;stroke-linecap:butt;stroke-linejoin:miter;stroke-miterlimit:10.43299961;stroke-dasharray:none;stroke-dashoffset:0;stroke-opacity:1"
       xml:space="preserve"
       id="g20838"
       transform="matrix(3,0,0,-3,-307.38242,2266.2519)"
       stroke-miterlimit="10.433"
       fill-rule="even-odd"
       font-style="normal"
       font-variant="normal"
       font-weight="normal"
       font-stretch="normal"
       font-size-adjust="none"
       letter-spacing="normal"
       word-spacing="normal"
       ns0:text="$\\bar{\\nu}_e$"
       ns0:preamble="">
<polygon
   style="fill:#000000;stroke-width:0"
   points="228.28,712.69 228.28,713 224.68,713 224.68,712.69 228.28,712.69 "
   id="polygon20840" />
<path
   style="fill:#000000;stroke-width:0"
   d="M 225.66,711.42 L 225.66,711.42 L 225.66,711.42 L 225.66,711.42 L 225.66,711.42 L 225.66,711.42 L 225.66,711.43 L 225.66,711.43 L 225.66,711.43 L 225.66,711.44 L 225.66,711.44 L 225.66,711.45 L 225.66,711.45 L 225.66,711.46 L 225.66,711.46 L 225.65,711.46 L 225.65,711.47 L 225.65,711.47 L 225.64,711.48 L 225.64,711.48 L 225.64,711.49 L 225.63,711.49 L 225.63,711.5 L 225.63,711.5 L 225.62,711.5 L 225.62,711.5 L 225.62,711.5 L 225.62,711.51 L 225.61,711.51 L 225.61,711.51 L 225.61,711.51 L 225.6,711.51 L 225.6,711.52 L 225.59,711.52 L 225.59,711.52 L 225.59,711.52 L 225.58,711.52 L 225.58,711.52 L 225.57,711.52 L 225.57,711.52 L 225.56,711.52 L 225.56,711.52 L 225.55,711.53 L 225.55,711.53 L 225.54,711.53 L 225.54,711.53 C 225.3,711.53 224.58,711.45 224.32,711.43 C 224.24,711.42 224.13,711.41 224.13,711.23 C 224.13,711.11 224.22,711.11 224.37,711.11 C 224.85,711.11 224.87,711.04 224.87,710.94 C 224.87,710.87 224.75,710.4 224.68,710.13 L 224.07,707.69 C 224.03,707.54 223.96,707.26 223.96,707.24 C 223.96,707.13 224.06,707.12 224.12,707.12 L 224.26,707.12 C 224.96,707.24 226.04,707.63 227.07,708.59 C 228.38,709.81 228.65,711.17 228.65,711.26 C 228.65,711.43 228.53,711.53 228.36,711.53 C 228.28,711.53 228.05,711.49 227.98,711.2 C 227.34,708.94 225.82,707.82 224.69,707.45 L 225.66,711.42 z"
   id="path20842" />
<path
   style="fill:#000000;stroke-width:0"
   d="M 229.91,707.22 L 229.93,707.22 L 229.96,707.22 L 229.98,707.22 L 230,707.22 L 230.03,707.22 L 230.06,707.22 L 230.09,707.22 L 230.12,707.22 L 230.15,707.23 L 230.19,707.23 L 230.22,707.23 L 230.26,707.23 L 230.29,707.23 L 230.33,707.24 L 230.41,707.24 L 230.49,707.25 L 230.57,707.26 L 230.65,707.27 L 230.73,707.29 L 230.81,707.3 L 230.85,707.31 L 230.89,707.32 L 230.93,707.33 L 230.96,707.34 L 231,707.35 L 231.04,707.37 C 231.55,707.55 231.65,707.88 231.65,708.09 C 231.65,708.47 231.27,708.71 230.79,708.71 L 230.79,708.51 C 231.09,708.51 231.35,708.36 231.35,708.09 C 231.35,707.41 230.17,707.41 229.87,707.41 L 229.53,707.41 C 229.82,708.43 230.59,708.51 230.79,708.51 L 230.79,708.71 C 229.95,708.71 228.82,708.06 228.82,706.87 C 228.82,706.17 229.26,705.56 230.07,705.56 C 231.25,705.56 231.8,706.25 231.8,706.35 C 231.8,706.39 231.74,706.47 231.69,706.47 C 231.64,706.47 231.63,706.45 231.57,706.4 C 231.03,705.76 230.21,705.76 230.09,705.76 C 229.67,705.76 229.39,706.03 229.39,706.6 C 229.39,706.7 229.39,706.84 229.48,707.22 L 229.91,707.22 z"
   id="path20844" />
</g>    <g
       ns0:preamble=""
       ns0:text="$e^-$"
       word-spacing="normal"
       letter-spacing="normal"
       font-size-adjust="none"
       font-stretch="normal"
       font-weight="normal"
       font-variant="normal"
       font-style="normal"
       fill-rule="even-odd"
       stroke-miterlimit="10.433"
       transform="matrix(3,0,0,-3,-316.44851,2387.4403)"
       id="g22503"
       xml:space="preserve"
       style="font-style:normal;font-variant:normal;font-weight:normal;font-stretch:normal;letter-spacing:normal;word-spacing:normal;text-anchor:start;fill:none;fill-opacity:1;stroke:#000000;stroke-linecap:butt;stroke-linejoin:miter;stroke-miterlimit:10.43299961;stroke-dasharray:none;stroke-dashoffset:0;stroke-opacity:1">
<path
   id="path22505"
   d="M 225.3,709.42 L 225.32,709.42 L 225.36,709.42 L 225.39,709.42 L 225.42,709.43 L 225.46,709.43 L 225.5,709.43 L 225.54,709.43 L 225.59,709.43 L 225.63,709.43 L 225.68,709.44 L 225.72,709.44 L 225.77,709.44 L 225.82,709.45 L 225.87,709.45 L 225.98,709.46 L 226.09,709.47 L 226.19,709.49 L 226.3,709.51 L 226.41,709.53 L 226.52,709.55 L 226.57,709.57 L 226.62,709.58 L 226.67,709.6 L 226.72,709.62 L 226.77,709.63 L 226.82,709.65 C 227.52,709.95 227.57,710.54 227.57,710.68 C 227.57,711.12 227.19,711.53 226.5,711.53 L 226.5,711.31 C 226.97,711.31 227.24,711.02 227.24,710.68 C 227.24,709.64 225.64,709.64 225.24,709.64 L 224.83,709.64 C 225.22,711.16 226.24,711.31 226.5,711.31 L 226.5,711.53 C 225.4,711.53 223.89,710.56 223.89,708.82 C 223.89,707.8 224.48,707.01 225.46,707.01 C 226.88,707.01 227.72,708.07 227.72,708.19 C 227.72,708.25 227.66,708.32 227.6,708.32 C 227.55,708.32 227.53,708.3 227.47,708.22 C 226.68,707.23 225.59,707.23 225.48,707.23 C 224.7,707.23 224.61,708.07 224.61,708.39 C 224.61,708.51 224.62,708.82 224.77,709.42 L 225.3,709.42 z"
   style="fill:#000000;stroke-width:0" />
<path
   id="path22507"
   d="M 233.28,712.31 L 233.29,712.31 L 233.29,712.31 L 233.3,712.31 L 233.31,712.31 L 233.32,712.31 L 233.33,712.32 L 233.35,712.32 L 233.36,712.32 L 233.37,712.32 L 233.38,712.32 L 233.39,712.32 L 233.4,712.32 L 233.41,712.33 L 233.42,712.33 L 233.43,712.33 L 233.44,712.33 L 233.45,712.34 L 233.46,712.34 L 233.47,712.35 L 233.48,712.35 L 233.49,712.36 L 233.49,712.37 L 233.5,712.38 L 233.5,712.38 L 233.51,712.38 L 233.51,712.39 L 233.51,712.39 L 233.52,712.4 L 233.52,712.4 L 233.52,712.41 L 233.52,712.41 L 233.53,712.42 L 233.53,712.43 L 233.53,712.43 L 233.53,712.44 L 233.53,712.44 L 233.53,712.45 L 233.53,712.46 L 233.53,712.47 L 233.53,712.47 L 233.54,712.48 C 233.54,712.66 233.38,712.66 233.28,712.66 L 229.08,712.66 C 228.98,712.66 228.82,712.66 228.82,712.48 C 228.82,712.31 228.99,712.31 229.08,712.31 L 233.28,712.31 z"
   style="fill:#000000;stroke-width:0" />
</g>    <path
       id="path18176"
       d="M 189.15427,157.15788 L 213.69968,190.46951"
       style="fill:none;fill-rule:evenodd;stroke:#000000;stroke-width:1px;stroke-linecap:butt;stroke-linejoin:miter;marker-start:none;marker-mid:none;marker-end:url(#Arrow1Lend);stroke-opacity:1" />
    <g
       style="font-style:normal;font-variant:normal;font-weight:normal;font-stretch:normal;letter-spacing:normal;word-spacing:normal;text-anchor:start;fill:none;fill-opacity:1;stroke:#000000;stroke-linecap:butt;stroke-linejoin:miter;stroke-miterlimit:10.43299961;stroke-dasharray:none;stroke-dashoffset:0;stroke-opacity:1"
       xml:space="preserve"
       id="content"
       transform="matrix(3,0,0,-3,-611.91502,2169.8182)"
       stroke-miterlimit="10.433"
       fill-rule="even-odd"
       font-style="normal"
       font-variant="normal"
       font-weight="normal"
       font-stretch="normal"
       font-size-adjust="none"
       letter-spacing="normal"
       word-spacing="normal"
       ns0:text="$n$\\hspace{3cm}$p^+$"
       ns0:preamble="">
<path
   style="fill:#000000;stroke-width:0"
   d="M 224.31,707.71 L 224.31,707.7 L 224.3,707.68 L 224.3,707.67 L 224.3,707.65 L 224.29,707.62 L 224.28,707.59 L 224.28,707.55 L 224.27,707.52 L 224.26,707.49 L 224.25,707.46 L 224.25,707.44 L 224.25,707.43 L 224.24,707.41 L 224.24,707.4 L 224.24,707.39 L 224.23,707.37 L 224.23,707.36 L 224.23,707.35 L 224.23,707.34 L 224.23,707.33 L 224.22,707.32 L 224.22,707.31 L 224.22,707.3 L 224.22,707.29 L 224.22,707.29 L 224.22,707.28 C 224.22,707.1 224.36,707.01 224.51,707.01 C 224.63,707.01 224.81,707.09 224.88,707.29 C 224.89,707.31 225.01,707.78 225.07,708.03 C 225.14,708.33 225.22,708.63 225.29,708.93 C 225.35,709.15 225.4,709.36 225.46,709.59 C 225.49,709.76 225.57,710.05 225.58,710.09 C 225.73,710.4 226.26,711.31 227.21,711.31 C 227.66,711.31 227.75,710.94 227.75,710.61 C 227.75,709.99 227.26,708.72 227.1,708.29 C 227.01,708.06 227,707.94 227,707.83 C 227,707.36 227.35,707.01 227.82,707.01 C 228.75,707.01 229.12,708.47 229.12,708.55 C 229.12,708.65 229.03,708.65 229,708.65 C 228.9,708.65 228.9,708.62 228.85,708.47 C 228.65,707.79 228.32,707.23 227.84,707.23 C 227.67,707.23 227.6,707.33 227.6,707.56 C 227.6,707.81 227.69,708.05 227.78,708.27 C 227.96,708.8 228.38,709.89 228.38,710.46 C 228.38,711.13 227.96,711.53 227.24,711.53 C 226.34,711.53 225.85,710.89 225.68,710.66 C 225.63,711.22 225.23,711.53 224.77,711.53 C 224.31,711.53 224.12,711.14 224.02,710.96 C 223.86,710.62 223.72,710.03 223.72,709.99 C 223.72,709.89 223.82,709.89 223.84,709.89 C 223.94,709.89 223.95,709.9 224.01,710.12 C 224.18,710.83 224.38,711.31 224.74,711.31 C 224.94,711.31 225.05,711.18 225.05,710.85 C 225.05,710.64 225.02,710.53 224.89,710.01 L 224.31,707.71 z"
   id="path2573" />
<path
   style="fill:#000000;stroke-width:0"
   d="M 314.9,705.91 L 314.89,705.88 L 314.89,705.85 L 314.88,705.82 L 314.87,705.79 L 314.87,705.77 L 314.86,705.74 L 314.85,705.72 L 314.84,705.7 L 314.84,705.68 L 314.83,705.66 L 314.82,705.64 L 314.81,705.63 L 314.8,705.61 L 314.79,705.6 L 314.78,705.59 L 314.77,705.58 L 314.75,705.57 L 314.74,705.56 L 314.72,705.55 L 314.7,705.54 L 314.69,705.53 L 314.67,705.53 L 314.64,705.52 L 314.62,705.52 L 314.6,705.51 L 314.57,705.51 L 314.55,705.51 L 314.54,705.5 L 314.52,705.5 L 314.51,705.5 L 314.49,705.5 L 314.48,705.5 L 314.46,705.5 L 314.44,705.5 L 314.42,705.5 L 314.4,705.5 L 314.38,705.5 L 314.36,705.5 C 314.24,705.5 314.13,705.5 314.13,705.31 C 314.13,705.23 314.18,705.19 314.26,705.19 C 314.53,705.19 314.82,705.22 315.1,705.22 C 315.43,705.22 315.77,705.19 316.09,705.19 C 316.14,705.19 316.27,705.19 316.27,705.39 C 316.27,705.5 316.17,705.5 316.03,705.5 C 315.53,705.5 315.53,705.57 315.53,705.66 C 315.53,705.78 315.95,707.4 316.02,707.65 C 316.15,707.36 316.42,707.01 316.93,707.01 L 316.92,707.23 C 316.27,707.23 316.14,708.06 316.14,708.12 C 316.14,708.14 316.14,708.16 316.17,708.28 L 316.65,710.23 C 316.72,710.5 316.99,710.78 317.17,710.93 C 317.52,711.24 317.81,711.31 317.98,711.31 C 318.38,711.31 318.62,710.96 318.62,710.37 C 318.62,709.78 318.29,708.64 318.11,708.26 C 317.77,707.56 317.29,707.23 316.92,707.23 L 316.93,707.01 C 318.09,707.01 319.33,708.47 319.33,709.93 C 319.33,710.87 318.77,711.53 318.01,711.53 C 317.51,711.53 317.03,711.17 316.7,710.78 C 316.6,711.32 316.18,711.53 315.81,711.53 C 315.35,711.53 315.16,711.14 315.07,710.96 C 314.89,710.62 314.76,710.02 314.76,709.99 C 314.76,709.89 314.86,709.89 314.88,709.89 C 314.98,709.89 314.99,709.9 315.05,710.12 C 315.22,710.83 315.42,711.31 315.78,711.31 C 315.95,711.31 316.09,711.23 316.09,710.85 C 316.09,710.62 316.06,710.51 316.02,710.34 L 314.9,705.91 z"
   id="path2575" />
<path
   style="fill:#000000;stroke-width:0"
   d="M 322.69,712.31 L 324.83,712.31 C 324.92,712.31 325.08,712.31 325.08,712.48 C 325.08,712.66 324.92,712.66 324.83,712.66 L 322.69,712.66 L 322.69,714.8 C 322.69,714.89 322.69,715.05 322.52,715.05 C 322.35,715.05 322.35,714.89 322.35,714.8 L 322.35,712.66 L 320.21,712.66 C 320.12,712.66 319.95,712.66 319.95,712.49 C 319.95,712.31 320.11,712.31 320.21,712.31 L 322.35,712.31 L 322.35,710.17 C 322.35,710.08 322.35,709.91 322.52,709.91 C 322.69,709.91 322.69,710.08 322.69,710.17 L 322.69,712.31 z"
   id="path2577" />
</g>    <g
       style="font-style:normal;font-variant:normal;font-weight:normal;font-stretch:normal;letter-spacing:normal;word-spacing:normal;text-anchor:start;fill:none;fill-opacity:1;stroke:#000000;stroke-linecap:butt;stroke-linejoin:miter;stroke-miterlimit:10.43299961;stroke-dasharray:none;stroke-dashoffset:0;stroke-opacity:1"
       xml:space="preserve"
       id="g10180"
       transform="matrix(3,0,0,-3,-508.68236,2274.9972)"
       stroke-miterlimit="10.433"
       fill-rule="even-odd"
       font-style="normal"
       font-variant="normal"
       font-weight="normal"
       font-stretch="normal"
       font-size-adjust="none"
       letter-spacing="normal"
       word-spacing="normal"
       ns0:text="$W^-$"
       ns0:preamble="">
<path
   style="fill:#000000;stroke-width:0"
   d="M 232.57,712.77 L 232.61,712.85 L 232.66,712.93 L 232.71,713.01 L 232.76,713.08 L 232.78,713.12 L 232.81,713.15 L 232.84,713.19 L 232.86,713.22 L 232.89,713.25 L 232.92,713.28 L 232.95,713.31 L 232.98,713.34 L 233.02,713.37 L 233.05,713.39 L 233.08,713.42 L 233.12,713.44 L 233.16,713.47 L 233.2,713.49 L 233.24,713.51 L 233.28,713.53 L 233.32,713.54 L 233.37,713.56 L 233.42,713.57 L 233.47,713.59 L 233.52,713.6 L 233.57,713.61 L 233.63,713.61 L 233.68,713.62 C 233.77,713.63 233.87,713.63 233.87,713.82 C 233.87,713.86 233.83,713.93 233.75,713.93 C 233.51,713.93 233.24,713.9 232.99,713.9 C 232.65,713.9 232.28,713.93 231.95,713.93 C 231.89,713.93 231.76,713.93 231.76,713.74 C 231.76,713.63 231.85,713.62 231.91,713.62 C 232.15,713.61 232.5,713.53 232.5,713.23 C 232.5,713.12 232.45,713.04 232.37,712.9 L 229.68,708.21 L 229.31,713.15 C 229.3,713.35 229.28,713.61 230.01,713.62 C 230.18,713.62 230.28,713.62 230.28,713.82 C 230.28,713.92 230.17,713.93 230.13,713.93 C 229.73,713.93 229.31,713.9 228.91,713.9 C 228.68,713.9 228.1,713.93 227.87,713.93 C 227.81,713.93 227.68,713.93 227.68,713.73 C 227.68,713.62 227.78,713.62 227.92,713.62 C 228.35,713.62 228.42,713.56 228.44,713.37 L 228.5,712.6 L 225.98,708.21 L 225.6,713.26 C 225.6,713.38 225.6,713.61 226.36,713.62 C 226.46,713.62 226.57,713.62 226.57,713.82 C 226.57,713.93 226.45,713.93 226.43,713.93 C 226.03,713.93 225.61,713.9 225.21,713.9 C 224.86,713.9 224.5,713.93 224.16,713.93 C 224.11,713.93 223.98,713.93 223.98,713.74 C 223.98,713.62 224.07,713.62 224.23,713.62 C 224.73,713.62 224.74,713.53 224.76,713.25 L 225.21,707.16 C 225.22,706.98 225.23,706.9 225.37,706.9 C 225.49,706.9 225.51,706.96 225.6,707.11 L 228.53,712.19 L 228.9,707.16 C 228.92,706.95 228.94,706.9 229.06,706.9 C 229.19,706.9 229.25,707 229.3,707.09 L 232.57,712.77 z"
   id="path10182" />
<path
   style="fill:#000000;stroke-width:0"
   d="M 239.43,712.31 L 239.44,712.31 L 239.45,712.31 L 239.46,712.31 L 239.47,712.31 L 239.48,712.31 L 239.49,712.32 L 239.5,712.32 L 239.51,712.32 L 239.52,712.32 L 239.53,712.32 L 239.54,712.32 L 239.56,712.32 L 239.57,712.33 L 239.58,712.33 L 239.59,712.33 L 239.6,712.33 L 239.61,712.34 L 239.62,712.34 L 239.63,712.35 L 239.63,712.35 L 239.64,712.36 L 239.65,712.37 L 239.66,712.38 L 239.66,712.38 L 239.66,712.38 L 239.67,712.39 L 239.67,712.39 L 239.67,712.4 L 239.68,712.4 L 239.68,712.41 L 239.68,712.41 L 239.68,712.42 L 239.68,712.43 L 239.69,712.43 L 239.69,712.44 L 239.69,712.44 L 239.69,712.45 L 239.69,712.46 L 239.69,712.47 L 239.69,712.47 L 239.69,712.48 C 239.69,712.66 239.53,712.66 239.43,712.66 L 235.24,712.66 C 235.14,712.66 234.98,712.66 234.98,712.48 C 234.98,712.31 235.15,712.31 235.24,712.31 L 239.43,712.31 z"
   id="path10184" />
</g>    <g
       style="font-style:normal;font-variant:normal;font-weight:normal;font-stretch:normal;letter-spacing:normal;word-spacing:normal;text-anchor:start;fill:none;fill-opacity:1;stroke:#000000;stroke-linecap:butt;stroke-linejoin:miter;stroke-miterlimit:10.43299961;stroke-dasharray:none;stroke-dashoffset:0;stroke-opacity:1"
       xml:space="preserve"
       id="g15103"
       transform="matrix(3,0,0,-3,-440.92104,2420.2753)"
       stroke-miterlimit="10.433"
       fill-rule="even-odd"
       font-style="normal"
       font-variant="normal"
       font-weight="normal"
       font-stretch="normal"
       font-size-adjust="none"
       letter-spacing="normal"
       word-spacing="normal"
       ns0:text="$\\bar{e} \\gamma^\\mu(1-\\gamma_5)\\nu_e W_\\mu^-$"
       ns0:preamble="">
<polygon
   style="fill:#000000;stroke-width:0"
   points="228.1,712.69 228.1,713 224.5,713 224.5,712.69 228.1,712.69 "
   id="polygon15105" />
<path
   style="fill:#000000;stroke-width:0"
   d="M 225.3,709.42 L 225.32,709.42 L 225.36,709.42 L 225.39,709.42 L 225.42,709.43 L 225.46,709.43 L 225.5,709.43 L 225.54,709.43 L 225.59,709.43 L 225.63,709.43 L 225.68,709.44 L 225.72,709.44 L 225.77,709.44 L 225.82,709.45 L 225.87,709.45 L 225.98,709.46 L 226.09,709.47 L 226.19,709.49 L 226.3,709.51 L 226.41,709.53 L 226.52,709.55 L 226.57,709.57 L 226.62,709.58 L 226.67,709.6 L 226.72,709.62 L 226.77,709.63 L 226.82,709.65 C 227.52,709.95 227.57,710.54 227.57,710.68 C 227.57,711.12 227.19,711.53 226.5,711.53 L 226.5,711.31 C 226.97,711.31 227.24,711.02 227.24,710.68 C 227.24,709.64 225.64,709.64 225.24,709.64 L 224.83,709.64 C 225.22,711.16 226.24,711.31 226.5,711.31 L 226.5,711.53 C 225.4,711.53 223.89,710.56 223.89,708.82 C 223.89,707.8 224.48,707.01 225.46,707.01 C 226.88,707.01 227.72,708.07 227.72,708.19 C 227.72,708.25 227.66,708.32 227.6,708.32 C 227.55,708.32 227.53,708.3 227.47,708.22 C 226.68,707.23 225.59,707.23 225.48,707.23 C 224.7,707.23 224.61,708.07 224.61,708.39 C 224.61,708.51 224.62,708.82 224.77,709.42 L 225.3,709.42 z"
   id="path15107" />
<path
   style="fill:#000000;stroke-width:0"
   d="M 228.48,709.65 L 228.49,709.71 L 228.51,709.76 L 228.54,709.81 L 228.56,709.85 L 228.58,709.9 L 228.6,709.95 L 228.63,709.99 L 228.65,710.03 L 228.68,710.07 L 228.7,710.11 L 228.73,710.15 L 228.76,710.19 L 228.81,710.25 L 228.87,710.32 L 228.93,710.38 L 228.99,710.43 L 229.06,710.48 L 229.12,710.52 L 229.18,710.56 L 229.25,710.6 L 229.31,710.63 L 229.37,710.66 L 229.43,710.69 L 229.5,710.71 L 229.56,710.73 L 229.61,710.75 L 229.67,710.76 L 229.72,710.77 L 229.77,710.78 L 229.82,710.79 L 229.87,710.8 L 229.91,710.8 L 229.94,710.8 L 229.98,710.81 L 230,710.81 L 230.03,710.81 L 230.05,710.81 L 230.06,710.81 C 231.56,710.81 231.67,709.07 231.67,708.28 C 231.67,707.67 231.62,707.5 231.55,707.3 C 231.34,706.58 231.04,705.42 231.04,705.16 C 231.04,705.05 231.09,704.98 231.17,704.98 C 231.29,704.98 231.38,705.2 231.49,705.58 C 231.71,706.41 231.81,706.98 231.85,707.29 C 231.87,707.42 231.89,707.55 231.93,707.68 C 232.25,708.67 232.89,710.15 233.29,710.94 C 233.36,711.06 233.48,711.28 233.48,711.32 C 233.48,711.42 233.38,711.42 233.36,711.42 C 233.33,711.42 233.27,711.42 233.24,711.35 C 232.72,710.4 232.32,709.4 231.92,708.4 C 231.91,708.71 231.9,709.46 231.51,710.43 C 231.27,711.04 230.88,711.53 230.19,711.53 C 228.94,711.53 228.25,710.01 228.25,709.7 C 228.25,709.6 228.34,709.6 228.44,709.6 L 228.48,709.65 z"
   id="path15109" />
<path
   style="fill:#000000;stroke-width:0"
   d="M 234.16,709.61 L 234.16,709.61 L 234.15,709.6 L 234.15,709.59 L 234.15,709.58 L 234.15,709.57 L 234.15,709.56 L 234.14,709.56 L 234.14,709.55 L 234.14,709.54 L 234.14,709.54 L 234.14,709.53 L 234.14,709.52 L 234.14,709.52 L 234.14,709.51 L 234.14,709.51 L 234.13,709.5 L 234.13,709.5 L 234.13,709.5 L 234.13,709.49 L 234.13,709.49 L 234.13,709.49 L 234.13,709.48 L 234.13,709.48 L 234.13,709.48 L 234.13,709.48 L 234.13,709.48 L 234.13,709.47 L 234.13,709.47 L 234.13,709.47 L 234.13,709.47 L 234.13,709.47 L 234.13,709.47 C 234.13,709.32 234.26,709.24 234.37,709.24 C 234.62,709.24 234.68,709.47 234.7,709.59 C 234.72,709.63 234.86,710.19 235.02,710.87 C 235.24,710.72 235.52,710.67 235.77,710.67 C 236.37,710.67 236.76,711.16 236.77,711.17 C 236.91,710.69 237.39,710.67 237.49,710.67 C 237.74,710.67 237.92,710.82 238.04,711.04 C 238.2,711.31 238.29,711.71 238.29,711.73 C 238.29,711.83 238.2,711.83 238.18,711.83 C 238.08,711.83 238.07,711.8 238.02,711.61 C 237.94,711.28 237.81,710.86 237.51,710.86 C 237.33,710.86 237.28,711.02 237.28,711.21 C 237.28,711.32 237.34,711.57 237.39,711.76 C 237.44,711.94 237.51,712.23 237.54,712.38 L 237.7,713 C 237.74,713.18 237.82,713.48 237.82,713.52 C 237.82,713.66 237.71,713.74 237.59,713.74 C 237.51,713.74 237.38,713.71 237.3,713.58 C 237.28,713.53 237.23,713.31 237.19,713.17 L 237.05,712.59 C 236.95,712.19 236.92,712.08 236.83,711.72 C 236.78,711.55 236.78,711.53 236.72,711.44 C 236.5,711.14 236.2,710.86 235.8,710.86 C 235.23,710.86 235.23,711.36 235.23,711.48 C 235.23,711.66 235.25,711.76 235.35,712.13 C 235.41,712.44 235.43,712.49 235.5,712.76 L 235.6,713.15 C 235.63,713.3 235.7,713.56 235.7,713.59 C 235.7,713.72 235.6,713.81 235.46,713.81 C 235.21,713.81 235.15,713.57 235.13,713.48 L 234.16,709.61 z"
   id="path15111" />
<path
   style="fill:#000000;stroke-width:0"
   d="M 242.42,704.73 L 242.42,704.74 L 242.42,704.74 L 242.42,704.75 L 242.42,704.75 L 242.42,704.75 L 242.42,704.75 L 242.42,704.76 L 242.41,704.76 L 242.41,704.77 L 242.41,704.77 L 242.41,704.77 L 242.41,704.78 L 242.4,704.78 L 242.4,704.79 L 242.39,704.79 L 242.39,704.8 L 242.38,704.81 L 242.38,704.81 L 242.38,704.82 L 242.37,704.82 L 242.37,704.83 L 242.37,704.83 L 242.36,704.84 L 242.36,704.84 L 242.35,704.84 L 242.35,704.85 L 242.34,704.85 L 242.34,704.86 L 242.33,704.86 L 242.33,704.87 L 242.32,704.88 L 242.32,704.88 L 242.31,704.89 L 242.31,704.89 L 242.3,704.9 L 242.29,704.91 L 242.29,704.91 L 242.28,704.92 L 242.27,704.93 L 242.27,704.94 L 242.26,704.94 L 242.25,704.95 C 241.01,706.21 240.69,708.09 240.69,709.61 C 240.69,711.35 241.07,713.08 242.29,714.33 C 242.42,714.45 242.42,714.47 242.42,714.49 C 242.42,714.57 242.38,714.59 242.32,714.59 C 242.22,714.59 241.32,713.92 240.74,712.65 C 240.23,711.56 240.11,710.45 240.11,709.61 C 240.11,708.84 240.22,707.63 240.77,706.51 C 241.36,705.28 242.22,704.63 242.32,704.63 C 242.38,704.63 242.42,704.66 242.42,704.73 z"
   id="path15113" />
<path
   style="fill:#000000;stroke-width:0"
   d="M 245.93,713.5 L 245.93,713.51 L 245.93,713.52 L 245.93,713.53 L 245.93,713.54 L 245.93,713.55 L 245.93,713.56 L 245.93,713.57 L 245.93,713.58 L 245.93,713.59 L 245.93,713.6 L 245.93,713.6 L 245.93,713.61 L 245.93,713.62 L 245.93,713.63 L 245.93,713.63 L 245.93,713.64 L 245.92,713.65 L 245.92,713.65 L 245.92,713.66 L 245.92,713.68 L 245.92,713.69 L 245.91,713.7 L 245.91,713.7 L 245.91,713.71 L 245.9,713.72 L 245.89,713.72 L 245.89,713.73 L 245.88,713.73 L 245.87,713.74 L 245.86,713.74 L 245.86,713.74 L 245.85,713.75 L 245.85,713.75 L 245.84,713.75 L 245.84,713.75 L 245.83,713.75 L 245.83,713.75 L 245.82,713.75 L 245.81,713.75 L 245.81,713.75 L 245.8,713.76 L 245.79,713.76 L 245.78,713.76 L 245.78,713.76 L 245.77,713.76 L 245.76,713.76 L 245.75,713.76 L 245.74,713.76 L 245.73,713.76 L 245.72,713.76 L 245.71,713.76 L 245.7,713.76 C 245.08,713.12 244.21,713.12 243.89,713.12 L 243.89,712.81 C 244.09,712.81 244.67,712.81 245.19,713.07 L 245.19,707.91 C 245.19,707.55 245.16,707.43 244.26,707.43 L 243.95,707.43 L 243.95,707.12 C 244.29,707.15 245.16,707.15 245.56,707.15 C 245.96,707.15 246.83,707.15 247.17,707.12 L 247.17,707.43 L 246.86,707.43 C 245.96,707.43 245.93,707.54 245.93,707.91 L 245.93,713.5 z"
   id="path15115" />
<path
   style="fill:#000000;stroke-width:0"
   d="M 256.78,709.41 L 256.79,709.41 L 256.8,709.41 L 256.83,709.41 L 256.86,709.42 L 256.87,709.42 L 256.89,709.42 L 256.9,709.42 L 256.92,709.42 L 256.93,709.42 L 256.94,709.42 L 256.96,709.43 L 256.97,709.43 L 256.98,709.43 L 256.99,709.44 L 257.01,709.44 L 257.02,709.45 L 257.03,709.46 L 257.04,709.46 L 257.05,709.47 L 257.06,709.48 L 257.07,709.49 L 257.07,709.49 L 257.08,709.5 L 257.08,709.5 L 257.08,709.51 L 257.09,709.51 L 257.09,709.52 L 257.09,709.53 L 257.09,709.53 L 257.1,709.54 L 257.1,709.55 L 257.1,709.55 L 257.1,709.56 L 257.1,709.57 L 257.1,709.58 L 257.11,709.59 L 257.11,709.59 L 257.11,709.6 L 257.11,709.61 C 257.11,709.81 256.92,709.81 256.78,709.81 L 251.35,709.81 C 251.21,709.81 251.02,709.81 251.02,709.61 C 251.02,709.41 251.21,709.41 251.35,709.41 L 256.78,709.41 z"
   id="path15117" />
<path
   style="fill:#000000;stroke-width:0"
   d="M 260.57,709.65 L 260.59,709.71 L 260.61,709.76 L 260.63,709.81 L 260.65,709.85 L 260.67,709.9 L 260.69,709.95 L 260.72,709.99 L 260.74,710.03 L 260.77,710.07 L 260.8,710.11 L 260.82,710.15 L 260.85,710.19 L 260.91,710.25 L 260.96,710.32 L 261.02,710.38 L 261.09,710.43 L 261.15,710.48 L 261.21,710.52 L 261.28,710.56 L 261.34,710.6 L 261.4,710.63 L 261.47,710.66 L 261.53,710.69 L 261.59,710.71 L 261.65,710.73 L 261.71,710.75 L 261.76,710.76 L 261.81,710.77 L 261.87,710.78 L 261.91,710.79 L 261.96,710.8 L 262,710.8 L 262.04,710.8 L 262.07,710.81 L 262.1,710.81 L 262.12,710.81 L 262.14,710.81 L 262.15,710.81 C 263.66,710.81 263.77,709.07 263.77,708.28 C 263.77,707.67 263.72,707.5 263.65,707.3 C 263.43,706.58 263.13,705.42 263.13,705.16 C 263.13,705.05 263.18,704.98 263.26,704.98 C 263.39,704.98 263.47,705.2 263.58,705.58 C 263.81,706.41 263.91,706.98 263.95,707.29 C 263.97,707.42 263.99,707.55 264.03,707.68 C 264.34,708.67 264.98,710.15 265.38,710.94 C 265.45,711.06 265.57,711.28 265.57,711.32 C 265.57,711.42 265.47,711.42 265.45,711.42 C 265.42,711.42 265.36,711.42 265.33,711.35 C 264.81,710.4 264.41,709.4 264.02,708.4 C 264.01,708.71 264,709.46 263.61,710.43 C 263.37,711.04 262.97,711.53 262.28,711.53 C 261.04,711.53 260.34,710.01 260.34,709.7 C 260.34,709.6 260.43,709.6 260.53,709.6 L 260.57,709.65 z"
   id="path15119" />
<path
   style="fill:#000000;stroke-width:0"
   d="M 266.39,709.52 L 266.43,709.51 L 266.46,709.51 L 266.49,709.5 L 266.52,709.49 L 266.55,709.49 L 266.58,709.48 L 266.61,709.47 L 266.63,709.47 L 266.66,709.46 L 266.69,709.46 L 266.71,709.46 L 266.73,709.45 L 266.76,709.45 L 266.78,709.45 L 266.8,709.44 L 266.82,709.44 L 266.84,709.44 L 266.86,709.44 L 266.88,709.44 L 266.9,709.44 L 266.92,709.43 L 266.94,709.43 L 266.95,709.43 L 266.97,709.43 L 266.98,709.43 L 267,709.43 L 267.01,709.43 L 267.02,709.43 L 267.04,709.43 L 267.05,709.43 L 267.06,709.43 L 267.07,709.43 C 267.99,709.43 268.53,710.06 268.53,710.16 C 268.53,710.24 268.49,710.26 268.45,710.26 C 268.44,710.26 268.42,710.26 268.39,710.24 C 268.23,710.18 267.86,710.04 267.34,710.04 C 267.15,710.04 266.78,710.05 266.32,710.23 C 266.25,710.26 266.24,710.26 266.23,710.26 C 266.14,710.26 266.14,710.18 266.14,710.07 L 266.14,708.02 C 266.14,707.9 266.14,707.81 266.25,707.81 C 266.32,707.81 266.32,707.83 266.39,707.91 C 266.69,708.29 267.12,708.35 267.36,708.35 C 267.78,708.35 267.97,708.02 268,707.96 C 268.13,707.73 268.17,707.46 268.17,707.06 C 268.17,706.85 268.17,706.44 267.96,706.13 C 267.79,705.88 267.49,705.71 267.15,705.71 C 266.69,705.71 266.23,705.97 266.05,706.42 C 266.32,706.4 266.45,706.58 266.45,706.77 C 266.45,707.07 266.19,707.12 266.1,707.12 C 266.09,707.12 265.75,707.12 265.75,706.75 C 265.75,706.12 266.32,705.49 267.16,705.49 C 268.05,705.49 268.83,706.15 268.83,707.03 C 268.83,707.82 268.23,708.54 267.37,708.54 C 267.06,708.54 266.7,708.47 266.39,708.2 L 266.39,709.52 z"
   id="path15121" />
<path
   style="fill:#000000;stroke-width:0"
   d="M 272.66,709.61 L 272.66,709.69 L 272.66,709.76 L 272.66,709.84 L 272.66,709.92 L 272.65,710.09 L 272.64,710.27 L 272.62,710.45 L 272.6,710.64 L 272.57,710.84 L 272.54,711.04 L 272.5,711.24 L 272.45,711.45 L 272.4,711.66 L 272.34,711.87 L 272.27,712.08 L 272.19,712.3 L 272.15,712.4 L 272.1,712.51 L 272.05,712.62 L 272,712.72 C 271.41,713.95 270.55,714.59 270.45,714.59 C 270.39,714.59 270.35,714.55 270.35,714.49 C 270.35,714.47 270.35,714.45 270.54,714.27 C 271.52,713.28 272.08,711.7 272.08,709.61 C 272.08,707.91 271.71,706.16 270.48,704.9 C 270.35,704.78 270.35,704.76 270.35,704.73 C 270.35,704.67 270.39,704.63 270.45,704.63 C 270.55,704.63 271.45,705.31 272.03,706.58 C 272.54,707.67 272.66,708.78 272.66,709.61 z"
   id="path15123" />
<path
   style="fill:#000000;stroke-width:0"
   d="M 275.89,711.42 L 275.89,711.42 L 275.89,711.42 L 275.89,711.42 L 275.89,711.42 L 275.89,711.42 L 275.89,711.43 L 275.89,711.43 L 275.89,711.43 L 275.89,711.44 L 275.89,711.44 L 275.89,711.45 L 275.89,711.45 L 275.89,711.46 L 275.88,711.46 L 275.88,711.46 L 275.88,711.47 L 275.88,711.47 L 275.87,711.48 L 275.87,711.48 L 275.86,711.49 L 275.86,711.49 L 275.86,711.5 L 275.86,711.5 L 275.85,711.5 L 275.85,711.5 L 275.85,711.5 L 275.84,711.51 L 275.84,711.51 L 275.84,711.51 L 275.83,711.51 L 275.83,711.51 L 275.83,711.52 L 275.82,711.52 L 275.82,711.52 L 275.81,711.52 L 275.81,711.52 L 275.8,711.52 L 275.8,711.52 L 275.8,711.52 L 275.79,711.52 L 275.78,711.52 L 275.78,711.53 L 275.77,711.53 L 275.77,711.53 L 275.76,711.53 C 275.53,711.53 274.81,711.45 274.55,711.43 C 274.47,711.42 274.36,711.41 274.36,711.23 C 274.36,711.11 274.45,711.11 274.6,711.11 C 275.08,711.11 275.1,711.04 275.1,710.94 C 275.1,710.87 274.98,710.4 274.9,710.13 L 274.3,707.69 C 274.26,707.54 274.19,707.26 274.19,707.24 C 274.19,707.13 274.29,707.12 274.35,707.12 L 274.49,707.12 C 275.18,707.24 276.27,707.63 277.3,708.59 C 278.61,709.81 278.88,711.17 278.88,711.26 C 278.88,711.43 278.76,711.53 278.59,711.53 C 278.51,711.53 278.28,711.49 278.2,711.2 C 277.57,708.94 276.05,707.82 274.92,707.45 L 275.89,711.42 z"
   id="path15125" />
<path
   style="fill:#000000;stroke-width:0"
   d="M 280.14,707.22 L 280.16,707.22 L 280.18,707.22 L 280.21,707.22 L 280.23,707.22 L 280.26,707.22 L 280.29,707.22 L 280.32,707.22 L 280.35,707.22 L 280.38,707.23 L 280.41,707.23 L 280.45,707.23 L 280.48,707.23 L 280.52,707.23 L 280.56,707.24 L 280.64,707.24 L 280.71,707.25 L 280.8,707.26 L 280.88,707.27 L 280.96,707.29 L 281.04,707.3 L 281.08,707.31 L 281.12,707.32 L 281.15,707.33 L 281.19,707.34 L 281.23,707.35 L 281.27,707.37 C 281.78,707.55 281.88,707.88 281.88,708.09 C 281.88,708.47 281.49,708.71 281.01,708.71 L 281.01,708.51 C 281.32,708.51 281.58,708.36 281.58,708.09 C 281.58,707.41 280.4,707.41 280.1,707.41 L 279.76,707.41 C 280.04,708.43 280.82,708.51 281.01,708.51 L 281.01,708.71 C 280.18,708.71 279.05,708.06 279.05,706.87 C 279.05,706.17 279.49,705.56 280.3,705.56 C 281.48,705.56 282.03,706.25 282.03,706.35 C 282.03,706.39 281.97,706.47 281.91,706.47 C 281.87,706.47 281.86,706.45 281.8,706.4 C 281.26,705.76 280.44,705.76 280.32,705.76 C 279.9,705.76 279.62,706.03 279.62,706.6 C 279.62,706.7 279.62,706.84 279.7,707.22 L 280.14,707.22 z"
   id="path15127" />
<path
   style="fill:#000000;stroke-width:0"
   d="M 291.99,712.77 L 292.04,712.85 L 292.08,712.93 L 292.13,713.01 L 292.18,713.08 L 292.21,713.12 L 292.23,713.15 L 292.26,713.19 L 292.29,713.22 L 292.32,713.25 L 292.35,713.28 L 292.38,713.31 L 292.41,713.34 L 292.44,713.37 L 292.47,713.39 L 292.51,713.42 L 292.54,713.44 L 292.58,713.47 L 292.62,713.49 L 292.66,713.51 L 292.7,713.53 L 292.75,713.54 L 292.79,713.56 L 292.84,713.57 L 292.89,713.59 L 292.94,713.6 L 292.99,713.61 L 293.05,713.61 L 293.11,713.62 C 293.2,713.63 293.3,713.63 293.3,713.82 C 293.3,713.86 293.26,713.93 293.18,713.93 C 292.94,713.93 292.66,713.9 292.41,713.9 C 292.07,713.9 291.7,713.93 291.37,713.93 C 291.31,713.93 291.18,713.93 291.18,713.74 C 291.18,713.63 291.27,713.62 291.33,713.62 C 291.57,713.61 291.92,713.53 291.92,713.23 C 291.92,713.12 291.87,713.04 291.79,712.9 L 289.1,708.21 L 288.73,713.15 C 288.72,713.35 288.7,713.61 289.43,713.62 C 289.6,713.62 289.7,713.62 289.7,713.82 C 289.7,713.92 289.59,713.93 289.55,713.93 C 289.15,713.93 288.73,713.9 288.33,713.9 C 288.11,713.9 287.52,713.93 287.29,713.93 C 287.23,713.93 287.1,713.93 287.1,713.73 C 287.1,713.62 287.2,713.62 287.34,713.62 C 287.78,713.62 287.85,713.56 287.87,713.37 L 287.93,712.6 L 285.4,708.21 L 285.03,713.26 C 285.03,713.38 285.03,713.61 285.78,713.62 C 285.88,713.62 285.99,713.62 285.99,713.82 C 285.99,713.93 285.87,713.93 285.85,713.93 C 285.45,713.93 285.04,713.9 284.63,713.9 C 284.28,713.9 283.92,713.93 283.58,713.93 C 283.53,713.93 283.4,713.93 283.4,713.74 C 283.4,713.62 283.49,713.62 283.65,713.62 C 284.15,713.62 284.16,713.53 284.18,713.25 L 284.63,707.16 C 284.64,706.98 284.65,706.9 284.79,706.9 C 284.91,706.9 284.94,706.96 285.03,707.11 L 287.96,712.19 L 288.32,707.16 C 288.34,706.95 288.36,706.9 288.48,706.9 C 288.61,706.9 288.67,707 288.72,707.09 L 291.99,712.77 z"
   id="path15129" />
<path
   style="fill:#000000;stroke-width:0"
   d="M 298.86,712.31 L 298.87,712.31 L 298.87,712.31 L 298.88,712.31 L 298.89,712.31 L 298.9,712.31 L 298.91,712.32 L 298.93,712.32 L 298.94,712.32 L 298.95,712.32 L 298.96,712.32 L 298.97,712.32 L 298.98,712.32 L 298.99,712.33 L 299,712.33 L 299.01,712.33 L 299.02,712.33 L 299.03,712.34 L 299.04,712.34 L 299.05,712.35 L 299.06,712.35 L 299.07,712.36 L 299.07,712.37 L 299.08,712.38 L 299.08,712.38 L 299.09,712.38 L 299.09,712.39 L 299.09,712.39 L 299.1,712.4 L 299.1,712.4 L 299.1,712.41 L 299.1,712.41 L 299.11,712.42 L 299.11,712.43 L 299.11,712.43 L 299.11,712.44 L 299.11,712.44 L 299.11,712.45 L 299.11,712.46 L 299.11,712.47 L 299.11,712.47 L 299.11,712.48 C 299.11,712.66 298.95,712.66 298.86,712.66 L 294.66,712.66 C 294.56,712.66 294.4,712.66 294.4,712.48 C 294.4,712.31 294.57,712.31 294.66,712.31 L 298.86,712.31 z"
   id="path15131" />
<path
   style="fill:#000000;stroke-width:0"
   d="M 292.64,703.54 L 292.64,703.53 L 292.64,703.52 L 292.64,703.51 L 292.63,703.5 L 292.63,703.5 L 292.63,703.49 L 292.63,703.48 L 292.63,703.47 L 292.63,703.47 L 292.63,703.46 L 292.62,703.45 L 292.62,703.45 L 292.62,703.44 L 292.62,703.44 L 292.62,703.43 L 292.62,703.43 L 292.62,703.43 L 292.62,703.42 L 292.62,703.42 L 292.62,703.41 L 292.62,703.41 L 292.62,703.41 L 292.62,703.41 L 292.62,703.4 L 292.62,703.4 L 292.62,703.4 L 292.62,703.4 L 292.62,703.4 L 292.62,703.4 L 292.62,703.39 L 292.62,703.39 L 292.62,703.39 C 292.62,703.24 292.74,703.17 292.85,703.17 C 293.1,703.17 293.16,703.4 293.19,703.52 C 293.2,703.55 293.34,704.11 293.51,704.79 C 293.73,704.65 294,704.59 294.26,704.59 C 294.86,704.59 295.24,705.08 295.26,705.09 C 295.39,704.61 295.87,704.59 295.98,704.59 C 296.23,704.59 296.4,704.75 296.53,704.96 C 296.68,705.23 296.77,705.63 296.77,705.66 C 296.77,705.75 296.68,705.75 296.66,705.75 C 296.56,705.75 296.56,705.72 296.51,705.53 C 296.42,705.2 296.29,704.79 296,704.79 C 295.82,704.79 295.77,704.94 295.77,705.13 C 295.77,705.25 295.82,705.5 295.87,705.68 C 295.92,705.87 295.99,706.16 296.03,706.31 L 296.19,706.93 C 296.23,707.1 296.3,707.41 296.3,707.45 C 296.3,707.59 296.19,707.67 296.08,707.67 C 296,707.67 295.87,707.63 295.79,707.5 C 295.77,707.46 295.71,707.24 295.68,707.1 L 295.53,706.52 C 295.43,706.11 295.41,706.01 295.32,705.65 C 295.27,705.47 295.27,705.46 295.2,705.37 C 294.99,705.06 294.68,704.79 294.28,704.79 C 293.71,704.79 293.71,705.28 293.71,705.41 C 293.71,705.59 293.73,705.68 293.83,706.06 C 293.9,706.36 293.91,706.41 293.98,706.68 L 294.08,707.08 C 294.12,707.22 294.18,707.49 294.18,707.52 C 294.18,707.64 294.09,707.74 293.95,707.74 C 293.7,707.74 293.63,707.49 293.61,707.41 L 292.64,703.54 z"
   id="path15133" />
</g>    <g
       ns0:preamble=""
       ns0:text="$\\bar{p} \\gamma^\\mu(1-1.26\\gamma_5)n W_\\mu^+$"
       text-anchor="start"
       word-spacing="normal"
       letter-spacing="normal"
       font-size-adjust="none"
       font-stretch="normal"
       font-weight="normal"
       font-variant="normal"
       font-style="normal"
       fill-opacity="1"
       fill-rule="even-odd"
       fill="none"
       stroke-opacity="1"
       stroke-dashoffset="0"
       stroke-dasharray="none"
       stroke-miterlimit="10.433"
       stroke-linejoin="miter"
       stroke-linecap="butt"
       stroke="black"
       transform="matrix(3,0,0,-3,-653.9992,2133.3934)"
       id="g2517"
       xml:space="preserve">
<polygon
   id="polygon2519"
   fill="black"
   stroke-width="0"
   points="228.56,712.69 228.56,713 224.97,713 224.97,712.69 " />
<path
   id="path2521"
   fill="black"
   stroke-width="0"
   d="M223.88,705.91 L223.87,705.88 L223.87,705.85 L223.86,705.82 L223.85,705.79 L223.85,705.77 L223.84,705.74 L223.83,705.72 L223.82,705.7 L223.82,705.68 L223.81,705.66 L223.8,705.64 L223.79,705.63 L223.78,705.61 L223.77,705.6 L223.76,705.59 L223.75,705.58 L223.73,705.57 L223.72,705.56 L223.7,705.55 L223.68,705.54 L223.67,705.53 L223.65,705.53 L223.62,705.52 L223.6,705.52 L223.58,705.51 L223.55,705.51 L223.53,705.51 L223.52,705.5 L223.5,705.5 L223.49,705.5 L223.47,705.5 L223.46,705.5 L223.44,705.5 L223.42,705.5 L223.4,705.5 L223.38,705.5 L223.36,705.5 L223.34,705.5 C223.22,705.5,223.11,705.5,223.11,705.31 C223.11,705.23,223.16,705.19,223.24,705.19 C223.51,705.19,223.8,705.22,224.08,705.22 C224.41,705.22,224.75,705.19,225.07,705.19 C225.12,705.19,225.25,705.19,225.25,705.39 C225.25,705.5,225.15,705.5,225.01,705.5 C224.51,705.5,224.51,705.57,224.51,705.66 C224.51,705.78,224.93,707.4,225,707.65 C225.13,707.36,225.4,707.01,225.91,707.01 L225.9,707.23 C225.25,707.23,225.12,708.06,225.12,708.12 C225.12,708.14,225.12,708.16,225.15,708.28 L225.63,710.23 C225.7,710.5,225.97,710.78,226.15,710.93 C226.5,711.24,226.79,711.31,226.96,711.31 C227.36,711.31,227.6,710.96,227.6,710.37 C227.6,709.78,227.27,708.64,227.09,708.26 C226.75,707.56,226.27,707.23,225.9,707.23 L225.91,707.01 C227.07,707.01,228.31,708.47,228.31,709.93 C228.31,710.87,227.75,711.53,226.99,711.53 C226.49,711.53,226.01,711.17,225.68,710.78 C225.58,711.32,225.16,711.53,224.79,711.53 C224.33,711.53,224.14,711.14,224.05,710.96 C223.87,710.62,223.74,710.02,223.74,709.99 C223.74,709.89,223.84,709.89,223.86,709.89 C223.96,709.89,223.97,709.9,224.03,710.12 C224.2,710.83,224.4,711.31,224.76,711.31 C224.93,711.31,225.07,711.23,225.07,710.85 C225.07,710.62,225.04,710.51,225,710.34 Z " />
<path
   id="path2523"
   fill="black"
   stroke-width="0"
   d="M228.85,709.65 L228.87,709.71 L228.89,709.76 L228.91,709.81 L228.93,709.85 L228.95,709.9 L228.98,709.95 L229,709.99 L229.03,710.03 L229.05,710.07 L229.08,710.11 L229.1,710.15 L229.13,710.19 L229.19,710.25 L229.25,710.32 L229.31,710.38 L229.37,710.43 L229.43,710.48 L229.49,710.52 L229.56,710.56 L229.62,710.6 L229.68,710.63 L229.75,710.66 L229.81,710.69 L229.87,710.71 L229.93,710.73 L229.99,710.75 L230.04,710.76 L230.1,710.77 L230.15,710.78 L230.2,710.79 L230.24,710.8 L230.28,710.8 L230.32,710.8 L230.35,710.81 L230.38,710.81 L230.4,710.81 L230.42,710.81 L230.43,710.81 C231.94,710.81,232.05,709.07,232.05,708.28 C232.05,707.67,232,707.5,231.93,707.3 C231.71,706.58,231.41,705.42,231.41,705.16 C231.41,705.05,231.46,704.98,231.54,704.98 C231.67,704.98,231.75,705.2,231.86,705.58 C232.09,706.41,232.19,706.98,232.23,707.29 C232.25,707.42,232.27,707.55,232.31,707.68 C232.63,708.67,233.26,710.15,233.66,710.94 C233.73,711.06,233.85,711.28,233.85,711.32 C233.85,711.42,233.75,711.42,233.73,711.42 C233.7,711.42,233.64,711.42,233.61,711.35 C233.1,710.4,232.7,709.4,232.3,708.4 C232.29,708.71,232.28,709.46,231.89,710.43 C231.65,711.04,231.25,711.53,230.57,711.53 C229.32,711.53,228.62,710.01,228.62,709.7 C228.62,709.6,228.71,709.6,228.81,709.6 Z " />
<path
   id="path2525"
   fill="black"
   stroke-width="0"
   d="M234.53,709.61 L234.53,709.61 L234.53,709.6 L234.53,709.59 L234.52,709.58 L234.52,709.57 L234.52,709.56 L234.52,709.56 L234.52,709.55 L234.52,709.54 L234.52,709.54 L234.51,709.53 L234.51,709.52 L234.51,709.52 L234.51,709.51 L234.51,709.51 L234.51,709.5 L234.51,709.5 L234.51,709.5 L234.51,709.49 L234.51,709.49 L234.51,709.49 L234.51,709.48 L234.51,709.48 L234.51,709.48 L234.51,709.48 L234.51,709.48 L234.51,709.47 L234.51,709.47 L234.51,709.47 L234.51,709.47 L234.51,709.47 L234.51,709.47 C234.51,709.32,234.63,709.24,234.74,709.24 C234.99,709.24,235.05,709.47,235.08,709.59 C235.09,709.63,235.23,710.19,235.4,710.87 C235.62,710.72,235.89,710.67,236.15,710.67 C236.74,710.67,237.13,711.16,237.15,711.17 C237.28,710.69,237.76,710.67,237.87,710.67 C238.12,710.67,238.29,710.82,238.42,711.04 C238.57,711.31,238.66,711.71,238.66,711.73 C238.66,711.83,238.57,711.83,238.55,711.83 C238.45,711.83,238.45,711.8,238.4,711.61 C238.31,711.28,238.18,710.86,237.89,710.86 C237.71,710.86,237.66,711.02,237.66,711.21 C237.66,711.32,237.71,711.57,237.76,711.76 C237.81,711.94,237.88,712.23,237.92,712.38 L238.08,713 C238.12,713.18,238.2,713.48,238.2,713.52 C238.2,713.66,238.08,713.74,237.96,713.74 C237.89,713.74,237.76,713.71,237.68,713.58 C237.66,713.53,237.6,713.31,237.57,713.17 L237.42,712.59 C237.32,712.19,237.3,712.08,237.21,711.72 C237.16,711.55,237.16,711.53,237.09,711.44 C236.88,711.14,236.57,710.86,236.17,710.86 C235.6,710.86,235.6,711.36,235.6,711.48 C235.6,711.66,235.62,711.76,235.72,712.13 C235.79,712.44,235.8,712.49,235.87,712.76 L235.97,713.15 C236.01,713.3,236.07,713.56,236.07,713.59 C236.07,713.72,235.98,713.81,235.84,713.81 C235.59,713.81,235.52,713.57,235.5,713.48 Z " />
<path
   id="path2527"
   fill="black"
   stroke-width="0"
   d="M242.79,704.73 L242.79,704.74 L242.79,704.74 L242.79,704.75 L242.79,704.75 L242.79,704.75 L242.79,704.75 L242.79,704.76 L242.79,704.76 L242.79,704.77 L242.79,704.77 L242.78,704.77 L242.78,704.78 L242.78,704.78 L242.77,704.79 L242.77,704.79 L242.76,704.8 L242.76,704.81 L242.75,704.81 L242.75,704.82 L242.75,704.82 L242.74,704.83 L242.74,704.83 L242.74,704.84 L242.73,704.84 L242.73,704.84 L242.72,704.85 L242.72,704.85 L242.71,704.86 L242.71,704.86 L242.7,704.87 L242.7,704.88 L242.69,704.88 L242.69,704.89 L242.68,704.89 L242.68,704.9 L242.67,704.91 L242.66,704.91 L242.66,704.92 L242.65,704.93 L242.64,704.94 L242.63,704.94 L242.63,704.95 C241.38,706.21,241.06,708.09,241.06,709.61 C241.06,711.35,241.44,713.08,242.67,714.33 C242.79,714.45,242.79,714.47,242.79,714.49 C242.79,714.57,242.76,714.59,242.7,714.59 C242.6,714.59,241.7,713.92,241.11,712.65 C240.6,711.56,240.48,710.45,240.48,709.61 C240.48,708.84,240.59,707.63,241.14,706.51 C241.74,705.28,242.6,704.63,242.7,704.63 C242.76,704.63,242.79,704.66,242.79,704.73 Z " />
<path
   id="path2529"
   fill="black"
   stroke-width="0"
   d="M246.3,713.5 L246.3,713.51 L246.3,713.52 L246.3,713.53 L246.3,713.54 L246.3,713.55 L246.3,713.56 L246.3,713.57 L246.3,713.58 L246.3,713.59 L246.3,713.6 L246.3,713.6 L246.3,713.61 L246.3,713.62 L246.3,713.63 L246.3,713.63 L246.3,713.64 L246.3,713.65 L246.3,713.65 L246.3,713.66 L246.29,713.68 L246.29,713.69 L246.29,713.7 L246.28,713.7 L246.28,713.71 L246.28,713.72 L246.27,713.72 L246.26,713.73 L246.26,713.73 L246.25,713.74 L246.24,713.74 L246.23,713.74 L246.23,713.75 L246.22,713.75 L246.22,713.75 L246.21,713.75 L246.21,713.75 L246.2,713.75 L246.19,713.75 L246.19,713.75 L246.18,713.75 L246.17,713.76 L246.17,713.76 L246.16,713.76 L246.15,713.76 L246.14,713.76 L246.13,713.76 L246.12,713.76 L246.12,713.76 L246.11,713.76 L246.1,713.76 L246.09,713.76 L246.07,713.76 C245.46,713.12,244.58,713.12,244.26,713.12 V712.81 C244.46,712.81,245.05,712.81,245.57,713.07 V707.91 C245.57,707.55,245.54,707.43,244.64,707.43 H244.32 V707.12 C244.67,707.15,245.54,707.15,245.93,707.15 C246.33,707.15,247.2,707.15,247.55,707.12 V707.43 H247.23 C246.33,707.43,246.3,707.54,246.3,707.91 Z " />
<path
   id="path2531"
   fill="black"
   stroke-width="0"
   d="M257.15,709.41 L257.17,709.41 L257.18,709.41 L257.21,709.41 L257.23,709.42 L257.25,709.42 L257.26,709.42 L257.28,709.42 L257.29,709.42 L257.3,709.42 L257.32,709.42 L257.33,709.43 L257.34,709.43 L257.36,709.43 L257.37,709.44 L257.38,709.44 L257.39,709.45 L257.4,709.46 L257.41,709.46 L257.42,709.47 L257.43,709.48 L257.44,709.49 L257.45,709.49 L257.45,709.5 L257.45,709.5 L257.46,709.51 L257.46,709.51 L257.46,709.52 L257.47,709.53 L257.47,709.53 L257.47,709.54 L257.47,709.55 L257.48,709.55 L257.48,709.56 L257.48,709.57 L257.48,709.58 L257.48,709.59 L257.48,709.59 L257.48,709.6 L257.48,709.61 C257.48,709.81,257.29,709.81,257.15,709.81 H251.72 C251.58,709.81,251.39,709.81,251.39,709.61 C251.39,709.41,251.58,709.41,251.72,709.41 Z " />
<path
   id="path2533"
   fill="black"
   stroke-width="0"
   d="M263.46,713.5 L263.46,713.51 L263.46,713.52 L263.46,713.53 L263.46,713.54 L263.46,713.55 L263.46,713.56 L263.46,713.57 L263.46,713.58 L263.46,713.59 L263.46,713.6 L263.46,713.6 L263.46,713.61 L263.46,713.62 L263.45,713.63 L263.45,713.63 L263.45,713.64 L263.45,713.65 L263.45,713.65 L263.45,713.66 L263.45,713.68 L263.44,713.69 L263.44,713.7 L263.44,713.7 L263.43,713.71 L263.43,713.72 L263.42,713.72 L263.42,713.73 L263.41,713.73 L263.4,713.74 L263.39,713.74 L263.39,713.74 L263.38,713.75 L263.38,713.75 L263.37,713.75 L263.37,713.75 L263.36,713.75 L263.35,713.75 L263.35,713.75 L263.34,713.75 L263.33,713.75 L263.33,713.76 L263.32,713.76 L263.31,713.76 L263.3,713.76 L263.29,713.76 L263.29,713.76 L263.28,713.76 L263.27,713.76 L263.26,713.76 L263.25,713.76 L263.24,713.76 L263.23,713.76 C262.61,713.12,261.73,713.12,261.41,713.12 V712.81 C261.61,712.81,262.2,712.81,262.72,713.07 V707.91 C262.72,707.55,262.69,707.43,261.79,707.43 H261.47 V707.12 C261.82,707.15,262.69,707.15,263.09,707.15 C263.49,707.15,264.35,707.15,264.7,707.12 V707.43 H264.38 C263.49,707.43,263.46,707.54,263.46,707.91 Z " />
<path
   id="path2535"
   fill="black"
   stroke-width="0"
   d="M267.43,707.65 L267.43,707.68 L267.43,707.7 L267.42,707.73 L267.42,707.76 L267.41,707.78 L267.4,707.81 L267.4,707.83 L267.39,707.86 L267.38,707.88 L267.36,707.9 L267.35,707.92 L267.34,707.94 L267.32,707.97 L267.31,707.99 L267.29,708 L267.27,708.02 L267.25,708.04 L267.23,708.06 L267.21,708.07 L267.19,708.09 L267.17,708.1 L267.15,708.11 L267.13,708.13 L267.1,708.14 L267.08,708.15 L267.06,708.15 L267.03,708.16 L267.01,708.17 L266.98,708.17 L266.95,708.18 L266.93,708.18 L266.9,708.18 C266.61,708.18,266.37,707.94,266.37,707.65 C266.37,707.36,266.61,707.12,266.9,707.12 C267.19,707.12,267.43,707.36,267.43,707.65 Z " />
<path
   id="path2537"
   fill="black"
   stroke-width="0"
   d="M272.76,708.86 H272.51 C272.46,708.56,272.39,708.12,272.29,707.97 C272.22,707.89,271.56,707.89,271.34,707.89 H269.55 L270.6,708.92 C272.16,710.29,272.76,710.83,272.76,711.83 C272.76,712.96,271.86,713.76,270.64,713.76 C269.52,713.76,268.78,712.84,268.78,711.95 C268.78,711.4,269.28,711.4,269.31,711.4 C269.48,711.4,269.83,711.52,269.83,711.92 C269.83,712.18,269.65,712.44,269.3,712.44 C269.22,712.44,269.2,712.44,269.17,712.43 C269.4,713.08,269.94,713.45,270.51,713.45 C271.42,713.45,271.85,712.64,271.85,711.83 C271.85,711.03,271.35,710.24,270.8,709.62 L268.89,707.49 C268.78,707.38,268.78,707.36,268.78,707.12 H272.48 Z " />
<path
   id="path2539"
   fill="black"
   stroke-width="0"
   d="M274.58,710.39 V710.63 C274.58,713.15,275.81,713.51,276.32,713.51 C276.56,713.51,276.98,713.45,277.2,713.11 C277.05,713.11,276.65,713.11,276.65,712.66 C276.65,712.35,276.89,712.2,277.11,712.2 C277.27,712.2,277.57,712.29,277.57,712.68 C277.57,713.28,277.13,713.76,276.3,713.76 C275.03,713.76,273.68,712.47,273.68,710.27 C273.68,707.61,274.84,706.9,275.76,706.9 C276.87,706.9,277.82,707.84,277.82,709.16 C277.82,710.42,276.93,711.38,275.82,711.38 L275.81,711.15 C275.97,711.15,276.43,711.15,276.74,710.53 C276.92,710.16,276.92,709.65,276.92,709.16 C276.92,708.69,276.92,708.19,276.75,707.83 C276.45,707.23,275.99,707.18,275.76,707.18 H275.76 C275.14,707.18,274.84,707.78,274.78,707.93 C274.6,708.4,274.6,709.2,274.6,709.37 C274.6,710.15,274.92,711.15,275.81,711.15 L275.82,711.38 C275.14,711.38,274.78,710.87,274.58,710.39 Z " />
<path
   id="path2541"
   fill="black"
   stroke-width="0"
   d="M278.65,709.65 L278.67,709.71 L278.69,709.76 L278.71,709.81 L278.73,709.85 L278.75,709.9 L278.78,709.95 L278.8,709.99 L278.83,710.03 L278.85,710.07 L278.88,710.11 L278.9,710.15 L278.93,710.19 L278.99,710.25 L279.05,710.32 L279.11,710.38 L279.17,710.43 L279.23,710.48 L279.29,710.52 L279.36,710.56 L279.42,710.6 L279.48,710.63 L279.55,710.66 L279.61,710.69 L279.67,710.71 L279.73,710.73 L279.79,710.75 L279.84,710.76 L279.9,710.77 L279.95,710.78 L280,710.79 L280.04,710.8 L280.08,710.8 L280.12,710.8 L280.15,710.81 L280.18,710.81 L280.2,710.81 L280.22,710.81 L280.23,710.81 C281.74,710.81,281.85,709.07,281.85,708.28 C281.85,707.67,281.8,707.5,281.73,707.3 C281.51,706.58,281.21,705.42,281.21,705.16 C281.21,705.05,281.26,704.98,281.34,704.98 C281.47,704.98,281.55,705.2,281.66,705.58 C281.89,706.41,281.99,706.98,282.03,707.29 C282.05,707.42,282.07,707.55,282.11,707.68 C282.43,708.67,283.06,710.15,283.46,710.94 C283.53,711.06,283.65,711.28,283.65,711.32 C283.65,711.42,283.55,711.42,283.53,711.42 C283.5,711.42,283.44,711.42,283.41,711.35 C282.89,710.4,282.5,709.4,282.1,708.4 C282.09,708.71,282.08,709.46,281.69,710.43 C281.45,711.04,281.05,711.53,280.36,711.53 C279.12,711.53,278.42,710.01,278.42,709.7 C278.42,709.6,278.51,709.6,278.61,709.6 Z " />
<path
   id="path2543"
   fill="black"
   stroke-width="0"
   d="M284.48,709.52 L284.52,709.51 L284.55,709.51 L284.58,709.5 L284.61,709.49 L284.64,709.49 L284.67,709.48 L284.7,709.47 L284.72,709.47 L284.75,709.46 L284.78,709.46 L284.8,709.46 L284.82,709.45 L284.85,709.45 L284.87,709.45 L284.89,709.44 L284.91,709.44 L284.93,709.44 L284.95,709.44 L284.97,709.44 L284.99,709.44 L285.01,709.43 L285.03,709.43 L285.04,709.43 L285.06,709.43 L285.07,709.43 L285.09,709.43 L285.1,709.43 L285.11,709.43 L285.13,709.43 L285.14,709.43 L285.15,709.43 L285.16,709.43 C286.08,709.43,286.62,710.06,286.62,710.16 C286.62,710.24,286.58,710.26,286.54,710.26 C286.53,710.26,286.51,710.26,286.48,710.24 C286.32,710.18,285.95,710.04,285.43,710.04 C285.24,710.04,284.87,710.05,284.41,710.23 C284.34,710.26,284.33,710.26,284.32,710.26 C284.23,710.26,284.23,710.18,284.23,710.07 V708.02 C284.23,707.9,284.23,707.81,284.34,707.81 C284.41,707.81,284.41,707.83,284.48,707.91 C284.78,708.29,285.21,708.35,285.45,708.35 C285.87,708.35,286.06,708.02,286.09,707.96 C286.22,707.73,286.26,707.46,286.26,707.06 C286.26,706.85,286.26,706.44,286.05,706.13 C285.88,705.88,285.58,705.71,285.24,705.71 C284.78,705.71,284.32,705.97,284.14,706.42 C284.41,706.4,284.54,706.58,284.54,706.77 C284.54,707.07,284.28,707.12,284.19,707.12 C284.18,707.12,283.84,707.12,283.84,706.75 C283.84,706.12,284.41,705.49,285.25,705.49 C286.14,705.49,286.92,706.15,286.92,707.03 C286.92,707.82,286.33,708.54,285.46,708.54 C285.15,708.54,284.79,708.47,284.48,708.2 Z " />
<path
   id="path2545"
   fill="black"
   stroke-width="0"
   d="M290.75,709.61 L290.75,709.69 L290.75,709.76 L290.75,709.84 L290.75,709.92 L290.74,710.09 L290.73,710.27 L290.71,710.45 L290.69,710.64 L290.66,710.84 L290.63,711.04 L290.59,711.24 L290.54,711.45 L290.49,711.66 L290.43,711.87 L290.36,712.08 L290.28,712.3 L290.24,712.4 L290.19,712.51 L290.14,712.62 L290.09,712.72 C289.5,713.95,288.64,714.59,288.54,714.59 C288.48,714.59,288.44,714.55,288.44,714.49 C288.44,714.47,288.44,714.45,288.63,714.27 C289.61,713.28,290.17,711.7,290.17,709.61 C290.17,707.91,289.8,706.16,288.57,704.9 C288.44,704.78,288.44,704.76,288.44,704.73 C288.44,704.67,288.48,704.63,288.54,704.63 C288.64,704.63,289.54,705.31,290.12,706.58 C290.63,707.67,290.75,708.78,290.75,709.61 Z " />
<path
   id="path2547"
   fill="black"
   stroke-width="0"
   d="M292.62,707.71 L292.62,707.7 L292.61,707.68 L292.61,707.67 L292.61,707.65 L292.6,707.62 L292.59,707.59 L292.59,707.55 L292.58,707.52 L292.57,707.49 L292.56,707.46 L292.56,707.44 L292.56,707.43 L292.55,707.41 L292.55,707.4 L292.55,707.39 L292.54,707.37 L292.54,707.36 L292.54,707.35 L292.54,707.34 L292.54,707.33 L292.53,707.32 L292.53,707.31 L292.53,707.3 L292.53,707.29 L292.53,707.29 L292.53,707.28 C292.53,707.1,292.67,707.01,292.82,707.01 C292.94,707.01,293.12,707.09,293.19,707.29 C293.2,707.31,293.32,707.78,293.38,708.03 C293.45,708.33,293.53,708.63,293.6,708.93 C293.65,709.15,293.71,709.36,293.77,709.59 C293.8,709.76,293.88,710.05,293.89,710.09 C294.04,710.4,294.57,711.31,295.52,711.31 C295.97,711.31,296.06,710.94,296.06,710.61 C296.06,709.99,295.57,708.72,295.41,708.29 C295.32,708.06,295.31,707.94,295.31,707.83 C295.31,707.36,295.66,707.01,296.13,707.01 C297.06,707.01,297.43,708.47,297.43,708.55 C297.43,708.65,297.34,708.65,297.31,708.65 C297.21,708.65,297.21,708.62,297.16,708.47 C296.96,707.79,296.63,707.23,296.15,707.23 C295.98,707.23,295.91,707.33,295.91,707.56 C295.91,707.81,296,708.05,296.09,708.27 C296.28,708.8,296.69,709.89,296.69,710.46 C296.69,711.13,296.27,711.53,295.55,711.53 C294.65,711.53,294.16,710.89,293.99,710.66 C293.94,711.22,293.54,711.53,293.08,711.53 C292.62,711.53,292.43,711.14,292.33,710.96 C292.17,710.62,292.03,710.03,292.03,709.99 C292.03,709.89,292.13,709.89,292.15,709.89 C292.25,709.89,292.26,709.9,292.32,710.12 C292.49,710.83,292.69,711.31,293.05,711.31 C293.25,711.31,293.36,711.18,293.36,710.85 C293.36,710.64,293.33,710.53,293.2,710.01 Z " />
<path
   id="path2549"
   fill="black"
   stroke-width="0"
   d="M306.86,712.77 L306.9,712.85 L306.95,712.93 L307,713.01 L307.05,713.08 L307.07,713.12 L307.1,713.15 L307.13,713.19 L307.15,713.22 L307.18,713.25 L307.21,713.28 L307.24,713.31 L307.27,713.34 L307.3,713.37 L307.34,713.39 L307.37,713.42 L307.41,713.44 L307.45,713.47 L307.49,713.49 L307.53,713.51 L307.57,713.53 L307.61,713.54 L307.66,713.56 L307.7,713.57 L307.75,713.59 L307.81,713.6 L307.86,713.61 L307.91,713.61 L307.97,713.62 C308.06,713.63,308.16,713.63,308.16,713.82 C308.16,713.86,308.12,713.93,308.04,713.93 C307.8,713.93,307.52,713.9,307.27,713.9 C306.93,713.9,306.57,713.93,306.24,713.93 C306.18,713.93,306.05,713.93,306.05,713.74 C306.05,713.63,306.14,713.62,306.2,713.62 C306.44,713.61,306.79,713.53,306.79,713.23 C306.79,713.12,306.74,713.04,306.66,712.9 L303.97,708.21 L303.6,713.15 C303.59,713.35,303.57,713.61,304.3,713.62 C304.46,713.62,304.56,713.62,304.56,713.82 C304.56,713.92,304.45,713.93,304.42,713.93 C304.02,713.93,303.6,713.9,303.2,713.9 C302.97,713.9,302.38,713.93,302.15,713.93 C302.09,713.93,301.96,713.93,301.96,713.73 C301.96,713.62,302.06,713.62,302.2,713.62 C302.64,713.62,302.71,713.56,302.73,713.37 L302.79,712.6 L300.27,708.21 L299.89,713.26 C299.89,713.38,299.89,713.61,300.65,713.62 C300.75,713.62,300.86,713.62,300.86,713.82 C300.86,713.93,300.74,713.93,300.72,713.93 C300.32,713.93,299.9,713.9,299.49,713.9 C299.14,713.9,298.79,713.93,298.45,713.93 C298.4,713.93,298.27,713.93,298.27,713.74 C298.27,713.62,298.36,713.62,298.52,713.62 C299.02,713.62,299.02,713.53,299.05,713.25 L299.49,707.16 C299.5,706.98,299.51,706.9,299.65,706.9 C299.77,706.9,299.8,706.96,299.89,707.11 L302.82,712.19 L303.19,707.16 C303.21,706.95,303.23,706.9,303.35,706.9 C303.48,706.9,303.54,707,303.59,707.09 Z " />
<path
   id="path2551"
   fill="black"
   stroke-width="0"
   d="M311.74,712.31 H313.88 C313.97,712.31,314.13,712.31,314.13,712.48 C314.13,712.66,313.97,712.66,313.88,712.66 H311.74 V714.8 C311.74,714.89,311.74,715.05,311.57,715.05 C311.4,715.05,311.4,714.89,311.4,714.8 V712.66 H309.26 C309.17,712.66,309,712.66,309,712.49 C309,712.31,309.16,712.31,309.26,712.31 H311.4 V710.17 C311.4,710.08,311.4,709.91,311.57,709.91 C311.74,709.91,311.74,710.08,311.74,710.17 Z " />
<path
   id="path2553"
   fill="black"
   stroke-width="0"
   d="M307.51,703.54 L307.51,703.53 L307.5,703.52 L307.5,703.51 L307.5,703.5 L307.5,703.5 L307.5,703.49 L307.49,703.48 L307.49,703.47 L307.49,703.47 L307.49,703.46 L307.49,703.45 L307.49,703.45 L307.49,703.44 L307.49,703.44 L307.49,703.43 L307.48,703.43 L307.48,703.43 L307.48,703.42 L307.48,703.42 L307.48,703.41 L307.48,703.41 L307.48,703.41 L307.48,703.41 L307.48,703.4 L307.48,703.4 L307.48,703.4 L307.48,703.4 L307.48,703.4 L307.48,703.4 L307.48,703.39 L307.48,703.39 L307.48,703.39 C307.48,703.24,307.61,703.17,307.72,703.17 C307.97,703.17,308.02,703.4,308.05,703.52 C308.07,703.55,308.21,704.11,308.37,704.79 C308.59,704.65,308.87,704.59,309.12,704.59 C309.72,704.59,310.11,705.08,310.12,705.09 C310.26,704.61,310.74,704.59,310.84,704.59 C311.09,704.59,311.27,704.75,311.39,704.96 C311.55,705.23,311.64,705.63,311.64,705.66 C311.64,705.75,311.55,705.75,311.53,705.75 C311.43,705.75,311.42,705.72,311.37,705.53 C311.29,705.2,311.16,704.79,310.86,704.79 C310.68,704.79,310.63,704.94,310.63,705.13 C310.63,705.25,310.69,705.5,310.74,705.68 C310.79,705.87,310.86,706.16,310.89,706.31 L311.05,706.93 C311.09,707.1,311.17,707.41,311.17,707.45 C311.17,707.59,311.06,707.67,310.94,707.67 C310.86,707.67,310.73,707.63,310.65,707.5 C310.63,707.46,310.58,707.24,310.54,707.1 L310.4,706.52 C310.3,706.11,310.27,706.01,310.18,705.65 C310.13,705.47,310.13,705.46,310.07,705.37 C309.85,705.06,309.55,704.79,309.15,704.79 C308.58,704.79,308.58,705.28,308.58,705.41 C308.58,705.59,308.6,705.68,308.7,706.06 C308.76,706.36,308.78,706.41,308.85,706.68 L308.95,707.08 C308.98,707.22,309.05,707.49,309.05,707.52 C309.05,707.64,308.95,707.74,308.81,707.74 C308.56,707.74,308.5,707.49,308.48,707.41 Z " />
</g>  </g>
  <g
     transform="translate(-15.3308,11.7566)"
     style="display:inline"
     inkscape:groupmode="layer"
     id="layer2"
     inkscape:label="lines-arrows">
    <path
       sodipodi:nodetypes="ccc"
       id="path5664"
       d="M 84.610512,36.433673 L 145.09961,63.152773 L 205.58871,90.985183"
       style="fill:none;fill-rule:evenodd;stroke:#000000;stroke-width:1px;stroke-linecap:butt;stroke-linejoin:miter;marker-mid:url(#Arrow1Lend);stroke-opacity:1" />
    <path
       style="fill:none;fill-rule:evenodd;stroke:#000000;stroke-width:1px;stroke-linecap:butt;stroke-linejoin:miter;marker-mid:url(#Arrow1Lstart);stroke-opacity:1"
       d="M 326.8892,36.433673 L 266.4001,63.152773 L 205.911,90.985183"
       id="path5666"
       sodipodi:nodetypes="ccc" />
    <path
       style="fill:none;fill-rule:evenodd;stroke:#000000;stroke-width:1px;stroke-linecap:butt;stroke-linejoin:miter;marker-mid:url(#Arrow1Lend);stroke-opacity:1;display:inline"
       d="M 413.28743,148.2569 L 352.79833,174.976 L 292.30923,202.80841"
       id="path2701"
       sodipodi:nodetypes="ccc" />
    <path
       sodipodi:nodetypes="ccc"
       id="path2703"
       d="M 413.28743,257.00819 L 352.79833,230.28909 L 292.30923,202.45668"
       style="fill:none;fill-rule:evenodd;stroke:#000000;stroke-width:1px;stroke-linecap:butt;stroke-linejoin:miter;marker-mid:url(#Arrow1Lstart);stroke-opacity:1;display:inline" />
  </g>
  <g
     inkscape:groupmode="layer"
     id="layer4"
     inkscape:label="scattering-target"
     style="display:inline"
     transform="translate(45.79843,46.9848)" />
  <g
     inkscape:groupmode="layer"
     id="layer3"
     inkscape:label="scattering"
     style="display:inline"
     transform="translate(45.79843,46.9848)" />
</svg>
