<?xml version="1.0" encoding="UTF-8" standalone="no"?>
<!-- Created with Inkscape (http://www.inkscape.org/) -->
<svg
   xmlns:ns0="http://www.iki.fi/pav/software/textext"
   xmlns:dc="http://purl.org/dc/elements/1.1/"
   xmlns:cc="http://creativecommons.org/ns#"
   xmlns:rdf="http://www.w3.org/1999/02/22-rdf-syntax-ns#"
   xmlns:svg="http://www.w3.org/2000/svg"
   xmlns="http://www.w3.org/2000/svg"
   xmlns:sodipodi="http://sodipodi.sourceforge.net/DTD/sodipodi-0.dtd"
   xmlns:inkscape="http://www.inkscape.org/namespaces/inkscape"
   width="860.88556"
   height="253.06599"
   id="svg2"
   sodipodi:version="0.32"
   inkscape:version="0.46"
   sodipodi:docname="nj_decay.svg"
   inkscape:output_extension="org.inkscape.output.svg.inkscape"
   version="1.0">
  <sodipodi:namedview
     id="base"
     pagecolor="#ffffff"
     bordercolor="#666666"
     borderopacity="1.0"
     gridtolerance="10000"
     guidetolerance="10"
     objecttolerance="10"
     inkscape:pageopacity="0.0"
     inkscape:pageshadow="2"
     inkscape:zoom="1.3683584"
     inkscape:cx="430.44278"
     inkscape:cy="126.533"
     inkscape:document-units="px"
     inkscape:current-layer="layer1"
     showgrid="false"
     inkscape:window-width="1279"
     inkscape:window-height="947"
     inkscape:window-x="1"
     inkscape:window-y="49" />
  <defs
     id="defs4">
    <marker
       style="overflow:visible"
       id="Arrow1Lstart"
       refX="0"
       refY="0"
       orient="auto"
       inkscape:stockid="Arrow1Lstart">
      <path
         transform="matrix(0.8,0,0,0.8,10,0)"
         style="fill-rule:evenodd;stroke:#000000;stroke-width:1pt;marker-start:none"
         d="M 0,0 L 5,-5 L -12.5,0 L 5,5 L 0,0 z"
         id="path3841" />
    </marker>
    <marker
       style="overflow:visible"
       id="Arrow1Lend"
       refX="0"
       refY="0"
       orient="auto"
       inkscape:stockid="Arrow1Lend">
      <path
         transform="matrix(-0.8,0,0,-0.8,-10,0)"
         style="fill-rule:evenodd;stroke:#000000;stroke-width:1pt;marker-start:none"
         d="M 0,0 L 5,-5 L -12.5,0 L 5,5 L 0,0 z"
         id="path3844" />
    </marker>
    <inkscape:perspective
       id="perspective10"
       inkscape:persp3d-origin="372.04724 : 350.78739 : 1"
       inkscape:vp_z="744.09448 : 526.18109 : 1"
       inkscape:vp_y="0 : 1000 : 0"
       inkscape:vp_x="0 : 526.18109 : 1"
       sodipodi:type="inkscape:persp3d" />
  </defs>
  <metadata
     id="metadata7">
    <rdf:RDF>
      <cc:Work
         rdf:about="">
        <dc:format>image/svg+xml</dc:format>
        <dc:type
           rdf:resource="http://purl.org/dc/dcmitype/StillImage" />
      </cc:Work>
    </rdf:RDF>
  </metadata>
  <g
     id="layer1"
     inkscape:groupmode="layer"
     inkscape:label="Labels"
     style="display:inline"
     transform="translate(-37.75923,-27.6982)">
    <g
       style="font-style:normal;font-variant:normal;font-weight:normal;font-stretch:normal;letter-spacing:normal;word-spacing:normal;text-anchor:start;fill:none;fill-opacity:1;stroke:#000000;stroke-linecap:butt;stroke-linejoin:miter;stroke-miterlimit:10.43299961;stroke-dasharray:none;stroke-dashoffset:0;stroke-opacity:1"
       xml:space="preserve"
       id="g3423"
       transform="matrix(3,0,0,-3,-548.77635,2206.7057)"
       stroke-miterlimit="10.433"
       fill-rule="even-odd"
       font-style="normal"
       font-variant="normal"
       font-weight="normal"
       font-stretch="normal"
       font-size-adjust="none"
       letter-spacing="normal"
       word-spacing="normal"
       ns0:text="$p_1$"
       ns0:preamble="">
<path
   style="fill:#000000;stroke-width:0"
   d="M 223.88,705.91 L 223.87,705.88 L 223.87,705.85 L 223.86,705.82 L 223.85,705.79 L 223.85,705.77 L 223.84,705.74 L 223.83,705.72 L 223.82,705.7 L 223.82,705.68 L 223.81,705.66 L 223.8,705.64 L 223.79,705.63 L 223.78,705.61 L 223.77,705.6 L 223.76,705.59 L 223.75,705.58 L 223.73,705.57 L 223.72,705.56 L 223.7,705.55 L 223.68,705.54 L 223.67,705.53 L 223.65,705.53 L 223.62,705.52 L 223.6,705.52 L 223.58,705.51 L 223.55,705.51 L 223.53,705.51 L 223.52,705.5 L 223.5,705.5 L 223.49,705.5 L 223.47,705.5 L 223.46,705.5 L 223.44,705.5 L 223.42,705.5 L 223.4,705.5 L 223.38,705.5 L 223.36,705.5 L 223.34,705.5 C 223.22,705.5 223.11,705.5 223.11,705.31 C 223.11,705.23 223.16,705.19 223.24,705.19 C 223.51,705.19 223.8,705.22 224.08,705.22 C 224.41,705.22 224.75,705.19 225.07,705.19 C 225.12,705.19 225.25,705.19 225.25,705.39 C 225.25,705.5 225.15,705.5 225.01,705.5 C 224.51,705.5 224.51,705.57 224.51,705.66 C 224.51,705.78 224.93,707.4 225,707.65 C 225.13,707.36 225.4,707.01 225.91,707.01 L 225.9,707.23 C 225.25,707.23 225.12,708.06 225.12,708.12 C 225.12,708.14 225.12,708.16 225.15,708.28 L 225.63,710.23 C 225.7,710.5 225.97,710.78 226.15,710.93 C 226.5,711.24 226.79,711.31 226.96,711.31 C 227.36,711.31 227.6,710.96 227.6,710.37 C 227.6,709.78 227.27,708.64 227.09,708.26 C 226.75,707.56 226.27,707.23 225.9,707.23 L 225.91,707.01 C 227.07,707.01 228.31,708.47 228.31,709.93 C 228.31,710.87 227.75,711.53 226.99,711.53 C 226.49,711.53 226.01,711.17 225.68,710.78 C 225.58,711.32 225.16,711.53 224.79,711.53 C 224.33,711.53 224.14,711.14 224.05,710.96 C 223.87,710.62 223.74,710.02 223.74,709.99 C 223.74,709.89 223.84,709.89 223.86,709.89 C 223.96,709.89 223.97,709.9 224.03,710.12 C 224.2,710.83 224.4,711.31 224.76,711.31 C 224.93,711.31 225.07,711.23 225.07,710.85 C 225.07,710.62 225.04,710.51 225,710.34 L 223.88,705.91 z"
   id="path3425" />
<path
   style="fill:#000000;stroke-width:0"
   d="M 230.78,710.07 L 230.78,710.07 L 230.78,710.08 L 230.78,710.09 L 230.78,710.1 L 230.78,710.11 L 230.78,710.11 L 230.78,710.12 L 230.78,710.13 L 230.78,710.13 L 230.78,710.14 L 230.78,710.15 L 230.78,710.15 L 230.78,710.16 L 230.78,710.16 L 230.77,710.17 L 230.77,710.18 L 230.77,710.18 L 230.77,710.19 L 230.77,710.19 L 230.77,710.2 L 230.76,710.21 L 230.76,710.22 L 230.76,710.22 L 230.75,710.23 L 230.75,710.23 L 230.74,710.24 L 230.74,710.24 L 230.73,710.25 L 230.72,710.25 L 230.71,710.25 L 230.7,710.25 L 230.7,710.26 L 230.69,710.26 L 230.68,710.26 L 230.68,710.26 L 230.67,710.26 L 230.67,710.26 L 230.66,710.26 L 230.66,710.26 L 230.65,710.26 L 230.64,710.26 L 230.63,710.26 L 230.63,710.26 L 230.62,710.26 L 230.61,710.26 L 230.6,710.26 L 230.6,710.26 L 230.59,710.26 L 230.58,710.26 L 230.57,710.26 C 230.12,709.82 229.49,709.81 229.2,709.81 L 229.2,709.56 C 229.37,709.56 229.83,709.56 230.21,709.76 L 230.21,706.2 C 230.21,705.97 230.21,705.88 229.52,705.88 L 229.25,705.88 L 229.25,705.63 C 229.38,705.64 230.24,705.66 230.49,705.66 C 230.71,705.66 231.59,705.64 231.74,705.63 L 231.74,705.88 L 231.48,705.88 C 230.78,705.88 230.78,705.97 230.78,706.2 L 230.78,710.07 z"
   id="path3427" />
</g>    <g
       style="font-style:normal;font-variant:normal;font-weight:normal;font-stretch:normal;letter-spacing:normal;word-spacing:normal;text-anchor:start;fill:none;fill-opacity:1;stroke:#000000;stroke-linecap:butt;stroke-linejoin:miter;stroke-miterlimit:10.43299961;stroke-dasharray:none;stroke-dashoffset:0;stroke-opacity:1"
       ns0:preamble=""
       ns0:text="$p_3$"
       word-spacing="normal"
       letter-spacing="normal"
       font-size-adjust="none"
       font-stretch="normal"
       font-weight="normal"
       font-variant="normal"
       font-style="normal"
       fill-rule="even-odd"
       stroke-miterlimit="10.433"
       transform="matrix(3,0,0,-3,-396.91291,2198.9089)"
       id="g3600"
       xml:space="preserve">
<path
   style="fill:#000000;stroke-width:0"
   id="path3602"
   d="M 223.88,705.91 L 223.87,705.88 L 223.87,705.85 L 223.86,705.82 L 223.85,705.79 L 223.85,705.77 L 223.84,705.74 L 223.83,705.72 L 223.82,705.7 L 223.82,705.68 L 223.81,705.66 L 223.8,705.64 L 223.79,705.63 L 223.78,705.61 L 223.77,705.6 L 223.76,705.59 L 223.75,705.58 L 223.73,705.57 L 223.72,705.56 L 223.7,705.55 L 223.68,705.54 L 223.67,705.53 L 223.65,705.53 L 223.62,705.52 L 223.6,705.52 L 223.58,705.51 L 223.55,705.51 L 223.53,705.51 L 223.52,705.5 L 223.5,705.5 L 223.49,705.5 L 223.47,705.5 L 223.46,705.5 L 223.44,705.5 L 223.42,705.5 L 223.4,705.5 L 223.38,705.5 L 223.36,705.5 L 223.34,705.5 C 223.22,705.5 223.11,705.5 223.11,705.31 C 223.11,705.23 223.16,705.19 223.24,705.19 C 223.51,705.19 223.8,705.22 224.08,705.22 C 224.41,705.22 224.75,705.19 225.07,705.19 C 225.12,705.19 225.25,705.19 225.25,705.39 C 225.25,705.5 225.15,705.5 225.01,705.5 C 224.51,705.5 224.51,705.57 224.51,705.66 C 224.51,705.78 224.93,707.4 225,707.65 C 225.13,707.36 225.4,707.01 225.91,707.01 L 225.9,707.23 C 225.25,707.23 225.12,708.06 225.12,708.12 C 225.12,708.14 225.12,708.16 225.15,708.28 L 225.63,710.23 C 225.7,710.5 225.97,710.78 226.15,710.93 C 226.5,711.24 226.79,711.31 226.96,711.31 C 227.36,711.31 227.6,710.96 227.6,710.37 C 227.6,709.78 227.27,708.64 227.09,708.26 C 226.75,707.56 226.27,707.23 225.9,707.23 L 225.91,707.01 C 227.07,707.01 228.31,708.47 228.31,709.93 C 228.31,710.87 227.75,711.53 226.99,711.53 C 226.49,711.53 226.01,711.17 225.68,710.78 C 225.58,711.32 225.16,711.53 224.79,711.53 C 224.33,711.53 224.14,711.14 224.05,710.96 C 223.87,710.62 223.74,710.02 223.74,709.99 C 223.74,709.89 223.84,709.89 223.86,709.89 C 223.96,709.89 223.97,709.9 224.03,710.12 C 224.2,710.83 224.4,711.31 224.76,711.31 C 224.93,711.31 225.07,711.23 225.07,710.85 C 225.07,710.62 225.04,710.51 225,710.34 L 223.88,705.91 z" />
<path
   style="fill:#000000;stroke-width:0"
   id="path3604"
   d="M 230.35,707.96 L 230.4,707.96 L 230.45,707.95 L 230.49,707.95 L 230.54,707.94 L 230.59,707.93 L 230.63,707.92 L 230.68,707.91 L 230.72,707.89 L 230.76,707.87 L 230.8,707.85 L 230.84,707.83 L 230.88,707.8 L 230.92,707.77 L 230.95,707.74 L 230.99,707.71 L 231.02,707.68 L 231.05,707.64 L 231.08,707.6 L 231.1,707.56 L 231.13,707.52 L 231.15,707.47 L 231.17,707.43 L 231.19,707.38 L 231.21,707.33 L 231.23,707.27 L 231.24,707.22 L 231.25,707.16 L 231.26,707.1 L 231.27,707.04 L 231.28,706.97 L 231.28,706.9 L 231.28,706.84 C 231.28,705.97 230.78,705.71 230.37,705.71 C 230.1,705.71 229.48,705.79 229.19,706.2 C 229.52,706.22 229.59,706.45 229.59,706.59 C 229.59,706.82 229.43,706.98 229.21,706.98 C 229.01,706.98 228.82,706.86 228.82,706.57 C 228.82,705.92 229.54,705.49 230.39,705.49 C 231.36,705.49 232.03,706.14 232.03,706.84 C 232.03,707.38 231.58,707.92 230.81,708.09 C 231.55,708.35 231.81,708.87 231.81,709.3 C 231.81,709.85 231.18,710.26 230.4,710.26 C 229.63,710.26 229.04,709.88 229.04,709.33 C 229.04,709.09 229.19,708.96 229.4,708.96 C 229.61,708.96 229.75,709.12 229.75,709.31 C 229.75,709.51 229.61,709.66 229.4,709.67 C 229.64,709.98 230.12,710.06 230.38,710.06 C 230.7,710.06 231.13,709.91 231.13,709.3 C 231.13,709.01 231.04,708.68 230.85,708.47 C 230.62,708.2 230.43,708.19 230.08,708.17 C 229.91,708.16 229.89,708.16 229.86,708.15 C 229.84,708.15 229.79,708.13 229.79,708.06 C 229.79,707.96 229.85,707.96 229.97,707.96 L 230.35,707.96 z" />
</g>    <g
       style="font-style:normal;font-variant:normal;font-weight:normal;font-stretch:normal;letter-spacing:normal;word-spacing:normal;text-anchor:start;fill:none;fill-opacity:1;stroke:#000000;stroke-linecap:butt;stroke-linejoin:miter;stroke-miterlimit:10.43299961;stroke-dasharray:none;stroke-dashoffset:0;stroke-opacity:1"
       xml:space="preserve"
       id="g3765"
       transform="matrix(3,0,0,-3,-336.45747,2281.1501)"
       stroke-miterlimit="10.433"
       fill-rule="even-odd"
       font-style="normal"
       font-variant="normal"
       font-weight="normal"
       font-stretch="normal"
       font-size-adjust="none"
       letter-spacing="normal"
       word-spacing="normal"
       ns0:text="$p_4$"
       ns0:preamble="">
<path
   style="fill:#000000;stroke-width:0"
   d="M 223.88,705.91 L 223.87,705.88 L 223.87,705.85 L 223.86,705.82 L 223.85,705.79 L 223.85,705.77 L 223.84,705.74 L 223.83,705.72 L 223.82,705.7 L 223.82,705.68 L 223.81,705.66 L 223.8,705.64 L 223.79,705.63 L 223.78,705.61 L 223.77,705.6 L 223.76,705.59 L 223.75,705.58 L 223.73,705.57 L 223.72,705.56 L 223.7,705.55 L 223.68,705.54 L 223.67,705.53 L 223.65,705.53 L 223.62,705.52 L 223.6,705.52 L 223.58,705.51 L 223.55,705.51 L 223.53,705.51 L 223.52,705.5 L 223.5,705.5 L 223.49,705.5 L 223.47,705.5 L 223.46,705.5 L 223.44,705.5 L 223.42,705.5 L 223.4,705.5 L 223.38,705.5 L 223.36,705.5 L 223.34,705.5 C 223.22,705.5 223.11,705.5 223.11,705.31 C 223.11,705.23 223.16,705.19 223.24,705.19 C 223.51,705.19 223.8,705.22 224.08,705.22 C 224.41,705.22 224.75,705.19 225.07,705.19 C 225.12,705.19 225.25,705.19 225.25,705.39 C 225.25,705.5 225.15,705.5 225.01,705.5 C 224.51,705.5 224.51,705.57 224.51,705.66 C 224.51,705.78 224.93,707.4 225,707.65 C 225.13,707.36 225.4,707.01 225.91,707.01 L 225.9,707.23 C 225.25,707.23 225.12,708.06 225.12,708.12 C 225.12,708.14 225.12,708.16 225.15,708.28 L 225.63,710.23 C 225.7,710.5 225.97,710.78 226.15,710.93 C 226.5,711.24 226.79,711.31 226.96,711.31 C 227.36,711.31 227.6,710.96 227.6,710.37 C 227.6,709.78 227.27,708.64 227.09,708.26 C 226.75,707.56 226.27,707.23 225.9,707.23 L 225.91,707.01 C 227.07,707.01 228.31,708.47 228.31,709.93 C 228.31,710.87 227.75,711.53 226.99,711.53 C 226.49,711.53 226.01,711.17 225.68,710.78 C 225.58,711.32 225.16,711.53 224.79,711.53 C 224.33,711.53 224.14,711.14 224.05,710.96 C 223.87,710.62 223.74,710.02 223.74,709.99 C 223.74,709.89 223.84,709.89 223.86,709.89 C 223.96,709.89 223.97,709.9 224.03,710.12 C 224.2,710.83 224.4,711.31 224.76,711.31 C 224.93,711.31 225.07,711.23 225.07,710.85 C 225.07,710.62 225.04,710.51 225,710.34 L 223.88,705.91 z"
   id="path3767" />
<path
   style="fill:#000000;stroke-width:0"
   d="M 232.13,706.77 L 232.13,707.03 L 231.36,707.03 L 231.36,710.14 C 231.36,710.28 231.36,710.33 231.2,710.33 C 231.12,710.33 231.09,710.33 231.02,710.23 L 228.71,707.03 L 228.71,706.77 L 230.76,706.77 L 230.81,707.03 L 228.97,707.03 L 230.81,709.58 L 230.81,707.03 L 230.76,706.77 L 230.76,706.2 C 230.76,705.97 230.76,705.88 230.2,705.88 L 230.01,705.88 L 230.01,705.63 C 230.36,705.64 230.81,705.66 231.06,705.66 C 231.32,705.66 231.76,705.64 232.11,705.63 L 232.11,705.88 L 231.92,705.88 C 231.36,705.88 231.36,705.97 231.36,706.2 L 231.36,706.77 L 232.13,706.77 z"
   id="path3769" />
</g>    <g
       ns0:preamble=""
       ns0:text="$p_2$"
       word-spacing="normal"
       letter-spacing="normal"
       font-size-adjust="none"
       font-stretch="normal"
       font-weight="normal"
       font-variant="normal"
       font-style="normal"
       fill-rule="even-odd"
       stroke-miterlimit="10.433"
       transform="matrix(3,0,0,-3,-341.90391,2370.4717)"
       id="g3930"
       xml:space="preserve"
       style="font-style:normal;font-variant:normal;font-weight:normal;font-stretch:normal;letter-spacing:normal;word-spacing:normal;text-anchor:start;fill:none;fill-opacity:1;stroke:#000000;stroke-linecap:butt;stroke-linejoin:miter;stroke-miterlimit:10.43299961;stroke-dasharray:none;stroke-dashoffset:0;stroke-opacity:1">
<path
   id="path3932"
   d="M 223.88,705.91 L 223.87,705.88 L 223.87,705.85 L 223.86,705.82 L 223.85,705.79 L 223.85,705.77 L 223.84,705.74 L 223.83,705.72 L 223.82,705.7 L 223.82,705.68 L 223.81,705.66 L 223.8,705.64 L 223.79,705.63 L 223.78,705.61 L 223.77,705.6 L 223.76,705.59 L 223.75,705.58 L 223.73,705.57 L 223.72,705.56 L 223.7,705.55 L 223.68,705.54 L 223.67,705.53 L 223.65,705.53 L 223.62,705.52 L 223.6,705.52 L 223.58,705.51 L 223.55,705.51 L 223.53,705.51 L 223.52,705.5 L 223.5,705.5 L 223.49,705.5 L 223.47,705.5 L 223.46,705.5 L 223.44,705.5 L 223.42,705.5 L 223.4,705.5 L 223.38,705.5 L 223.36,705.5 L 223.34,705.5 C 223.22,705.5 223.11,705.5 223.11,705.31 C 223.11,705.23 223.16,705.19 223.24,705.19 C 223.51,705.19 223.8,705.22 224.08,705.22 C 224.41,705.22 224.75,705.19 225.07,705.19 C 225.12,705.19 225.25,705.19 225.25,705.39 C 225.25,705.5 225.15,705.5 225.01,705.5 C 224.51,705.5 224.51,705.57 224.51,705.66 C 224.51,705.78 224.93,707.4 225,707.65 C 225.13,707.36 225.4,707.01 225.91,707.01 L 225.9,707.23 C 225.25,707.23 225.12,708.06 225.12,708.12 C 225.12,708.14 225.12,708.16 225.15,708.28 L 225.63,710.23 C 225.7,710.5 225.97,710.78 226.15,710.93 C 226.5,711.24 226.79,711.31 226.96,711.31 C 227.36,711.31 227.6,710.96 227.6,710.37 C 227.6,709.78 227.27,708.64 227.09,708.26 C 226.75,707.56 226.27,707.23 225.9,707.23 L 225.91,707.01 C 227.07,707.01 228.31,708.47 228.31,709.93 C 228.31,710.87 227.75,711.53 226.99,711.53 C 226.49,711.53 226.01,711.17 225.68,710.78 C 225.58,711.32 225.16,711.53 224.79,711.53 C 224.33,711.53 224.14,711.14 224.05,710.96 C 223.87,710.62 223.74,710.02 223.74,709.99 C 223.74,709.89 223.84,709.89 223.86,709.89 C 223.96,709.89 223.97,709.9 224.03,710.12 C 224.2,710.83 224.4,711.31 224.76,711.31 C 224.93,711.31 225.07,711.23 225.07,710.85 C 225.07,710.62 225.04,710.51 225,710.34 L 223.88,705.91 z"
   style="fill:#000000;stroke-width:0" />
<path
   id="path3934"
   d="M 231.96,706.9 L 231.73,706.9 C 231.71,706.75 231.64,706.33 231.55,706.27 C 231.49,706.22 230.95,706.22 230.85,706.22 L 229.57,706.22 C 230.3,706.87 230.55,707.07 230.97,707.39 C 231.48,707.81 231.96,708.24 231.96,708.9 C 231.96,709.74 231.23,710.26 230.33,710.26 C 229.47,710.26 228.88,709.65 228.88,709.01 C 228.88,708.66 229.18,708.62 229.25,708.62 C 229.42,708.62 229.62,708.74 229.62,708.99 C 229.62,709.12 229.57,709.36 229.21,709.36 C 229.43,709.86 229.9,710.01 230.23,710.01 C 230.93,710.01 231.29,709.47 231.29,708.9 C 231.29,708.29 230.85,707.81 230.63,707.56 L 228.95,705.9 C 228.88,705.84 228.88,705.83 228.88,705.63 L 231.76,705.63 L 231.96,706.9 z"
   style="fill:#000000;stroke-width:0" />
</g>    <g
       style="font-style:normal;font-variant:normal;font-weight:normal;font-stretch:normal;letter-spacing:normal;word-spacing:normal;text-anchor:start;fill:none;fill-opacity:1;stroke:#000000;stroke-linecap:butt;stroke-linejoin:miter;stroke-miterlimit:10.43299961;stroke-dasharray:none;stroke-dashoffset:0;stroke-opacity:1"
       xml:space="preserve"
       id="g4095"
       transform="matrix(3,0,0,-3,-458.45764,2274.6144)"
       stroke-miterlimit="10.433"
       fill-rule="even-odd"
       font-style="normal"
       font-variant="normal"
       font-weight="normal"
       font-stretch="normal"
       font-size-adjust="none"
       letter-spacing="normal"
       word-spacing="normal"
       ns0:text="$q$"
       ns0:preamble="">
<path
   style="fill:#000000;stroke-width:0"
   d="M 227.94,711.42 L 227.94,711.42 L 227.94,711.42 L 227.94,711.43 L 227.93,711.43 L 227.93,711.44 L 227.93,711.44 L 227.93,711.44 L 227.93,711.45 L 227.93,711.45 L 227.93,711.46 L 227.92,711.46 L 227.92,711.47 L 227.92,711.47 L 227.92,711.47 L 227.92,711.48 L 227.91,711.48 L 227.91,711.48 L 227.91,711.49 L 227.9,711.49 L 227.9,711.49 L 227.89,711.5 L 227.89,711.5 L 227.89,711.5 L 227.88,711.51 L 227.88,711.51 L 227.87,711.51 L 227.87,711.51 L 227.86,711.51 L 227.85,711.51 L 227.85,711.52 L 227.84,711.52 L 227.84,711.52 C 227.73,711.52 227.33,711.12 227.16,710.83 C 226.94,711.37 226.55,711.53 226.23,711.53 L 226.23,711.31 C 226.88,711.31 227.02,710.5 227.02,710.43 C 227.02,710.37 226.47,708.19 226.44,708.15 C 226.29,707.87 225.73,707.23 225.18,707.23 L 225.18,707.23 C 224.58,707.23 224.54,708 224.54,708.17 C 224.54,708.65 224.83,709.73 225,710.15 C 225.3,710.89 225.82,711.31 226.23,711.31 L 226.23,711.53 C 225.06,711.53 223.83,710.05 223.83,708.61 C 223.83,707.63 224.42,707.01 225.15,707.01 C 225.57,707.01 225.96,707.25 226.32,707.61 C 226.23,707.26 225.9,705.92 225.87,705.83 C 225.79,705.55 225.71,705.51 225.16,705.5 C 225.03,705.5 224.93,705.5 224.93,705.3 C 224.93,705.29 224.93,705.19 225.06,705.19 C 225.38,705.19 225.72,705.22 226.05,705.22 C 226.39,705.22 226.75,705.19 227.08,705.19 C 227.13,705.19 227.26,705.19 227.26,705.39 C 227.26,705.5 227.16,705.5 227,705.5 C 226.52,705.5 226.52,705.57 226.52,705.66 C 226.52,705.73 226.54,705.79 226.56,705.88 L 227.94,711.42 z"
   id="path4097" />
</g>    <path
       style="fill:none;fill-rule:evenodd;stroke:#000000;stroke-width:1;stroke-linecap:butt;stroke-linejoin:miter;stroke-miterlimit:4;stroke-dasharray:4, 4;stroke-dashoffset:0;stroke-opacity:1"
       d="M 168.83953,59.189664 L 254.34858,170.29697"
       id="path2605"
       transform="translate(37.48923,31.8382)" />
    <g
       xml:space="preserve"
       id="content"
       transform="matrix(3,0,0,-3,-633.70077,2169.8182)"
       stroke-miterlimit="10.433"
       fill-rule="even-odd"
       font-style="normal"
       font-variant="normal"
       font-weight="normal"
       font-stretch="normal"
       font-size-adjust="none"
       letter-spacing="normal"
       word-spacing="normal"
       ns0:text="$N_j$\\hspace{3cm}$l_\\alpha^-$"
       ns0:preamble=""
       style="font-style:normal;font-variant:normal;font-weight:normal;font-stretch:normal;letter-spacing:normal;word-spacing:normal;text-anchor:start;fill:none;fill-opacity:1;stroke:#000000;stroke-linecap:butt;stroke-linejoin:miter;stroke-miterlimit:10.43299961;stroke-dasharray:none;stroke-dashoffset:0;stroke-opacity:1">
<path
   d="M 230.96,712.88 L 230.98,712.95 L 230.99,712.99 L 231.01,713.03 L 231.02,713.06 L 231.03,713.09 L 231.05,713.13 L 231.06,713.16 L 231.08,713.19 L 231.1,713.22 L 231.12,713.25 L 231.14,713.28 L 231.16,713.31 L 231.19,713.34 L 231.21,713.36 L 231.24,713.39 L 231.27,713.41 L 231.3,713.43 L 231.34,713.46 L 231.38,713.48 L 231.42,713.5 L 231.46,713.51 L 231.5,713.53 L 231.55,713.55 L 231.6,713.56 L 231.65,713.57 L 231.71,713.58 L 231.77,713.59 L 231.83,713.6 L 231.9,713.61 L 231.97,713.61 L 232,713.62 L 232.04,713.62 C 232.09,713.62 232.21,713.63 232.21,713.82 C 232.21,713.83 232.21,713.93 232.08,713.93 C 231.75,713.93 231.4,713.9 231.07,713.9 C 230.74,713.9 230.39,713.93 230.06,713.93 C 230,713.93 229.88,713.93 229.88,713.73 C 229.88,713.62 229.98,713.62 230.06,713.62 C 230.63,713.61 230.74,713.4 230.74,713.18 C 230.74,713.15 230.71,713 230.71,712.97 L 229.59,708.54 L 227.39,713.74 C 227.31,713.92 227.3,713.93 227.07,713.93 L 225.73,713.93 C 225.54,713.93 225.45,713.93 225.45,713.73 C 225.45,713.62 225.54,713.62 225.72,713.62 C 225.77,713.62 226.4,713.62 226.4,713.53 L 225.07,708.18 C 224.97,707.78 224.8,707.46 223.99,707.43 C 223.93,707.43 223.82,707.42 223.82,707.23 C 223.82,707.16 223.87,707.12 223.95,707.12 C 224.27,707.12 224.62,707.15 224.95,707.15 C 225.29,707.15 225.64,707.12 225.97,707.12 C 226.02,707.12 226.15,707.12 226.15,707.32 C 226.15,707.42 226.06,707.43 225.95,707.43 C 225.38,707.45 225.3,707.67 225.3,707.87 C 225.3,707.94 225.3,707.99 225.34,708.1 L 226.65,713.36 C 226.69,713.3 226.69,713.28 226.74,713.18 L 229.22,707.31 C 229.29,707.14 229.32,707.12 229.41,707.12 C 229.52,707.12 229.52,707.15 229.57,707.33 L 230.96,712.88 z"
   id="path3426"
   style="fill:#000000;stroke-width:0" />
<path
   d="M 234.5,709.99 L 234.5,710 L 234.5,710.01 L 234.49,710.02 L 234.49,710.03 L 234.49,710.05 L 234.49,710.06 L 234.48,710.07 L 234.48,710.08 L 234.48,710.09 L 234.47,710.1 L 234.46,710.11 L 234.46,710.12 L 234.45,710.14 L 234.44,710.15 L 234.44,710.16 L 234.43,710.17 L 234.42,710.18 L 234.41,710.18 L 234.4,710.19 L 234.39,710.2 L 234.38,710.21 L 234.37,710.22 L 234.35,710.22 L 234.34,710.23 L 234.33,710.23 L 234.31,710.24 L 234.3,710.24 L 234.28,710.25 L 234.27,710.25 L 234.25,710.25 L 234.24,710.25 L 234.22,710.25 C 234.01,710.25 233.83,710.06 233.83,709.87 C 233.83,709.76 233.91,709.6 234.11,709.6 C 234.29,709.6 234.5,709.79 234.5,709.99 z"
   id="path3428"
   style="fill:#000000;stroke-width:0" />
<path
   d="M 233.02,705.29 L 233.01,705.24 L 232.99,705.2 L 232.98,705.16 L 232.96,705.11 L 232.95,705.07 L 232.93,705.03 L 232.91,704.99 L 232.89,704.95 L 232.86,704.91 L 232.84,704.87 L 232.82,704.83 L 232.79,704.8 L 232.76,704.76 L 232.74,704.73 L 232.71,704.7 L 232.68,704.67 L 232.65,704.64 L 232.62,704.61 L 232.59,704.58 L 232.55,704.56 L 232.52,704.53 L 232.49,704.51 L 232.45,704.49 L 232.42,704.47 L 232.38,704.46 L 232.34,704.44 L 232.31,704.43 L 232.27,704.42 L 232.23,704.41 L 232.19,704.41 L 232.16,704.4 L 232.12,704.4 C 232.03,704.4 231.94,704.42 231.87,704.44 C 232.05,704.53 232.1,704.7 232.1,704.8 C 232.1,704.97 231.97,705.06 231.83,705.06 C 231.62,705.06 231.43,704.87 231.43,704.65 C 231.43,704.38 231.71,704.21 232.12,704.21 C 232.54,704.21 233.36,704.46 233.58,705.31 L 234.2,707.81 C 234.23,707.88 234.24,707.95 234.24,708.05 C 234.24,708.43 233.91,708.71 233.49,708.71 C 232.72,708.71 232.27,707.74 232.27,707.64 C 232.27,707.55 232.37,707.55 232.39,707.55 C 232.47,707.55 232.48,707.57 232.53,707.67 C 232.7,708.08 233.07,708.51 233.47,708.51 C 233.65,708.51 233.71,708.39 233.71,708.17 C 233.71,708.09 233.7,707.99 233.69,707.96 L 233.02,705.29 z"
   id="path3430"
   style="fill:#000000;stroke-width:0" />
<path
   d="M 323.25,713.93 L 323.25,713.93 L 323.25,713.93 L 323.25,713.93 L 323.25,713.93 L 323.25,713.93 L 323.25,713.94 L 323.25,713.94 L 323.25,713.94 L 323.25,713.95 L 323.25,713.95 L 323.24,713.96 L 323.24,713.96 L 323.24,713.97 L 323.24,713.97 L 323.24,713.98 L 323.23,713.98 L 323.23,713.99 L 323.23,713.99 L 323.22,714 L 323.22,714 L 323.22,714 L 323.21,714.01 L 323.21,714.01 L 323.21,714.01 L 323.21,714.01 L 323.2,714.02 L 323.2,714.02 L 323.2,714.02 L 323.19,714.02 L 323.19,714.02 L 323.19,714.02 L 323.18,714.03 L 323.18,714.03 L 323.17,714.03 L 323.17,714.03 L 323.17,714.03 L 323.16,714.03 L 323.16,714.03 L 323.15,714.03 L 323.15,714.04 L 323.14,714.04 L 323.14,714.04 L 323.13,714.04 L 323.12,714.04 L 323.12,714.04 C 322.89,714.04 322.16,713.96 321.9,713.94 C 321.82,713.93 321.71,713.92 321.71,713.73 C 321.71,713.62 321.81,713.62 321.96,713.62 C 322.44,713.62 322.45,713.53 322.45,713.45 L 322.42,713.25 L 321.17,708.27 C 321.14,708.16 321.12,708.09 321.12,707.93 C 321.12,707.36 321.55,707.01 322.02,707.01 C 322.35,707.01 322.6,707.21 322.77,707.57 C 322.95,707.95 323.07,708.53 323.07,708.55 C 323.07,708.65 322.98,708.65 322.95,708.65 C 322.85,708.65 322.84,708.61 322.81,708.47 C 322.64,707.82 322.45,707.23 322.05,707.23 C 321.75,707.23 321.75,707.55 321.75,707.69 C 321.75,707.93 321.76,707.98 321.81,708.17 L 323.25,713.93 z"
   id="path3432"
   style="fill:#000000;stroke-width:0" />
<path
   d="M 329.05,712.31 L 329.06,712.31 L 329.07,712.31 L 329.08,712.31 L 329.09,712.31 L 329.1,712.31 L 329.11,712.32 L 329.12,712.32 L 329.13,712.32 L 329.14,712.32 L 329.15,712.32 L 329.16,712.32 L 329.17,712.32 L 329.18,712.33 L 329.19,712.33 L 329.21,712.33 L 329.22,712.33 L 329.22,712.34 L 329.23,712.34 L 329.24,712.35 L 329.25,712.35 L 329.26,712.36 L 329.27,712.37 L 329.28,712.38 L 329.28,712.38 L 329.28,712.38 L 329.29,712.39 L 329.29,712.39 L 329.29,712.4 L 329.29,712.4 L 329.3,712.41 L 329.3,712.41 L 329.3,712.42 L 329.3,712.43 L 329.3,712.43 L 329.31,712.44 L 329.31,712.44 L 329.31,712.45 L 329.31,712.46 L 329.31,712.47 L 329.31,712.47 L 329.31,712.48 C 329.31,712.66 329.15,712.66 329.05,712.66 L 324.85,712.66 C 324.76,712.66 324.6,712.66 324.6,712.48 C 324.6,712.31 324.76,712.31 324.85,712.31 L 329.05,712.31 z"
   id="path3434"
   style="fill:#000000;stroke-width:0" />
<path
   d="M 327.46,705.65 L 327.52,705.71 L 327.58,705.77 L 327.63,705.84 L 327.69,705.9 L 327.74,705.97 L 327.78,706.04 L 327.83,706.11 L 327.87,706.17 L 327.92,706.24 L 327.96,706.31 L 327.99,706.38 L 328.03,706.44 L 328.06,706.51 L 328.09,706.57 L 328.12,706.64 L 328.15,706.7 L 328.18,706.76 L 328.2,706.82 L 328.23,706.87 L 328.25,706.93 L 328.27,706.98 L 328.28,707.03 L 328.3,707.07 L 328.31,707.11 L 328.32,707.15 L 328.33,707.19 L 328.34,707.22 L 328.35,707.25 L 328.36,707.27 L 328.36,707.29 L 328.36,707.3 L 328.36,707.31 C 328.36,707.4 328.28,707.4 328.24,707.4 C 328.15,707.4 328.15,707.38 328.1,707.23 C 327.97,706.77 327.74,706.34 327.45,705.97 C 327.44,706.07 327.43,706.54 327.41,706.6 C 327.31,707.29 326.79,707.74 326.09,707.74 L 326.08,707.54 C 326.64,707.54 326.8,707.01 326.86,706.57 C 326.9,706.27 326.88,705.78 326.92,705.41 L 326.92,705.41 C 326.23,704.85 325.64,704.79 325.38,704.79 C 324.92,704.79 324.66,705.09 324.66,705.56 C 324.66,705.76 324.76,706.53 325.12,707.01 C 325.44,707.42 325.84,707.54 326.08,707.54 L 326.09,707.74 C 325.06,707.74 324.08,706.78 324.08,705.81 C 324.08,705.16 324.55,704.59 325.36,704.59 C 326,704.59 326.58,704.89 326.97,705.19 C 327.13,704.68 327.48,704.59 327.69,704.59 C 328.1,704.59 328.35,704.93 328.35,705.08 C 328.35,705.16 328.26,705.16 328.23,705.16 C 328.14,705.16 328.12,705.14 328.11,705.09 C 328.01,704.83 327.8,704.79 327.71,704.79 C 327.62,704.79 327.5,704.79 327.46,705.65 z"
   id="path3436"
   style="fill:#000000;stroke-width:0" />
</g>    <g
       ns0:preamble=""
       ns0:text="$\\eta^-$"
       word-spacing="normal"
       letter-spacing="normal"
       font-size-adjust="none"
       font-stretch="normal"
       font-weight="normal"
       font-variant="normal"
       font-style="normal"
       fill-rule="even-odd"
       stroke-miterlimit="10.433"
       transform="matrix(3,0,0,-3,-411.32774,2263.7062)"
       id="g3534"
       xml:space="preserve"
       style="font-style:normal;font-variant:normal;font-weight:normal;font-stretch:normal;letter-spacing:normal;word-spacing:normal;text-anchor:start;fill:none;fill-opacity:1;stroke:#000000;stroke-linecap:butt;stroke-linejoin:miter;stroke-miterlimit:10.43299961;stroke-dasharray:none;stroke-dashoffset:0;stroke-opacity:1">
<path
   id="path3536"
   d="M 228.29,709.88 L 228.3,709.92 L 228.31,709.95 L 228.32,709.98 L 228.33,710.01 L 228.33,710.04 L 228.34,710.07 L 228.35,710.1 L 228.35,710.14 L 228.36,710.17 L 228.36,710.21 L 228.36,710.22 L 228.37,710.24 L 228.37,710.26 L 228.37,710.28 L 228.37,710.3 L 228.37,710.32 L 228.37,710.34 L 228.37,710.37 L 228.37,710.39 L 228.37,710.41 L 228.37,710.44 L 228.37,710.46 C 228.37,711.11 227.98,711.53 227.23,711.53 C 226.44,711.53 225.92,711.01 225.68,710.66 C 225.63,711.23 225.22,711.53 224.77,711.53 C 224.31,711.53 224.12,711.14 224.03,710.96 C 223.85,710.62 223.72,710.02 223.72,709.99 C 223.72,709.89 223.82,709.89 223.84,709.89 C 223.94,709.89 223.95,709.9 224.01,710.12 C 224.18,710.83 224.38,711.31 224.74,711.31 C 224.91,711.31 225.05,711.23 225.05,710.85 C 225.05,710.64 225.02,710.53 224.89,710.01 L 224.31,707.71 C 224.28,707.56 224.22,707.33 224.22,707.28 C 224.22,707.1 224.36,707.01 224.51,707.01 C 224.63,707.01 224.81,707.09 224.88,707.29 C 224.89,707.31 225.01,707.78 225.07,708.03 C 225.14,708.33 225.22,708.63 225.29,708.93 C 225.35,709.15 225.4,709.36 225.46,709.59 C 225.48,709.65 225.55,709.98 225.56,710.04 C 225.59,710.13 225.9,710.69 226.24,710.96 C 226.46,711.12 226.77,711.31 227.2,711.31 C 227.63,711.31 227.74,710.97 227.74,710.61 C 227.74,710.56 227.74,710.38 227.64,709.98 L 226.5,705.4 C 226.47,705.28 226.47,705.26 226.47,705.24 C 226.47,705.09 226.58,704.97 226.75,704.97 C 227.06,704.97 227.13,705.26 227.16,705.37 L 228.29,709.88 z"
   style="fill:#000000;stroke-width:0" />
<path
   id="path3538"
   d="M 233.94,712.31 L 233.95,712.31 L 233.96,712.31 L 233.97,712.31 L 233.98,712.31 L 233.99,712.31 L 234,712.32 L 234.01,712.32 L 234.02,712.32 L 234.03,712.32 L 234.04,712.32 L 234.05,712.32 L 234.07,712.32 L 234.08,712.33 L 234.09,712.33 L 234.1,712.33 L 234.11,712.33 L 234.12,712.34 L 234.13,712.34 L 234.14,712.35 L 234.14,712.35 L 234.15,712.36 L 234.16,712.37 L 234.17,712.38 L 234.17,712.38 L 234.17,712.38 L 234.18,712.39 L 234.18,712.39 L 234.18,712.4 L 234.19,712.4 L 234.19,712.41 L 234.19,712.41 L 234.19,712.42 L 234.19,712.43 L 234.2,712.43 L 234.2,712.44 L 234.2,712.44 L 234.2,712.45 L 234.2,712.46 L 234.2,712.47 L 234.2,712.47 L 234.2,712.48 C 234.2,712.66 234.04,712.66 233.94,712.66 L 229.75,712.66 C 229.65,712.66 229.49,712.66 229.49,712.48 C 229.49,712.31 229.66,712.31 229.75,712.31 L 233.94,712.31 z"
   style="fill:#000000;stroke-width:0" />
</g>    <g
       xml:space="preserve"
       id="g3636"
       transform="matrix(3,0,0,-3,-252.7252,2389.0742)"
       stroke-miterlimit="10.433"
       fill-rule="even-odd"
       font-style="normal"
       font-variant="normal"
       font-weight="normal"
       font-stretch="normal"
       font-size-adjust="none"
       letter-spacing="normal"
       word-spacing="normal"
       ns0:text="$l_\\beta^+$"
       ns0:preamble=""
       style="font-style:normal;font-variant:normal;font-weight:normal;font-stretch:normal;letter-spacing:normal;word-spacing:normal;text-anchor:start;fill:none;fill-opacity:1;stroke:#000000;stroke-linecap:butt;stroke-linejoin:miter;stroke-miterlimit:10.43299961;stroke-dasharray:none;stroke-dashoffset:0;stroke-opacity:1">
<path
   d="M 226,713.93 L 226,713.93 L 226,713.93 L 226,713.93 L 226,713.93 L 226,713.93 L 226,713.94 L 226,713.94 L 226,713.94 L 226,713.95 L 226,713.95 L 226,713.96 L 226,713.96 L 226,713.97 L 225.99,713.97 L 225.99,713.98 L 225.99,713.98 L 225.99,713.99 L 225.98,713.99 L 225.98,714 L 225.98,714 L 225.97,714 L 225.97,714.01 L 225.97,714.01 L 225.96,714.01 L 225.96,714.01 L 225.96,714.02 L 225.95,714.02 L 225.95,714.02 L 225.95,714.02 L 225.94,714.02 L 225.94,714.02 L 225.94,714.03 L 225.93,714.03 L 225.93,714.03 L 225.92,714.03 L 225.92,714.03 L 225.92,714.03 L 225.91,714.03 L 225.91,714.03 L 225.9,714.04 L 225.9,714.04 L 225.89,714.04 L 225.88,714.04 L 225.88,714.04 L 225.87,714.04 C 225.64,714.04 224.92,713.96 224.66,713.94 C 224.58,713.93 224.47,713.92 224.47,713.73 C 224.47,713.62 224.57,713.62 224.72,713.62 C 225.2,713.62 225.21,713.53 225.21,713.45 L 225.18,713.25 L 223.92,708.27 C 223.89,708.16 223.87,708.09 223.87,707.93 C 223.87,707.36 224.31,707.01 224.78,707.01 C 225.11,707.01 225.35,707.21 225.52,707.57 C 225.7,707.95 225.82,708.53 225.82,708.55 C 225.82,708.65 225.73,708.65 225.7,708.65 C 225.6,708.65 225.59,708.61 225.56,708.47 C 225.4,707.82 225.21,707.23 224.81,707.23 C 224.51,707.23 224.51,707.55 224.51,707.69 C 224.51,707.93 224.52,707.98 224.57,708.17 L 226,713.93 z"
   id="path3638"
   style="fill:#000000;stroke-width:0" />
<path
   d="M 229.83,712.97 L 231.96,712.97 C 232.05,712.97 232.22,712.97 232.22,713.13 C 232.22,713.31 232.06,713.31 231.96,713.31 L 229.83,713.31 L 229.83,715.45 C 229.83,715.54 229.83,715.71 229.66,715.71 C 229.49,715.71 229.49,715.55 229.49,715.45 L 229.49,713.31 L 227.34,713.31 C 227.25,713.31 227.09,713.31 227.09,713.14 C 227.09,712.97 227.25,712.97 227.34,712.97 L 229.49,712.97 L 229.49,710.83 C 229.49,710.73 229.49,710.57 229.65,710.57 C 229.83,710.57 229.83,710.73 229.83,710.83 L 229.83,712.97 z"
   id="path3640"
   style="fill:#000000;stroke-width:0" />
<path
   d="M 226.7,702.96 L 226.7,702.95 L 226.7,702.95 L 226.7,702.95 L 226.7,702.94 L 226.7,702.94 L 226.7,702.94 L 226.7,702.93 L 226.7,702.93 L 226.69,702.93 L 226.69,702.93 L 226.69,702.92 L 226.69,702.92 L 226.69,702.92 L 226.69,702.91 L 226.69,702.91 L 226.69,702.9 L 226.69,702.9 L 226.69,702.89 L 226.69,702.89 L 226.68,702.89 L 226.68,702.88 L 226.68,702.88 L 226.68,702.88 L 226.68,702.88 L 226.68,702.87 L 226.68,702.87 L 226.68,702.87 L 226.68,702.87 L 226.68,702.87 L 226.68,702.86 L 226.68,702.86 L 226.68,702.86 L 226.68,702.86 L 226.68,702.86 L 226.68,702.85 C 226.68,702.77 226.77,702.77 226.79,702.77 C 226.9,702.77 226.9,702.78 226.94,702.95 C 227.09,703.57 227.25,704.18 227.41,704.8 C 227.62,704.28 228.15,704.04 228.68,704.04 L 228.68,704.23 C 228.03,704.23 227.55,704.65 227.55,705.25 C 227.55,705.27 227.55,705.38 227.58,705.52 C 227.6,705.55 227.96,707.06 228.02,707.26 C 228.22,707.94 228.97,708.84 229.87,708.84 C 230.22,708.84 230.42,708.61 230.42,708.28 C 230.42,708.15 230.36,707.82 230.25,707.55 C 230.13,707.24 229.92,707.06 229.88,707.06 C 229.87,707.06 229.85,707.07 229.82,707.07 C 229.64,707.13 229.48,707.13 229.35,707.13 L 229.34,706.93 C 229.39,706.93 229.53,706.93 229.62,706.91 C 229.49,706.85 229.39,706.85 229.28,706.85 C 229.16,706.85 229.07,706.86 228.95,706.88 L 228.95,706.88 C 229.02,706.91 229.07,706.93 229.34,706.93 L 229.35,707.13 C 229.14,707.13 228.7,707.13 228.7,706.87 C 228.7,706.66 229.03,706.65 229.27,706.65 C 229.43,706.65 229.61,706.65 229.88,706.76 L 229.88,706.76 C 230.06,706.58 230.11,706.35 230.11,706.17 C 230.11,706.12 230.07,705.31 229.63,704.74 C 229.46,704.51 229.11,704.23 228.68,704.23 L 228.68,704.04 C 229.72,704.04 230.68,704.99 230.68,705.93 C 230.68,706.31 230.5,706.67 230.19,706.9 C 230.79,707.31 230.93,707.79 230.93,708.09 C 230.93,708.61 230.53,709.03 229.88,709.03 C 228.97,709.03 228.01,708.21 227.75,707.14 L 226.7,702.96 z"
   id="path3642"
   style="fill:#000000;stroke-width:0" />
</g>    <g
       ns0:preamble=""
       ns0:text="$N_i$"
       word-spacing="normal"
       letter-spacing="normal"
       font-size-adjust="none"
       font-stretch="normal"
       font-weight="normal"
       font-variant="normal"
       font-style="normal"
       fill-rule="even-odd"
       stroke-miterlimit="10.433"
       transform="matrix(3,0,0,-3,-252.7252,2266.074)"
       id="g3741"
       xml:space="preserve"
       style="font-style:normal;font-variant:normal;font-weight:normal;font-stretch:normal;letter-spacing:normal;word-spacing:normal;text-anchor:start;fill:none;fill-opacity:1;stroke:#000000;stroke-linecap:butt;stroke-linejoin:miter;stroke-miterlimit:10.43299961;stroke-dasharray:none;stroke-dashoffset:0;stroke-opacity:1">
<path
   id="path3743"
   d="M 230.96,712.88 L 230.98,712.95 L 230.99,712.99 L 231.01,713.03 L 231.02,713.06 L 231.03,713.09 L 231.05,713.13 L 231.06,713.16 L 231.08,713.19 L 231.1,713.22 L 231.12,713.25 L 231.14,713.28 L 231.16,713.31 L 231.19,713.34 L 231.21,713.36 L 231.24,713.39 L 231.27,713.41 L 231.3,713.43 L 231.34,713.46 L 231.38,713.48 L 231.42,713.5 L 231.46,713.51 L 231.5,713.53 L 231.55,713.55 L 231.6,713.56 L 231.65,713.57 L 231.71,713.58 L 231.77,713.59 L 231.83,713.6 L 231.9,713.61 L 231.97,713.61 L 232,713.62 L 232.04,713.62 C 232.09,713.62 232.21,713.63 232.21,713.82 C 232.21,713.83 232.21,713.93 232.08,713.93 C 231.75,713.93 231.4,713.9 231.07,713.9 C 230.74,713.9 230.39,713.93 230.06,713.93 C 230,713.93 229.88,713.93 229.88,713.73 C 229.88,713.62 229.98,713.62 230.06,713.62 C 230.63,713.61 230.74,713.4 230.74,713.18 C 230.74,713.15 230.71,713 230.71,712.97 L 229.59,708.54 L 227.39,713.74 C 227.31,713.92 227.3,713.93 227.07,713.93 L 225.73,713.93 C 225.54,713.93 225.45,713.93 225.45,713.73 C 225.45,713.62 225.54,713.62 225.72,713.62 C 225.77,713.62 226.4,713.62 226.4,713.53 L 225.07,708.18 C 224.97,707.78 224.8,707.46 223.99,707.43 C 223.93,707.43 223.82,707.42 223.82,707.23 C 223.82,707.16 223.87,707.12 223.95,707.12 C 224.27,707.12 224.62,707.15 224.95,707.15 C 225.29,707.15 225.64,707.12 225.97,707.12 C 226.02,707.12 226.15,707.12 226.15,707.32 C 226.15,707.42 226.06,707.43 225.95,707.43 C 225.38,707.45 225.3,707.67 225.3,707.87 C 225.3,707.94 225.3,707.99 225.34,708.1 L 226.65,713.36 C 226.69,713.3 226.69,713.28 226.74,713.18 L 229.22,707.31 C 229.29,707.14 229.32,707.12 229.41,707.12 C 229.52,707.12 229.52,707.15 229.57,707.33 L 230.96,712.88 z"
   style="fill:#000000;stroke-width:0" />
<path
   id="path3745"
   d="M 233.7,709.99 L 233.69,710 L 233.69,710.01 L 233.69,710.02 L 233.69,710.03 L 233.69,710.04 L 233.69,710.05 L 233.68,710.07 L 233.68,710.08 L 233.67,710.09 L 233.67,710.1 L 233.66,710.11 L 233.66,710.12 L 233.65,710.13 L 233.64,710.14 L 233.64,710.15 L 233.63,710.16 L 233.62,710.17 L 233.61,710.18 L 233.6,710.19 L 233.59,710.2 L 233.58,710.21 L 233.57,710.21 L 233.55,710.22 L 233.54,710.23 L 233.53,710.23 L 233.51,710.24 L 233.5,710.24 L 233.48,710.25 L 233.47,710.25 L 233.45,710.25 L 233.43,710.25 L 233.42,710.25 C 233.23,710.25 233.02,710.07 233.02,709.87 C 233.02,709.75 233.12,709.6 233.3,709.6 C 233.51,709.6 233.7,709.8 233.7,709.99 z"
   style="fill:#000000;stroke-width:0" />
<path
   id="path3747"
   d="M 232.27,706.45 L 232.27,706.43 L 232.26,706.41 L 232.25,706.38 L 232.24,706.36 L 232.24,706.34 L 232.23,706.33 L 232.23,706.31 L 232.23,706.29 L 232.22,706.27 L 232.22,706.26 L 232.21,706.24 L 232.21,706.23 L 232.21,706.22 L 232.21,706.21 L 232.21,706.2 L 232.21,706.19 L 232.21,706.17 L 232.21,706.16 L 232.21,706.15 C 232.21,705.83 232.49,705.56 232.87,705.56 C 233.57,705.56 233.88,706.52 233.88,706.63 C 233.88,706.72 233.79,706.72 233.76,706.72 C 233.67,706.72 233.66,706.68 233.63,706.6 C 233.47,706.04 233.16,705.76 232.89,705.76 C 232.75,705.76 232.72,705.85 232.72,706 C 232.72,706.16 232.77,706.29 232.83,706.45 C 232.9,706.63 232.98,706.82 233.05,707 C 233.12,707.17 233.37,707.81 233.4,707.89 C 233.42,707.96 233.44,708.04 233.44,708.11 C 233.44,708.44 233.16,708.71 232.77,708.71 C 232.08,708.71 231.76,707.76 231.76,707.64 C 231.76,707.55 231.86,707.55 231.88,707.55 C 231.98,707.55 231.99,707.58 232.01,707.66 C 232.19,708.26 232.49,708.51 232.75,708.51 C 232.87,708.51 232.93,708.45 232.93,708.27 C 232.93,708.11 232.89,708 232.71,707.57 L 232.27,706.45 z"
   style="fill:#000000;stroke-width:0" />
</g>    <g
       ns0:preamble=""
       ns0:text="$p_1$"
       word-spacing="normal"
       letter-spacing="normal"
       font-size-adjust="none"
       font-stretch="normal"
       font-weight="normal"
       font-variant="normal"
       font-style="normal"
       fill-rule="even-odd"
       stroke-miterlimit="10.433"
       transform="matrix(3,0,0,-3,-99.04635,2206.7057)"
       id="g3881"
       xml:space="preserve"
       style="font-style:normal;font-variant:normal;font-weight:normal;font-stretch:normal;letter-spacing:normal;word-spacing:normal;text-anchor:start;fill:none;fill-opacity:1;stroke:#000000;stroke-linecap:butt;stroke-linejoin:miter;stroke-miterlimit:10.43299961;stroke-dasharray:none;stroke-dashoffset:0;stroke-opacity:1">
<path
   id="path3883"
   d="M 223.88,705.91 L 223.87,705.88 L 223.87,705.85 L 223.86,705.82 L 223.85,705.79 L 223.85,705.77 L 223.84,705.74 L 223.83,705.72 L 223.82,705.7 L 223.82,705.68 L 223.81,705.66 L 223.8,705.64 L 223.79,705.63 L 223.78,705.61 L 223.77,705.6 L 223.76,705.59 L 223.75,705.58 L 223.73,705.57 L 223.72,705.56 L 223.7,705.55 L 223.68,705.54 L 223.67,705.53 L 223.65,705.53 L 223.62,705.52 L 223.6,705.52 L 223.58,705.51 L 223.55,705.51 L 223.53,705.51 L 223.52,705.5 L 223.5,705.5 L 223.49,705.5 L 223.47,705.5 L 223.46,705.5 L 223.44,705.5 L 223.42,705.5 L 223.4,705.5 L 223.38,705.5 L 223.36,705.5 L 223.34,705.5 C 223.22,705.5 223.11,705.5 223.11,705.31 C 223.11,705.23 223.16,705.19 223.24,705.19 C 223.51,705.19 223.8,705.22 224.08,705.22 C 224.41,705.22 224.75,705.19 225.07,705.19 C 225.12,705.19 225.25,705.19 225.25,705.39 C 225.25,705.5 225.15,705.5 225.01,705.5 C 224.51,705.5 224.51,705.57 224.51,705.66 C 224.51,705.78 224.93,707.4 225,707.65 C 225.13,707.36 225.4,707.01 225.91,707.01 L 225.9,707.23 C 225.25,707.23 225.12,708.06 225.12,708.12 C 225.12,708.14 225.12,708.16 225.15,708.28 L 225.63,710.23 C 225.7,710.5 225.97,710.78 226.15,710.93 C 226.5,711.24 226.79,711.31 226.96,711.31 C 227.36,711.31 227.6,710.96 227.6,710.37 C 227.6,709.78 227.27,708.64 227.09,708.26 C 226.75,707.56 226.27,707.23 225.9,707.23 L 225.91,707.01 C 227.07,707.01 228.31,708.47 228.31,709.93 C 228.31,710.87 227.75,711.53 226.99,711.53 C 226.49,711.53 226.01,711.17 225.68,710.78 C 225.58,711.32 225.16,711.53 224.79,711.53 C 224.33,711.53 224.14,711.14 224.05,710.96 C 223.87,710.62 223.74,710.02 223.74,709.99 C 223.74,709.89 223.84,709.89 223.86,709.89 C 223.96,709.89 223.97,709.9 224.03,710.12 C 224.2,710.83 224.4,711.31 224.76,711.31 C 224.93,711.31 225.07,711.23 225.07,710.85 C 225.07,710.62 225.04,710.51 225,710.34 L 223.88,705.91 z"
   style="fill:#000000;stroke-width:0" />
<path
   id="path3885"
   d="M 230.78,710.07 L 230.78,710.07 L 230.78,710.08 L 230.78,710.09 L 230.78,710.1 L 230.78,710.11 L 230.78,710.11 L 230.78,710.12 L 230.78,710.13 L 230.78,710.13 L 230.78,710.14 L 230.78,710.15 L 230.78,710.15 L 230.78,710.16 L 230.78,710.16 L 230.77,710.17 L 230.77,710.18 L 230.77,710.18 L 230.77,710.19 L 230.77,710.19 L 230.77,710.2 L 230.76,710.21 L 230.76,710.22 L 230.76,710.22 L 230.75,710.23 L 230.75,710.23 L 230.74,710.24 L 230.74,710.24 L 230.73,710.25 L 230.72,710.25 L 230.71,710.25 L 230.7,710.25 L 230.7,710.26 L 230.69,710.26 L 230.68,710.26 L 230.68,710.26 L 230.67,710.26 L 230.67,710.26 L 230.66,710.26 L 230.66,710.26 L 230.65,710.26 L 230.64,710.26 L 230.63,710.26 L 230.63,710.26 L 230.62,710.26 L 230.61,710.26 L 230.6,710.26 L 230.6,710.26 L 230.59,710.26 L 230.58,710.26 L 230.57,710.26 C 230.12,709.82 229.49,709.81 229.2,709.81 L 229.2,709.56 C 229.37,709.56 229.83,709.56 230.21,709.76 L 230.21,706.2 C 230.21,705.97 230.21,705.88 229.52,705.88 L 229.25,705.88 L 229.25,705.63 C 229.38,705.64 230.24,705.66 230.49,705.66 C 230.71,705.66 231.59,705.64 231.74,705.63 L 231.74,705.88 L 231.48,705.88 C 230.78,705.88 230.78,705.97 230.78,706.2 L 230.78,710.07 z"
   style="fill:#000000;stroke-width:0" />
</g>    <g
       xml:space="preserve"
       id="g3887"
       transform="matrix(3,0,0,-3,52.81709,2198.9089)"
       stroke-miterlimit="10.433"
       fill-rule="even-odd"
       font-style="normal"
       font-variant="normal"
       font-weight="normal"
       font-stretch="normal"
       font-size-adjust="none"
       letter-spacing="normal"
       word-spacing="normal"
       ns0:text="$p_3$"
       ns0:preamble=""
       style="font-style:normal;font-variant:normal;font-weight:normal;font-stretch:normal;letter-spacing:normal;word-spacing:normal;text-anchor:start;fill:none;fill-opacity:1;stroke:#000000;stroke-linecap:butt;stroke-linejoin:miter;stroke-miterlimit:10.43299961;stroke-dasharray:none;stroke-dashoffset:0;stroke-opacity:1">
<path
   d="M 223.88,705.91 L 223.87,705.88 L 223.87,705.85 L 223.86,705.82 L 223.85,705.79 L 223.85,705.77 L 223.84,705.74 L 223.83,705.72 L 223.82,705.7 L 223.82,705.68 L 223.81,705.66 L 223.8,705.64 L 223.79,705.63 L 223.78,705.61 L 223.77,705.6 L 223.76,705.59 L 223.75,705.58 L 223.73,705.57 L 223.72,705.56 L 223.7,705.55 L 223.68,705.54 L 223.67,705.53 L 223.65,705.53 L 223.62,705.52 L 223.6,705.52 L 223.58,705.51 L 223.55,705.51 L 223.53,705.51 L 223.52,705.5 L 223.5,705.5 L 223.49,705.5 L 223.47,705.5 L 223.46,705.5 L 223.44,705.5 L 223.42,705.5 L 223.4,705.5 L 223.38,705.5 L 223.36,705.5 L 223.34,705.5 C 223.22,705.5 223.11,705.5 223.11,705.31 C 223.11,705.23 223.16,705.19 223.24,705.19 C 223.51,705.19 223.8,705.22 224.08,705.22 C 224.41,705.22 224.75,705.19 225.07,705.19 C 225.12,705.19 225.25,705.19 225.25,705.39 C 225.25,705.5 225.15,705.5 225.01,705.5 C 224.51,705.5 224.51,705.57 224.51,705.66 C 224.51,705.78 224.93,707.4 225,707.65 C 225.13,707.36 225.4,707.01 225.91,707.01 L 225.9,707.23 C 225.25,707.23 225.12,708.06 225.12,708.12 C 225.12,708.14 225.12,708.16 225.15,708.28 L 225.63,710.23 C 225.7,710.5 225.97,710.78 226.15,710.93 C 226.5,711.24 226.79,711.31 226.96,711.31 C 227.36,711.31 227.6,710.96 227.6,710.37 C 227.6,709.78 227.27,708.64 227.09,708.26 C 226.75,707.56 226.27,707.23 225.9,707.23 L 225.91,707.01 C 227.07,707.01 228.31,708.47 228.31,709.93 C 228.31,710.87 227.75,711.53 226.99,711.53 C 226.49,711.53 226.01,711.17 225.68,710.78 C 225.58,711.32 225.16,711.53 224.79,711.53 C 224.33,711.53 224.14,711.14 224.05,710.96 C 223.87,710.62 223.74,710.02 223.74,709.99 C 223.74,709.89 223.84,709.89 223.86,709.89 C 223.96,709.89 223.97,709.9 224.03,710.12 C 224.2,710.83 224.4,711.31 224.76,711.31 C 224.93,711.31 225.07,711.23 225.07,710.85 C 225.07,710.62 225.04,710.51 225,710.34 L 223.88,705.91 z"
   id="path3889"
   style="fill:#000000;stroke-width:0" />
<path
   d="M 230.35,707.96 L 230.4,707.96 L 230.45,707.95 L 230.49,707.95 L 230.54,707.94 L 230.59,707.93 L 230.63,707.92 L 230.68,707.91 L 230.72,707.89 L 230.76,707.87 L 230.8,707.85 L 230.84,707.83 L 230.88,707.8 L 230.92,707.77 L 230.95,707.74 L 230.99,707.71 L 231.02,707.68 L 231.05,707.64 L 231.08,707.6 L 231.1,707.56 L 231.13,707.52 L 231.15,707.47 L 231.17,707.43 L 231.19,707.38 L 231.21,707.33 L 231.23,707.27 L 231.24,707.22 L 231.25,707.16 L 231.26,707.1 L 231.27,707.04 L 231.28,706.97 L 231.28,706.9 L 231.28,706.84 C 231.28,705.97 230.78,705.71 230.37,705.71 C 230.1,705.71 229.48,705.79 229.19,706.2 C 229.52,706.22 229.59,706.45 229.59,706.59 C 229.59,706.82 229.43,706.98 229.21,706.98 C 229.01,706.98 228.82,706.86 228.82,706.57 C 228.82,705.92 229.54,705.49 230.39,705.49 C 231.36,705.49 232.03,706.14 232.03,706.84 C 232.03,707.38 231.58,707.92 230.81,708.09 C 231.55,708.35 231.81,708.87 231.81,709.3 C 231.81,709.85 231.18,710.26 230.4,710.26 C 229.63,710.26 229.04,709.88 229.04,709.33 C 229.04,709.09 229.19,708.96 229.4,708.96 C 229.61,708.96 229.75,709.12 229.75,709.31 C 229.75,709.51 229.61,709.66 229.4,709.67 C 229.64,709.98 230.12,710.06 230.38,710.06 C 230.7,710.06 231.13,709.91 231.13,709.3 C 231.13,709.01 231.04,708.68 230.85,708.47 C 230.62,708.2 230.43,708.19 230.08,708.17 C 229.91,708.16 229.89,708.16 229.86,708.15 C 229.84,708.15 229.79,708.13 229.79,708.06 C 229.79,707.96 229.85,707.96 229.97,707.96 L 230.35,707.96 z"
   id="path3891"
   style="fill:#000000;stroke-width:0" />
</g>    <g
       ns0:preamble=""
       ns0:text="$p_4$"
       word-spacing="normal"
       letter-spacing="normal"
       font-size-adjust="none"
       font-stretch="normal"
       font-weight="normal"
       font-variant="normal"
       font-style="normal"
       fill-rule="even-odd"
       stroke-miterlimit="10.433"
       transform="matrix(3,0,0,-3,113.27253,2281.1501)"
       id="g3893"
       xml:space="preserve"
       style="font-style:normal;font-variant:normal;font-weight:normal;font-stretch:normal;letter-spacing:normal;word-spacing:normal;text-anchor:start;fill:none;fill-opacity:1;stroke:#000000;stroke-linecap:butt;stroke-linejoin:miter;stroke-miterlimit:10.43299961;stroke-dasharray:none;stroke-dashoffset:0;stroke-opacity:1">
<path
   id="path3895"
   d="M 223.88,705.91 L 223.87,705.88 L 223.87,705.85 L 223.86,705.82 L 223.85,705.79 L 223.85,705.77 L 223.84,705.74 L 223.83,705.72 L 223.82,705.7 L 223.82,705.68 L 223.81,705.66 L 223.8,705.64 L 223.79,705.63 L 223.78,705.61 L 223.77,705.6 L 223.76,705.59 L 223.75,705.58 L 223.73,705.57 L 223.72,705.56 L 223.7,705.55 L 223.68,705.54 L 223.67,705.53 L 223.65,705.53 L 223.62,705.52 L 223.6,705.52 L 223.58,705.51 L 223.55,705.51 L 223.53,705.51 L 223.52,705.5 L 223.5,705.5 L 223.49,705.5 L 223.47,705.5 L 223.46,705.5 L 223.44,705.5 L 223.42,705.5 L 223.4,705.5 L 223.38,705.5 L 223.36,705.5 L 223.34,705.5 C 223.22,705.5 223.11,705.5 223.11,705.31 C 223.11,705.23 223.16,705.19 223.24,705.19 C 223.51,705.19 223.8,705.22 224.08,705.22 C 224.41,705.22 224.75,705.19 225.07,705.19 C 225.12,705.19 225.25,705.19 225.25,705.39 C 225.25,705.5 225.15,705.5 225.01,705.5 C 224.51,705.5 224.51,705.57 224.51,705.66 C 224.51,705.78 224.93,707.4 225,707.65 C 225.13,707.36 225.4,707.01 225.91,707.01 L 225.9,707.23 C 225.25,707.23 225.12,708.06 225.12,708.12 C 225.12,708.14 225.12,708.16 225.15,708.28 L 225.63,710.23 C 225.7,710.5 225.97,710.78 226.15,710.93 C 226.5,711.24 226.79,711.31 226.96,711.31 C 227.36,711.31 227.6,710.96 227.6,710.37 C 227.6,709.78 227.27,708.64 227.09,708.26 C 226.75,707.56 226.27,707.23 225.9,707.23 L 225.91,707.01 C 227.07,707.01 228.31,708.47 228.31,709.93 C 228.31,710.87 227.75,711.53 226.99,711.53 C 226.49,711.53 226.01,711.17 225.68,710.78 C 225.58,711.32 225.16,711.53 224.79,711.53 C 224.33,711.53 224.14,711.14 224.05,710.96 C 223.87,710.62 223.74,710.02 223.74,709.99 C 223.74,709.89 223.84,709.89 223.86,709.89 C 223.96,709.89 223.97,709.9 224.03,710.12 C 224.2,710.83 224.4,711.31 224.76,711.31 C 224.93,711.31 225.07,711.23 225.07,710.85 C 225.07,710.62 225.04,710.51 225,710.34 L 223.88,705.91 z"
   style="fill:#000000;stroke-width:0" />
<path
   id="path3897"
   d="M 232.13,706.77 L 232.13,707.03 L 231.36,707.03 L 231.36,710.14 C 231.36,710.28 231.36,710.33 231.2,710.33 C 231.12,710.33 231.09,710.33 231.02,710.23 L 228.71,707.03 L 228.71,706.77 L 230.76,706.77 L 230.81,707.03 L 228.97,707.03 L 230.81,709.58 L 230.81,707.03 L 230.76,706.77 L 230.76,706.2 C 230.76,705.97 230.76,705.88 230.2,705.88 L 230.01,705.88 L 230.01,705.63 C 230.36,705.64 230.81,705.66 231.06,705.66 C 231.32,705.66 231.76,705.64 232.11,705.63 L 232.11,705.88 L 231.92,705.88 C 231.36,705.88 231.36,705.97 231.36,706.2 L 231.36,706.77 L 232.13,706.77 z"
   style="fill:#000000;stroke-width:0" />
</g>    <g
       style="font-style:normal;font-variant:normal;font-weight:normal;font-stretch:normal;letter-spacing:normal;word-spacing:normal;text-anchor:start;fill:none;fill-opacity:1;stroke:#000000;stroke-linecap:butt;stroke-linejoin:miter;stroke-miterlimit:10.43299961;stroke-dasharray:none;stroke-dashoffset:0;stroke-opacity:1"
       xml:space="preserve"
       id="g3899"
       transform="matrix(3,0,0,-3,107.82609,2370.4717)"
       stroke-miterlimit="10.433"
       fill-rule="even-odd"
       font-style="normal"
       font-variant="normal"
       font-weight="normal"
       font-stretch="normal"
       font-size-adjust="none"
       letter-spacing="normal"
       word-spacing="normal"
       ns0:text="$p_2$"
       ns0:preamble="">
<path
   style="fill:#000000;stroke-width:0"
   d="M 223.88,705.91 L 223.87,705.88 L 223.87,705.85 L 223.86,705.82 L 223.85,705.79 L 223.85,705.77 L 223.84,705.74 L 223.83,705.72 L 223.82,705.7 L 223.82,705.68 L 223.81,705.66 L 223.8,705.64 L 223.79,705.63 L 223.78,705.61 L 223.77,705.6 L 223.76,705.59 L 223.75,705.58 L 223.73,705.57 L 223.72,705.56 L 223.7,705.55 L 223.68,705.54 L 223.67,705.53 L 223.65,705.53 L 223.62,705.52 L 223.6,705.52 L 223.58,705.51 L 223.55,705.51 L 223.53,705.51 L 223.52,705.5 L 223.5,705.5 L 223.49,705.5 L 223.47,705.5 L 223.46,705.5 L 223.44,705.5 L 223.42,705.5 L 223.4,705.5 L 223.38,705.5 L 223.36,705.5 L 223.34,705.5 C 223.22,705.5 223.11,705.5 223.11,705.31 C 223.11,705.23 223.16,705.19 223.24,705.19 C 223.51,705.19 223.8,705.22 224.08,705.22 C 224.41,705.22 224.75,705.19 225.07,705.19 C 225.12,705.19 225.25,705.19 225.25,705.39 C 225.25,705.5 225.15,705.5 225.01,705.5 C 224.51,705.5 224.51,705.57 224.51,705.66 C 224.51,705.78 224.93,707.4 225,707.65 C 225.13,707.36 225.4,707.01 225.91,707.01 L 225.9,707.23 C 225.25,707.23 225.12,708.06 225.12,708.12 C 225.12,708.14 225.12,708.16 225.15,708.28 L 225.63,710.23 C 225.7,710.5 225.97,710.78 226.15,710.93 C 226.5,711.24 226.79,711.31 226.96,711.31 C 227.36,711.31 227.6,710.96 227.6,710.37 C 227.6,709.78 227.27,708.64 227.09,708.26 C 226.75,707.56 226.27,707.23 225.9,707.23 L 225.91,707.01 C 227.07,707.01 228.31,708.47 228.31,709.93 C 228.31,710.87 227.75,711.53 226.99,711.53 C 226.49,711.53 226.01,711.17 225.68,710.78 C 225.58,711.32 225.16,711.53 224.79,711.53 C 224.33,711.53 224.14,711.14 224.05,710.96 C 223.87,710.62 223.74,710.02 223.74,709.99 C 223.74,709.89 223.84,709.89 223.86,709.89 C 223.96,709.89 223.97,709.9 224.03,710.12 C 224.2,710.83 224.4,711.31 224.76,711.31 C 224.93,711.31 225.07,711.23 225.07,710.85 C 225.07,710.62 225.04,710.51 225,710.34 L 223.88,705.91 z"
   id="path3901" />
<path
   style="fill:#000000;stroke-width:0"
   d="M 231.96,706.9 L 231.73,706.9 C 231.71,706.75 231.64,706.33 231.55,706.27 C 231.49,706.22 230.95,706.22 230.85,706.22 L 229.57,706.22 C 230.3,706.87 230.55,707.07 230.97,707.39 C 231.48,707.81 231.96,708.24 231.96,708.9 C 231.96,709.74 231.23,710.26 230.33,710.26 C 229.47,710.26 228.88,709.65 228.88,709.01 C 228.88,708.66 229.18,708.62 229.25,708.62 C 229.42,708.62 229.62,708.74 229.62,708.99 C 229.62,709.12 229.57,709.36 229.21,709.36 C 229.43,709.86 229.9,710.01 230.23,710.01 C 230.93,710.01 231.29,709.47 231.29,708.9 C 231.29,708.29 230.85,707.81 230.63,707.56 L 228.95,705.9 C 228.88,705.84 228.88,705.83 228.88,705.63 L 231.76,705.63 L 231.96,706.9 z"
   id="path3903" />
</g>    <g
       ns0:preamble=""
       ns0:text="$q$"
       word-spacing="normal"
       letter-spacing="normal"
       font-size-adjust="none"
       font-stretch="normal"
       font-weight="normal"
       font-variant="normal"
       font-style="normal"
       fill-rule="even-odd"
       stroke-miterlimit="10.433"
       transform="matrix(3,0,0,-3,-8.72764,2274.6144)"
       id="g3905"
       xml:space="preserve"
       style="font-style:normal;font-variant:normal;font-weight:normal;font-stretch:normal;letter-spacing:normal;word-spacing:normal;text-anchor:start;fill:none;fill-opacity:1;stroke:#000000;stroke-linecap:butt;stroke-linejoin:miter;stroke-miterlimit:10.43299961;stroke-dasharray:none;stroke-dashoffset:0;stroke-opacity:1">
<path
   id="path3907"
   d="M 227.94,711.42 L 227.94,711.42 L 227.94,711.42 L 227.94,711.43 L 227.93,711.43 L 227.93,711.44 L 227.93,711.44 L 227.93,711.44 L 227.93,711.45 L 227.93,711.45 L 227.93,711.46 L 227.92,711.46 L 227.92,711.47 L 227.92,711.47 L 227.92,711.47 L 227.92,711.48 L 227.91,711.48 L 227.91,711.48 L 227.91,711.49 L 227.9,711.49 L 227.9,711.49 L 227.89,711.5 L 227.89,711.5 L 227.89,711.5 L 227.88,711.51 L 227.88,711.51 L 227.87,711.51 L 227.87,711.51 L 227.86,711.51 L 227.85,711.51 L 227.85,711.52 L 227.84,711.52 L 227.84,711.52 C 227.73,711.52 227.33,711.12 227.16,710.83 C 226.94,711.37 226.55,711.53 226.23,711.53 L 226.23,711.31 C 226.88,711.31 227.02,710.5 227.02,710.43 C 227.02,710.37 226.47,708.19 226.44,708.15 C 226.29,707.87 225.73,707.23 225.18,707.23 L 225.18,707.23 C 224.58,707.23 224.54,708 224.54,708.17 C 224.54,708.65 224.83,709.73 225,710.15 C 225.3,710.89 225.82,711.31 226.23,711.31 L 226.23,711.53 C 225.06,711.53 223.83,710.05 223.83,708.61 C 223.83,707.63 224.42,707.01 225.15,707.01 C 225.57,707.01 225.96,707.25 226.32,707.61 C 226.23,707.26 225.9,705.92 225.87,705.83 C 225.79,705.55 225.71,705.51 225.16,705.5 C 225.03,705.5 224.93,705.5 224.93,705.3 C 224.93,705.29 224.93,705.19 225.06,705.19 C 225.38,705.19 225.72,705.22 226.05,705.22 C 226.39,705.22 226.75,705.19 227.08,705.19 C 227.13,705.19 227.26,705.19 227.26,705.39 C 227.26,705.5 227.16,705.5 227,705.5 C 226.52,705.5 226.52,705.57 226.52,705.66 C 226.52,705.73 226.54,705.79 226.56,705.88 L 227.94,711.42 z"
   style="fill:#000000;stroke-width:0" />
</g>    <path
       id="path3909"
       d="M 656.05876,91.027864 L 741.56781,202.13517"
       style="fill:none;fill-rule:evenodd;stroke:#000000;stroke-width:1;stroke-linecap:butt;stroke-linejoin:miter;stroke-miterlimit:4;stroke-dasharray:4, 4;stroke-dashoffset:0;stroke-opacity:1" />
    <g
       xml:space="preserve"
       id="g3925"
       transform="matrix(3,0,0,-3,38.40226,2263.7062)"
       stroke-miterlimit="10.433"
       fill-rule="even-odd"
       font-style="normal"
       font-variant="normal"
       font-weight="normal"
       font-stretch="normal"
       font-size-adjust="none"
       letter-spacing="normal"
       word-spacing="normal"
       ns0:text="$\\eta^-$"
       ns0:preamble=""
       style="font-style:normal;font-variant:normal;font-weight:normal;font-stretch:normal;letter-spacing:normal;word-spacing:normal;text-anchor:start;fill:none;fill-opacity:1;stroke:#000000;stroke-linecap:butt;stroke-linejoin:miter;stroke-miterlimit:10.43299961;stroke-dasharray:none;stroke-dashoffset:0;stroke-opacity:1">
<path
   d="M 228.29,709.88 L 228.3,709.92 L 228.31,709.95 L 228.32,709.98 L 228.33,710.01 L 228.33,710.04 L 228.34,710.07 L 228.35,710.1 L 228.35,710.14 L 228.36,710.17 L 228.36,710.21 L 228.36,710.22 L 228.37,710.24 L 228.37,710.26 L 228.37,710.28 L 228.37,710.3 L 228.37,710.32 L 228.37,710.34 L 228.37,710.37 L 228.37,710.39 L 228.37,710.41 L 228.37,710.44 L 228.37,710.46 C 228.37,711.11 227.98,711.53 227.23,711.53 C 226.44,711.53 225.92,711.01 225.68,710.66 C 225.63,711.23 225.22,711.53 224.77,711.53 C 224.31,711.53 224.12,711.14 224.03,710.96 C 223.85,710.62 223.72,710.02 223.72,709.99 C 223.72,709.89 223.82,709.89 223.84,709.89 C 223.94,709.89 223.95,709.9 224.01,710.12 C 224.18,710.83 224.38,711.31 224.74,711.31 C 224.91,711.31 225.05,711.23 225.05,710.85 C 225.05,710.64 225.02,710.53 224.89,710.01 L 224.31,707.71 C 224.28,707.56 224.22,707.33 224.22,707.28 C 224.22,707.1 224.36,707.01 224.51,707.01 C 224.63,707.01 224.81,707.09 224.88,707.29 C 224.89,707.31 225.01,707.78 225.07,708.03 C 225.14,708.33 225.22,708.63 225.29,708.93 C 225.35,709.15 225.4,709.36 225.46,709.59 C 225.48,709.65 225.55,709.98 225.56,710.04 C 225.59,710.13 225.9,710.69 226.24,710.96 C 226.46,711.12 226.77,711.31 227.2,711.31 C 227.63,711.31 227.74,710.97 227.74,710.61 C 227.74,710.56 227.74,710.38 227.64,709.98 L 226.5,705.4 C 226.47,705.28 226.47,705.26 226.47,705.24 C 226.47,705.09 226.58,704.97 226.75,704.97 C 227.06,704.97 227.13,705.26 227.16,705.37 L 228.29,709.88 z"
   id="path3927"
   style="fill:#000000;stroke-width:0" />
<path
   d="M 233.94,712.31 L 233.95,712.31 L 233.96,712.31 L 233.97,712.31 L 233.98,712.31 L 233.99,712.31 L 234,712.32 L 234.01,712.32 L 234.02,712.32 L 234.03,712.32 L 234.04,712.32 L 234.05,712.32 L 234.07,712.32 L 234.08,712.33 L 234.09,712.33 L 234.1,712.33 L 234.11,712.33 L 234.12,712.34 L 234.13,712.34 L 234.14,712.35 L 234.14,712.35 L 234.15,712.36 L 234.16,712.37 L 234.17,712.38 L 234.17,712.38 L 234.17,712.38 L 234.18,712.39 L 234.18,712.39 L 234.18,712.4 L 234.19,712.4 L 234.19,712.41 L 234.19,712.41 L 234.19,712.42 L 234.19,712.43 L 234.2,712.43 L 234.2,712.44 L 234.2,712.44 L 234.2,712.45 L 234.2,712.46 L 234.2,712.47 L 234.2,712.47 L 234.2,712.48 C 234.2,712.66 234.04,712.66 233.94,712.66 L 229.75,712.66 C 229.65,712.66 229.49,712.66 229.49,712.48 C 229.49,712.31 229.66,712.31 229.75,712.31 L 233.94,712.31 z"
   id="path3929"
   style="fill:#000000;stroke-width:0" />
</g>    <g
       xml:space="preserve"
       id="g3939"
       transform="matrix(3,0,0,-3,197.0048,2266.074)"
       stroke-miterlimit="10.433"
       fill-rule="even-odd"
       font-style="normal"
       font-variant="normal"
       font-weight="normal"
       font-stretch="normal"
       font-size-adjust="none"
       letter-spacing="normal"
       word-spacing="normal"
       ns0:text="$N_i$"
       ns0:preamble=""
       style="font-style:normal;font-variant:normal;font-weight:normal;font-stretch:normal;letter-spacing:normal;word-spacing:normal;text-anchor:start;fill:none;fill-opacity:1;stroke:#000000;stroke-linecap:butt;stroke-linejoin:miter;stroke-miterlimit:10.43299961;stroke-dasharray:none;stroke-dashoffset:0;stroke-opacity:1">
<path
   d="M 230.96,712.88 L 230.98,712.95 L 230.99,712.99 L 231.01,713.03 L 231.02,713.06 L 231.03,713.09 L 231.05,713.13 L 231.06,713.16 L 231.08,713.19 L 231.1,713.22 L 231.12,713.25 L 231.14,713.28 L 231.16,713.31 L 231.19,713.34 L 231.21,713.36 L 231.24,713.39 L 231.27,713.41 L 231.3,713.43 L 231.34,713.46 L 231.38,713.48 L 231.42,713.5 L 231.46,713.51 L 231.5,713.53 L 231.55,713.55 L 231.6,713.56 L 231.65,713.57 L 231.71,713.58 L 231.77,713.59 L 231.83,713.6 L 231.9,713.61 L 231.97,713.61 L 232,713.62 L 232.04,713.62 C 232.09,713.62 232.21,713.63 232.21,713.82 C 232.21,713.83 232.21,713.93 232.08,713.93 C 231.75,713.93 231.4,713.9 231.07,713.9 C 230.74,713.9 230.39,713.93 230.06,713.93 C 230,713.93 229.88,713.93 229.88,713.73 C 229.88,713.62 229.98,713.62 230.06,713.62 C 230.63,713.61 230.74,713.4 230.74,713.18 C 230.74,713.15 230.71,713 230.71,712.97 L 229.59,708.54 L 227.39,713.74 C 227.31,713.92 227.3,713.93 227.07,713.93 L 225.73,713.93 C 225.54,713.93 225.45,713.93 225.45,713.73 C 225.45,713.62 225.54,713.62 225.72,713.62 C 225.77,713.62 226.4,713.62 226.4,713.53 L 225.07,708.18 C 224.97,707.78 224.8,707.46 223.99,707.43 C 223.93,707.43 223.82,707.42 223.82,707.23 C 223.82,707.16 223.87,707.12 223.95,707.12 C 224.27,707.12 224.62,707.15 224.95,707.15 C 225.29,707.15 225.64,707.12 225.97,707.12 C 226.02,707.12 226.15,707.12 226.15,707.32 C 226.15,707.42 226.06,707.43 225.95,707.43 C 225.38,707.45 225.3,707.67 225.3,707.87 C 225.3,707.94 225.3,707.99 225.34,708.1 L 226.65,713.36 C 226.69,713.3 226.69,713.28 226.74,713.18 L 229.22,707.31 C 229.29,707.14 229.32,707.12 229.41,707.12 C 229.52,707.12 229.52,707.15 229.57,707.33 L 230.96,712.88 z"
   id="path3941"
   style="fill:#000000;stroke-width:0" />
<path
   d="M 233.7,709.99 L 233.69,710 L 233.69,710.01 L 233.69,710.02 L 233.69,710.03 L 233.69,710.04 L 233.69,710.05 L 233.68,710.07 L 233.68,710.08 L 233.67,710.09 L 233.67,710.1 L 233.66,710.11 L 233.66,710.12 L 233.65,710.13 L 233.64,710.14 L 233.64,710.15 L 233.63,710.16 L 233.62,710.17 L 233.61,710.18 L 233.6,710.19 L 233.59,710.2 L 233.58,710.21 L 233.57,710.21 L 233.55,710.22 L 233.54,710.23 L 233.53,710.23 L 233.51,710.24 L 233.5,710.24 L 233.48,710.25 L 233.47,710.25 L 233.45,710.25 L 233.43,710.25 L 233.42,710.25 C 233.23,710.25 233.02,710.07 233.02,709.87 C 233.02,709.75 233.12,709.6 233.3,709.6 C 233.51,709.6 233.7,709.8 233.7,709.99 z"
   id="path3943"
   style="fill:#000000;stroke-width:0" />
<path
   d="M 232.27,706.45 L 232.27,706.43 L 232.26,706.41 L 232.25,706.38 L 232.24,706.36 L 232.24,706.34 L 232.23,706.33 L 232.23,706.31 L 232.23,706.29 L 232.22,706.27 L 232.22,706.26 L 232.21,706.24 L 232.21,706.23 L 232.21,706.22 L 232.21,706.21 L 232.21,706.2 L 232.21,706.19 L 232.21,706.17 L 232.21,706.16 L 232.21,706.15 C 232.21,705.83 232.49,705.56 232.87,705.56 C 233.57,705.56 233.88,706.52 233.88,706.63 C 233.88,706.72 233.79,706.72 233.76,706.72 C 233.67,706.72 233.66,706.68 233.63,706.6 C 233.47,706.04 233.16,705.76 232.89,705.76 C 232.75,705.76 232.72,705.85 232.72,706 C 232.72,706.16 232.77,706.29 232.83,706.45 C 232.9,706.63 232.98,706.82 233.05,707 C 233.12,707.17 233.37,707.81 233.4,707.89 C 233.42,707.96 233.44,708.04 233.44,708.11 C 233.44,708.44 233.16,708.71 232.77,708.71 C 232.08,708.71 231.76,707.76 231.76,707.64 C 231.76,707.55 231.86,707.55 231.88,707.55 C 231.98,707.55 231.99,707.58 232.01,707.66 C 232.19,708.26 232.49,708.51 232.75,708.51 C 232.87,708.51 232.93,708.45 232.93,708.27 C 232.93,708.11 232.89,708 232.71,707.57 L 232.27,706.45 z"
   id="path3945"
   style="fill:#000000;stroke-width:0" />
</g>    <g
       xml:space="preserve"
       id="g4028"
       transform="matrix(3,0,0,-3,-183.97077,2169.8182)"
       stroke="black"
       stroke-linecap="butt"
       stroke-linejoin="miter"
       stroke-miterlimit="10.433"
       stroke-dasharray="none"
       stroke-dashoffset="0"
       stroke-opacity="1"
       fill="none"
       fill-rule="even-odd"
       fill-opacity="1"
       font-style="normal"
       font-variant="normal"
       font-weight="normal"
       font-stretch="normal"
       font-size-adjust="none"
       letter-spacing="normal"
       word-spacing="normal"
       text-anchor="start"
       ns0:text="$N_j$\\hspace{3cm}$l_\\beta^-$"
       ns0:preamble="">
<path
   d="M230.96,712.88 L230.98,712.95 L230.99,712.99 L231.01,713.03 L231.02,713.06 L231.03,713.09 L231.05,713.13 L231.06,713.16 L231.08,713.19 L231.1,713.22 L231.12,713.25 L231.14,713.28 L231.16,713.31 L231.19,713.34 L231.21,713.36 L231.24,713.39 L231.27,713.41 L231.3,713.43 L231.34,713.46 L231.38,713.48 L231.42,713.5 L231.46,713.51 L231.5,713.53 L231.55,713.55 L231.6,713.56 L231.65,713.57 L231.71,713.58 L231.77,713.59 L231.83,713.6 L231.9,713.61 L231.97,713.61 L232,713.62 L232.04,713.62 C232.09,713.62,232.21,713.63,232.21,713.82 C232.21,713.83,232.21,713.93,232.08,713.93 C231.75,713.93,231.4,713.9,231.07,713.9 C230.74,713.9,230.39,713.93,230.06,713.93 C230,713.93,229.88,713.93,229.88,713.73 C229.88,713.62,229.98,713.62,230.06,713.62 C230.63,713.61,230.74,713.4,230.74,713.18 C230.74,713.15,230.71,713,230.71,712.97 L229.59,708.54 L227.39,713.74 C227.31,713.92,227.3,713.93,227.07,713.93 H225.73 C225.54,713.93,225.45,713.93,225.45,713.73 C225.45,713.62,225.54,713.62,225.72,713.62 C225.77,713.62,226.4,713.62,226.4,713.53 L225.07,708.18 C224.97,707.78,224.8,707.46,223.99,707.43 C223.93,707.43,223.82,707.42,223.82,707.23 C223.82,707.16,223.87,707.12,223.95,707.12 C224.27,707.12,224.62,707.15,224.95,707.15 C225.29,707.15,225.64,707.12,225.97,707.12 C226.02,707.12,226.15,707.12,226.15,707.32 C226.15,707.42,226.06,707.43,225.95,707.43 C225.38,707.45,225.3,707.67,225.3,707.87 C225.3,707.94,225.3,707.99,225.34,708.1 L226.65,713.36 C226.69,713.3,226.69,713.28,226.74,713.18 L229.22,707.31 C229.29,707.14,229.32,707.12,229.41,707.12 C229.52,707.12,229.52,707.15,229.57,707.33 Z "
   stroke-width="0"
   fill="black"
   id="path4030" />
<path
   d="M234.5,709.99 L234.5,710 L234.5,710.01 L234.49,710.02 L234.49,710.03 L234.49,710.05 L234.49,710.06 L234.48,710.07 L234.48,710.08 L234.48,710.09 L234.47,710.1 L234.46,710.11 L234.46,710.12 L234.45,710.14 L234.44,710.15 L234.44,710.16 L234.43,710.17 L234.42,710.18 L234.41,710.18 L234.4,710.19 L234.39,710.2 L234.38,710.21 L234.37,710.22 L234.35,710.22 L234.34,710.23 L234.33,710.23 L234.31,710.24 L234.3,710.24 L234.28,710.25 L234.27,710.25 L234.25,710.25 L234.24,710.25 L234.22,710.25 C234.01,710.25,233.83,710.06,233.83,709.87 C233.83,709.76,233.91,709.6,234.11,709.6 C234.29,709.6,234.5,709.79,234.5,709.99 Z "
   stroke-width="0"
   fill="black"
   id="path4032" />
<path
   d="M233.02,705.29 L233.01,705.24 L232.99,705.2 L232.98,705.16 L232.96,705.11 L232.95,705.07 L232.93,705.03 L232.91,704.99 L232.89,704.95 L232.86,704.91 L232.84,704.87 L232.82,704.83 L232.79,704.8 L232.76,704.76 L232.74,704.73 L232.71,704.7 L232.68,704.67 L232.65,704.64 L232.62,704.61 L232.59,704.58 L232.55,704.56 L232.52,704.53 L232.49,704.51 L232.45,704.49 L232.42,704.47 L232.38,704.46 L232.34,704.44 L232.31,704.43 L232.27,704.42 L232.23,704.41 L232.19,704.41 L232.16,704.4 L232.12,704.4 C232.03,704.4,231.94,704.42,231.87,704.44 C232.05,704.53,232.1,704.7,232.1,704.8 C232.1,704.97,231.97,705.06,231.83,705.06 C231.62,705.06,231.43,704.87,231.43,704.65 C231.43,704.38,231.71,704.21,232.12,704.21 C232.54,704.21,233.36,704.46,233.58,705.31 L234.2,707.81 C234.23,707.88,234.24,707.95,234.24,708.05 C234.24,708.43,233.91,708.71,233.49,708.71 C232.72,708.71,232.27,707.74,232.27,707.64 C232.27,707.55,232.37,707.55,232.39,707.55 C232.47,707.55,232.48,707.57,232.53,707.67 C232.7,708.08,233.07,708.51,233.47,708.51 C233.65,708.51,233.71,708.39,233.71,708.17 C233.71,708.09,233.7,707.99,233.69,707.96 Z "
   stroke-width="0"
   fill="black"
   id="path4034" />
<path
   d="M323.25,713.93 L323.25,713.93 L323.25,713.93 L323.25,713.93 L323.25,713.93 L323.25,713.93 L323.25,713.94 L323.25,713.94 L323.25,713.94 L323.25,713.95 L323.25,713.95 L323.24,713.96 L323.24,713.96 L323.24,713.97 L323.24,713.97 L323.24,713.98 L323.23,713.98 L323.23,713.99 L323.23,713.99 L323.22,714 L323.22,714 L323.22,714 L323.21,714.01 L323.21,714.01 L323.21,714.01 L323.21,714.01 L323.2,714.02 L323.2,714.02 L323.2,714.02 L323.19,714.02 L323.19,714.02 L323.19,714.02 L323.18,714.03 L323.18,714.03 L323.17,714.03 L323.17,714.03 L323.17,714.03 L323.16,714.03 L323.16,714.03 L323.15,714.03 L323.15,714.04 L323.14,714.04 L323.14,714.04 L323.13,714.04 L323.12,714.04 L323.12,714.04 C322.89,714.04,322.16,713.96,321.9,713.94 C321.82,713.93,321.71,713.92,321.71,713.73 C321.71,713.62,321.81,713.62,321.96,713.62 C322.44,713.62,322.45,713.53,322.45,713.45 L322.42,713.25 L321.17,708.27 C321.14,708.16,321.12,708.09,321.12,707.93 C321.12,707.36,321.55,707.01,322.02,707.01 C322.35,707.01,322.6,707.21,322.77,707.57 C322.95,707.95,323.07,708.53,323.07,708.55 C323.07,708.65,322.98,708.65,322.95,708.65 C322.85,708.65,322.84,708.61,322.81,708.47 C322.64,707.82,322.45,707.23,322.05,707.23 C321.75,707.23,321.75,707.55,321.75,707.69 C321.75,707.93,321.76,707.98,321.81,708.17 Z "
   stroke-width="0"
   fill="black"
   id="path4036" />
<path
   d="M329.05,712.97 L329.06,712.97 L329.07,712.97 L329.08,712.97 L329.09,712.97 L329.1,712.97 L329.11,712.97 L329.12,712.97 L329.13,712.97 L329.14,712.97 L329.15,712.97 L329.16,712.97 L329.17,712.97 L329.18,712.98 L329.19,712.98 L329.21,712.98 L329.22,712.99 L329.22,712.99 L329.23,713 L329.24,713 L329.25,713.01 L329.26,713.01 L329.27,713.02 L329.28,713.03 L329.28,713.03 L329.28,713.04 L329.29,713.04 L329.29,713.05 L329.29,713.05 L329.29,713.06 L329.3,713.06 L329.3,713.07 L329.3,713.07 L329.3,713.08 L329.3,713.08 L329.31,713.09 L329.31,713.1 L329.31,713.1 L329.31,713.11 L329.31,713.12 L329.31,713.13 L329.31,713.13 C329.31,713.31,329.15,713.31,329.05,713.31 H324.85 C324.76,713.31,324.6,713.31,324.6,713.13 C324.6,712.97,324.76,712.97,324.85,712.97 Z "
   stroke-width="0"
   fill="black"
   id="path4038" />
<path
   d="M323.95,702.96 L323.95,702.95 L323.95,702.95 L323.94,702.95 L323.94,702.94 L323.94,702.94 L323.94,702.94 L323.94,702.93 L323.94,702.93 L323.94,702.93 L323.94,702.93 L323.94,702.92 L323.94,702.92 L323.94,702.92 L323.93,702.91 L323.93,702.91 L323.93,702.9 L323.93,702.9 L323.93,702.89 L323.93,702.89 L323.93,702.89 L323.93,702.88 L323.93,702.88 L323.93,702.88 L323.93,702.88 L323.93,702.87 L323.93,702.87 L323.93,702.87 L323.93,702.87 L323.93,702.87 L323.93,702.86 L323.93,702.86 L323.93,702.86 L323.93,702.86 L323.93,702.86 L323.93,702.85 C323.93,702.77,324.02,702.77,324.04,702.77 C324.14,702.77,324.14,702.78,324.18,702.95 C324.34,703.57,324.49,704.18,324.65,704.8 C324.87,704.28,325.39,704.04,325.92,704.04 V704.23 C325.28,704.23,324.8,704.65,324.8,705.25 C324.8,705.27,324.8,705.38,324.83,705.52 C324.84,705.55,325.21,707.06,325.27,707.26 C325.47,707.94,326.21,708.84,327.11,708.84 C327.47,708.84,327.66,708.61,327.66,708.28 C327.66,708.15,327.61,707.82,327.5,707.55 C327.37,707.24,327.16,707.06,327.13,707.06 C327.11,707.06,327.09,707.07,327.07,707.07 C326.88,707.13,326.72,707.13,326.59,707.13 L326.58,706.93 C326.63,706.93,326.77,706.93,326.87,706.91 C326.73,706.85,326.63,706.85,326.52,706.85 C326.41,706.85,326.31,706.86,326.19,706.88 H326.19 C326.27,706.91,326.32,706.93,326.58,706.93 L326.59,707.13 C326.39,707.13,325.95,707.13,325.95,706.87 C325.95,706.66,326.28,706.65,326.51,706.65 C326.67,706.65,326.86,706.65,327.13,706.76 H327.13 C327.31,706.58,327.35,706.35,327.35,706.17 C327.35,706.12,327.32,705.31,326.88,704.74 C326.7,704.51,326.35,704.23,325.92,704.23 V704.04 C326.97,704.04,327.93,704.99,327.93,705.93 C327.93,706.31,327.75,706.67,327.43,706.9 C328.03,707.31,328.17,707.79,328.17,708.09 C328.17,708.61,327.78,709.03,327.13,709.03 C326.21,709.03,325.26,708.21,324.99,707.14 Z "
   stroke-width="0"
   fill="black"
   id="path4040" />
</g>    <g
       ns0:preamble=""
       ns0:text="$l_\\alpha^+$"
       text-anchor="start"
       word-spacing="normal"
       letter-spacing="normal"
       font-size-adjust="none"
       font-stretch="normal"
       font-weight="normal"
       font-variant="normal"
       font-style="normal"
       fill-opacity="1"
       fill-rule="even-odd"
       fill="none"
       stroke-opacity="1"
       stroke-dashoffset="0"
       stroke-dasharray="none"
       stroke-miterlimit="10.433"
       stroke-linejoin="miter"
       stroke-linecap="butt"
       stroke="black"
       transform="matrix(3,0,0,-3,197.0048,2389.0742)"
       id="g4220"
       xml:space="preserve">
<path
   id="path4222"
   fill="black"
   stroke-width="0"
   d="M226,713.93 L226,713.93 L226,713.93 L226,713.93 L226,713.93 L226,713.93 L226,713.94 L226,713.94 L226,713.94 L226,713.95 L226,713.95 L226,713.96 L226,713.96 L226,713.97 L225.99,713.97 L225.99,713.98 L225.99,713.98 L225.99,713.99 L225.98,713.99 L225.98,714 L225.98,714 L225.97,714 L225.97,714.01 L225.97,714.01 L225.96,714.01 L225.96,714.01 L225.96,714.02 L225.95,714.02 L225.95,714.02 L225.95,714.02 L225.94,714.02 L225.94,714.02 L225.94,714.03 L225.93,714.03 L225.93,714.03 L225.92,714.03 L225.92,714.03 L225.92,714.03 L225.91,714.03 L225.91,714.03 L225.9,714.04 L225.9,714.04 L225.89,714.04 L225.88,714.04 L225.88,714.04 L225.87,714.04 C225.64,714.04,224.92,713.96,224.66,713.94 C224.58,713.93,224.47,713.92,224.47,713.73 C224.47,713.62,224.57,713.62,224.72,713.62 C225.2,713.62,225.21,713.53,225.21,713.45 L225.18,713.25 L223.92,708.27 C223.89,708.16,223.87,708.09,223.87,707.93 C223.87,707.36,224.31,707.01,224.78,707.01 C225.11,707.01,225.35,707.21,225.52,707.57 C225.7,707.95,225.82,708.53,225.82,708.55 C225.82,708.65,225.73,708.65,225.7,708.65 C225.6,708.65,225.59,708.61,225.56,708.47 C225.4,707.82,225.21,707.23,224.81,707.23 C224.51,707.23,224.51,707.55,224.51,707.69 C224.51,707.93,224.52,707.98,224.57,708.17 Z " />
<path
   id="path4224"
   fill="black"
   stroke-width="0"
   d="M229.83,712.31 H231.96 C232.05,712.31,232.22,712.31,232.22,712.48 C232.22,712.66,232.06,712.66,231.96,712.66 H229.83 V714.8 C229.83,714.89,229.83,715.05,229.66,715.05 C229.49,715.05,229.49,714.89,229.49,714.8 V712.66 H227.34 C227.25,712.66,227.09,712.66,227.09,712.49 C227.09,712.31,227.25,712.31,227.34,712.31 H229.49 V710.17 C229.49,710.08,229.49,709.91,229.65,709.91 C229.83,709.91,229.83,710.08,229.83,710.17 Z " />
<path
   id="path4226"
   fill="black"
   stroke-width="0"
   d="M230.22,705.65 L230.28,705.71 L230.33,705.77 L230.39,705.84 L230.44,705.9 L230.49,705.97 L230.54,706.04 L230.58,706.11 L230.63,706.17 L230.67,706.24 L230.71,706.31 L230.75,706.38 L230.78,706.44 L230.82,706.51 L230.85,706.57 L230.88,706.64 L230.91,706.7 L230.93,706.76 L230.96,706.82 L230.98,706.87 L231,706.93 L231.02,706.98 L231.04,707.03 L231.05,707.07 L231.07,707.11 L231.08,707.15 L231.09,707.19 L231.1,707.22 L231.1,707.25 L231.11,707.27 L231.11,707.29 L231.12,707.3 L231.12,707.31 C231.12,707.4,231.03,707.4,231,707.4 C230.9,707.4,230.9,707.38,230.85,707.23 C230.73,706.77,230.5,706.34,230.2,705.97 C230.2,706.07,230.18,706.54,230.17,706.6 C230.06,707.29,229.54,707.74,228.84,707.74 L228.84,707.54 C229.39,707.54,229.55,707.01,229.61,706.57 C229.65,706.27,229.64,705.78,229.67,705.41 H229.67 C228.99,704.85,228.4,704.79,228.13,704.79 C227.67,704.79,227.41,705.09,227.41,705.56 C227.41,705.76,227.51,706.53,227.87,707.01 C228.2,707.42,228.59,707.54,228.84,707.54 L228.84,707.74 C227.82,707.74,226.84,706.78,226.84,705.81 C226.84,705.16,227.3,704.59,228.11,704.59 C228.75,704.59,229.33,704.89,229.72,705.19 C229.88,704.68,230.24,704.59,230.45,704.59 C230.85,704.59,231.1,704.93,231.1,705.08 C231.1,705.16,231.02,705.16,230.98,705.16 C230.89,705.16,230.88,705.14,230.87,705.09 C230.77,704.83,230.55,704.79,230.47,704.79 C230.37,704.79,230.25,704.79,230.22,705.65 Z " />
</g>  </g>
  <g
     inkscape:label="lines-arrows"
     id="layer2"
     inkscape:groupmode="layer"
     style="display:inline"
     transform="translate(-37.75923,-27.6982)">
    <path
       style="fill:none;fill-rule:evenodd;stroke:#000000;stroke-width:1px;stroke-linecap:butt;stroke-linejoin:miter;marker-mid:url(#Arrow1Lend);stroke-opacity:1"
       d="M 84.610512,36.433673 L 145.09961,63.152773 L 205.58871,90.985183"
       id="path5664"
       sodipodi:nodetypes="ccc" />
    <path
       sodipodi:nodetypes="ccc"
       id="path5666"
       d="M 326.8892,36.433673 L 266.4001,63.152773 L 205.911,90.985183"
       style="fill:none;fill-rule:evenodd;stroke:#000000;stroke-width:1px;stroke-linecap:butt;stroke-linejoin:miter;marker-mid:url(#Arrow1Lstart);stroke-opacity:1" />
    <path
       sodipodi:nodetypes="ccc"
       id="path2701"
       d="M 413.28743,148.2569 L 352.79833,174.976 L 292.30923,202.80841"
       style="fill:none;fill-rule:evenodd;stroke:#000000;stroke-width:1px;stroke-linecap:butt;stroke-linejoin:miter;marker-mid:url(#Arrow1Lstart);stroke-opacity:1;display:inline" />
    <path
       style="fill:none;fill-rule:evenodd;stroke:#000000;stroke-width:1px;stroke-linecap:butt;stroke-linejoin:miter;marker-mid:url(#Arrow1Lend);stroke-opacity:1;display:inline"
       d="M 413.28743,257.00819 L 352.79833,230.28909 L 292.30923,202.45668"
       id="path2703"
       sodipodi:nodetypes="ccc" />
    <path
       sodipodi:nodetypes="ccc"
       id="path3947"
       d="M 534.34051,36.433673 L 594.82961,63.152773 L 655.31871,90.985183"
       style="fill:none;fill-rule:evenodd;stroke:#000000;stroke-width:1px;stroke-linecap:butt;stroke-linejoin:miter;marker-mid:url(#Arrow1Lend);stroke-opacity:1" />
    <path
       style="fill:none;fill-rule:evenodd;stroke:#000000;stroke-width:1px;stroke-linecap:butt;stroke-linejoin:miter;marker-mid:url(#Arrow1Lstart);stroke-opacity:1"
       d="M 776.6192,36.433673 L 716.1301,63.152773 L 655.641,90.985183"
       id="path3949"
       sodipodi:nodetypes="ccc" />
    <path
       style="fill:none;fill-rule:evenodd;stroke:#000000;stroke-width:1px;stroke-linecap:butt;stroke-linejoin:miter;marker-mid:url(#Arrow1Lstart);stroke-opacity:1;display:inline"
       d="M 863.01743,148.2569 L 802.52833,174.976 L 742.03923,202.80841"
       id="path3951"
       sodipodi:nodetypes="ccc" />
    <path
       sodipodi:nodetypes="ccc"
       id="path3953"
       d="M 863.01743,257.00819 L 802.52833,230.28909 L 742.03923,202.45668"
       style="fill:none;fill-rule:evenodd;stroke:#000000;stroke-width:1px;stroke-linecap:butt;stroke-linejoin:miter;marker-mid:url(#Arrow1Lend);stroke-opacity:1;display:inline" />
  </g>
  <g
     transform="translate(23.37,7.53)"
     style="display:inline"
     inkscape:label="scattering-target"
     id="layer4"
     inkscape:groupmode="layer" />
  <g
     transform="translate(23.37,7.53)"
     style="display:inline"
     inkscape:label="scattering"
     id="layer3"
     inkscape:groupmode="layer" />
</svg>
