<?xml version="1.0" encoding="UTF-8" standalone="no"?>
<!-- Created with Inkscape (http://www.inkscape.org/) -->
<svg
   xmlns:dc="http://purl.org/dc/elements/1.1/"
   xmlns:cc="http://web.resource.org/cc/"
   xmlns:rdf="http://www.w3.org/1999/02/22-rdf-syntax-ns#"
   xmlns:svg="http://www.w3.org/2000/svg"
   xmlns="http://www.w3.org/2000/svg"
   xmlns:sodipodi="http://sodipodi.sourceforge.net/DTD/sodipodi-0.dtd"
   xmlns:inkscape="http://www.inkscape.org/namespaces/inkscape"
   width="279.38406"
   height="94.259186"
   id="svg2"
   sodipodi:version="0.32"
   inkscape:version="0.45.1"
   version="1.0"
   sodipodi:docbase="/home/restrepo/texfile/cursos/fisica_subatomica/notas"
   sodipodi:docname="trasla.svg"
   inkscape:output_extension="org.inkscape.output.svg.inkscape">
  <defs
     id="defs4" />
  <sodipodi:namedview
     id="base"
     pagecolor="#ffffff"
     bordercolor="#666666"
     borderopacity="1.0"
     gridtolerance="10000"
     guidetolerance="10"
     objecttolerance="10"
     inkscape:pageopacity="0.0"
     inkscape:pageshadow="2"
     inkscape:zoom="3.3573855"
     inkscape:cx="139.69203"
     inkscape:cy="47.129593"
     inkscape:document-units="px"
     inkscape:current-layer="layer1"
     width="6cm"
     height="3cm"
     units="cm"
     showguides="true"
     inkscape:guide-bbox="true"
     inkscape:window-width="1024"
     inkscape:window-height="713"
     inkscape:window-x="0"
     inkscape:window-y="27" />
  <metadata
     id="metadata7">
    <rdf:RDF>
      <cc:Work
         rdf:about="">
        <dc:format>image/svg+xml</dc:format>
        <dc:type
           rdf:resource="http://purl.org/dc/dcmitype/StillImage" />
      </cc:Work>
    </rdf:RDF>
  </metadata>
  <g
     inkscape:label="Layer 1"
     inkscape:groupmode="layer"
     id="layer1"
     transform="translate(-4.123073,15.22933)">
    <g
       id="g2797"
       transform="matrix(1.299364,0,0,1.299364,-2.848732,-18.21882)">
      <path
         d="M 50.352257,10.909656 L 50.072522,60.702443 L 90.354328,60.702443 M 49.954056,60.702443 L 9.67225,60.702443"
         style="fill:none;fill-opacity:0.75;fill-rule:evenodd;stroke:black;stroke-width:0.25pt;stroke-linecap:butt;stroke-linejoin:miter;stroke-opacity:1"
         id="path1901" />
      <path
         sodipodi:nodetypes="ccccc"
         id="path1908"
         d="M 17.06382,50.352257 C 29.437647,44.227914 34.127641,36.924989 34.127641,36.924989 C 39.256112,30.677579 40.5455,19.519717 50.316582,18.272041 C 58.423036,20.521627 61.261913,31.610028 67.136343,38.323662 C 72.92942,43.866826 77.829687,46.017313 85.051259,47.810676"
         style="fill:none;fill-opacity:0.75;fill-rule:evenodd;stroke:#000075;stroke-width:0.25pt;stroke-linecap:butt;stroke-linejoin:miter;stroke-opacity:1" />
    </g>
    <path
       d="M 188.35498,-4.0432294 L 187.99156,60.655518 L 240.33207,60.655518 M 187.83756,60.655518 L 135.49702,60.655518"
       style="fill:none;fill-opacity:0.75;fill-rule:evenodd;stroke:black;stroke-width:0.32483988pt;stroke-linecap:butt;stroke-linejoin:miter;stroke-opacity:1"
       id="path2803" />
    <path
       sodipodi:nodetypes="ccccc"
       id="path2805"
       d="M 181.61335,47.206904 C 197.69143,39.249176 203.7854,29.760052 203.7854,29.760052 C 210.44909,21.642412 212.1245,7.1443407 224.82066,5.5231595 C 235.3539,8.4461799 239.0426,22.854006 246.67554,31.577432 C 254.20285,38.779991 260.57004,41.574256 269.95353,43.904481"
       style="fill:none;fill-opacity:0.75;fill-rule:evenodd;stroke:#000075;stroke-width:0.32483988pt;stroke-linecap:butt;stroke-linejoin:miter;stroke-opacity:1" />
    <path
       id="path2809"
       style="fill:none;fill-opacity:0.75;fill-rule:evenodd;stroke:black;stroke-width:0.40604985;stroke-linecap:butt;stroke-linejoin:miter;stroke-miterlimit:4;stroke-dasharray:1.21814983, 1.21814983;stroke-dashoffset:0;stroke-opacity:1"
       d="M 224.86709,-4.0432294 L 224.50354,60.655518 L 276.84408,60.655518 M 224.34965,60.655518 L 172.00911,60.655518" />
    <text
       xml:space="preserve"
       style="font-size:12px;font-style:italic;font-variant:normal;font-weight:normal;font-stretch:normal;text-align:start;line-height:100%;writing-mode:lr;text-anchor:start;fill:#000000;fill-opacity:1;stroke:none;stroke-width:1pt;stroke-linecap:butt;stroke-linejoin:miter;stroke-opacity:1;font-family:Bitstream Charter"
       x="108.11241"
       y="71.282188"
       id="text3724"
       sodipodi:linespacing="100%"><tspan
         sodipodi:role="line"
         id="tspan3726"
         x="108.11241"
         y="71.282188">x</tspan></text>
    <text
       sodipodi:linespacing="100%"
       id="text3728"
       y="71.282188"
       x="266.41199"
       style="font-size:12px;font-style:italic;font-variant:normal;font-weight:normal;font-stretch:normal;text-align:start;line-height:100%;writing-mode:lr;text-anchor:start;fill:black;fill-opacity:1;stroke:none;stroke-width:1pt;stroke-linecap:butt;stroke-linejoin:miter;stroke-opacity:1;font-family:Bitstream Charter"
       xml:space="preserve"><tspan
         y="71.282188"
         x="266.41199"
         id="tspan3730"
         sodipodi:role="line">x'</tspan></text>
    <g
       id="g1349"
       transform="translate(65.809799,-9.1918459)">
      <path
         style="fill:#000000;fill-rule:evenodd;stroke:none"
         id="path1353"
         d="M 4.63901,2.20197 C 4.63901,2.17798 4.67502,2.04596 4.67502,2.034 C 4.67502,2.02197 4.67502,1.91498 4.53101,1.91498 C 4.41202,1.91498 4.39999,1.94995 4.35202,2.15399 L 3.659,4.91498 C 1.758,4.97498 0,6.565 0,8.19098 C 0,9.32697 0.837006,10.271 2.29602,10.355 C 2.20001,10.726 2.116,11.108 2.021,11.479 C 1.87701,12.041 1.758,12.495 1.758,12.531 C 1.758,12.65 1.841,12.662 1.901,12.662 C 1.961,12.662 1.98502,12.65 2.021,12.614 C 2.04501,12.591 2.116,12.304 2.15201,12.136 C 2.30801,11.55 2.45102,10.953 2.60699,10.355 C 4.53101,10.295 6.26501,8.68097 6.26501,7.07898 C 6.26501,6.13501 5.63101,5.03497 3.96899,4.91498 L 4.63901,2.20197 z M 2.35501,10.092 C 1.638,10.056 0.777008,9.638 0.777008,8.44196 C 0.777008,7.008 1.806,5.33398 3.58701,5.17798 L 2.35501,10.092 z M 3.89801,5.17798 C 4.806,5.22595 5.48801,5.776 5.48801,6.828 C 5.48801,8.23895 4.46002,9.948 2.66602,10.092 L 3.89801,5.17798 z " />
    </g>
    <g
       id="g2353"
       transform="translate(-7.6999577,0)">
      <text
         sodipodi:linespacing="125%"
         transform="translate(4.123073,-15.22933)"
         id="text2345"
         y="16.817974"
         x="75.951958"
         style="font-size:12px;font-style:normal;font-variant:normal;font-weight:normal;font-stretch:normal;text-align:start;line-height:125%;writing-mode:lr-tb;text-anchor:start;fill:#000000;fill-opacity:1;stroke:none;stroke-width:1px;stroke-linecap:butt;stroke-linejoin:miter;stroke-opacity:1;font-family:Bitstream Charter"
         xml:space="preserve"><tspan
           y="16.817974"
           x="75.951958"
           id="tspan2347"
           sodipodi:role="line">(  )</tspan></text>
      <text
         sodipodi:linespacing="100%"
         id="text2349"
         y="0.86264408"
         x="85.7342"
         style="font-size:12px;font-style:italic;font-variant:normal;font-weight:normal;font-stretch:normal;text-align:start;line-height:100%;writing-mode:lr-tb;text-anchor:start;fill:#000000;fill-opacity:1;stroke:none;stroke-width:1px;stroke-linecap:butt;stroke-linejoin:miter;stroke-opacity:1;font-family:Bitstream Charter"
         xml:space="preserve"><tspan
           y="0.86264408"
           x="85.7342"
           id="tspan2351"
           sodipodi:role="line">x</tspan></text>
    </g>
    <g
       transform="translate(230.51007,-9.1918459)"
       id="g2359">
      <path
         d="M 4.63901,2.20197 C 4.63901,2.17798 4.67502,2.04596 4.67502,2.034 C 4.67502,2.02197 4.67502,1.91498 4.53101,1.91498 C 4.41202,1.91498 4.39999,1.94995 4.35202,2.15399 L 3.659,4.91498 C 1.758,4.97498 0,6.565 0,8.19098 C 0,9.32697 0.837006,10.271 2.29602,10.355 C 2.20001,10.726 2.116,11.108 2.021,11.479 C 1.87701,12.041 1.758,12.495 1.758,12.531 C 1.758,12.65 1.841,12.662 1.901,12.662 C 1.961,12.662 1.98502,12.65 2.021,12.614 C 2.04501,12.591 2.116,12.304 2.15201,12.136 C 2.30801,11.55 2.45102,10.953 2.60699,10.355 C 4.53101,10.295 6.26501,8.68097 6.26501,7.07898 C 6.26501,6.13501 5.63101,5.03497 3.96899,4.91498 L 4.63901,2.20197 z M 2.35501,10.092 C 1.638,10.056 0.777008,9.638 0.777008,8.44196 C 0.777008,7.008 1.806,5.33398 3.58701,5.17798 L 2.35501,10.092 z M 3.89801,5.17798 C 4.806,5.22595 5.48801,5.776 5.48801,6.828 C 5.48801,8.23895 4.46002,9.948 2.66602,10.092 L 3.89801,5.17798 z "
         id="path2361"
         style="fill:#000000;fill-rule:evenodd;stroke:none" />
    </g>
    <text
       sodipodi:linespacing="125%"
       id="text2365"
       y="1.5886441"
       x="237.07535"
       style="font-size:12px;font-style:normal;font-variant:normal;font-weight:normal;font-stretch:normal;text-align:start;line-height:125%;writing-mode:lr-tb;text-anchor:start;fill:#000000;fill-opacity:1;stroke:none;stroke-width:1px;stroke-linecap:butt;stroke-linejoin:miter;stroke-opacity:1;font-family:Bitstream Charter"
       xml:space="preserve"><tspan
         y="1.5886441"
         x="237.07535"
         id="tspan2367"
         sodipodi:role="line">'(   )</tspan></text>
    <text
       sodipodi:linespacing="100%"
       id="text2369"
       y="0.86264408"
       x="244.73407"
       style="font-size:12px;font-style:italic;font-variant:normal;font-weight:normal;font-stretch:normal;text-align:start;line-height:100%;writing-mode:lr-tb;text-anchor:start;fill:#000000;fill-opacity:1;stroke:none;stroke-width:1px;stroke-linecap:butt;stroke-linejoin:miter;stroke-opacity:1;font-family:Bitstream Charter"
       xml:space="preserve"><tspan
         y="0.86264408"
         x="244.73407"
         id="tspan2371"
         sodipodi:role="line">x'</tspan></text>
  </g>
</svg>
