<?xml version="1.0" encoding="UTF-8" standalone="no"?>
<!-- Created with Inkscape (http://www.inkscape.org/) -->

<svg
   xmlns:ns0="http://www.iki.fi/pav/software/textext"
   xmlns:dc="http://purl.org/dc/elements/1.1/"
   xmlns:cc="http://creativecommons.org/ns#"
   xmlns:rdf="http://www.w3.org/1999/02/22-rdf-syntax-ns#"
   xmlns:svg="http://www.w3.org/2000/svg"
   xmlns="http://www.w3.org/2000/svg"
   xmlns:sodipodi="http://sodipodi.sourceforge.net/DTD/sodipodi-0.dtd"
   xmlns:inkscape="http://www.inkscape.org/namespaces/inkscape"
   width="462.82767"
   height="198.77585"
   id="svg2"
   sodipodi:version="0.32"
   inkscape:version="0.47 r22583"
   sodipodi:docname="vphi4.svg"
   version="1.0"
   inkscape:output_extension="org.inkscape.output.svg.inkscape">
  <sodipodi:namedview
     id="base"
     pagecolor="#ffffff"
     bordercolor="#666666"
     borderopacity="1.0"
     gridtolerance="10000"
     guidetolerance="10"
     objecttolerance="10"
     inkscape:pageopacity="0.0"
     inkscape:pageshadow="2"
     inkscape:zoom="0.95057101"
     inkscape:cx="62.204844"
     inkscape:cy="41.478064"
     inkscape:document-units="px"
     inkscape:current-layer="layer3"
     showgrid="false"
     inkscape:window-width="1279"
     inkscape:window-height="947"
     inkscape:window-x="1"
     inkscape:window-y="47"
     inkscape:window-maximized="0" />
  <defs
     id="defs4">
    <inkscape:perspective
       sodipodi:type="inkscape:persp3d"
       inkscape:vp_x="0 : 526.18109 : 1"
       inkscape:vp_y="0 : 1000 : 0"
       inkscape:vp_z="744.09448 : 526.18109 : 1"
       inkscape:persp3d-origin="372.04724 : 350.78739 : 1"
       id="perspective10" />
    <inkscape:perspective
       id="perspective3676"
       inkscape:persp3d-origin="0.5 : 0.33333333 : 1"
       inkscape:vp_z="1 : 0.5 : 1"
       inkscape:vp_y="0 : 1000 : 0"
       inkscape:vp_x="0 : 0.5 : 1"
       sodipodi:type="inkscape:persp3d" />
  </defs>
  <metadata
     id="metadata7">
    <rdf:RDF>
      <cc:Work
         rdf:about="">
        <dc:format>image/svg+xml</dc:format>
        <dc:type
           rdf:resource="http://purl.org/dc/dcmitype/StillImage" />
      </cc:Work>
    </rdf:RDF>
  </metadata>
  <g
     style="display:inline"
     transform="translate(4.598273,-432.80176)"
     inkscape:label="Layer 1"
     inkscape:groupmode="layer"
     id="layer1">
    <path
       style="fill:#ffffff;fill-opacity:0;stroke:#fffeff;stroke-width:1;stroke-miterlimit:4;stroke-opacity:0.99111179;stroke-dasharray:none;stroke-dashoffset:0"
       d="m 255.71428,386.64791 c 0.001,0 1.07103,-0.003 3.14547,-0.95468 2.07444,-0.95156 5.15664,-2.86144 9.05059,-6.60495 3.89395,-3.74352 8.6035,-9.33549 13.8179,-17.52007 5.2144,-8.18458 10.93529,-18.98062 16.75366,-32.94566 5.81837,-13.96505 11.7331,-31.12076 17.25875,-51.79091 5.52566,-20.67015 10.65795,-44.87767 14.8614,-72.67575 4.20345,-27.79808 7.47035,-59.20921 9.24501,-93.99131"
       title="x*x"
       id="path2391" />
    <rect
       style="fill:#ffffff;fill-opacity:0;stroke:#fffeff;stroke-width:1;stroke-miterlimit:4;stroke-opacity:0.99111179;stroke-dasharray:none;stroke-dashoffset:0"
       id="rect2412"
       width="148.57143"
       height="11.428572"
       x="428.57144"
       y="452.36218" />
    <rect
       style="fill:#ffffff;fill-opacity:0;stroke:#fffeff;stroke-width:1;stroke-miterlimit:4;stroke-opacity:0;stroke-dasharray:none;stroke-dashoffset:0"
       id="rect2416"
       width="537.14288"
       height="448.57144"
       x="94.285713"
       y="72.362183" />
    <g
       style="font-style:normal;font-variant:normal;font-weight:normal;font-stretch:normal;letter-spacing:normal;word-spacing:normal;text-anchor:start;fill:none;stroke:#000000;stroke-linecap:butt;stroke-linejoin:miter;stroke-miterlimit:10.43299961;stroke-opacity:1;stroke-dasharray:none;stroke-dashoffset:0"
       xml:space="preserve"
       id="content"
       transform="matrix(3,0,0,-3,-397.45372,2681.1057)"
       stroke-miterlimit="10.433"
       fill-rule="even-odd"
       font-style="normal"
       font-variant="normal"
       font-weight="normal"
       font-stretch="normal"
       font-size-adjust="none"
       letter-spacing="normal"
       word-spacing="normal"
       ns0:text="$\\phi$"
       ns0:preamble="">
<path
   style="fill:#000000;stroke-width:0"
   d="m 277.31381,720.46667 0,0 0,0 0,0 0,0 0,0 0,0 0,0.01 0,0 0,0 0,0.01 0,0 0,0.01 0,0 0,0.01 0,0 0.01,0.01 0,0 0,0.01 0,0.01 0,0.01 0.01,0.01 0,0 0,0.01 0,0 0,0.01 0,0 0,0.01 0,0 0,0.01 0,0 0,0 0,0 0.01,0 0,0 0,0 0,0 0,0.01 0,0 0,0 c 0,0.01 0,0.1 -0.12,0.1 -0.1,0 -0.11,-0.03 -0.15,-0.2 l -0.58,-2.3 c -1.59,-0.05 -3.05,-1.38 -3.05,-2.73 0,-0.95 0.7,-1.74 1.91,-1.81 l 0.05,0.22 c -0.59,0.03 -1.31,0.38 -1.31,1.38 0,1.19 0.86,2.59 2.34,2.72 l -1.03,-4.1 -0.05,-0.22 c -0.08,-0.31 -0.15,-0.62 -0.23,-0.93 -0.11,-0.47 -0.22,-0.85 -0.22,-0.88 0,-0.1 0.08,-0.11 0.13,-0.11 0.04,0 0.06,0.01 0.09,0.04 0.02,0.02 0.08,0.26 0.11,0.4 0.13,0.49 0.25,0.99 0.38,1.48 l 0.05,0.22 1.03,4.1 c 0.76,-0.04 1.32,-0.5 1.32,-1.38 0,-1.17 -0.85,-2.6 -2.35,-2.72 l -0.05,-0.22 c 1.61,0.05 3.05,1.4 3.05,2.73 0,0.79 -0.53,1.71 -1.91,1.81 l 0.56,2.26 z"
   id="path3406" />
</g>    <g
       style="font-style:normal;font-variant:normal;font-weight:normal;font-stretch:normal;letter-spacing:normal;word-spacing:normal;text-anchor:start;fill:none;stroke:#000000;stroke-linecap:butt;stroke-linejoin:miter;stroke-miterlimit:10.43299961;stroke-opacity:1;stroke-dasharray:none;stroke-dashoffset:0"
       xml:space="preserve"
       id="g3461"
       transform="matrix(3,0,0,-3,-480.04428,2575.2198)"
       stroke-miterlimit="10.433"
       fill-rule="even-odd"
       font-style="normal"
       font-variant="normal"
       font-weight="normal"
       font-stretch="normal"
       font-size-adjust="none"
       letter-spacing="normal"
       word-spacing="normal"
       ns0:text="$V$"
       ns0:preamble="">
<path
   style="fill:#000000;stroke-width:0"
   d="m 229.69,712.79 0.04,0.07 0.05,0.07 0.04,0.06 0.05,0.06 0.04,0.05 0.05,0.05 0.04,0.05 0.04,0.05 0.04,0.04 0.05,0.03 0.04,0.04 0.04,0.03 0.04,0.03 0.04,0.02 0.04,0.03 0.04,0.02 0.04,0.02 0.04,0.01 0.04,0.02 0.04,0.01 0.04,0.01 0.03,0.01 0.04,0.01 0.04,0.01 0.03,0.01 0.04,0 0.07,0.01 0.07,0 0.07,0.01 c 0.12,0.01 0.13,0.18 0.13,0.19 0,0.08 -0.05,0.12 -0.13,0.12 -0.25,0 -0.54,-0.03 -0.81,-0.03 -0.33,0 -0.67,0.03 -0.99,0.03 -0.06,0 -0.19,0 -0.19,-0.19 0,-0.11 0.09,-0.12 0.16,-0.12 0.27,-0.02 0.46,-0.12 0.46,-0.33 0,-0.15 -0.15,-0.37 -0.15,-0.38 l -3.06,-4.86 -0.68,5.27 c 0,0.17 0.23,0.3 0.69,0.3 0.14,0 0.25,0 0.25,0.2 0,0.09 -0.08,0.11 -0.14,0.11 -0.4,0 -0.83,-0.03 -1.23,-0.03 -0.18,0 -0.37,0.01 -0.55,0.01 -0.18,0 -0.37,0.02 -0.54,0.02 -0.07,0 -0.19,0 -0.19,-0.19 0,-0.12 0.09,-0.12 0.25,-0.12 0.56,0 0.57,-0.09 0.6,-0.34 l 0.78,-6.15 c 0.03,-0.2 0.07,-0.23 0.2,-0.23 0.16,0 0.2,0.05 0.28,0.18 l 3.59,5.71 z"
   id="path3463" />
</g>    <path
       transform="translate(13.785714,243.29075)"
       sodipodi:nodetypes="ccccccssssssc"
       style="fill:#fdfefd;fill-opacity:0;stroke:#000000;stroke-width:1;stroke-miterlimit:4;stroke-opacity:0.98222219;stroke-dasharray:none;stroke-dashoffset:0"
       d="m -17.883987,269.96295 461.827667,0 m -230.91383,-79.95194 0,82.58194 0,115.19391 M -17.883987,372.53288 c 21.9917934,19.51202 43.983588,14.40205 65.975381,1.02527 21.991794,-13.37678 43.983588,-35.02791 65.975386,-53.99766 21.99179,-18.96975 43.98358,-35.25028 65.97538,-43.40319 21.99179,-8.1529 43.98358,-8.13752 65.97538,0 21.99179,8.13753 43.98359,24.43788 65.97538,43.40319 21.99179,18.96531 43.98359,40.60345 65.97538,53.99766 21.9918,13.39421 43.98357,18.48675 65.97536,-1.02527"
       title="-1.5*x*x+x*x*x*x"
       id="path3769" />
    <text
       transform="translate(-4.598273,432.80176)"
       sodipodi:linespacing="100%"
       id="text3611"
       y="10.467981"
       x="146.22791"
       style="font-size:28;font-style:italic;font-variant:normal;font-weight:normal;font-stretch:normal;text-align:start;line-height:100%;writing-mode:lr-tb;text-anchor:start;fill:#000000;fill-opacity:1;stroke:none;font-family:Times New Roman;-inkscape-font-specification:Bitstream Vera Sans Oblique"
       xml:space="preserve"><tspan
         y="10.467981"
         x="146.22791"
         id="tspan3613"
         sodipodi:role="line" /></text>
    <g
       id="g3631">
      <g
         text-anchor="start"
         word-spacing="normal"
         letter-spacing="normal"
         font-size-adjust="none"
         font-stretch="normal"
         font-weight="normal"
         font-variant="normal"
         font-style="normal"
         fill-opacity="1"
         fill-rule="evenodd"
         fill="none"
         stroke-opacity="1"
         stroke-dashoffset="0"
         stroke-dasharray="none"
         stroke-miterlimit="10.433"
         stroke-linejoin="miter"
         stroke-linecap="butt"
         stroke="black"
         xml:space="preserve"
         transform="matrix(0.2839655,0,0,-0.2839655,-49.6939625,347.1207525)"
         id="g3633"><path
           id="path3635"
           fill="black"
           stroke-width="0"
           d="M491.27,417.61 L491.28,417.63 L491.29,417.65 L491.31,417.7 L491.33,417.75 L491.35,417.81 L491.37,417.86 L491.39,417.91 L491.41,417.96 L491.43,418.01 L491.44,418.03 L491.45,418.06 L491.46,418.08 L491.46,418.1 L491.47,418.13 L491.48,418.15 L491.49,418.17 L491.49,418.19 L491.5,418.21 L491.5,418.22 L491.51,418.24 L491.51,418.26 L491.51,418.27 L491.51,418.28 L491.52,418.29 L491.52,418.3 C491.52,418.36,491.52,418.85,490.92,418.85 C490.47,418.85,490.37,418.55,490.27,418.25 C487.04,410.88,485.19,407.54,476.67,407.54 H469.4 C468.7,407.54,468.6,407.54,468.3,407.59 C467.8,407.64,467.66,407.7,467.66,408.09 C467.66,408.24,467.66,408.34,467.91,409.24 L471.29,422.84 H476.22 C480.46,422.84,480.46,421.79,480.46,420.55 C480.46,420.2,480.46,419.6,480.11,418.11 C480.01,417.86,479.96,417.71,479.96,417.55 C479.96,417.31,480.16,417.01,480.61,417.01 C481.01,417.01,481.16,417.26,481.36,418 L484.2,429.66 C484.2,429.96,483.95,430.21,483.6,430.21 C483.15,430.21,483.05,429.91,482.9,429.31 C481.85,425.53,480.96,424.38,476.38,424.38 H471.69 L474.68,436.39 C475.13,438.13,475.18,438.33,477.37,438.33 H484.39 C490.47,438.33,491.96,436.88,491.96,432.8 C491.96,431.61,491.96,431.5,491.77,430.16 C491.77,429.86,491.71,429.51,491.71,429.26 C491.71,429.01,491.87,428.66,492.31,428.66 C492.86,428.66,492.91,428.96,493.01,429.91 L494.01,438.53 C494.16,439.87,493.91,439.87,492.66,439.87 H467.51 C466.51,439.87,466.01,439.87,466.01,438.88 C466.01,438.33,466.46,438.33,467.41,438.33 C469.25,438.33,470.64,438.33,470.64,437.43 C470.64,437.23,470.64,437.13,470.39,436.24 L463.82,409.89 C463.32,407.94,463.22,407.54,459.29,407.54 C458.44,407.54,457.89,407.54,457.89,406.6 C457.89,406,458.34,406,459.29,406 H485.14 C486.29,406,486.34,406.05,486.68,406.85 Z " /></g>    </g>
  </g>
  <g
     style="display:inline"
     inkscape:label="e1"
     id="layer2"
     inkscape:groupmode="layer">
    <path
       sodipodi:nodetypes="cc"
       id="path2820"
       d="m 0,42.55997 463.93167,0"
       style="fill:none;stroke:#000000;stroke-width:1;stroke-linecap:butt;stroke-linejoin:miter;stroke-miterlimit:4;stroke-opacity:1;stroke-dasharray:6, 6;stroke-dashoffset:0;display:inline" />
    <text
       xml:space="preserve"
       style="font-size:28px;font-style:italic;font-variant:normal;font-weight:normal;font-stretch:normal;text-align:start;line-height:100%;writing-mode:lr-tb;text-anchor:start;fill:#000000;fill-opacity:1;stroke:none;font-family:Times New Roman;-inkscape-font-specification:Bitstream Vera Sans Oblique"
       x="22.091982"
       y="35.715961"
       id="text3664"
       sodipodi:linespacing="100%"><tspan
         sodipodi:role="line"
         id="tspan3666"
         x="22.091982"
         y="35.715961">E</tspan></text>
  </g>
  <g
     inkscape:label="e2"
     id="layer3"
     inkscape:groupmode="layer"
     style="display:none">
    <path
       sodipodi:nodetypes="cc"
       id="path2820-7"
       d="m 0,148.55997 463.93167,0"
       style="fill:none;stroke:#000000;stroke-width:1;stroke-linecap:butt;stroke-linejoin:miter;stroke-miterlimit:4;stroke-opacity:1;stroke-dasharray:6, 6;stroke-dashoffset:0;display:inline" />
    <text
       xml:space="preserve"
       style="font-size:28px;font-style:italic;font-variant:normal;font-weight:normal;font-stretch:normal;text-align:start;line-height:100%;writing-mode:lr-tb;text-anchor:start;fill:#000000;fill-opacity:1;stroke:none;display:inline;font-family:Times New Roman;-inkscape-font-specification:Bitstream Vera Sans Oblique"
       x="22.091982"
       y="141.71596"
       id="text3664-9"
       sodipodi:linespacing="100%"><tspan
         sodipodi:role="line"
         id="tspan3666-3"
         x="22.091982"
         y="141.71596">E</tspan></text>
  </g>
</svg>
