<?xml version="1.0" encoding="UTF-8" standalone="no"?>
<!-- Created with Inkscape (http://www.inkscape.org/) -->
<svg
   xmlns:ns0="http://www.iki.fi/pav/software/textext"
   xmlns:dc="http://purl.org/dc/elements/1.1/"
   xmlns:cc="http://creativecommons.org/ns#"
   xmlns:rdf="http://www.w3.org/1999/02/22-rdf-syntax-ns#"
   xmlns:svg="http://www.w3.org/2000/svg"
   xmlns="http://www.w3.org/2000/svg"
   xmlns:sodipodi="http://sodipodi.sourceforge.net/DTD/sodipodi-0.dtd"
   xmlns:inkscape="http://www.inkscape.org/namespaces/inkscape"
   width="514.08118"
   height="276.98187"
   id="svg2881"
   sodipodi:version="0.32"
   inkscape:version="0.46"
   sodipodi:docname="wdecay.svg"
   inkscape:output_extension="org.inkscape.output.svg.inkscape"
   version="1.0">
  <sodipodi:namedview
     id="base"
     pagecolor="#ffffff"
     bordercolor="#666666"
     borderopacity="1.0"
     gridtolerance="10000"
     guidetolerance="10"
     objecttolerance="10"
     inkscape:pageopacity="0.0"
     inkscape:pageshadow="2"
     inkscape:zoom="1.5989693"
     inkscape:cx="257.66599"
     inkscape:cy="138.49094"
     inkscape:document-units="px"
     inkscape:current-layer="layer1"
     showgrid="false"
     inkscape:window-width="1279"
     inkscape:window-height="947"
     inkscape:window-x="1"
     inkscape:window-y="49" />
  <defs
     id="defs2883">
    <marker
       inkscape:stockid="Arrow1Lstart"
       orient="auto"
       refY="0"
       refX="0"
       id="Arrow1Lstart"
       style="overflow:visible">
      <path
         id="path11116"
         d="M 0,0 L 5,-5 L -12.5,0 L 5,5 L 0,0 z"
         style="fill-rule:evenodd;stroke:#000000;stroke-width:1pt;marker-start:none"
         transform="matrix(0.8,0,0,0.8,10,0)" />
    </marker>
    <marker
       style="overflow:visible"
       id="Arrow1Lend"
       refX="0"
       refY="0"
       orient="auto"
       inkscape:stockid="Arrow1Lend">
      <path
         transform="matrix(-0.8,0,0,-0.8,-10,0)"
         style="fill-rule:evenodd;stroke:#000000;stroke-width:1pt;marker-start:none"
         d="M 0,0 L 5,-5 L -12.5,0 L 5,5 L 0,0 z"
         id="path3844" />
    </marker>
    <inkscape:perspective
       id="perspective2889"
       inkscape:persp3d-origin="372.04724 : 350.78739 : 1"
       inkscape:vp_z="744.09448 : 526.18109 : 1"
       inkscape:vp_y="0 : 1000 : 0"
       inkscape:vp_x="0 : 526.18109 : 1"
       sodipodi:type="inkscape:persp3d" />
  </defs>
  <metadata
     id="metadata2886">
    <rdf:RDF>
      <cc:Work
         rdf:about="">
        <dc:format>image/svg+xml</dc:format>
        <dc:type
           rdf:resource="http://purl.org/dc/dcmitype/StillImage" />
      </cc:Work>
    </rdf:RDF>
  </metadata>
  <g
     id="layer1"
     inkscape:groupmode="layer"
     inkscape:label="Layer 1"
     transform="translate(-214.06957,-255.61032)">
    <g
       style="font-style:normal;font-variant:normal;font-weight:normal;font-stretch:normal;letter-spacing:normal;word-spacing:normal;text-anchor:start;fill:none;fill-opacity:1;stroke:#000000;stroke-linecap:butt;stroke-linejoin:miter;stroke-miterlimit:10.43299961;stroke-dasharray:none;stroke-dashoffset:0;stroke-opacity:1;display:inline"
       xml:space="preserve"
       id="g2721"
       transform="matrix(3,0,0,-3,-437.13916,2416.0189)"
       stroke-miterlimit="10.433"
       fill-rule="even-odd"
       font-style="normal"
       font-variant="normal"
       font-weight="normal"
       font-stretch="normal"
       font-size-adjust="none"
       letter-spacing="normal"
       word-spacing="normal"
       ns0:text="$\\bar{\\nu}_l \\gamma^\\mu(1-\\gamma_5)l W_\\mu^+$"
       ns0:preamble="">
<polygon
   style="fill:#000000;stroke-width:0"
   points="228.28,712.69 228.28,713 224.68,713 224.68,712.69 228.28,712.69 "
   id="polygon2723" />
<path
   style="fill:#000000;stroke-width:0"
   d="M 225.66,711.42 L 225.66,711.42 L 225.66,711.42 L 225.66,711.42 L 225.66,711.42 L 225.66,711.42 L 225.66,711.43 L 225.66,711.43 L 225.66,711.43 L 225.66,711.44 L 225.66,711.44 L 225.66,711.45 L 225.66,711.45 L 225.66,711.46 L 225.66,711.46 L 225.65,711.46 L 225.65,711.47 L 225.65,711.47 L 225.64,711.48 L 225.64,711.48 L 225.64,711.49 L 225.63,711.49 L 225.63,711.5 L 225.63,711.5 L 225.62,711.5 L 225.62,711.5 L 225.62,711.5 L 225.62,711.51 L 225.61,711.51 L 225.61,711.51 L 225.61,711.51 L 225.6,711.51 L 225.6,711.52 L 225.59,711.52 L 225.59,711.52 L 225.59,711.52 L 225.58,711.52 L 225.58,711.52 L 225.57,711.52 L 225.57,711.52 L 225.56,711.52 L 225.56,711.52 L 225.55,711.53 L 225.55,711.53 L 225.54,711.53 L 225.54,711.53 C 225.3,711.53 224.58,711.45 224.32,711.43 C 224.24,711.42 224.13,711.41 224.13,711.23 C 224.13,711.11 224.22,711.11 224.37,711.11 C 224.85,711.11 224.87,711.04 224.87,710.94 C 224.87,710.87 224.75,710.4 224.68,710.13 L 224.07,707.69 C 224.03,707.54 223.96,707.26 223.96,707.24 C 223.96,707.13 224.06,707.12 224.12,707.12 L 224.26,707.12 C 224.96,707.24 226.04,707.63 227.07,708.59 C 228.38,709.81 228.65,711.17 228.65,711.26 C 228.65,711.43 228.53,711.53 228.36,711.53 C 228.28,711.53 228.05,711.49 227.98,711.2 C 227.34,708.94 225.82,707.82 224.69,707.45 L 225.66,711.42 z"
   id="path2725" />
<path
   style="fill:#000000;stroke-width:0"
   d="M 230.32,710.26 L 230.32,710.26 L 230.32,710.26 L 230.32,710.26 L 230.32,710.26 L 230.32,710.27 L 230.32,710.27 L 230.32,710.27 L 230.32,710.27 L 230.32,710.27 L 230.32,710.28 L 230.33,710.28 L 230.33,710.28 L 230.33,710.29 L 230.33,710.29 L 230.33,710.3 L 230.33,710.3 L 230.33,710.31 L 230.33,710.31 L 230.34,710.32 L 230.34,710.33 L 230.34,710.33 L 230.34,710.34 L 230.34,710.34 L 230.34,710.35 L 230.34,710.35 L 230.34,710.35 L 230.34,710.36 L 230.35,710.36 L 230.35,710.36 L 230.35,710.36 L 230.35,710.36 L 230.35,710.37 L 230.35,710.37 L 230.35,710.37 L 230.35,710.37 L 230.35,710.37 L 230.35,710.37 L 230.35,710.37 L 230.35,710.37 L 230.35,710.37 C 230.35,710.41 230.32,710.47 230.24,710.47 C 230.1,710.47 229.52,710.41 229.34,710.4 C 229.29,710.39 229.2,710.39 229.2,710.24 C 229.2,710.14 229.29,710.14 229.37,710.14 C 229.71,710.14 229.71,710.09 229.71,710.04 C 229.71,709.99 229.69,709.95 229.68,709.88 L 228.81,706.44 C 228.79,706.37 228.79,706.29 228.79,706.22 C 228.79,705.78 229.18,705.56 229.52,705.56 C 229.68,705.56 229.89,705.62 230.07,705.93 C 230.22,706.19 230.32,706.6 230.32,706.63 C 230.32,706.72 230.23,706.72 230.21,706.72 C 230.11,706.72 230.1,706.68 230.07,706.55 C 229.98,706.2 229.85,705.76 229.54,705.76 C 229.36,705.76 229.31,705.93 229.31,706.1 C 229.31,706.17 229.33,706.31 229.35,706.38 L 230.32,710.26 z"
   id="path2727" />
<path
   style="fill:#000000;stroke-width:0"
   d="M 231.82,709.65 L 231.84,709.71 L 231.86,709.76 L 231.88,709.81 L 231.9,709.85 L 231.92,709.9 L 231.95,709.95 L 231.97,709.99 L 232,710.03 L 232.02,710.07 L 232.05,710.11 L 232.07,710.15 L 232.1,710.19 L 232.16,710.25 L 232.22,710.32 L 232.28,710.38 L 232.34,710.43 L 232.4,710.48 L 232.46,710.52 L 232.53,710.56 L 232.59,710.6 L 232.65,710.63 L 232.72,710.66 L 232.78,710.69 L 232.84,710.71 L 232.9,710.73 L 232.96,710.75 L 233.01,710.76 L 233.07,710.77 L 233.12,710.78 L 233.17,710.79 L 233.21,710.8 L 233.25,710.8 L 233.29,710.8 L 233.32,710.81 L 233.35,710.81 L 233.37,710.81 L 233.39,710.81 L 233.4,710.81 C 234.91,710.81 235.02,709.07 235.02,708.28 C 235.02,707.67 234.97,707.5 234.9,707.3 C 234.68,706.58 234.38,705.42 234.38,705.16 C 234.38,705.05 234.43,704.98 234.51,704.98 C 234.64,704.98 234.72,705.2 234.83,705.58 C 235.06,706.41 235.16,706.98 235.2,707.29 C 235.22,707.42 235.24,707.55 235.28,707.68 C 235.6,708.67 236.23,710.15 236.63,710.94 C 236.7,711.06 236.82,711.28 236.82,711.32 C 236.82,711.42 236.72,711.42 236.7,711.42 C 236.67,711.42 236.61,711.42 236.58,711.35 C 236.07,710.4 235.67,709.4 235.27,708.4 C 235.26,708.71 235.25,709.46 234.86,710.43 C 234.62,711.04 234.22,711.53 233.54,711.53 C 232.29,711.53 231.59,710.01 231.59,709.7 C 231.59,709.6 231.68,709.6 231.78,709.6 L 231.82,709.65 z"
   id="path2729" />
<path
   style="fill:#000000;stroke-width:0"
   d="M 237.5,709.61 L 237.49,709.61 L 237.49,709.6 L 237.49,709.59 L 237.49,709.58 L 237.49,709.57 L 237.48,709.56 L 237.48,709.56 L 237.48,709.55 L 237.48,709.54 L 237.48,709.54 L 237.48,709.53 L 237.48,709.52 L 237.47,709.52 L 237.47,709.51 L 237.47,709.51 L 237.47,709.5 L 237.47,709.5 L 237.47,709.5 L 237.47,709.49 L 237.47,709.49 L 237.47,709.49 L 237.47,709.48 L 237.47,709.48 L 237.47,709.48 L 237.47,709.48 L 237.47,709.48 L 237.47,709.47 L 237.47,709.47 L 237.47,709.47 L 237.47,709.47 L 237.47,709.47 L 237.47,709.47 C 237.47,709.32 237.59,709.24 237.71,709.24 C 237.96,709.24 238.01,709.47 238.04,709.59 C 238.05,709.63 238.19,710.19 238.36,710.87 C 238.58,710.72 238.86,710.67 239.11,710.67 C 239.71,710.67 240.1,711.16 240.11,711.17 C 240.24,710.69 240.73,710.67 240.83,710.67 C 241.08,710.67 241.26,710.82 241.38,711.04 C 241.53,711.31 241.62,711.71 241.62,711.73 C 241.62,711.83 241.53,711.83 241.51,711.83 C 241.42,711.83 241.41,711.8 241.36,711.61 C 241.28,711.28 241.14,710.86 240.85,710.86 C 240.67,710.86 240.62,711.02 240.62,711.21 C 240.62,711.32 240.68,711.57 240.73,711.76 C 240.77,711.94 240.84,712.23 240.88,712.38 L 241.04,713 C 241.08,713.18 241.16,713.48 241.16,713.52 C 241.16,713.66 241.05,713.74 240.93,713.74 C 240.85,713.74 240.72,713.71 240.64,713.58 C 240.62,713.53 240.57,713.31 240.53,713.17 L 240.38,712.59 C 240.29,712.19 240.26,712.08 240.17,711.72 C 240.12,711.55 240.12,711.53 240.06,711.44 C 239.84,711.14 239.53,710.86 239.13,710.86 C 238.56,710.86 238.56,711.36 238.56,711.48 C 238.56,711.66 238.59,711.76 238.68,712.13 C 238.75,712.44 238.77,712.49 238.84,712.76 L 238.93,713.15 C 238.97,713.3 239.04,713.56 239.04,713.59 C 239.04,713.72 238.94,713.81 238.8,713.81 C 238.55,713.81 238.49,713.57 238.47,713.48 L 237.5,709.61 z"
   id="path2731" />
<path
   style="fill:#000000;stroke-width:0"
   d="M 245.76,704.73 L 245.76,704.74 L 245.76,704.74 L 245.76,704.75 L 245.76,704.75 L 245.76,704.75 L 245.76,704.75 L 245.76,704.76 L 245.76,704.76 L 245.76,704.77 L 245.76,704.77 L 245.75,704.77 L 245.75,704.78 L 245.75,704.78 L 245.74,704.79 L 245.74,704.79 L 245.73,704.8 L 245.73,704.81 L 245.72,704.81 L 245.72,704.82 L 245.72,704.82 L 245.71,704.83 L 245.71,704.83 L 245.71,704.84 L 245.7,704.84 L 245.7,704.84 L 245.69,704.85 L 245.69,704.85 L 245.68,704.86 L 245.68,704.86 L 245.67,704.87 L 245.67,704.88 L 245.66,704.88 L 245.66,704.89 L 245.65,704.89 L 245.65,704.9 L 245.64,704.91 L 245.63,704.91 L 245.63,704.92 L 245.62,704.93 L 245.61,704.94 L 245.6,704.94 L 245.6,704.95 C 244.35,706.21 244.03,708.09 244.03,709.61 C 244.03,711.35 244.41,713.08 245.64,714.33 C 245.76,714.45 245.76,714.47 245.76,714.49 C 245.76,714.57 245.73,714.59 245.66,714.59 C 245.57,714.59 244.67,713.92 244.08,712.65 C 243.57,711.56 243.45,710.45 243.45,709.61 C 243.45,708.84 243.56,707.63 244.11,706.51 C 244.71,705.28 245.57,704.63 245.66,704.63 C 245.73,704.63 245.76,704.66 245.76,704.73 z"
   id="path2733" />
<path
   style="fill:#000000;stroke-width:0"
   d="M 249.27,713.5 L 249.27,713.51 L 249.27,713.52 L 249.27,713.53 L 249.27,713.54 L 249.27,713.55 L 249.27,713.56 L 249.27,713.57 L 249.27,713.58 L 249.27,713.59 L 249.27,713.6 L 249.27,713.6 L 249.27,713.61 L 249.27,713.62 L 249.26,713.63 L 249.26,713.63 L 249.26,713.64 L 249.26,713.65 L 249.26,713.65 L 249.26,713.66 L 249.26,713.68 L 249.25,713.69 L 249.25,713.7 L 249.25,713.7 L 249.24,713.71 L 249.24,713.72 L 249.23,713.72 L 249.23,713.73 L 249.22,713.73 L 249.21,713.74 L 249.2,713.74 L 249.2,713.74 L 249.19,713.75 L 249.19,713.75 L 249.18,713.75 L 249.18,713.75 L 249.17,713.75 L 249.16,713.75 L 249.16,713.75 L 249.15,713.75 L 249.14,713.75 L 249.14,713.76 L 249.13,713.76 L 249.12,713.76 L 249.11,713.76 L 249.1,713.76 L 249.1,713.76 L 249.09,713.76 L 249.08,713.76 L 249.07,713.76 L 249.06,713.76 L 249.05,713.76 L 249.04,713.76 C 248.42,713.12 247.54,713.12 247.22,713.12 L 247.22,712.81 C 247.42,712.81 248.01,712.81 248.53,713.07 L 248.53,707.91 C 248.53,707.55 248.5,707.43 247.6,707.43 L 247.28,707.43 L 247.28,707.12 C 247.63,707.15 248.5,707.15 248.9,707.15 C 249.3,707.15 250.16,707.15 250.51,707.12 L 250.51,707.43 L 250.19,707.43 C 249.3,707.43 249.27,707.54 249.27,707.91 L 249.27,713.5 z"
   id="path2735" />
<path
   style="fill:#000000;stroke-width:0"
   d="M 260.12,709.41 L 260.14,709.41 L 260.15,709.41 L 260.18,709.41 L 260.2,709.42 L 260.22,709.42 L 260.23,709.42 L 260.25,709.42 L 260.26,709.42 L 260.27,709.42 L 260.29,709.42 L 260.3,709.43 L 260.31,709.43 L 260.33,709.43 L 260.34,709.44 L 260.35,709.44 L 260.36,709.45 L 260.37,709.46 L 260.38,709.46 L 260.39,709.47 L 260.4,709.48 L 260.41,709.49 L 260.42,709.49 L 260.42,709.5 L 260.42,709.5 L 260.43,709.51 L 260.43,709.51 L 260.43,709.52 L 260.44,709.53 L 260.44,709.53 L 260.44,709.54 L 260.44,709.55 L 260.45,709.55 L 260.45,709.56 L 260.45,709.57 L 260.45,709.58 L 260.45,709.59 L 260.45,709.59 L 260.45,709.6 L 260.45,709.61 C 260.45,709.81 260.26,709.81 260.12,709.81 L 254.69,709.81 C 254.55,709.81 254.36,709.81 254.36,709.61 C 254.36,709.41 254.55,709.41 254.69,709.41 L 260.12,709.41 z"
   id="path2737" />
<path
   style="fill:#000000;stroke-width:0"
   d="M 263.91,709.65 L 263.92,709.71 L 263.94,709.76 L 263.97,709.81 L 263.99,709.85 L 264.01,709.9 L 264.03,709.95 L 264.06,709.99 L 264.08,710.03 L 264.11,710.07 L 264.13,710.11 L 264.16,710.15 L 264.19,710.19 L 264.24,710.25 L 264.3,710.32 L 264.36,710.38 L 264.42,710.43 L 264.49,710.48 L 264.55,710.52 L 264.61,710.56 L 264.68,710.6 L 264.74,710.63 L 264.8,710.66 L 264.86,710.69 L 264.93,710.71 L 264.99,710.73 L 265.04,710.75 L 265.1,710.76 L 265.15,710.77 L 265.2,710.78 L 265.25,710.79 L 265.3,710.8 L 265.34,710.8 L 265.37,710.8 L 265.41,710.81 L 265.43,710.81 L 265.46,710.81 L 265.48,710.81 L 265.49,710.81 C 266.99,710.81 267.1,709.07 267.1,708.28 C 267.1,707.67 267.05,707.5 266.98,707.3 C 266.77,706.58 266.47,705.42 266.47,705.16 C 266.47,705.05 266.52,704.98 266.6,704.98 C 266.73,704.98 266.8,705.2 266.92,705.58 C 267.14,706.41 267.24,706.98 267.28,707.29 C 267.3,707.42 267.32,707.55 267.36,707.68 C 267.68,708.67 268.32,710.15 268.72,710.94 C 268.79,711.06 268.91,711.28 268.91,711.32 C 268.91,711.42 268.81,711.42 268.79,711.42 C 268.76,711.42 268.7,711.42 268.67,711.35 C 268.15,710.4 267.75,709.4 267.35,708.4 C 267.34,708.71 267.33,709.46 266.95,710.43 C 266.7,711.04 266.31,711.53 265.62,711.53 C 264.37,711.53 263.68,710.01 263.68,709.7 C 263.68,709.6 263.77,709.6 263.87,709.6 L 263.91,709.65 z"
   id="path2739" />
<path
   style="fill:#000000;stroke-width:0"
   d="M 269.74,709.52 L 269.77,709.51 L 269.8,709.51 L 269.83,709.5 L 269.86,709.49 L 269.89,709.49 L 269.92,709.48 L 269.95,709.47 L 269.98,709.47 L 270,709.46 L 270.03,709.46 L 270.06,709.46 L 270.08,709.45 L 270.1,709.45 L 270.13,709.45 L 270.15,709.44 L 270.17,709.44 L 270.19,709.44 L 270.21,709.44 L 270.23,709.44 L 270.25,709.44 L 270.26,709.43 L 270.28,709.43 L 270.3,709.43 L 270.31,709.43 L 270.33,709.43 L 270.34,709.43 L 270.36,709.43 L 270.37,709.43 L 270.38,709.43 L 270.39,709.43 L 270.4,709.43 L 270.42,709.43 C 271.33,709.43 271.88,710.06 271.88,710.16 C 271.88,710.24 271.83,710.26 271.8,710.26 C 271.78,710.26 271.77,710.26 271.74,710.24 C 271.57,710.18 271.2,710.04 270.69,710.04 C 270.49,710.04 270.12,710.05 269.67,710.23 C 269.6,710.26 269.58,710.26 269.58,710.26 C 269.49,710.26 269.49,710.18 269.49,710.07 L 269.49,708.02 C 269.49,707.9 269.49,707.81 269.6,707.81 C 269.66,707.81 269.67,707.83 269.74,707.91 C 270.04,708.29 270.46,708.35 270.71,708.35 C 271.13,708.35 271.32,708.02 271.35,707.96 C 271.48,707.73 271.52,707.46 271.52,707.06 C 271.52,706.85 271.52,706.44 271.31,706.13 C 271.13,705.88 270.83,705.71 270.49,705.71 C 270.04,705.71 269.57,705.97 269.4,706.42 C 269.66,706.4 269.79,706.58 269.79,706.77 C 269.79,707.07 269.54,707.12 269.45,707.12 C 269.43,707.12 269.1,707.12 269.1,706.75 C 269.1,706.12 269.67,705.49 270.51,705.49 C 271.4,705.49 272.18,706.15 272.18,707.03 C 272.18,707.82 271.58,708.54 270.71,708.54 C 270.41,708.54 270.05,708.47 269.74,708.2 L 269.74,709.52 z"
   id="path2741" />
<path
   style="fill:#000000;stroke-width:0"
   d="M 276.01,709.61 L 276.01,709.69 L 276.01,709.76 L 276,709.84 L 276,709.92 L 275.99,710.09 L 275.98,710.27 L 275.96,710.45 L 275.94,710.64 L 275.92,710.84 L 275.88,711.04 L 275.84,711.24 L 275.8,711.45 L 275.74,711.66 L 275.68,711.87 L 275.61,712.08 L 275.53,712.3 L 275.49,712.4 L 275.45,712.51 L 275.4,712.62 L 275.35,712.72 C 274.75,713.95 273.89,714.59 273.8,714.59 C 273.73,714.59 273.7,714.55 273.7,714.49 C 273.7,714.47 273.7,714.45 273.89,714.27 C 274.86,713.28 275.43,711.7 275.43,709.61 C 275.43,707.91 275.06,706.16 273.83,704.9 C 273.7,704.78 273.7,704.76 273.7,704.73 C 273.7,704.67 273.73,704.63 273.8,704.63 C 273.89,704.63 274.79,705.31 275.38,706.58 C 275.89,707.67 276.01,708.78 276.01,709.61 z"
   id="path2743" />
<path
   style="fill:#000000;stroke-width:0"
   d="M 279.57,713.93 L 279.57,713.93 L 279.57,713.93 L 279.57,713.93 L 279.57,713.93 L 279.57,713.93 L 279.57,713.94 L 279.57,713.94 L 279.57,713.94 L 279.57,713.95 L 279.57,713.95 L 279.56,713.96 L 279.56,713.96 L 279.56,713.97 L 279.56,713.97 L 279.56,713.98 L 279.55,713.98 L 279.55,713.99 L 279.55,713.99 L 279.54,714 L 279.54,714 L 279.54,714 L 279.53,714.01 L 279.53,714.01 L 279.53,714.01 L 279.53,714.01 L 279.52,714.02 L 279.52,714.02 L 279.52,714.02 L 279.51,714.02 L 279.51,714.02 L 279.51,714.02 L 279.5,714.03 L 279.5,714.03 L 279.49,714.03 L 279.49,714.03 L 279.49,714.03 L 279.48,714.03 L 279.48,714.03 L 279.47,714.03 L 279.47,714.04 L 279.46,714.04 L 279.46,714.04 L 279.45,714.04 L 279.44,714.04 L 279.44,714.04 C 279.21,714.04 278.48,713.96 278.22,713.94 C 278.14,713.93 278.03,713.92 278.03,713.73 C 278.03,713.62 278.13,713.62 278.28,713.62 C 278.76,713.62 278.77,713.53 278.77,713.45 L 278.74,713.25 L 277.49,708.27 C 277.46,708.16 277.44,708.09 277.44,707.93 C 277.44,707.36 277.87,707.01 278.34,707.01 C 278.67,707.01 278.92,707.21 279.09,707.57 C 279.27,707.95 279.39,708.53 279.39,708.55 C 279.39,708.65 279.3,708.65 279.27,708.65 C 279.17,708.65 279.16,708.61 279.13,708.47 C 278.96,707.82 278.77,707.23 278.37,707.23 C 278.07,707.23 278.07,707.55 278.07,707.69 C 278.07,707.93 278.08,707.98 278.13,708.17 L 279.57,713.93 z"
   id="path2745" />
<path
   style="fill:#000000;stroke-width:0"
   d="M 289.31,712.77 L 289.35,712.85 L 289.4,712.93 L 289.45,713.01 L 289.5,713.08 L 289.52,713.12 L 289.55,713.15 L 289.58,713.19 L 289.6,713.22 L 289.63,713.25 L 289.66,713.28 L 289.69,713.31 L 289.72,713.34 L 289.75,713.37 L 289.79,713.39 L 289.82,713.42 L 289.86,713.44 L 289.9,713.47 L 289.94,713.49 L 289.98,713.51 L 290.02,713.53 L 290.06,713.54 L 290.11,713.56 L 290.15,713.57 L 290.2,713.59 L 290.26,713.6 L 290.31,713.61 L 290.36,713.61 L 290.42,713.62 C 290.51,713.63 290.61,713.63 290.61,713.82 C 290.61,713.86 290.57,713.93 290.49,713.93 C 290.25,713.93 289.97,713.9 289.72,713.9 C 289.39,713.9 289.02,713.93 288.69,713.93 C 288.63,713.93 288.5,713.93 288.5,713.74 C 288.5,713.63 288.59,713.62 288.65,713.62 C 288.89,713.61 289.24,713.53 289.24,713.23 C 289.24,713.12 289.19,713.04 289.11,712.9 L 286.42,708.21 L 286.05,713.15 C 286.04,713.35 286.02,713.61 286.74,713.62 C 286.92,713.62 287.01,713.62 287.01,713.82 C 287.01,713.92 286.9,713.93 286.86,713.93 C 286.47,713.93 286.05,713.9 285.65,713.9 C 285.42,713.9 284.83,713.93 284.6,713.93 C 284.54,713.93 284.41,713.93 284.41,713.73 C 284.41,713.62 284.51,713.62 284.65,713.62 C 285.09,713.62 285.16,713.56 285.18,713.37 L 285.24,712.6 L 282.72,708.21 L 282.34,713.26 C 282.34,713.38 282.34,713.61 283.1,713.62 C 283.2,713.62 283.31,713.62 283.31,713.82 C 283.31,713.93 283.19,713.93 283.17,713.93 C 282.77,713.93 282.35,713.9 281.94,713.9 C 281.6,713.9 281.24,713.93 280.9,713.93 C 280.85,713.93 280.72,713.93 280.72,713.74 C 280.72,713.62 280.81,713.62 280.97,713.62 C 281.46,713.62 281.48,713.53 281.49,713.25 L 281.94,707.16 C 281.95,706.98 281.96,706.9 282.1,706.9 C 282.22,706.9 282.25,706.96 282.34,707.11 L 285.27,712.19 L 285.64,707.16 C 285.66,706.95 285.68,706.9 285.8,706.9 C 285.93,706.9 285.99,707 286.04,707.09 L 289.31,712.77 z"
   id="path2747" />
<path
   style="fill:#000000;stroke-width:0"
   d="M 294.19,712.31 L 296.33,712.31 C 296.42,712.31 296.58,712.31 296.58,712.48 C 296.58,712.66 296.42,712.66 296.33,712.66 L 294.19,712.66 L 294.19,714.8 C 294.19,714.89 294.19,715.05 294.02,715.05 C 293.85,715.05 293.85,714.89 293.85,714.8 L 293.85,712.66 L 291.71,712.66 C 291.62,712.66 291.45,712.66 291.45,712.49 C 291.45,712.31 291.61,712.31 291.71,712.31 L 293.85,712.31 L 293.85,710.17 C 293.85,710.08 293.85,709.91 294.02,709.91 C 294.19,709.91 294.19,710.08 294.19,710.17 L 294.19,712.31 z"
   id="path2749" />
<path
   style="fill:#000000;stroke-width:0"
   d="M 289.95,703.54 L 289.95,703.53 L 289.95,703.52 L 289.94,703.51 L 289.94,703.5 L 289.94,703.5 L 289.94,703.49 L 289.94,703.48 L 289.94,703.47 L 289.93,703.47 L 289.93,703.46 L 289.93,703.45 L 289.93,703.45 L 289.93,703.44 L 289.93,703.44 L 289.93,703.43 L 289.93,703.43 L 289.93,703.43 L 289.93,703.42 L 289.93,703.42 L 289.93,703.41 L 289.93,703.41 L 289.92,703.41 L 289.92,703.41 L 289.92,703.4 L 289.92,703.4 L 289.92,703.4 L 289.92,703.4 L 289.92,703.4 L 289.92,703.4 L 289.92,703.39 L 289.92,703.39 L 289.92,703.39 C 289.92,703.24 290.05,703.17 290.16,703.17 C 290.41,703.17 290.47,703.4 290.5,703.52 C 290.51,703.55 290.65,704.11 290.82,704.79 C 291.03,704.65 291.31,704.59 291.56,704.59 C 292.16,704.59 292.55,705.08 292.57,705.09 C 292.7,704.61 293.18,704.59 293.29,704.59 C 293.54,704.59 293.71,704.75 293.84,704.96 C 293.99,705.23 294.08,705.63 294.08,705.66 C 294.08,705.75 293.99,705.75 293.97,705.75 C 293.87,705.75 293.86,705.72 293.82,705.53 C 293.73,705.2 293.6,704.79 293.31,704.79 C 293.12,704.79 293.08,704.94 293.08,705.13 C 293.08,705.25 293.13,705.5 293.18,705.68 C 293.23,705.87 293.3,706.16 293.33,706.31 L 293.49,706.93 C 293.54,707.1 293.61,707.41 293.61,707.45 C 293.61,707.59 293.5,707.67 293.38,707.67 C 293.31,707.67 293.17,707.63 293.1,707.5 C 293.08,707.46 293.02,707.24 292.98,707.1 L 292.84,706.52 C 292.74,706.11 292.71,706.01 292.62,705.65 C 292.57,705.47 292.57,705.46 292.51,705.37 C 292.3,705.06 291.99,704.79 291.59,704.79 C 291.02,704.79 291.02,705.28 291.02,705.41 C 291.02,705.59 291.04,705.68 291.14,706.06 C 291.21,706.36 291.22,706.41 291.29,706.68 L 291.39,707.08 C 291.42,707.22 291.49,707.49 291.49,707.52 C 291.49,707.64 291.39,707.74 291.26,707.74 C 291.01,707.74 290.94,707.49 290.92,707.41 L 289.95,703.54 z"
   id="path2751" />
</g>    <g
       id="g2442"
       transform="matrix(-5.2156381e-3,-1.2504957,-0.973881,4.0619403e-3,917.39681,798.33236)"
       xml:space="preserve"
       stroke-miterlimit="10.433"
       fill-rule="even-odd"
       font-style="normal"
       font-variant="normal"
       font-weight="normal"
       font-stretch="normal"
       font-size-adjust="none"
       letter-spacing="normal"
       word-spacing="normal"
       style="font-style:normal;font-variant:normal;font-weight:normal;font-stretch:normal;letter-spacing:normal;word-spacing:normal;text-anchor:start;fill:none;fill-opacity:1;stroke:#000000;stroke-linecap:butt;stroke-linejoin:miter;stroke-miterlimit:10.43299961;stroke-dasharray:none;stroke-dashoffset:0;stroke-opacity:1;display:inline">
<polyline
   points="276,569 318.6,569 318.6,719.48 276,719.48 "
   id="polyline2444"
   style="fill:#ffffff;fill-rule:nonzero;stroke:#ffffff;stroke-width:0" />
<path
   d="M 298.88,716.88 C 308.88,712.48 308.88,710.92 298.88,706.52"
   id="path2446"
   style="stroke-width:0.5" />
<path
   d="M 298.88,706.52 C 288.88,702.13 288.88,700.56 298.88,696.16"
   id="path2448"
   style="stroke-width:0.5" />
<path
   d="M 298.88,696.16 C 308.88,691.77 308.88,690.2 298.88,685.81"
   id="path2450"
   style="stroke-width:0.5" />
<path
   d="M 298.88,685.81 C 288.88,681.41 288.88,679.85 298.88,675.45"
   id="path2452"
   style="stroke-width:0.5" />
<path
   d="M 298.88,675.45 C 308.88,671.05 308.88,669.49 298.88,665.09"
   id="path2454"
   style="stroke-width:0.5" />
<path
   d="M 298.88,665.09 C 288.88,660.7 288.88,659.13 298.88,654.74"
   id="path2456"
   style="stroke-width:0.5" />
<path
   d="M 298.88,654.74 C 308.88,650.34 308.88,648.78 298.88,644.38"
   id="path2458"
   style="stroke-width:0.5" />
<path
   d="M 298.88,644.38 C 288.88,639.98 288.88,638.42 298.88,634.02"
   id="path2460"
   style="stroke-width:0.5" />
<path
   d="M 298.88,634.02 C 308.88,629.63 308.88,628.06 298.88,623.66"
   id="path2462"
   style="stroke-width:0.5" />
<path
   d="M 298.88,623.66 C 288.88,619.27 288.88,617.7 298.88,613.31"
   id="path2464"
   style="stroke-width:0.5" />
<path
   d="M 298.88,613.31 C 308.88,608.91 308.88,607.35 298.88,602.95"
   id="path2466"
   style="stroke-width:0.5" />
<path
   d="M 298.88,602.95 C 288.88,598.55 288.88,596.99 298.88,592.59"
   id="path2468"
   style="stroke-width:0.5" />
<path
   d="M 298.88,592.59 C 308.88,588.2 308.88,586.63 298.88,582.24"
   id="path2470"
   style="stroke-width:0.5" />
<path
   d="M 298.88,582.24 C 288.88,577.84 288.88,576.28 298.88,571.88"
   id="path2472"
   style="stroke-width:0.5" />
<polyline
   points="276,720 319.32,720 319.32,720.48 276,720.48 "
   id="polyline2474"
   style="fill:#ffffff;fill-rule:nonzero;stroke:#ffffff;stroke-width:0" />
<polyline
   points="276,569 276.48,569 276.48,719.84 276,719.84 "
   id="polyline2476"
   style="fill:#ffffff;fill-rule:nonzero;stroke:#ffffff;stroke-width:0" />
<polyline
   points="319,569 319.48,569 319.48,719.84 319,719.84 "
   id="polyline2478"
   style="fill:#ffffff;fill-rule:nonzero;stroke:#ffffff;stroke-width:0" />
<polyline
   points="276,569 319.32,569 319.32,569.48 276,569.48 "
   id="polyline2480"
   style="fill:#ffffff;fill-rule:nonzero;stroke:#ffffff;stroke-width:0" />
</g>    <path
       style="fill:none;fill-rule:evenodd;stroke:#000000;stroke-width:1px;stroke-linecap:butt;stroke-linejoin:miter;marker-mid:url(#Arrow1Lend);stroke-opacity:1;display:inline"
       d="M 358.06531,428.79268 L 398.047,376.12165 L 438.29824,323.09552"
       id="path2486"
       sodipodi:nodetypes="ccc" />
    <g
       xml:space="preserve"
       id="content"
       transform="matrix(3,0,0,-3,-161.13924,2416.0189)"
       stroke-miterlimit="10.433"
       fill-rule="even-odd"
       font-style="normal"
       font-variant="normal"
       font-weight="normal"
       font-stretch="normal"
       font-size-adjust="none"
       letter-spacing="normal"
       word-spacing="normal"
       ns0:text="$\\bar{l} \\gamma^\\mu(1-\\gamma_5)\\nu_l W_\\mu^-$"
       ns0:preamble=""
       style="font-style:normal;font-variant:normal;font-weight:normal;font-stretch:normal;letter-spacing:normal;word-spacing:normal;text-anchor:start;fill:none;fill-opacity:1;stroke:#000000;stroke-linecap:butt;stroke-linejoin:miter;stroke-miterlimit:10.43299961;stroke-dasharray:none;stroke-dashoffset:0;stroke-opacity:1">
<polygon
   points="227.64,715.32 227.64,715.63 224.04,715.63 224.04,715.32 227.64,715.32 "
   id="polygon3432"
   style="fill:#000000;stroke-width:0" />
<path
   d="M 226,713.93 L 226,713.93 L 226,713.93 L 226,713.93 L 226,713.93 L 226,713.93 L 226,713.94 L 226,713.94 L 226,713.94 L 226,713.95 L 226,713.95 L 226,713.96 L 226,713.96 L 226,713.97 L 225.99,713.97 L 225.99,713.98 L 225.99,713.98 L 225.99,713.99 L 225.98,713.99 L 225.98,714 L 225.98,714 L 225.97,714 L 225.97,714.01 L 225.97,714.01 L 225.96,714.01 L 225.96,714.01 L 225.96,714.02 L 225.95,714.02 L 225.95,714.02 L 225.95,714.02 L 225.94,714.02 L 225.94,714.02 L 225.94,714.03 L 225.93,714.03 L 225.93,714.03 L 225.92,714.03 L 225.92,714.03 L 225.92,714.03 L 225.91,714.03 L 225.91,714.03 L 225.9,714.04 L 225.9,714.04 L 225.89,714.04 L 225.88,714.04 L 225.88,714.04 L 225.87,714.04 C 225.64,714.04 224.92,713.96 224.66,713.94 C 224.58,713.93 224.47,713.92 224.47,713.73 C 224.47,713.62 224.57,713.62 224.72,713.62 C 225.2,713.62 225.21,713.53 225.21,713.45 L 225.18,713.25 L 223.92,708.27 C 223.89,708.16 223.87,708.09 223.87,707.93 C 223.87,707.36 224.31,707.01 224.78,707.01 C 225.11,707.01 225.35,707.21 225.52,707.57 C 225.7,707.95 225.82,708.53 225.82,708.55 C 225.82,708.65 225.73,708.65 225.7,708.65 C 225.6,708.65 225.59,708.61 225.56,708.47 C 225.4,707.82 225.21,707.23 224.81,707.23 C 224.51,707.23 224.51,707.55 224.51,707.69 C 224.51,707.93 224.52,707.98 224.57,708.17 L 226,713.93 z"
   id="path3434"
   style="fill:#000000;stroke-width:0" />
<path
   d="M 227.01,709.65 L 227.03,709.71 L 227.05,709.76 L 227.07,709.81 L 227.09,709.85 L 227.12,709.9 L 227.14,709.95 L 227.16,709.99 L 227.19,710.03 L 227.21,710.07 L 227.24,710.11 L 227.27,710.15 L 227.29,710.19 L 227.35,710.25 L 227.41,710.32 L 227.47,710.38 L 227.53,710.43 L 227.59,710.48 L 227.66,710.52 L 227.72,710.56 L 227.78,710.6 L 227.85,710.63 L 227.91,710.66 L 227.97,710.69 L 228.03,710.71 L 228.09,710.73 L 228.15,710.75 L 228.21,710.76 L 228.26,710.77 L 228.31,710.78 L 228.36,710.79 L 228.4,710.8 L 228.44,710.8 L 228.48,710.8 L 228.51,710.81 L 228.54,710.81 L 228.57,710.81 L 228.58,710.81 L 228.6,710.81 C 230.1,710.81 230.21,709.07 230.21,708.28 C 230.21,707.67 230.16,707.5 230.09,707.3 C 229.87,706.58 229.57,705.42 229.57,705.16 C 229.57,705.05 229.62,704.98 229.7,704.98 C 229.83,704.98 229.91,705.2 230.02,705.58 C 230.25,706.41 230.35,706.98 230.39,707.29 C 230.41,707.42 230.43,707.55 230.47,707.68 C 230.79,708.67 231.43,710.15 231.82,710.94 C 231.9,711.06 232.01,711.28 232.01,711.32 C 232.01,711.42 231.91,711.42 231.9,711.42 C 231.87,711.42 231.8,711.42 231.78,711.35 C 231.26,710.4 230.86,709.4 230.46,708.4 C 230.45,708.71 230.44,709.46 230.05,710.43 C 229.81,711.04 229.41,711.53 228.73,711.53 C 227.48,711.53 226.78,710.01 226.78,709.7 C 226.78,709.6 226.87,709.6 226.97,709.6 L 227.01,709.65 z"
   id="path3436"
   style="fill:#000000;stroke-width:0" />
<path
   d="M 232.69,709.61 L 232.69,709.61 L 232.68,709.6 L 232.68,709.59 L 232.68,709.58 L 232.68,709.57 L 232.68,709.56 L 232.67,709.56 L 232.67,709.55 L 232.67,709.54 L 232.67,709.54 L 232.67,709.53 L 232.67,709.52 L 232.67,709.52 L 232.67,709.51 L 232.67,709.51 L 232.66,709.5 L 232.66,709.5 L 232.66,709.5 L 232.66,709.49 L 232.66,709.49 L 232.66,709.49 L 232.66,709.48 L 232.66,709.48 L 232.66,709.48 L 232.66,709.48 L 232.66,709.48 L 232.66,709.47 L 232.66,709.47 L 232.66,709.47 L 232.66,709.47 L 232.66,709.47 L 232.66,709.47 C 232.66,709.32 232.79,709.24 232.9,709.24 C 233.15,709.24 233.21,709.47 233.23,709.59 C 233.25,709.63 233.39,710.19 233.55,710.87 C 233.77,710.72 234.05,710.67 234.3,710.67 C 234.9,710.67 235.29,711.16 235.3,711.17 C 235.44,710.69 235.92,710.67 236.02,710.67 C 236.27,710.67 236.45,710.82 236.57,711.04 C 236.73,711.31 236.82,711.71 236.82,711.73 C 236.82,711.83 236.73,711.83 236.71,711.83 C 236.61,711.83 236.6,711.8 236.55,711.61 C 236.47,711.28 236.34,710.86 236.04,710.86 C 235.86,710.86 235.81,711.02 235.81,711.21 C 235.81,711.32 235.87,711.57 235.92,711.76 C 235.97,711.94 236.04,712.23 236.07,712.38 L 236.23,713 C 236.27,713.18 236.35,713.48 236.35,713.52 C 236.35,713.66 236.24,713.74 236.12,713.74 C 236.04,713.74 235.91,713.71 235.83,713.58 C 235.81,713.53 235.76,713.31 235.72,713.17 L 235.58,712.59 C 235.48,712.19 235.45,712.08 235.36,711.72 C 235.31,711.55 235.31,711.53 235.25,711.44 C 235.03,711.14 234.73,710.86 234.33,710.86 C 233.76,710.86 233.76,711.36 233.76,711.48 C 233.76,711.66 233.78,711.76 233.88,712.13 C 233.94,712.44 233.96,712.49 234.03,712.76 L 234.13,713.15 C 234.16,713.3 234.23,713.56 234.23,713.59 C 234.23,713.72 234.13,713.81 233.99,713.81 C 233.74,713.81 233.68,713.57 233.66,713.48 L 232.69,709.61 z"
   id="path3438"
   style="fill:#000000;stroke-width:0" />
<path
   d="M 240.95,704.73 L 240.95,704.74 L 240.95,704.74 L 240.95,704.75 L 240.95,704.75 L 240.95,704.75 L 240.95,704.75 L 240.95,704.76 L 240.94,704.76 L 240.94,704.77 L 240.94,704.77 L 240.94,704.77 L 240.94,704.78 L 240.93,704.78 L 240.93,704.79 L 240.92,704.79 L 240.92,704.8 L 240.91,704.81 L 240.91,704.81 L 240.91,704.82 L 240.9,704.82 L 240.9,704.83 L 240.9,704.83 L 240.89,704.84 L 240.89,704.84 L 240.88,704.84 L 240.88,704.85 L 240.87,704.85 L 240.87,704.86 L 240.86,704.86 L 240.86,704.87 L 240.85,704.88 L 240.85,704.88 L 240.84,704.89 L 240.84,704.89 L 240.83,704.9 L 240.82,704.91 L 240.82,704.91 L 240.81,704.92 L 240.8,704.93 L 240.8,704.94 L 240.79,704.94 L 240.78,704.95 C 239.54,706.21 239.22,708.09 239.22,709.61 C 239.22,711.35 239.6,713.08 240.82,714.33 C 240.95,714.45 240.95,714.47 240.95,714.49 C 240.95,714.57 240.91,714.59 240.85,714.59 C 240.75,714.59 239.85,713.92 239.27,712.65 C 238.76,711.56 238.64,710.45 238.64,709.61 C 238.64,708.84 238.75,707.63 239.3,706.51 C 239.89,705.28 240.75,704.63 240.85,704.63 C 240.91,704.63 240.95,704.66 240.95,704.73 z"
   id="path3440"
   style="fill:#000000;stroke-width:0" />
<path
   d="M 244.46,713.5 L 244.46,713.51 L 244.46,713.52 L 244.46,713.53 L 244.46,713.54 L 244.46,713.55 L 244.46,713.56 L 244.46,713.57 L 244.46,713.58 L 244.46,713.59 L 244.46,713.6 L 244.46,713.6 L 244.46,713.61 L 244.46,713.62 L 244.46,713.63 L 244.46,713.63 L 244.46,713.64 L 244.45,713.65 L 244.45,713.65 L 244.45,713.66 L 244.45,713.68 L 244.45,713.69 L 244.44,713.7 L 244.44,713.7 L 244.44,713.71 L 244.43,713.72 L 244.42,713.72 L 244.42,713.73 L 244.41,713.73 L 244.4,713.74 L 244.39,713.74 L 244.39,713.74 L 244.38,713.75 L 244.38,713.75 L 244.37,713.75 L 244.37,713.75 L 244.36,713.75 L 244.36,713.75 L 244.35,713.75 L 244.34,713.75 L 244.34,713.75 L 244.33,713.76 L 244.32,713.76 L 244.31,713.76 L 244.31,713.76 L 244.3,713.76 L 244.29,713.76 L 244.28,713.76 L 244.27,713.76 L 244.26,713.76 L 244.25,713.76 L 244.24,713.76 L 244.23,713.76 C 243.61,713.12 242.74,713.12 242.42,713.12 L 242.42,712.81 C 242.62,712.81 243.2,712.81 243.72,713.07 L 243.72,707.91 C 243.72,707.55 243.69,707.43 242.79,707.43 L 242.48,707.43 L 242.48,707.12 C 242.82,707.15 243.69,707.15 244.09,707.15 C 244.49,707.15 245.36,707.15 245.7,707.12 L 245.7,707.43 L 245.39,707.43 C 244.49,707.43 244.46,707.54 244.46,707.91 L 244.46,713.5 z"
   id="path3442"
   style="fill:#000000;stroke-width:0" />
<path
   d="M 255.31,709.41 L 255.32,709.41 L 255.33,709.41 L 255.36,709.41 L 255.39,709.42 L 255.4,709.42 L 255.42,709.42 L 255.43,709.42 L 255.45,709.42 L 255.46,709.42 L 255.47,709.42 L 255.49,709.43 L 255.5,709.43 L 255.51,709.43 L 255.52,709.44 L 255.54,709.44 L 255.55,709.45 L 255.56,709.46 L 255.57,709.46 L 255.58,709.47 L 255.59,709.48 L 255.6,709.49 L 255.6,709.49 L 255.61,709.5 L 255.61,709.5 L 255.61,709.51 L 255.62,709.51 L 255.62,709.52 L 255.62,709.53 L 255.62,709.53 L 255.63,709.54 L 255.63,709.55 L 255.63,709.55 L 255.63,709.56 L 255.63,709.57 L 255.63,709.58 L 255.64,709.59 L 255.64,709.59 L 255.64,709.6 L 255.64,709.61 C 255.64,709.81 255.45,709.81 255.31,709.81 L 249.88,709.81 C 249.74,709.81 249.55,709.81 249.55,709.61 C 249.55,709.41 249.74,709.41 249.88,709.41 L 255.31,709.41 z"
   id="path3444"
   style="fill:#000000;stroke-width:0" />
<path
   d="M 259.1,709.65 L 259.12,709.71 L 259.14,709.76 L 259.16,709.81 L 259.18,709.85 L 259.2,709.9 L 259.22,709.95 L 259.25,709.99 L 259.27,710.03 L 259.3,710.07 L 259.33,710.11 L 259.35,710.15 L 259.38,710.19 L 259.44,710.25 L 259.49,710.32 L 259.55,710.38 L 259.62,710.43 L 259.68,710.48 L 259.74,710.52 L 259.81,710.56 L 259.87,710.6 L 259.93,710.63 L 260,710.66 L 260.06,710.69 L 260.12,710.71 L 260.18,710.73 L 260.24,710.75 L 260.29,710.76 L 260.34,710.77 L 260.4,710.78 L 260.44,710.79 L 260.49,710.8 L 260.53,710.8 L 260.57,710.8 L 260.6,710.81 L 260.63,710.81 L 260.65,710.81 L 260.67,710.81 L 260.68,710.81 C 262.19,710.81 262.3,709.07 262.3,708.28 C 262.3,707.67 262.25,707.5 262.18,707.3 C 261.96,706.58 261.66,705.42 261.66,705.16 C 261.66,705.05 261.71,704.98 261.79,704.98 C 261.92,704.98 262,705.2 262.11,705.58 C 262.34,706.41 262.44,706.98 262.48,707.29 C 262.5,707.42 262.52,707.55 262.56,707.68 C 262.87,708.67 263.51,710.15 263.91,710.94 C 263.98,711.06 264.1,711.28 264.1,711.32 C 264.1,711.42 264,711.42 263.98,711.42 C 263.95,711.42 263.89,711.42 263.86,711.35 C 263.34,710.4 262.94,709.4 262.55,708.4 C 262.54,708.71 262.53,709.46 262.14,710.43 C 261.9,711.04 261.5,711.53 260.81,711.53 C 259.57,711.53 258.87,710.01 258.87,709.7 C 258.87,709.6 258.96,709.6 259.06,709.6 L 259.1,709.65 z"
   id="path3446"
   style="fill:#000000;stroke-width:0" />
<path
   d="M 264.92,709.52 L 264.96,709.51 L 264.99,709.51 L 265.02,709.5 L 265.05,709.49 L 265.08,709.49 L 265.11,709.48 L 265.14,709.47 L 265.16,709.47 L 265.19,709.46 L 265.22,709.46 L 265.24,709.46 L 265.26,709.45 L 265.29,709.45 L 265.31,709.45 L 265.33,709.44 L 265.35,709.44 L 265.37,709.44 L 265.39,709.44 L 265.41,709.44 L 265.43,709.44 L 265.45,709.43 L 265.47,709.43 L 265.48,709.43 L 265.5,709.43 L 265.51,709.43 L 265.53,709.43 L 265.54,709.43 L 265.55,709.43 L 265.57,709.43 L 265.58,709.43 L 265.59,709.43 L 265.6,709.43 C 266.52,709.43 267.06,710.06 267.06,710.16 C 267.06,710.24 267.02,710.26 266.98,710.26 C 266.97,710.26 266.95,710.26 266.92,710.24 C 266.76,710.18 266.39,710.04 265.87,710.04 C 265.68,710.04 265.31,710.05 264.85,710.23 C 264.78,710.26 264.77,710.26 264.76,710.26 C 264.67,710.26 264.67,710.18 264.67,710.07 L 264.67,708.02 C 264.67,707.9 264.67,707.81 264.78,707.81 C 264.85,707.81 264.85,707.83 264.92,707.91 C 265.22,708.29 265.65,708.35 265.89,708.35 C 266.31,708.35 266.5,708.02 266.53,707.96 C 266.66,707.73 266.7,707.46 266.7,707.06 C 266.7,706.85 266.7,706.44 266.49,706.13 C 266.32,705.88 266.02,705.71 265.68,705.71 C 265.22,705.71 264.76,705.97 264.58,706.42 C 264.85,706.4 264.98,706.58 264.98,706.77 C 264.98,707.07 264.72,707.12 264.63,707.12 C 264.62,707.12 264.28,707.12 264.28,706.75 C 264.28,706.12 264.85,705.49 265.69,705.49 C 266.58,705.49 267.36,706.15 267.36,707.03 C 267.36,707.82 266.77,708.54 265.9,708.54 C 265.59,708.54 265.23,708.47 264.92,708.2 L 264.92,709.52 z"
   id="path3448"
   style="fill:#000000;stroke-width:0" />
<path
   d="M 271.19,709.61 L 271.19,709.69 L 271.19,709.76 L 271.19,709.84 L 271.19,709.92 L 271.18,710.09 L 271.17,710.27 L 271.15,710.45 L 271.13,710.64 L 271.1,710.84 L 271.07,711.04 L 271.03,711.24 L 270.98,711.45 L 270.93,711.66 L 270.87,711.87 L 270.8,712.08 L 270.72,712.3 L 270.68,712.4 L 270.63,712.51 L 270.58,712.62 L 270.53,712.72 C 269.94,713.95 269.08,714.59 268.98,714.59 C 268.92,714.59 268.88,714.55 268.88,714.49 C 268.88,714.47 268.88,714.45 269.07,714.27 C 270.05,713.28 270.61,711.7 270.61,709.61 C 270.61,707.91 270.24,706.16 269.01,704.9 C 268.88,704.78 268.88,704.76 268.88,704.73 C 268.88,704.67 268.92,704.63 268.98,704.63 C 269.08,704.63 269.98,705.31 270.56,706.58 C 271.07,707.67 271.19,708.78 271.19,709.61 z"
   id="path3450"
   style="fill:#000000;stroke-width:0" />
<path
   d="M 274.42,711.42 L 274.42,711.42 L 274.42,711.42 L 274.42,711.42 L 274.42,711.42 L 274.42,711.42 L 274.42,711.43 L 274.42,711.43 L 274.42,711.43 L 274.42,711.44 L 274.42,711.44 L 274.42,711.45 L 274.42,711.45 L 274.42,711.46 L 274.41,711.46 L 274.41,711.46 L 274.41,711.47 L 274.41,711.47 L 274.4,711.48 L 274.4,711.48 L 274.39,711.49 L 274.39,711.49 L 274.39,711.5 L 274.39,711.5 L 274.38,711.5 L 274.38,711.5 L 274.38,711.5 L 274.37,711.51 L 274.37,711.51 L 274.37,711.51 L 274.36,711.51 L 274.36,711.51 L 274.36,711.52 L 274.35,711.52 L 274.35,711.52 L 274.34,711.52 L 274.34,711.52 L 274.33,711.52 L 274.33,711.52 L 274.33,711.52 L 274.32,711.52 L 274.31,711.52 L 274.31,711.53 L 274.3,711.53 L 274.3,711.53 L 274.29,711.53 C 274.06,711.53 273.34,711.45 273.08,711.43 C 273,711.42 272.89,711.41 272.89,711.23 C 272.89,711.11 272.98,711.11 273.13,711.11 C 273.61,711.11 273.62,711.04 273.62,710.94 C 273.62,710.87 273.51,710.4 273.43,710.13 L 272.83,707.69 C 272.79,707.54 272.72,707.26 272.72,707.24 C 272.72,707.13 272.82,707.12 272.88,707.12 L 273.02,707.12 C 273.71,707.24 274.8,707.63 275.83,708.59 C 277.14,709.81 277.41,711.17 277.41,711.26 C 277.41,711.43 277.29,711.53 277.12,711.53 C 277.04,711.53 276.81,711.49 276.73,711.2 C 276.1,708.94 274.58,707.82 273.45,707.45 L 274.42,711.42 z"
   id="path3452"
   style="fill:#000000;stroke-width:0" />
<path
   d="M 279.08,710.26 L 279.08,710.26 L 279.08,710.26 L 279.08,710.26 L 279.08,710.26 L 279.08,710.27 L 279.08,710.27 L 279.08,710.27 L 279.08,710.27 L 279.08,710.27 L 279.08,710.28 L 279.08,710.28 L 279.08,710.28 L 279.09,710.29 L 279.09,710.29 L 279.09,710.3 L 279.09,710.3 L 279.09,710.31 L 279.09,710.31 L 279.09,710.32 L 279.1,710.33 L 279.1,710.33 L 279.1,710.34 L 279.1,710.34 L 279.1,710.35 L 279.1,710.35 L 279.1,710.35 L 279.1,710.36 L 279.1,710.36 L 279.1,710.36 L 279.1,710.36 L 279.1,710.36 L 279.1,710.37 L 279.1,710.37 L 279.1,710.37 L 279.1,710.37 L 279.1,710.37 L 279.1,710.37 L 279.1,710.37 L 279.1,710.37 L 279.11,710.37 C 279.11,710.41 279.08,710.47 278.99,710.47 C 278.85,710.47 278.27,710.41 278.1,710.4 C 278.05,710.39 277.95,710.39 277.95,710.24 C 277.95,710.14 278.05,710.14 278.13,710.14 C 278.46,710.14 278.46,710.09 278.46,710.04 C 278.46,709.99 278.45,709.95 278.43,709.88 L 277.57,706.44 C 277.55,706.37 277.54,706.29 277.54,706.22 C 277.54,705.78 277.94,705.56 278.27,705.56 C 278.44,705.56 278.65,705.62 278.83,705.93 C 278.98,706.19 279.08,706.6 279.08,706.63 C 279.08,706.72 278.99,706.72 278.96,706.72 C 278.87,706.72 278.85,706.68 278.83,706.55 C 278.73,706.2 278.6,705.76 278.3,705.76 C 278.11,705.76 278.07,705.93 278.07,706.1 C 278.07,706.17 278.09,706.31 278.11,706.38 L 279.08,710.26 z"
   id="path3454"
   style="fill:#000000;stroke-width:0" />
<path
   d="M 289.31,712.77 L 289.35,712.85 L 289.4,712.93 L 289.45,713.01 L 289.5,713.08 L 289.52,713.12 L 289.55,713.15 L 289.58,713.19 L 289.6,713.22 L 289.63,713.25 L 289.66,713.28 L 289.69,713.31 L 289.72,713.34 L 289.75,713.37 L 289.79,713.39 L 289.82,713.42 L 289.86,713.44 L 289.9,713.47 L 289.94,713.49 L 289.98,713.51 L 290.02,713.53 L 290.06,713.54 L 290.11,713.56 L 290.15,713.57 L 290.2,713.59 L 290.26,713.6 L 290.31,713.61 L 290.36,713.61 L 290.42,713.62 C 290.51,713.63 290.61,713.63 290.61,713.82 C 290.61,713.86 290.57,713.93 290.49,713.93 C 290.25,713.93 289.97,713.9 289.72,713.9 C 289.39,713.9 289.02,713.93 288.69,713.93 C 288.63,713.93 288.5,713.93 288.5,713.74 C 288.5,713.63 288.59,713.62 288.65,713.62 C 288.89,713.61 289.24,713.53 289.24,713.23 C 289.24,713.12 289.19,713.04 289.11,712.9 L 286.42,708.21 L 286.05,713.15 C 286.04,713.35 286.02,713.61 286.74,713.62 C 286.92,713.62 287.01,713.62 287.01,713.82 C 287.01,713.92 286.9,713.93 286.86,713.93 C 286.47,713.93 286.05,713.9 285.65,713.9 C 285.42,713.9 284.83,713.93 284.6,713.93 C 284.54,713.93 284.41,713.93 284.41,713.73 C 284.41,713.62 284.51,713.62 284.65,713.62 C 285.09,713.62 285.16,713.56 285.18,713.37 L 285.24,712.6 L 282.72,708.21 L 282.34,713.26 C 282.34,713.38 282.34,713.61 283.1,713.62 C 283.2,713.62 283.31,713.62 283.31,713.82 C 283.31,713.93 283.19,713.93 283.17,713.93 C 282.77,713.93 282.35,713.9 281.94,713.9 C 281.6,713.9 281.24,713.93 280.9,713.93 C 280.85,713.93 280.72,713.93 280.72,713.74 C 280.72,713.62 280.81,713.62 280.97,713.62 C 281.46,713.62 281.48,713.53 281.49,713.25 L 281.94,707.16 C 281.95,706.98 281.96,706.9 282.1,706.9 C 282.22,706.9 282.25,706.96 282.34,707.11 L 285.27,712.19 L 285.64,707.16 C 285.66,706.95 285.68,706.9 285.8,706.9 C 285.93,706.9 285.99,707 286.04,707.09 L 289.31,712.77 z"
   id="path3456"
   style="fill:#000000;stroke-width:0" />
<path
   d="M 296.17,712.31 L 296.18,712.31 L 296.19,712.31 L 296.2,712.31 L 296.21,712.31 L 296.22,712.31 L 296.23,712.32 L 296.24,712.32 L 296.25,712.32 L 296.26,712.32 L 296.27,712.32 L 296.28,712.32 L 296.29,712.32 L 296.3,712.33 L 296.31,712.33 L 296.33,712.33 L 296.34,712.33 L 296.34,712.34 L 296.35,712.34 L 296.36,712.35 L 296.37,712.35 L 296.38,712.36 L 296.39,712.37 L 296.4,712.38 L 296.4,712.38 L 296.4,712.38 L 296.41,712.39 L 296.41,712.39 L 296.41,712.4 L 296.41,712.4 L 296.42,712.41 L 296.42,712.41 L 296.42,712.42 L 296.42,712.43 L 296.42,712.43 L 296.43,712.44 L 296.43,712.44 L 296.43,712.45 L 296.43,712.46 L 296.43,712.47 L 296.43,712.47 L 296.43,712.48 C 296.43,712.66 296.27,712.66 296.17,712.66 L 291.97,712.66 C 291.88,712.66 291.72,712.66 291.72,712.48 C 291.72,712.31 291.88,712.31 291.97,712.31 L 296.17,712.31 z"
   id="path3458"
   style="fill:#000000;stroke-width:0" />
<path
   d="M 289.95,703.54 L 289.95,703.53 L 289.95,703.52 L 289.94,703.51 L 289.94,703.5 L 289.94,703.5 L 289.94,703.49 L 289.94,703.48 L 289.94,703.47 L 289.93,703.47 L 289.93,703.46 L 289.93,703.45 L 289.93,703.45 L 289.93,703.44 L 289.93,703.44 L 289.93,703.43 L 289.93,703.43 L 289.93,703.43 L 289.93,703.42 L 289.93,703.42 L 289.93,703.41 L 289.93,703.41 L 289.92,703.41 L 289.92,703.41 L 289.92,703.4 L 289.92,703.4 L 289.92,703.4 L 289.92,703.4 L 289.92,703.4 L 289.92,703.4 L 289.92,703.39 L 289.92,703.39 L 289.92,703.39 C 289.92,703.24 290.05,703.17 290.16,703.17 C 290.41,703.17 290.47,703.4 290.5,703.52 C 290.51,703.55 290.65,704.11 290.82,704.79 C 291.03,704.65 291.31,704.59 291.56,704.59 C 292.16,704.59 292.55,705.08 292.57,705.09 C 292.7,704.61 293.18,704.59 293.29,704.59 C 293.54,704.59 293.71,704.75 293.84,704.96 C 293.99,705.23 294.08,705.63 294.08,705.66 C 294.08,705.75 293.99,705.75 293.97,705.75 C 293.87,705.75 293.86,705.72 293.82,705.53 C 293.73,705.2 293.6,704.79 293.31,704.79 C 293.12,704.79 293.08,704.94 293.08,705.13 C 293.08,705.25 293.13,705.5 293.18,705.68 C 293.23,705.87 293.3,706.16 293.33,706.31 L 293.49,706.93 C 293.54,707.1 293.61,707.41 293.61,707.45 C 293.61,707.59 293.5,707.67 293.38,707.67 C 293.31,707.67 293.17,707.63 293.1,707.5 C 293.08,707.46 293.02,707.24 292.98,707.1 L 292.84,706.52 C 292.74,706.11 292.71,706.01 292.62,705.65 C 292.57,705.47 292.57,705.46 292.51,705.37 C 292.3,705.06 291.99,704.79 291.59,704.79 C 291.02,704.79 291.02,705.28 291.02,705.41 C 291.02,705.59 291.04,705.68 291.14,706.06 C 291.21,706.36 291.22,706.41 291.29,706.68 L 291.39,707.08 C 291.42,707.22 291.49,707.49 291.49,707.52 C 291.49,707.64 291.39,707.74 291.26,707.74 C 291.01,707.74 290.94,707.49 290.92,707.41 L 289.95,703.54 z"
   id="path3460"
   style="fill:#000000;stroke-width:0" />
</g>    <path
       sodipodi:nodetypes="ccc"
       id="path10801"
       d="M 358.06531,426.39502 L 398.047,479.06605 L 438.29824,532.09218"
       style="fill:none;fill-rule:evenodd;stroke:#000000;stroke-width:1px;stroke-linecap:butt;stroke-linejoin:miter;marker-mid:url(#Arrow1Lstart);stroke-opacity:1;display:inline" />
    <g
       xml:space="preserve"
       id="g10877"
       transform="matrix(3,0,0,-3,-450.22136,2587.9449)"
       stroke-miterlimit="10.433"
       fill-rule="even-odd"
       font-style="normal"
       font-variant="normal"
       font-weight="normal"
       font-stretch="normal"
       font-size-adjust="none"
       letter-spacing="normal"
       word-spacing="normal"
       ns0:text="$W^+$"
       ns0:preamble=""
       style="font-style:normal;font-variant:normal;font-weight:normal;font-stretch:normal;letter-spacing:normal;word-spacing:normal;text-anchor:start;fill:none;fill-opacity:1;stroke:#000000;stroke-linecap:butt;stroke-linejoin:miter;stroke-miterlimit:10.43299961;stroke-dasharray:none;stroke-dashoffset:0;stroke-opacity:1">
<path
   d="M 232.57,712.77 L 232.61,712.85 L 232.66,712.93 L 232.71,713.01 L 232.76,713.08 L 232.78,713.12 L 232.81,713.15 L 232.84,713.19 L 232.86,713.22 L 232.89,713.25 L 232.92,713.28 L 232.95,713.31 L 232.98,713.34 L 233.02,713.37 L 233.05,713.39 L 233.08,713.42 L 233.12,713.44 L 233.16,713.47 L 233.2,713.49 L 233.24,713.51 L 233.28,713.53 L 233.32,713.54 L 233.37,713.56 L 233.42,713.57 L 233.47,713.59 L 233.52,713.6 L 233.57,713.61 L 233.63,713.61 L 233.68,713.62 C 233.77,713.63 233.87,713.63 233.87,713.82 C 233.87,713.86 233.83,713.93 233.75,713.93 C 233.51,713.93 233.24,713.9 232.99,713.9 C 232.65,713.9 232.28,713.93 231.95,713.93 C 231.89,713.93 231.76,713.93 231.76,713.74 C 231.76,713.63 231.85,713.62 231.91,713.62 C 232.15,713.61 232.5,713.53 232.5,713.23 C 232.5,713.12 232.45,713.04 232.37,712.9 L 229.68,708.21 L 229.31,713.15 C 229.3,713.35 229.28,713.61 230.01,713.62 C 230.18,713.62 230.28,713.62 230.28,713.82 C 230.28,713.92 230.17,713.93 230.13,713.93 C 229.73,713.93 229.31,713.9 228.91,713.9 C 228.68,713.9 228.1,713.93 227.87,713.93 C 227.81,713.93 227.68,713.93 227.68,713.73 C 227.68,713.62 227.78,713.62 227.92,713.62 C 228.35,713.62 228.42,713.56 228.44,713.37 L 228.5,712.6 L 225.98,708.21 L 225.6,713.26 C 225.6,713.38 225.6,713.61 226.36,713.62 C 226.46,713.62 226.57,713.62 226.57,713.82 C 226.57,713.93 226.45,713.93 226.43,713.93 C 226.03,713.93 225.61,713.9 225.21,713.9 C 224.86,713.9 224.5,713.93 224.16,713.93 C 224.11,713.93 223.98,713.93 223.98,713.74 C 223.98,713.62 224.07,713.62 224.23,713.62 C 224.73,713.62 224.74,713.53 224.76,713.25 L 225.21,707.16 C 225.22,706.98 225.23,706.9 225.37,706.9 C 225.49,706.9 225.51,706.96 225.6,707.11 L 228.53,712.19 L 228.9,707.16 C 228.92,706.95 228.94,706.9 229.06,706.9 C 229.19,706.9 229.25,707 229.3,707.09 L 232.57,712.77 z"
   id="path10879"
   style="fill:#000000;stroke-width:0" />
<path
   d="M 237.45,712.31 L 239.59,712.31 C 239.68,712.31 239.85,712.31 239.85,712.48 C 239.85,712.66 239.69,712.66 239.59,712.66 L 237.45,712.66 L 237.45,714.8 C 237.45,714.89 237.45,715.05 237.29,715.05 C 237.11,715.05 237.11,714.89 237.11,714.8 L 237.11,712.66 L 234.97,712.66 C 234.88,712.66 234.71,712.66 234.71,712.49 C 234.71,712.31 234.87,712.31 234.97,712.31 L 237.11,712.31 L 237.11,710.17 C 237.11,710.08 237.11,709.91 237.28,709.91 C 237.45,709.91 237.45,710.08 237.45,710.17 L 237.45,712.31 z"
   id="path10881"
   style="fill:#000000;stroke-width:0" />
</g>    <g
       style="font-style:normal;font-variant:normal;font-weight:normal;font-stretch:normal;letter-spacing:normal;word-spacing:normal;text-anchor:start;fill:none;fill-opacity:1;stroke:#000000;stroke-linecap:butt;stroke-linejoin:miter;stroke-miterlimit:10.43299961;stroke-dasharray:none;stroke-dashoffset:0;stroke-opacity:1;display:inline"
       word-spacing="normal"
       letter-spacing="normal"
       font-size-adjust="none"
       font-stretch="normal"
       font-weight="normal"
       font-variant="normal"
       font-style="normal"
       fill-rule="even-odd"
       stroke-miterlimit="10.433"
       xml:space="preserve"
       transform="matrix(-5.2156381e-3,-1.2504957,-0.973881,4.0619403e-3,1203.3972,798.33236)"
       id="g12054">
<polyline
   style="fill:#ffffff;fill-rule:nonzero;stroke:#ffffff;stroke-width:0"
   id="polyline12056"
   points="276,569 318.6,569 318.6,719.48 276,719.48 " />
<path
   style="stroke-width:0.5"
   id="path12058"
   d="M 298.88,716.88 C 308.88,712.48 308.88,710.92 298.88,706.52" />
<path
   style="stroke-width:0.5"
   id="path12060"
   d="M 298.88,706.52 C 288.88,702.13 288.88,700.56 298.88,696.16" />
<path
   style="stroke-width:0.5"
   id="path12062"
   d="M 298.88,696.16 C 308.88,691.77 308.88,690.2 298.88,685.81" />
<path
   style="stroke-width:0.5"
   id="path12064"
   d="M 298.88,685.81 C 288.88,681.41 288.88,679.85 298.88,675.45" />
<path
   style="stroke-width:0.5"
   id="path12066"
   d="M 298.88,675.45 C 308.88,671.05 308.88,669.49 298.88,665.09" />
<path
   style="stroke-width:0.5"
   id="path12068"
   d="M 298.88,665.09 C 288.88,660.7 288.88,659.13 298.88,654.74" />
<path
   style="stroke-width:0.5"
   id="path12070"
   d="M 298.88,654.74 C 308.88,650.34 308.88,648.78 298.88,644.38" />
<path
   style="stroke-width:0.5"
   id="path12072"
   d="M 298.88,644.38 C 288.88,639.98 288.88,638.42 298.88,634.02" />
<path
   style="stroke-width:0.5"
   id="path12074"
   d="M 298.88,634.02 C 308.88,629.63 308.88,628.06 298.88,623.66" />
<path
   style="stroke-width:0.5"
   id="path12076"
   d="M 298.88,623.66 C 288.88,619.27 288.88,617.7 298.88,613.31" />
<path
   style="stroke-width:0.5"
   id="path12078"
   d="M 298.88,613.31 C 308.88,608.91 308.88,607.35 298.88,602.95" />
<path
   style="stroke-width:0.5"
   id="path12080"
   d="M 298.88,602.95 C 288.88,598.55 288.88,596.99 298.88,592.59" />
<path
   style="stroke-width:0.5"
   id="path12082"
   d="M 298.88,592.59 C 308.88,588.2 308.88,586.63 298.88,582.24" />
<path
   style="stroke-width:0.5"
   id="path12084"
   d="M 298.88,582.24 C 288.88,577.84 288.88,576.28 298.88,571.88" />
<polyline
   style="fill:#ffffff;fill-rule:nonzero;stroke:#ffffff;stroke-width:0"
   id="polyline12086"
   points="276,720 319.32,720 319.32,720.48 276,720.48 " />
<polyline
   style="fill:#ffffff;fill-rule:nonzero;stroke:#ffffff;stroke-width:0"
   id="polyline12088"
   points="276,569 276.48,569 276.48,719.84 276,719.84 " />
<polyline
   style="fill:#ffffff;fill-rule:nonzero;stroke:#ffffff;stroke-width:0"
   id="polyline12090"
   points="319,569 319.48,569 319.48,719.84 319,719.84 " />
<polyline
   style="fill:#ffffff;fill-rule:nonzero;stroke:#ffffff;stroke-width:0"
   id="polyline12092"
   points="276,569 319.32,569 319.32,569.48 276,569.48 " />
</g>    <path
       sodipodi:nodetypes="ccc"
       id="path12094"
       d="M 644.06574,428.79268 L 684.04743,376.12165 L 724.29867,323.09552"
       style="fill:none;fill-rule:evenodd;stroke:#000000;stroke-width:1px;stroke-linecap:butt;stroke-linejoin:miter;marker-mid:url(#Arrow1Lstart);stroke-opacity:1;display:inline" />
    <path
       style="fill:none;fill-rule:evenodd;stroke:#000000;stroke-width:1px;stroke-linecap:butt;stroke-linejoin:miter;marker-mid:url(#Arrow1Lend);stroke-opacity:1;display:inline"
       d="M 644.06574,426.39502 L 684.04743,479.06605 L 724.29867,532.09218"
       id="path12096"
       sodipodi:nodetypes="ccc" />
    <g
       ns0:preamble=""
       ns0:text="$W^-$"
       word-spacing="normal"
       letter-spacing="normal"
       font-size-adjust="none"
       font-stretch="normal"
       font-weight="normal"
       font-variant="normal"
       font-style="normal"
       fill-rule="even-odd"
       stroke-miterlimit="10.433"
       transform="matrix(3,0,0,-3,-139.78244,2592.7453)"
       id="g12217"
       xml:space="preserve"
       style="font-style:normal;font-variant:normal;font-weight:normal;font-stretch:normal;letter-spacing:normal;word-spacing:normal;text-anchor:start;fill:none;fill-opacity:1;stroke:#000000;stroke-linecap:butt;stroke-linejoin:miter;stroke-miterlimit:10.43299961;stroke-dasharray:none;stroke-dashoffset:0;stroke-opacity:1">
<path
   id="path12219"
   d="M 232.57,712.77 L 232.61,712.85 L 232.66,712.93 L 232.71,713.01 L 232.76,713.08 L 232.78,713.12 L 232.81,713.15 L 232.84,713.19 L 232.86,713.22 L 232.89,713.25 L 232.92,713.28 L 232.95,713.31 L 232.98,713.34 L 233.02,713.37 L 233.05,713.39 L 233.08,713.42 L 233.12,713.44 L 233.16,713.47 L 233.2,713.49 L 233.24,713.51 L 233.28,713.53 L 233.32,713.54 L 233.37,713.56 L 233.42,713.57 L 233.47,713.59 L 233.52,713.6 L 233.57,713.61 L 233.63,713.61 L 233.68,713.62 C 233.77,713.63 233.87,713.63 233.87,713.82 C 233.87,713.86 233.83,713.93 233.75,713.93 C 233.51,713.93 233.24,713.9 232.99,713.9 C 232.65,713.9 232.28,713.93 231.95,713.93 C 231.89,713.93 231.76,713.93 231.76,713.74 C 231.76,713.63 231.85,713.62 231.91,713.62 C 232.15,713.61 232.5,713.53 232.5,713.23 C 232.5,713.12 232.45,713.04 232.37,712.9 L 229.68,708.21 L 229.31,713.15 C 229.3,713.35 229.28,713.61 230.01,713.62 C 230.18,713.62 230.28,713.62 230.28,713.82 C 230.28,713.92 230.17,713.93 230.13,713.93 C 229.73,713.93 229.31,713.9 228.91,713.9 C 228.68,713.9 228.1,713.93 227.87,713.93 C 227.81,713.93 227.68,713.93 227.68,713.73 C 227.68,713.62 227.78,713.62 227.92,713.62 C 228.35,713.62 228.42,713.56 228.44,713.37 L 228.5,712.6 L 225.98,708.21 L 225.6,713.26 C 225.6,713.38 225.6,713.61 226.36,713.62 C 226.46,713.62 226.57,713.62 226.57,713.82 C 226.57,713.93 226.45,713.93 226.43,713.93 C 226.03,713.93 225.61,713.9 225.21,713.9 C 224.86,713.9 224.5,713.93 224.16,713.93 C 224.11,713.93 223.98,713.93 223.98,713.74 C 223.98,713.62 224.07,713.62 224.23,713.62 C 224.73,713.62 224.74,713.53 224.76,713.25 L 225.21,707.16 C 225.22,706.98 225.23,706.9 225.37,706.9 C 225.49,706.9 225.51,706.96 225.6,707.11 L 228.53,712.19 L 228.9,707.16 C 228.92,706.95 228.94,706.9 229.06,706.9 C 229.19,706.9 229.25,707 229.3,707.09 L 232.57,712.77 z"
   style="fill:#000000;stroke-width:0" />
<path
   id="path12221"
   d="M 239.43,712.31 L 239.44,712.31 L 239.45,712.31 L 239.46,712.31 L 239.47,712.31 L 239.48,712.31 L 239.49,712.32 L 239.5,712.32 L 239.51,712.32 L 239.52,712.32 L 239.53,712.32 L 239.54,712.32 L 239.56,712.32 L 239.57,712.33 L 239.58,712.33 L 239.59,712.33 L 239.6,712.33 L 239.61,712.34 L 239.62,712.34 L 239.63,712.35 L 239.63,712.35 L 239.64,712.36 L 239.65,712.37 L 239.66,712.38 L 239.66,712.38 L 239.66,712.38 L 239.67,712.39 L 239.67,712.39 L 239.67,712.4 L 239.68,712.4 L 239.68,712.41 L 239.68,712.41 L 239.68,712.42 L 239.68,712.43 L 239.69,712.43 L 239.69,712.44 L 239.69,712.44 L 239.69,712.45 L 239.69,712.46 L 239.69,712.47 L 239.69,712.47 L 239.69,712.48 C 239.69,712.66 239.53,712.66 239.43,712.66 L 235.24,712.66 C 235.14,712.66 234.98,712.66 234.98,712.48 C 234.98,712.31 235.15,712.31 235.24,712.31 L 239.43,712.31 z"
   style="fill:#000000;stroke-width:0" />
</g>    <g
       xml:space="preserve"
       id="g12426"
       transform="matrix(3,0,0,-3,27.76059,2597.887)"
       stroke-miterlimit="10.433"
       fill-rule="even-odd"
       font-style="normal"
       font-variant="normal"
       font-weight="normal"
       font-stretch="normal"
       font-size-adjust="none"
       letter-spacing="normal"
       word-spacing="normal"
       ns0:text="$l^-$"
       ns0:preamble=""
       style="font-style:normal;font-variant:normal;font-weight:normal;font-stretch:normal;letter-spacing:normal;word-spacing:normal;text-anchor:start;fill:none;fill-opacity:1;stroke:#000000;stroke-linecap:butt;stroke-linejoin:miter;stroke-miterlimit:10.43299961;stroke-dasharray:none;stroke-dashoffset:0;stroke-opacity:1">
<path
   d="M 226,713.93 L 226,713.93 L 226,713.93 L 226,713.93 L 226,713.93 L 226,713.93 L 226,713.94 L 226,713.94 L 226,713.94 L 226,713.95 L 226,713.95 L 226,713.96 L 226,713.96 L 226,713.97 L 225.99,713.97 L 225.99,713.98 L 225.99,713.98 L 225.99,713.99 L 225.98,713.99 L 225.98,714 L 225.98,714 L 225.97,714 L 225.97,714.01 L 225.97,714.01 L 225.96,714.01 L 225.96,714.01 L 225.96,714.02 L 225.95,714.02 L 225.95,714.02 L 225.95,714.02 L 225.94,714.02 L 225.94,714.02 L 225.94,714.03 L 225.93,714.03 L 225.93,714.03 L 225.92,714.03 L 225.92,714.03 L 225.92,714.03 L 225.91,714.03 L 225.91,714.03 L 225.9,714.04 L 225.9,714.04 L 225.89,714.04 L 225.88,714.04 L 225.88,714.04 L 225.87,714.04 C 225.64,714.04 224.92,713.96 224.66,713.94 C 224.58,713.93 224.47,713.92 224.47,713.73 C 224.47,713.62 224.57,713.62 224.72,713.62 C 225.2,713.62 225.21,713.53 225.21,713.45 L 225.18,713.25 L 223.92,708.27 C 223.89,708.16 223.87,708.09 223.87,707.93 C 223.87,707.36 224.31,707.01 224.78,707.01 C 225.11,707.01 225.35,707.21 225.52,707.57 C 225.7,707.95 225.82,708.53 225.82,708.55 C 225.82,708.65 225.73,708.65 225.7,708.65 C 225.6,708.65 225.59,708.61 225.56,708.47 C 225.4,707.82 225.21,707.23 224.81,707.23 C 224.51,707.23 224.51,707.55 224.51,707.69 C 224.51,707.93 224.52,707.98 224.57,708.17 L 226,713.93 z"
   id="path12428"
   style="fill:#000000;stroke-width:0" />
<path
   d="M 231.81,712.31 L 231.82,712.31 L 231.82,712.31 L 231.83,712.31 L 231.84,712.31 L 231.85,712.31 L 231.86,712.32 L 231.88,712.32 L 231.89,712.32 L 231.9,712.32 L 231.91,712.32 L 231.92,712.32 L 231.93,712.32 L 231.94,712.33 L 231.95,712.33 L 231.96,712.33 L 231.97,712.33 L 231.98,712.34 L 231.99,712.34 L 232,712.35 L 232.01,712.35 L 232.02,712.36 L 232.02,712.37 L 232.03,712.38 L 232.03,712.38 L 232.04,712.38 L 232.04,712.39 L 232.04,712.39 L 232.05,712.4 L 232.05,712.4 L 232.05,712.41 L 232.05,712.41 L 232.06,712.42 L 232.06,712.43 L 232.06,712.43 L 232.06,712.44 L 232.06,712.44 L 232.06,712.45 L 232.06,712.46 L 232.06,712.47 L 232.06,712.47 L 232.07,712.48 C 232.07,712.66 231.9,712.66 231.81,712.66 L 227.61,712.66 C 227.51,712.66 227.35,712.66 227.35,712.48 C 227.35,712.31 227.52,712.31 227.61,712.31 L 231.81,712.31 z"
   id="path12430"
   style="fill:#000000;stroke-width:0" />
</g>    <g
       ns0:preamble=""
       ns0:text="$\\bar{\\nu}_l$"
       word-spacing="normal"
       letter-spacing="normal"
       font-size-adjust="none"
       font-stretch="normal"
       font-weight="normal"
       font-variant="normal"
       font-style="normal"
       fill-rule="even-odd"
       stroke-miterlimit="10.433"
       transform="matrix(3,0,0,-3,10.89043,2452.0429)"
       id="g12635"
       xml:space="preserve"
       style="font-style:normal;font-variant:normal;font-weight:normal;font-stretch:normal;letter-spacing:normal;word-spacing:normal;text-anchor:start;fill:none;fill-opacity:1;stroke:#000000;stroke-linecap:butt;stroke-linejoin:miter;stroke-miterlimit:10.43299961;stroke-dasharray:none;stroke-dashoffset:0;stroke-opacity:1">
<polygon
   id="polygon12637"
   points="228.28,712.69 228.28,713 224.68,713 224.68,712.69 228.28,712.69 "
   style="fill:#000000;stroke-width:0" />
<path
   id="path12639"
   d="M 225.66,711.42 L 225.66,711.42 L 225.66,711.42 L 225.66,711.42 L 225.66,711.42 L 225.66,711.42 L 225.66,711.43 L 225.66,711.43 L 225.66,711.43 L 225.66,711.44 L 225.66,711.44 L 225.66,711.45 L 225.66,711.45 L 225.66,711.46 L 225.66,711.46 L 225.65,711.46 L 225.65,711.47 L 225.65,711.47 L 225.64,711.48 L 225.64,711.48 L 225.64,711.49 L 225.63,711.49 L 225.63,711.5 L 225.63,711.5 L 225.62,711.5 L 225.62,711.5 L 225.62,711.5 L 225.62,711.51 L 225.61,711.51 L 225.61,711.51 L 225.61,711.51 L 225.6,711.51 L 225.6,711.52 L 225.59,711.52 L 225.59,711.52 L 225.59,711.52 L 225.58,711.52 L 225.58,711.52 L 225.57,711.52 L 225.57,711.52 L 225.56,711.52 L 225.56,711.52 L 225.55,711.53 L 225.55,711.53 L 225.54,711.53 L 225.54,711.53 C 225.3,711.53 224.58,711.45 224.32,711.43 C 224.24,711.42 224.13,711.41 224.13,711.23 C 224.13,711.11 224.22,711.11 224.37,711.11 C 224.85,711.11 224.87,711.04 224.87,710.94 C 224.87,710.87 224.75,710.4 224.68,710.13 L 224.07,707.69 C 224.03,707.54 223.96,707.26 223.96,707.24 C 223.96,707.13 224.06,707.12 224.12,707.12 L 224.26,707.12 C 224.96,707.24 226.04,707.63 227.07,708.59 C 228.38,709.81 228.65,711.17 228.65,711.26 C 228.65,711.43 228.53,711.53 228.36,711.53 C 228.28,711.53 228.05,711.49 227.98,711.2 C 227.34,708.94 225.82,707.82 224.69,707.45 L 225.66,711.42 z"
   style="fill:#000000;stroke-width:0" />
<path
   id="path12641"
   d="M 230.32,710.26 L 230.32,710.26 L 230.32,710.26 L 230.32,710.26 L 230.32,710.26 L 230.32,710.27 L 230.32,710.27 L 230.32,710.27 L 230.32,710.27 L 230.32,710.27 L 230.32,710.28 L 230.33,710.28 L 230.33,710.28 L 230.33,710.29 L 230.33,710.29 L 230.33,710.3 L 230.33,710.3 L 230.33,710.31 L 230.33,710.31 L 230.34,710.32 L 230.34,710.33 L 230.34,710.33 L 230.34,710.34 L 230.34,710.34 L 230.34,710.35 L 230.34,710.35 L 230.34,710.35 L 230.34,710.36 L 230.35,710.36 L 230.35,710.36 L 230.35,710.36 L 230.35,710.36 L 230.35,710.37 L 230.35,710.37 L 230.35,710.37 L 230.35,710.37 L 230.35,710.37 L 230.35,710.37 L 230.35,710.37 L 230.35,710.37 L 230.35,710.37 C 230.35,710.41 230.32,710.47 230.24,710.47 C 230.1,710.47 229.52,710.41 229.34,710.4 C 229.29,710.39 229.2,710.39 229.2,710.24 C 229.2,710.14 229.29,710.14 229.37,710.14 C 229.71,710.14 229.71,710.09 229.71,710.04 C 229.71,709.99 229.69,709.95 229.68,709.88 L 228.81,706.44 C 228.79,706.37 228.79,706.29 228.79,706.22 C 228.79,705.78 229.18,705.56 229.52,705.56 C 229.68,705.56 229.89,705.62 230.07,705.93 C 230.22,706.19 230.32,706.6 230.32,706.63 C 230.32,706.72 230.23,706.72 230.21,706.72 C 230.11,706.72 230.1,706.68 230.07,706.55 C 229.98,706.2 229.85,705.76 229.54,705.76 C 229.36,705.76 229.31,705.93 229.31,706.1 C 229.31,706.17 229.33,706.31 229.35,706.38 L 230.32,710.26 z"
   style="fill:#000000;stroke-width:0" />
</g>    <path
       style="fill:none;fill-rule:evenodd;stroke:#000000;stroke-width:1px;stroke-linecap:butt;stroke-linejoin:miter;stroke-opacity:1;marker-start:none;marker-end:url(#Arrow1Lend)"
       d="M 69.387867,200.61158 L 116.95565,200.61158"
       id="path5720"
       transform="translate(214.06957,255.61032)"
       sodipodi:nodetypes="cc" />
    <path
       style="fill:none;fill-rule:evenodd;stroke:#000000;stroke-width:1px;stroke-linecap:butt;stroke-linejoin:miter;marker-start:none;marker-end:url(#Arrow1Lend);stroke-opacity:1"
       d="M 591.33882,463.64073 L 638.9066,463.64073"
       id="path9373"
       sodipodi:nodetypes="cc" />
    <g
       xml:space="preserve"
       id="g9718"
       transform="matrix(3,0,0,-3,-258.23984,2597.887)"
       stroke="black"
       stroke-linecap="butt"
       stroke-linejoin="miter"
       stroke-miterlimit="10.433"
       stroke-dasharray="none"
       stroke-dashoffset="0"
       stroke-opacity="1"
       fill="none"
       fill-rule="even-odd"
       fill-opacity="1"
       font-style="normal"
       font-variant="normal"
       font-weight="normal"
       font-stretch="normal"
       font-size-adjust="none"
       letter-spacing="normal"
       word-spacing="normal"
       text-anchor="start"
       ns0:text="$l^+$"
       ns0:preamble="">
<path
   d="M226,713.93 L226,713.93 L226,713.93 L226,713.93 L226,713.93 L226,713.93 L226,713.94 L226,713.94 L226,713.94 L226,713.95 L226,713.95 L226,713.96 L226,713.96 L226,713.97 L225.99,713.97 L225.99,713.98 L225.99,713.98 L225.99,713.99 L225.98,713.99 L225.98,714 L225.98,714 L225.97,714 L225.97,714.01 L225.97,714.01 L225.96,714.01 L225.96,714.01 L225.96,714.02 L225.95,714.02 L225.95,714.02 L225.95,714.02 L225.94,714.02 L225.94,714.02 L225.94,714.03 L225.93,714.03 L225.93,714.03 L225.92,714.03 L225.92,714.03 L225.92,714.03 L225.91,714.03 L225.91,714.03 L225.9,714.04 L225.9,714.04 L225.89,714.04 L225.88,714.04 L225.88,714.04 L225.87,714.04 C225.64,714.04,224.92,713.96,224.66,713.94 C224.58,713.93,224.47,713.92,224.47,713.73 C224.47,713.62,224.57,713.62,224.72,713.62 C225.2,713.62,225.21,713.53,225.21,713.45 L225.18,713.25 L223.92,708.27 C223.89,708.16,223.87,708.09,223.87,707.93 C223.87,707.36,224.31,707.01,224.78,707.01 C225.11,707.01,225.35,707.21,225.52,707.57 C225.7,707.95,225.82,708.53,225.82,708.55 C225.82,708.65,225.73,708.65,225.7,708.65 C225.6,708.65,225.59,708.61,225.56,708.47 C225.4,707.82,225.21,707.23,224.81,707.23 C224.51,707.23,224.51,707.55,224.51,707.69 C224.51,707.93,224.52,707.98,224.57,708.17 Z "
   stroke-width="0"
   fill="black"
   id="path9720" />
<path
   d="M229.83,712.31 H231.96 C232.05,712.31,232.22,712.31,232.22,712.48 C232.22,712.66,232.06,712.66,231.96,712.66 H229.83 V714.8 C229.83,714.89,229.83,715.05,229.66,715.05 C229.49,715.05,229.49,714.89,229.49,714.8 V712.66 H227.34 C227.25,712.66,227.09,712.66,227.09,712.49 C227.09,712.31,227.25,712.31,227.34,712.31 H229.49 V710.17 C229.49,710.08,229.49,709.91,229.65,709.91 C229.83,709.91,229.83,710.08,229.83,710.17 Z "
   stroke-width="0"
   fill="black"
   id="path9722" />
</g>    <g
       ns0:preamble=""
       ns0:text="${\\nu}_l$"
       text-anchor="start"
       word-spacing="normal"
       letter-spacing="normal"
       font-size-adjust="none"
       font-stretch="normal"
       font-weight="normal"
       font-variant="normal"
       font-style="normal"
       fill-opacity="1"
       fill-rule="even-odd"
       fill="none"
       stroke-opacity="1"
       stroke-dashoffset="0"
       stroke-dasharray="none"
       stroke-miterlimit="10.433"
       stroke-linejoin="miter"
       stroke-linecap="butt"
       stroke="black"
       transform="matrix(3,0,0,-3,-312.64054,2458.5889)"
       id="g9936"
       xml:space="preserve">
<path
   id="path9938"
   fill="black"
   stroke-width="0"
   d="M225.66,711.42 L225.66,711.42 L225.66,711.42 L225.66,711.42 L225.66,711.42 L225.66,711.42 L225.66,711.43 L225.66,711.43 L225.66,711.43 L225.66,711.44 L225.66,711.44 L225.66,711.45 L225.66,711.45 L225.66,711.46 L225.66,711.46 L225.65,711.46 L225.65,711.47 L225.65,711.47 L225.64,711.48 L225.64,711.48 L225.64,711.49 L225.63,711.49 L225.63,711.5 L225.63,711.5 L225.62,711.5 L225.62,711.5 L225.62,711.5 L225.62,711.51 L225.61,711.51 L225.61,711.51 L225.61,711.51 L225.6,711.51 L225.6,711.52 L225.59,711.52 L225.59,711.52 L225.59,711.52 L225.58,711.52 L225.58,711.52 L225.57,711.52 L225.57,711.52 L225.56,711.52 L225.56,711.52 L225.55,711.53 L225.55,711.53 L225.54,711.53 L225.54,711.53 C225.3,711.53,224.58,711.45,224.32,711.43 C224.24,711.42,224.13,711.41,224.13,711.23 C224.13,711.11,224.22,711.11,224.37,711.11 C224.85,711.11,224.87,711.04,224.87,710.94 C224.87,710.87,224.75,710.4,224.68,710.13 L224.07,707.69 C224.03,707.54,223.96,707.26,223.96,707.24 C223.96,707.13,224.06,707.12,224.12,707.12 H224.26 C224.96,707.24,226.04,707.63,227.07,708.59 C228.38,709.81,228.65,711.17,228.65,711.26 C228.65,711.43,228.53,711.53,228.36,711.53 C228.28,711.53,228.05,711.49,227.98,711.2 C227.34,708.94,225.82,707.82,224.69,707.45 Z " />
<path
   id="path9940"
   fill="black"
   stroke-width="0"
   d="M230.32,710.26 L230.32,710.26 L230.32,710.26 L230.32,710.26 L230.32,710.26 L230.32,710.27 L230.32,710.27 L230.32,710.27 L230.32,710.27 L230.32,710.27 L230.32,710.28 L230.33,710.28 L230.33,710.28 L230.33,710.29 L230.33,710.29 L230.33,710.3 L230.33,710.3 L230.33,710.31 L230.33,710.31 L230.34,710.32 L230.34,710.33 L230.34,710.33 L230.34,710.34 L230.34,710.34 L230.34,710.35 L230.34,710.35 L230.34,710.35 L230.34,710.36 L230.35,710.36 L230.35,710.36 L230.35,710.36 L230.35,710.36 L230.35,710.37 L230.35,710.37 L230.35,710.37 L230.35,710.37 L230.35,710.37 L230.35,710.37 L230.35,710.37 L230.35,710.37 L230.35,710.37 C230.35,710.41,230.32,710.47,230.24,710.47 C230.1,710.47,229.52,710.41,229.34,710.4 C229.29,710.39,229.2,710.39,229.2,710.24 C229.2,710.14,229.29,710.14,229.37,710.14 C229.71,710.14,229.71,710.09,229.71,710.04 C229.71,709.99,229.69,709.95,229.68,709.88 L228.81,706.44 C228.79,706.37,228.79,706.29,228.79,706.22 C228.79,705.78,229.18,705.56,229.52,705.56 C229.68,705.56,229.89,705.62,230.07,705.93 C230.22,706.19,230.32,706.6,230.32,706.63 C230.32,706.72,230.23,706.72,230.21,706.72 C230.11,706.72,230.1,706.68,230.07,706.55 C229.98,706.2,229.85,705.76,229.54,705.76 C229.36,705.76,229.31,705.93,229.31,706.1 C229.31,706.17,229.33,706.31,229.35,706.38 Z " />
</g>  </g>
</svg>
